<?xml version="1.0" standalone="no"?>
<!DOCTYPE svg PUBLIC "-//W3C//DTD SVG 1.1//EN" "http://www.w3.org/Graphics/SVG/1.1/DTD/svg11.dtd">
<svg width="1200px" height="800px" version="1.1" xmlns="http://www.w3.org/2000/svg" xmlns:inkscape="http://www.inkscape.org/namespaces/inkscape">
<g id="one" inkscape:groupmode="layer" inkscape:label="one">
<path d="M136.0 72.0 L216.0 160.0 L284.0 208.0 L348.0 272.0 L352.0 312.0 L364.0 416.0 L400.0 484.0 L460.0 636.0 L540.0 696.0 L616.0 736.0 L736.0 788.0" stroke-dasharray="" fill="none" fill-opacity="1.0" stroke="#000000" stroke-opacity="1.0" stroke-width="1.0px" stroke-linecap="butt" stroke-linejoin="miter" stroke-dashoffset="0.0px"/>
</g>
<g id="two" inkscape:groupmode="layer" inkscape:label="two">
<path d="M380.0 48.0 L404.0 200.0 L368.0 252.0 L332.0 316.0 L336.0 420.0 L436.0 704.0 L600.0 728.0 L680.0 728.0 L780.0 728.0 L960.0 676.0 L1144.0 540.0" stroke-dasharray="" fill="none" fill-opacity="1.0" stroke="#000000" stroke-opacity="1.0" stroke-width="1.0px" stroke-linecap="butt" stroke-linejoin="miter" stroke-dashoffset="0.0px"/>
<path d="M572.0 44.0 L80.0 204.0 L620.0 300.0 L80.0 404.0 L588.0 452.0 L220.0 588.0 L728.0 588.0 L524.0 800.0 L924.0 552.0 L1052.0 788.0" stroke-dasharray="" fill="none" fill-opacity="1.0" stroke="#000000" stroke-opacity="1.0" stroke-width="1.0px" stroke-linecap="butt" stroke-linejoin="miter" stroke-dashoffset="0.0px"/>
<path d="M276.0 0.0 L632.0 792.0 L56.0 92.0 L876.0 792.0 L1020.0 516.0" stroke-dasharray="" fill="none" fill-opacity="1.0" stroke="#000000" stroke-opacity="1.0" stroke-width="1.0px" stroke-linecap="butt" stroke-linejoin="miter" stroke-dashoffset="0.0px"/>
</g>
</svg>