<?xml version="1.0" standalone="no"?>
<!DOCTYPE svg PUBLIC "-//W3C//DTD SVG 1.1//EN" "http://www.w3.org/Graphics/SVG/1.1/DTD/svg11.dtd">
<svg width="1600px" height="1600px" version="1.1" xmlns="http://www.w3.org/2000/svg" xmlns:inkscape="http://www.inkscape.org/namespaces/inkscape">
<rect x="0" y="0" width="1600px" height="1600px" fill="#ffffff"/>
<g id="layer" inkscape:groupmode="layer" inkscape:label="layer">
<path d="M360.9154 998.4919 L365.2877 1019.5601 L373.2211 1039.4258 L380.978 1057.1626 L388.33 1078.9979 L1124.3368 1600.0 L1239.0846 1373.729 L1179.4376 1239.6577 L772.6752 1169.8665 L773.2733 821.8101 L761.3412 821.1789 L763.3348 753.5262 L773.5338 752.5052 L773.8412 709.7137 L775.5857 517.1606 L958.4751 516.6894 L1178.686 516.4997 L1180.5591 476.0145 L1180.4619 473.4416 L1179.8351 469.1123 L1172.6282 421.0835 L1160.198 357.2512 L1155.9503 347.9415 L1145.6723 330.015 L1143.4733 326.8568 L1139.053 324.6142 L1134.7092 320.2645 L1127.1164 304.5359 L1117.5249 293.8393 L1108.3758 287.029 L1083.3357 253.1165 L1077.6285 250.1529 L1067.8368 253.1292 L1047.3972 236.3392 L1003.5436 179.8177 L914.09 62.8783 L813.8814 0.0 L777.4691 2.6933 L767.1155 9.2567 L763.8301 17.3512 L604.5745 101.4934 L564.2601 91.3993 L541.4089 190.1008 L516.2262 207.1821 L489.1524 422.4721 L471.2483 425.1249 L467.2948 535.3585 L442.2704 541.6812 L417.7065 521.0792 L398.1437 524.7294 L415.7523 608.076 L399.7559 649.6677 L405.3843 699.4158 L399.0955 760.7515 L405.2893 923.9247 L420.3888 926.4368 L423.1778 997.0718 L360.9154 998.4919" stroke-dasharray="" fill="none" fill-opacity="1.0" stroke="#000000" stroke-opacity="1.0" stroke-width="2.0px" stroke-linecap="butt" stroke-linejoin="miter" stroke-dashoffset="0.0px"/>
</g>
</svg>