<?xml version="1.0" standalone="no"?>
<!DOCTYPE svg PUBLIC "-//W3C//DTD SVG 1.1//EN" "http://www.w3.org/Graphics/SVG/1.1/DTD/svg11.dtd">
<svg width="1600px" height="1600px" version="1.1" xmlns="http://www.w3.org/2000/svg" xmlns:inkscape="http://www.inkscape.org/namespaces/inkscape">
<rect x="0" y="0" width="1600px" height="1600px" fill="#ffffff"/>
<g id="layer" inkscape:groupmode="layer" inkscape:label="layer">
<path d="M1302.6964 1302.2217 L1281.9045 1302.597 L1259.4146 1303.003 L1240.3554 1303.347 L1203.2765 1304.0162 L1182.0687 1304.399 L1160.861 1304.7818 L1137.7473 1305.199 L1106.2822 1305.767 L1083.7923 1306.1729 L1036.0402 1307.0348 L1014.6246 1307.4214 L993.4168 1307.8042 L959.5953 1308.4147 L933.6747 1308.8825 L898.9869 1309.5086" stroke-dasharray="" fill="none" fill-opacity="1.0" stroke="#008000" stroke-opacity="1.0" stroke-width="3.0px" stroke-linecap="butt" stroke-linejoin="miter" stroke-dashoffset="0.0px"/>
<path d="M543.046 806.9998 L526.3981 819.4613 L508.3906 832.9406 L493.13 844.3637 L463.4412 866.5869 L446.4604 879.2977 L429.4795 892.0085 L410.9725 905.8616 L385.7787 924.7202 L367.7712 938.1994 L329.5365 966.8195 L312.3891 979.6549 L295.4083 992.3657 L268.3276 1012.6365 L247.5732 1028.1719 L219.799 1048.9619" stroke-dasharray="" fill="none" fill-opacity="1.0" stroke="#008000" stroke-opacity="1.0" stroke-width="3.0px" stroke-linecap="butt" stroke-linejoin="miter" stroke-dashoffset="0.0px"/>
<path d="M679.8335 1101.9985 L659.9097 1232.9063 L553.2548 1311.3835 L422.3459 1291.46 L343.8677 1184.8064 L363.7915 1053.8983 L470.4463 975.4203 L601.3552 995.3441 L679.8335 1101.9985" stroke-dasharray="" fill="none" fill-opacity="1.0" stroke="#008000" stroke-opacity="1.0" stroke-width="3.0px" stroke-linecap="butt" stroke-linejoin="miter" stroke-dashoffset="0.0px"/>
<path d="M1508.7282 1232.6353 L1510.4012 304.1332" stroke-dasharray="" fill="none" fill-opacity="1.0" stroke="#008000" stroke-opacity="1.0" stroke-width="3.0px" stroke-linecap="butt" stroke-linejoin="miter" stroke-dashoffset="0.0px"/>
<path d="M168.6681 402.8381 L175.3601 1217.5786" stroke-dasharray="" fill="none" fill-opacity="1.0" stroke="#008000" stroke-opacity="1.0" stroke-width="3.0px" stroke-linecap="butt" stroke-linejoin="miter" stroke-dashoffset="0.0px"/>
<path d="M1324.2818 756.8821 L1304.206 773.6119 L1275.7652 786.9958 L1250.6705 780.3039 L1230.5947 765.247 L1213.8648 740.1523 L1195.462 718.4035 L1177.0592 703.3466 L1146.9455 701.6736 L1115.1588 713.3845 L1083.3721 733.4603 L1053.2584 760.2281 L1028.1636 777.7944 L999.7229 791.1783 L974.6281 784.4863 L954.5523 769.4295 L937.8225 744.3347 L919.4197 722.5859 L901.0168 707.5291 L870.9031 705.8561 L839.1164 717.567 L807.3297 737.6428 L774.7066 765.6653 L754.6308 782.3951 L726.19 795.779 L701.0953 789.087 L681.0195 774.0302 L664.2896 748.9354 L645.8868 727.1866 L627.484 712.1298 L597.3703 710.4568 L565.5836 722.1677 L533.7969 742.2435 L503.6832 769.0112 L478.5884 786.5776 L450.1477 799.9614 L425.0529 793.2695 L404.9771 778.2126 L388.2473 753.1179 L369.8445 731.3691 L351.4416 716.3122 L321.3279 714.6393 L289.5412 726.3501 L257.7545 746.4259 L227.6408 773.1937" stroke-dasharray="" fill="none" fill-opacity="1.0" stroke="#008000" stroke-opacity="1.0" stroke-width="3.0px" stroke-linecap="butt" stroke-linejoin="miter" stroke-dashoffset="0.0px"/>
<path d="M229.6961 578.1336 L259.8098 551.366 L291.5965 531.2903 L323.3832 519.5794 L353.4969 521.2524 L371.8997 536.3092 L390.3025 558.0579 L407.0323 583.1526 L427.1082 598.2094 L452.2029 604.9013 L480.6436 591.5175 L505.7384 573.9512 L535.8521 547.1835 L567.6388 527.1078 L599.4255 515.397 L629.5392 517.07 L647.942 532.1268 L666.3448 553.8755 L683.0747 578.9701 L703.1505 594.027 L728.2452 600.7189 L756.686 587.335 L776.7618 570.6052 L809.385 542.5829 L841.1717 522.5071 L872.9584 510.7963 L903.0721 512.4693 L921.4749 527.5261 L939.8777 549.2748 L956.6075 574.3694 L976.6834 589.4263 L1001.7781 596.1182 L1030.2188 582.7343 L1055.3136 565.1681 L1085.4273 538.4004 L1117.214 518.3247 L1149.0007 506.6139 L1179.1144 508.2868 L1197.5172 523.3436 L1215.9201 545.0923 L1232.6499 570.187 L1252.7257 585.2438 L1277.8205 591.9357 L1306.2612 578.5519 L1326.337 561.8221" stroke-dasharray="" fill="none" fill-opacity="1.0" stroke="#008000" stroke-opacity="1.0" stroke-width="3.0px" stroke-linecap="butt" stroke-linejoin="miter" stroke-dashoffset="0.0px"/>
<path d="M1438.3722 338.0215 L1287.603 446.5514 L1132.0155 331.1166 L958.0251 466.627 L767.305 317.733 L553.163 471.6459 L352.405 314.387 L213.5473 403.0541" stroke-dasharray="" fill="none" fill-opacity="1.0" stroke="#008000" stroke-opacity="1.0" stroke-width="3.0px" stroke-linecap="butt" stroke-linejoin="miter" stroke-dashoffset="0.0px"/>
<path d="M224.5314 242.9573 L380.1189 142.5805 L575.858 298.1648 L778.2891 154.2911 L957.2983 293.146 L1136.3076 162.6558 L1295.2411 288.1271 L1450.506 174.6828" stroke-dasharray="" fill="none" fill-opacity="1.0" stroke="#008000" stroke-opacity="1.0" stroke-width="3.0px" stroke-linecap="butt" stroke-linejoin="miter" stroke-dashoffset="0.0px"/>
<path d="M1061.6039 825.5422 L1344.2375 839.5186 L1379.9549 859.7067 L1406.3548 900.0829 L1409.4607 955.9884 L1404.8019 1013.4468 L1393.9313 1075.5638 L1372.1903 1101.9635 L1296.0966 1106.6223 L1046.0746 1097.3047" stroke-dasharray="" fill="none" fill-opacity="1.0" stroke="#008000" stroke-opacity="1.0" stroke-width="3.0px" stroke-linecap="butt" stroke-linejoin="miter" stroke-dashoffset="0.0px"/>
<path d="M1169.493 1191.9853 L886.522 1194.1041 L849.7143 1175.98 L821.0611 1137.1706 L814.7811 1081.5325 L816.1649 1023.9023 L823.4854 961.2675 L843.6899 933.6741 L919.3955 924.6956 L1169.5428 919.7801" stroke-dasharray="" fill="none" fill-opacity="1.0" stroke="#008000" stroke-opacity="1.0" stroke-width="3.0px" stroke-linecap="butt" stroke-linejoin="miter" stroke-dashoffset="0.0px"/>
<path d="M632.2222 807.9271 L667.361 1025.3484" stroke-dasharray="" fill="none" fill-opacity="1.0" stroke="#008000" stroke-opacity="1.0" stroke-width="3.0px" stroke-linecap="butt" stroke-linejoin="miter" stroke-dashoffset="0.0px"/>
<path d="M746.4234 827.6927 L709.0884 1073.6641" stroke-dasharray="" fill="none" fill-opacity="1.0" stroke="#008000" stroke-opacity="1.0" stroke-width="3.0px" stroke-linecap="butt" stroke-linejoin="miter" stroke-dashoffset="0.0px"/>
<path d="M803.524 860.6353 L1036.3188 867.2238" stroke-dasharray="" fill="none" fill-opacity="1.0" stroke="#008000" stroke-opacity="1.0" stroke-width="3.0px" stroke-linecap="butt" stroke-linejoin="miter" stroke-dashoffset="0.0px"/>
<path d="M1238.3671 1023.1522 L1003.3762 1025.3484" stroke-dasharray="" fill="none" fill-opacity="1.0" stroke="#008000" stroke-opacity="1.0" stroke-width="3.0px" stroke-linecap="butt" stroke-linejoin="miter" stroke-dashoffset="0.0px"/>
<path d="M1392.0821 647.4739 L1441.0069 647.8621 L1441.0069 684.7442 L1256.5963 684.7442" stroke-dasharray="" fill="none" fill-opacity="1.0" stroke="#008000" stroke-opacity="1.0" stroke-width="3.0px" stroke-linecap="butt" stroke-linejoin="miter" stroke-dashoffset="0.0px"/>
</g>
</svg>