<?xml version="1.0" standalone="no"?>
<!DOCTYPE svg PUBLIC "-//W3C//DTD SVG 1.1//EN" "http://www.w3.org/Graphics/SVG/1.1/DTD/svg11.dtd">
<svg width="1200px" height="1200px" version="1.1" xmlns="http://www.w3.org/2000/svg" xmlns:inkscape="http://www.inkscape.org/namespaces/inkscape">
<rect x="0" y="0" width="1200px" height="1200px" fill="#ffffff"/>
<g id="layer" inkscape:groupmode="layer" inkscape:label="layer">
<path d="M100.0 1100.0 L121.0 923.0 L141.5 765.5 L162.5 627.5 L183.5 507.5 L204.0 405.0 L225.0 319.0 L246.0 248.5 L266.5 192.5 L287.5 151.0 L308.5 122.0 L329.0 105.5 L350.0 100.0 L371.0 105.0 L391.5 119.5 L412.5 143.0 L433.5 174.0 L454.0 212.0 L475.0 256.0 L496.0 305.5 L516.5 359.5 L537.5 416.5 L558.5 476.0 L579.0 537.5 L600.0 600.0 L621.0 662.5 L641.5 724.0 L662.5 783.5 L683.5 840.5 L704.0 894.5 L725.0 944.0 L746.0 988.0 L766.5 1026.0 L787.5 1057.0 L808.5 1080.5 L829.0 1095.0 L850.0 1100.0 L871.0 1094.5 L891.5 1078.0 L912.5 1049.0 L933.5 1007.5 L954.0 951.5 L975.0 881.0 L996.0 795.0 L1016.5 692.5 L1037.5 572.5 L1058.5 434.5 L1079.0 277.0 L1100.0 100.0" stroke-dasharray="" fill="none" fill-opacity="1.0" stroke="#add8e6" stroke-opacity="1.0" stroke-width="1.0px" stroke-linecap="butt" stroke-linejoin="miter" stroke-dashoffset="0.0px"/>
</g>
</svg>