<?xml version="1.0" standalone="no"?>
<!DOCTYPE svg PUBLIC "-//W3C//DTD SVG 1.1//EN" "http://www.w3.org/Graphics/SVG/1.1/DTD/svg11.dtd">
<svg width="1200px" height="1200px" version="1.1" xmlns="http://www.w3.org/2000/svg" xmlns:inkscape="http://www.inkscape.org/namespaces/inkscape">
<rect x="0" y="0" width="1200px" height="1200px" fill="#ffffff"/>
<g id="layer" inkscape:groupmode="layer" inkscape:label="layer">
<path d="M977.0223 976.6663 L961.4284 976.9478 L944.561 977.2522 L930.2665 977.5102 L902.4573 978.0122 L886.5515 978.2993 L870.6457 978.5864 L853.3105 978.8993 L829.7117 979.3252 L812.8442 979.6297 L777.0302 980.2761 L760.9684 980.566 L745.0626 980.8531 L719.6965 981.311 L700.2561 981.6619 L674.2402 982.1315" stroke-dasharray="" fill="none" fill-opacity="1.0" stroke="#0000ff" stroke-opacity="1.0" stroke-width="1.0px" stroke-linecap="butt" stroke-linejoin="miter" stroke-dashoffset="0.0px"/>
<path d="M407.2845 605.2498 L394.7986 614.596 L381.293 624.7055 L369.8475 633.2728 L347.5809 649.9402 L334.8453 659.4733 L322.1096 669.0064 L308.2294 679.3962 L289.334 693.5401 L275.8284 703.6496 L247.1524 725.1146 L234.2918 734.7412 L221.5562 744.2743 L201.2457 759.4774 L185.6799 771.1289 L164.8492 786.7214" stroke-dasharray="" fill="none" fill-opacity="1.0" stroke="#0000ff" stroke-opacity="1.0" stroke-width="1.0px" stroke-linecap="butt" stroke-linejoin="miter" stroke-dashoffset="0.0px"/>
<path d="M509.8751 826.4989 L494.9322 924.6797 L414.9411 983.5377 L316.7595 968.595 L257.9008 888.6048 L272.8436 790.4237 L352.8348 731.5652 L451.0164 746.508 L509.8751 826.4989" stroke-dasharray="" fill="none" fill-opacity="1.0" stroke="#0000ff" stroke-opacity="1.0" stroke-width="1.0px" stroke-linecap="butt" stroke-linejoin="miter" stroke-dashoffset="0.0px"/>
<path d="M1131.5462 924.4765 L1132.8009 228.0999" stroke-dasharray="" fill="none" fill-opacity="1.0" stroke="#0000ff" stroke-opacity="1.0" stroke-width="1.0px" stroke-linecap="butt" stroke-linejoin="miter" stroke-dashoffset="0.0px"/>
<path d="M126.5011 302.1286 L131.5201 913.1839" stroke-dasharray="" fill="none" fill-opacity="1.0" stroke="#0000ff" stroke-opacity="1.0" stroke-width="1.0px" stroke-linecap="butt" stroke-linejoin="miter" stroke-dashoffset="0.0px"/>
<path d="M993.2113 567.6616 L978.1545 580.2089 L956.8239 590.2468 L938.0029 585.2279 L922.946 573.9353 L910.3986 555.1142 L896.5965 538.8026 L882.7944 527.51 L860.2091 526.2552 L836.3691 535.0384 L812.5291 550.0952 L789.9438 570.171 L771.1227 583.3458 L749.7922 593.3837 L730.9711 588.3647 L715.9142 577.0721 L703.3669 558.251 L689.5647 541.9394 L675.7626 530.6468 L653.1773 529.3921 L629.3373 538.1752 L605.4973 553.2321 L581.0299 574.2489 L565.9731 586.7963 L544.6425 596.8342 L525.8214 591.8153 L510.7646 580.5226 L498.2172 561.7016 L484.4151 545.39 L470.613 534.0973 L448.0277 532.8426 L424.1877 541.6258 L400.3477 556.6826 L377.7624 576.7584 L358.9413 589.9332 L337.6108 599.9711 L318.7897 594.9521 L303.7328 583.6595 L291.1855 564.8384 L277.3833 548.5268 L263.5812 537.2342 L240.9959 535.9794 L217.1559 544.7626 L193.3159 559.8195 L170.7306 579.8953" stroke-dasharray="" fill="none" fill-opacity="1.0" stroke="#0000ff" stroke-opacity="1.0" stroke-width="1.0px" stroke-linecap="butt" stroke-linejoin="miter" stroke-dashoffset="0.0px"/>
<path d="M172.272 433.6002 L194.8573 413.5245 L218.6973 398.4677 L242.5374 389.6846 L265.1226 390.9393 L278.9248 402.2319 L292.7269 418.5434 L305.2743 437.3644 L320.3311 448.6571 L339.1522 453.676 L360.4827 443.6381 L379.3038 430.4634 L401.8891 410.3877 L425.7291 395.3309 L449.5691 386.5477 L472.1544 387.8025 L485.9565 399.0951 L499.7586 415.4066 L512.306 434.2276 L527.3629 445.5202 L546.1839 450.5392 L567.5145 440.5013 L582.5713 427.9539 L607.0387 406.9371 L630.8787 391.8804 L654.7188 383.0972 L677.304 384.352 L691.1062 395.6446 L704.9083 411.9561 L717.4557 430.7771 L732.5125 442.0697 L751.3336 447.0886 L772.6641 437.0508 L791.4852 423.876 L814.0705 403.8003 L837.9105 388.7435 L861.7505 379.9604 L884.3358 381.2151 L898.1379 392.5077 L911.94 408.8192 L924.4874 427.6402 L939.5443 438.9329 L958.3653 443.9518 L979.6959 433.9139 L994.7527 421.3666" stroke-dasharray="" fill="none" fill-opacity="1.0" stroke="#0000ff" stroke-opacity="1.0" stroke-width="1.0px" stroke-linecap="butt" stroke-linejoin="miter" stroke-dashoffset="0.0px"/>
<path d="M1078.7791 253.5161 L965.7022 334.9135 L849.0116 248.3375 L718.5189 349.9703 L575.4787 238.2997 L414.8723 353.7345 L264.3037 235.7903 L160.1605 302.2906" stroke-dasharray="" fill="none" fill-opacity="1.0" stroke="#0000ff" stroke-opacity="1.0" stroke-width="1.0px" stroke-linecap="butt" stroke-linejoin="miter" stroke-dashoffset="0.0px"/>
<path d="M168.3986 182.218 L285.0892 106.9354 L431.8935 223.6236 L583.7168 115.7183 L717.9738 219.8595 L852.2307 121.9918 L971.4308 216.0953 L1087.8795 131.0121" stroke-dasharray="" fill="none" fill-opacity="1.0" stroke="#0000ff" stroke-opacity="1.0" stroke-width="1.0px" stroke-linecap="butt" stroke-linejoin="miter" stroke-dashoffset="0.0px"/>
<path d="M796.2029 619.1566 L1008.1781 629.6389 L1034.9662 644.78 L1054.7661 675.0622 L1057.0955 716.9913 L1053.6014 760.0851 L1045.4485 806.6729 L1029.1427 826.4726 L972.0725 829.9667 L784.556 822.9786" stroke-dasharray="" fill="none" fill-opacity="1.0" stroke="#0000ff" stroke-opacity="1.0" stroke-width="1.0px" stroke-linecap="butt" stroke-linejoin="miter" stroke-dashoffset="0.0px"/>
<path d="M877.1197 893.989 L664.8915 895.5781 L637.2857 881.985 L615.7958 852.878 L611.0858 811.1494 L612.1236 767.9267 L617.614 720.9506 L632.7675 700.2556 L689.5467 693.5217 L877.1571 689.8351" stroke-dasharray="" fill="none" fill-opacity="1.0" stroke="#0000ff" stroke-opacity="1.0" stroke-width="1.0px" stroke-linecap="butt" stroke-linejoin="miter" stroke-dashoffset="0.0px"/>
<path d="M474.1667 605.9453 L500.5208 769.0113" stroke-dasharray="" fill="none" fill-opacity="1.0" stroke="#0000ff" stroke-opacity="1.0" stroke-width="1.0px" stroke-linecap="butt" stroke-linejoin="miter" stroke-dashoffset="0.0px"/>
<path d="M559.8176 620.7695 L531.8163 805.2481" stroke-dasharray="" fill="none" fill-opacity="1.0" stroke="#0000ff" stroke-opacity="1.0" stroke-width="1.0px" stroke-linecap="butt" stroke-linejoin="miter" stroke-dashoffset="0.0px"/>
<path d="M602.643 645.4765 L777.2391 650.4179" stroke-dasharray="" fill="none" fill-opacity="1.0" stroke="#0000ff" stroke-opacity="1.0" stroke-width="1.0px" stroke-linecap="butt" stroke-linejoin="miter" stroke-dashoffset="0.0px"/>
<path d="M928.7753 767.3642 L752.5321 769.0113" stroke-dasharray="" fill="none" fill-opacity="1.0" stroke="#0000ff" stroke-opacity="1.0" stroke-width="1.0px" stroke-linecap="butt" stroke-linejoin="miter" stroke-dashoffset="0.0px"/>
<path d="M1044.0615 485.6054 L1080.7552 485.8966 L1080.7552 513.5581 L942.4472 513.5581" stroke-dasharray="" fill="none" fill-opacity="1.0" stroke="#0000ff" stroke-opacity="1.0" stroke-width="1.0px" stroke-linecap="butt" stroke-linejoin="miter" stroke-dashoffset="0.0px"/>
</g>
</svg>