<?xml version="1.0" standalone="no"?>
<!DOCTYPE svg PUBLIC "-//W3C//DTD SVG 1.1//EN" "http://www.w3.org/Graphics/SVG/1.1/DTD/svg11.dtd">
<svg width="1024px" height="1024px" version="1.1" xmlns="http://www.w3.org/2000/svg" xmlns:inkscape="http://www.inkscape.org/namespaces/inkscape">
<g id="polygon" inkscape:groupmode="layer" inkscape:label="polygon">
<path d="M142.7014 715.4572 L653.743 715.4572 L653.743 204.4156 L142.7014 204.4156 L142.7014 715.4572" stroke-dasharray="" fill="none" fill-opacity="1.0" stroke="#000000" stroke-opacity="0.01" stroke-width="50.0px" stroke-linecap="butt" stroke-linejoin="miter" stroke-dashoffset="0.0px"/>
<path d="M142.7014 715.4572 L653.743 715.4572 L653.743 204.4156 L142.7014 204.4156 L142.7014 715.4572" stroke-dasharray="" fill="none" fill-opacity="1.0" stroke="#000000" stroke-opacity="0.01" stroke-width="50.0px" stroke-linecap="butt" stroke-linejoin="miter" stroke-dashoffset="0.0px"/>
<path d="M142.7014 715.4572 L653.743 715.4572 L653.743 204.4156 L142.7014 204.4156 L142.7014 715.4572" stroke-dasharray="" fill="none" fill-opacity="1.0" stroke="#000000" stroke-opacity="0.01" stroke-width="50.0px" stroke-linecap="butt" stroke-linejoin="miter" stroke-dashoffset="0.0px"/>
<path d="M142.7014 715.4572 L653.743 715.4572 L653.743 204.4156 L142.7014 204.4156 L142.7014 715.4572" stroke-dasharray="" fill="none" fill-opacity="1.0" stroke="#000000" stroke-opacity="0.01" stroke-width="50.0px" stroke-linecap="butt" stroke-linejoin="miter" stroke-dashoffset="0.0px"/>
<path d="M142.7014 715.4572 L653.743 715.4572 L653.743 204.4156 L142.7014 204.4156 L142.7014 715.4572" stroke-dasharray="" fill="none" fill-opacity="1.0" stroke="#000000" stroke-opacity="0.01" stroke-width="50.0px" stroke-linecap="butt" stroke-linejoin="miter" stroke-dashoffset="0.0px"/>
<path d="M142.7014 715.4572 L653.743 715.4572 L653.743 204.4156 L142.7014 204.4156 L142.7014 715.4572" stroke-dasharray="" fill="none" fill-opacity="1.0" stroke="#000000" stroke-opacity="0.01" stroke-width="50.0px" stroke-linecap="butt" stroke-linejoin="miter" stroke-dashoffset="0.0px"/>
<path d="M142.7014 715.4572 L653.743 715.4572 L653.743 204.4156 L142.7014 204.4156 L142.7014 715.4572" stroke-dasharray="" fill="none" fill-opacity="1.0" stroke="#000000" stroke-opacity="0.01" stroke-width="50.0px" stroke-linecap="butt" stroke-linejoin="miter" stroke-dashoffset="0.0px"/>
<path d="M142.7014 715.4572 L653.743 715.4572 L653.743 204.4156 L142.7014 204.4156 L142.7014 715.4572" stroke-dasharray="" fill="none" fill-opacity="1.0" stroke="#000000" stroke-opacity="0.01" stroke-width="50.0px" stroke-linecap="butt" stroke-linejoin="miter" stroke-dashoffset="0.0px"/>
<path d="M142.7014 715.4572 L653.743 715.4572 L653.743 204.4156 L142.7014 204.4156 L142.7014 715.4572" stroke-dasharray="" fill="none" fill-opacity="1.0" stroke="#000000" stroke-opacity="0.01" stroke-width="50.0px" stroke-linecap="butt" stroke-linejoin="miter" stroke-dashoffset="0.0px"/>
<path d="M142.7014 715.4572 L653.743 715.4572 L653.743 204.4156 L142.7014 204.4156 L142.7014 715.4572" stroke-dasharray="" fill="none" fill-opacity="1.0" stroke="#000000" stroke-opacity="0.01" stroke-width="50.0px" stroke-linecap="butt" stroke-linejoin="miter" stroke-dashoffset="0.0px"/>
<path d="M142.7014 715.4572 L653.743 715.4572 L653.743 204.4156 L142.7014 204.4156 L142.7014 715.4572" stroke-dasharray="" fill="none" fill-opacity="1.0" stroke="#000000" stroke-opacity="0.01" stroke-width="50.0px" stroke-linecap="butt" stroke-linejoin="miter" stroke-dashoffset="0.0px"/>
<path d="M142.7014 715.4572 L653.743 715.4572 L653.743 204.4156 L142.7014 204.4156 L142.7014 715.4572" stroke-dasharray="" fill="none" fill-opacity="1.0" stroke="#000000" stroke-opacity="0.01" stroke-width="50.0px" stroke-linecap="butt" stroke-linejoin="miter" stroke-dashoffset="0.0px"/>
<path d="M142.7014 715.4572 L653.743 715.4572 L653.743 204.4156 L142.7014 204.4156 L142.7014 715.4572" stroke-dasharray="" fill="none" fill-opacity="1.0" stroke="#000000" stroke-opacity="0.01" stroke-width="50.0px" stroke-linecap="butt" stroke-linejoin="miter" stroke-dashoffset="0.0px"/>
<path d="M142.7014 715.4572 L653.743 715.4572 L653.743 204.4156 L142.7014 204.4156 L142.7014 715.4572" stroke-dasharray="" fill="none" fill-opacity="1.0" stroke="#000000" stroke-opacity="0.01" stroke-width="50.0px" stroke-linecap="butt" stroke-linejoin="miter" stroke-dashoffset="0.0px"/>
<path d="M142.7014 715.4572 L653.743 715.4572 L653.743 204.4156 L142.7014 204.4156 L142.7014 715.4572" stroke-dasharray="" fill="none" fill-opacity="1.0" stroke="#000000" stroke-opacity="0.01" stroke-width="50.0px" stroke-linecap="butt" stroke-linejoin="miter" stroke-dashoffset="0.0px"/>
<path d="M142.7014 715.4572 L653.743 715.4572 L653.743 204.4156 L142.7014 204.4156 L142.7014 715.4572" stroke-dasharray="" fill="none" fill-opacity="1.0" stroke="#000000" stroke-opacity="0.01" stroke-width="50.0px" stroke-linecap="butt" stroke-linejoin="miter" stroke-dashoffset="0.0px"/>
<path d="M142.7014 715.4572 L653.743 715.4572 L653.743 204.4156 L142.7014 204.4156 L142.7014 715.4572" stroke-dasharray="" fill="none" fill-opacity="1.0" stroke="#000000" stroke-opacity="0.01" stroke-width="50.0px" stroke-linecap="butt" stroke-linejoin="miter" stroke-dashoffset="0.0px"/>
<path d="M142.7014 715.4572 L653.743 715.4572 L653.743 204.4156 L142.7014 204.4156 L142.7014 715.4572" stroke-dasharray="" fill="none" fill-opacity="1.0" stroke="#000000" stroke-opacity="0.01" stroke-width="50.0px" stroke-linecap="butt" stroke-linejoin="miter" stroke-dashoffset="0.0px"/>
<path d="M142.7014 715.4572 L653.743 715.4572 L653.743 204.4156 L142.7014 204.4156 L142.7014 715.4572" stroke-dasharray="" fill="none" fill-opacity="1.0" stroke="#000000" stroke-opacity="0.01" stroke-width="50.0px" stroke-linecap="butt" stroke-linejoin="miter" stroke-dashoffset="0.0px"/>
<path d="M142.7014 715.4572 L653.743 715.4572 L653.743 204.4156 L142.7014 204.4156 L142.7014 715.4572" stroke-dasharray="" fill="none" fill-opacity="1.0" stroke="#000000" stroke-opacity="0.01" stroke-width="50.0px" stroke-linecap="butt" stroke-linejoin="miter" stroke-dashoffset="0.0px"/>
<path d="M142.7014 715.4572 L653.743 715.4572 L653.743 204.4156 L142.7014 204.4156 L142.7014 715.4572" stroke-dasharray="" fill="none" fill-opacity="1.0" stroke="#000000" stroke-opacity="0.01" stroke-width="50.0px" stroke-linecap="butt" stroke-linejoin="miter" stroke-dashoffset="0.0px"/>
<path d="M142.7014 715.4572 L653.743 715.4572 L653.743 204.4156 L142.7014 204.4156 L142.7014 715.4572" stroke-dasharray="" fill="none" fill-opacity="1.0" stroke="#000000" stroke-opacity="0.01" stroke-width="50.0px" stroke-linecap="butt" stroke-linejoin="miter" stroke-dashoffset="0.0px"/>
<path d="M142.7014 715.4572 L653.743 715.4572 L653.743 204.4156 L142.7014 204.4156 L142.7014 715.4572" stroke-dasharray="" fill="none" fill-opacity="1.0" stroke="#000000" stroke-opacity="0.01" stroke-width="50.0px" stroke-linecap="butt" stroke-linejoin="miter" stroke-dashoffset="0.0px"/>
<path d="M142.7014 715.4572 L653.743 715.4572 L653.743 204.4156 L142.7014 204.4156 L142.7014 715.4572" stroke-dasharray="" fill="none" fill-opacity="1.0" stroke="#000000" stroke-opacity="0.01" stroke-width="50.0px" stroke-linecap="butt" stroke-linejoin="miter" stroke-dashoffset="0.0px"/>
<path d="M142.7014 715.4572 L653.743 715.4572 L653.743 204.4156 L142.7014 204.4156 L142.7014 715.4572" stroke-dasharray="" fill="none" fill-opacity="1.0" stroke="#000000" stroke-opacity="0.01" stroke-width="50.0px" stroke-linecap="butt" stroke-linejoin="miter" stroke-dashoffset="0.0px"/>
<path d="M142.7014 715.4572 L653.743 715.4572 L653.743 204.4156 L142.7014 204.4156 L142.7014 715.4572" stroke-dasharray="" fill="none" fill-opacity="1.0" stroke="#000000" stroke-opacity="0.01" stroke-width="50.0px" stroke-linecap="butt" stroke-linejoin="miter" stroke-dashoffset="0.0px"/>
<path d="M142.7014 715.4572 L653.743 715.4572 L653.743 204.4156 L142.7014 204.4156 L142.7014 715.4572" stroke-dasharray="" fill="none" fill-opacity="1.0" stroke="#000000" stroke-opacity="0.01" stroke-width="50.0px" stroke-linecap="butt" stroke-linejoin="miter" stroke-dashoffset="0.0px"/>
<path d="M142.7014 715.4572 L653.743 715.4572 L653.743 204.4156 L142.7014 204.4156 L142.7014 715.4572" stroke-dasharray="" fill="none" fill-opacity="1.0" stroke="#000000" stroke-opacity="0.01" stroke-width="50.0px" stroke-linecap="butt" stroke-linejoin="miter" stroke-dashoffset="0.0px"/>
<path d="M142.7014 715.4572 L653.743 715.4572 L653.743 204.4156 L142.7014 204.4156 L142.7014 715.4572" stroke-dasharray="" fill="none" fill-opacity="1.0" stroke="#000000" stroke-opacity="0.01" stroke-width="50.0px" stroke-linecap="butt" stroke-linejoin="miter" stroke-dashoffset="0.0px"/>
<path d="M142.7014 715.4572 L653.743 715.4572 L653.743 204.4156 L142.7014 204.4156 L142.7014 715.4572" stroke-dasharray="" fill="none" fill-opacity="1.0" stroke="#000000" stroke-opacity="0.01" stroke-width="50.0px" stroke-linecap="butt" stroke-linejoin="miter" stroke-dashoffset="0.0px"/>
<path d="M142.7014 715.4572 L653.743 715.4572 L653.743 204.4156 L142.7014 204.4156 L142.7014 715.4572" stroke-dasharray="" fill="none" fill-opacity="1.0" stroke="#000000" stroke-opacity="0.01" stroke-width="50.0px" stroke-linecap="butt" stroke-linejoin="miter" stroke-dashoffset="0.0px"/>
<path d="M142.7014 715.4572 L653.743 715.4572 L653.743 204.4156 L142.7014 204.4156 L142.7014 715.4572" stroke-dasharray="" fill="none" fill-opacity="1.0" stroke="#000000" stroke-opacity="0.01" stroke-width="50.0px" stroke-linecap="butt" stroke-linejoin="miter" stroke-dashoffset="0.0px"/>
<path d="M142.7014 715.4572 L653.743 715.4572 L653.743 204.4156 L142.7014 204.4156 L142.7014 715.4572" stroke-dasharray="" fill="none" fill-opacity="1.0" stroke="#000000" stroke-opacity="0.01" stroke-width="50.0px" stroke-linecap="butt" stroke-linejoin="miter" stroke-dashoffset="0.0px"/>
<path d="M142.7014 715.4572 L653.743 715.4572 L653.743 204.4156 L142.7014 204.4156 L142.7014 715.4572" stroke-dasharray="" fill="none" fill-opacity="1.0" stroke="#000000" stroke-opacity="0.01" stroke-width="50.0px" stroke-linecap="butt" stroke-linejoin="miter" stroke-dashoffset="0.0px"/>
<path d="M142.7014 715.4572 L653.743 715.4572 L653.743 204.4156 L142.7014 204.4156 L142.7014 715.4572" stroke-dasharray="" fill="none" fill-opacity="1.0" stroke="#000000" stroke-opacity="0.01" stroke-width="50.0px" stroke-linecap="butt" stroke-linejoin="miter" stroke-dashoffset="0.0px"/>
<path d="M142.7014 715.4572 L653.743 715.4572 L653.743 204.4156 L142.7014 204.4156 L142.7014 715.4572" stroke-dasharray="" fill="none" fill-opacity="1.0" stroke="#000000" stroke-opacity="0.01" stroke-width="50.0px" stroke-linecap="butt" stroke-linejoin="miter" stroke-dashoffset="0.0px"/>
<path d="M142.7014 715.4572 L653.743 715.4572 L653.743 204.4156 L142.7014 204.4156 L142.7014 715.4572" stroke-dasharray="" fill="none" fill-opacity="1.0" stroke="#000000" stroke-opacity="0.01" stroke-width="50.0px" stroke-linecap="butt" stroke-linejoin="miter" stroke-dashoffset="0.0px"/>
<path d="M142.7014 715.4572 L653.743 715.4572 L653.743 204.4156 L142.7014 204.4156 L142.7014 715.4572" stroke-dasharray="" fill="none" fill-opacity="1.0" stroke="#000000" stroke-opacity="0.01" stroke-width="50.0px" stroke-linecap="butt" stroke-linejoin="miter" stroke-dashoffset="0.0px"/>
<path d="M142.7014 715.4572 L653.743 715.4572 L653.743 204.4156 L142.7014 204.4156 L142.7014 715.4572" stroke-dasharray="" fill="none" fill-opacity="1.0" stroke="#000000" stroke-opacity="0.01" stroke-width="50.0px" stroke-linecap="butt" stroke-linejoin="miter" stroke-dashoffset="0.0px"/>
<path d="M142.7014 715.4572 L653.743 715.4572 L653.743 204.4156 L142.7014 204.4156 L142.7014 715.4572" stroke-dasharray="" fill="none" fill-opacity="1.0" stroke="#000000" stroke-opacity="0.01" stroke-width="50.0px" stroke-linecap="butt" stroke-linejoin="miter" stroke-dashoffset="0.0px"/>
<path d="M142.7014 715.4572 L653.743 715.4572 L653.743 204.4156 L142.7014 204.4156 L142.7014 715.4572" stroke-dasharray="" fill="none" fill-opacity="1.0" stroke="#000000" stroke-opacity="0.01" stroke-width="50.0px" stroke-linecap="butt" stroke-linejoin="miter" stroke-dashoffset="0.0px"/>
<path d="M142.7014 715.4572 L653.743 715.4572 L653.743 204.4156 L142.7014 204.4156 L142.7014 715.4572" stroke-dasharray="" fill="none" fill-opacity="1.0" stroke="#000000" stroke-opacity="0.01" stroke-width="50.0px" stroke-linecap="butt" stroke-linejoin="miter" stroke-dashoffset="0.0px"/>
<path d="M142.7014 715.4572 L653.743 715.4572 L653.743 204.4156 L142.7014 204.4156 L142.7014 715.4572" stroke-dasharray="" fill="none" fill-opacity="1.0" stroke="#000000" stroke-opacity="0.01" stroke-width="50.0px" stroke-linecap="butt" stroke-linejoin="miter" stroke-dashoffset="0.0px"/>
<path d="M142.7014 715.4572 L653.743 715.4572 L653.743 204.4156 L142.7014 204.4156 L142.7014 715.4572" stroke-dasharray="" fill="none" fill-opacity="1.0" stroke="#000000" stroke-opacity="0.01" stroke-width="50.0px" stroke-linecap="butt" stroke-linejoin="miter" stroke-dashoffset="0.0px"/>
<path d="M142.7014 715.4572 L653.743 715.4572 L653.743 204.4156 L142.7014 204.4156 L142.7014 715.4572" stroke-dasharray="" fill="none" fill-opacity="1.0" stroke="#000000" stroke-opacity="0.01" stroke-width="50.0px" stroke-linecap="butt" stroke-linejoin="miter" stroke-dashoffset="0.0px"/>
<path d="M142.7014 715.4572 L653.743 715.4572 L653.743 204.4156 L142.7014 204.4156 L142.7014 715.4572" stroke-dasharray="" fill="none" fill-opacity="1.0" stroke="#000000" stroke-opacity="0.01" stroke-width="50.0px" stroke-linecap="butt" stroke-linejoin="miter" stroke-dashoffset="0.0px"/>
<path d="M142.7014 715.4572 L653.743 715.4572 L653.743 204.4156 L142.7014 204.4156 L142.7014 715.4572" stroke-dasharray="" fill="none" fill-opacity="1.0" stroke="#000000" stroke-opacity="0.01" stroke-width="50.0px" stroke-linecap="butt" stroke-linejoin="miter" stroke-dashoffset="0.0px"/>
<path d="M142.7014 715.4572 L653.743 715.4572 L653.743 204.4156 L142.7014 204.4156 L142.7014 715.4572" stroke-dasharray="" fill="none" fill-opacity="1.0" stroke="#000000" stroke-opacity="0.01" stroke-width="50.0px" stroke-linecap="butt" stroke-linejoin="miter" stroke-dashoffset="0.0px"/>
<path d="M142.7014 715.4572 L653.743 715.4572 L653.743 204.4156 L142.7014 204.4156 L142.7014 715.4572" stroke-dasharray="" fill="none" fill-opacity="1.0" stroke="#000000" stroke-opacity="0.01" stroke-width="50.0px" stroke-linecap="butt" stroke-linejoin="miter" stroke-dashoffset="0.0px"/>
<path d="M142.7014 715.4572 L653.743 715.4572 L653.743 204.4156 L142.7014 204.4156 L142.7014 715.4572" stroke-dasharray="" fill="none" fill-opacity="1.0" stroke="#000000" stroke-opacity="0.01" stroke-width="50.0px" stroke-linecap="butt" stroke-linejoin="miter" stroke-dashoffset="0.0px"/>
<path d="M142.7014 715.4572 L653.743 715.4572 L653.743 204.4156 L142.7014 204.4156 L142.7014 715.4572" stroke-dasharray="" fill="none" fill-opacity="1.0" stroke="#000000" stroke-opacity="0.01" stroke-width="50.0px" stroke-linecap="butt" stroke-linejoin="miter" stroke-dashoffset="0.0px"/>
<path d="M142.7014 715.4572 L653.743 715.4572 L653.743 204.4156 L142.7014 204.4156 L142.7014 715.4572" stroke-dasharray="" fill="none" fill-opacity="1.0" stroke="#000000" stroke-opacity="0.01" stroke-width="50.0px" stroke-linecap="butt" stroke-linejoin="miter" stroke-dashoffset="0.0px"/>
<path d="M142.7014 715.4572 L653.743 715.4572 L653.743 204.4156 L142.7014 204.4156 L142.7014 715.4572" stroke-dasharray="" fill="none" fill-opacity="1.0" stroke="#000000" stroke-opacity="0.01" stroke-width="50.0px" stroke-linecap="butt" stroke-linejoin="miter" stroke-dashoffset="0.0px"/>
<path d="M142.7014 715.4572 L653.743 715.4572 L653.743 204.4156 L142.7014 204.4156 L142.7014 715.4572" stroke-dasharray="" fill="none" fill-opacity="1.0" stroke="#000000" stroke-opacity="0.01" stroke-width="50.0px" stroke-linecap="butt" stroke-linejoin="miter" stroke-dashoffset="0.0px"/>
<path d="M142.7014 715.4572 L653.743 715.4572 L653.743 204.4156 L142.7014 204.4156 L142.7014 715.4572" stroke-dasharray="" fill="none" fill-opacity="1.0" stroke="#000000" stroke-opacity="0.01" stroke-width="50.0px" stroke-linecap="butt" stroke-linejoin="miter" stroke-dashoffset="0.0px"/>
<path d="M142.7014 715.4572 L653.743 715.4572 L653.743 204.4156 L142.7014 204.4156 L142.7014 715.4572" stroke-dasharray="" fill="none" fill-opacity="1.0" stroke="#000000" stroke-opacity="0.01" stroke-width="50.0px" stroke-linecap="butt" stroke-linejoin="miter" stroke-dashoffset="0.0px"/>
<path d="M142.7014 715.4572 L653.743 715.4572 L653.743 204.4156 L142.7014 204.4156 L142.7014 715.4572" stroke-dasharray="" fill="none" fill-opacity="1.0" stroke="#000000" stroke-opacity="0.01" stroke-width="50.0px" stroke-linecap="butt" stroke-linejoin="miter" stroke-dashoffset="0.0px"/>
<path d="M142.7014 715.4572 L653.743 715.4572 L653.743 204.4156 L142.7014 204.4156 L142.7014 715.4572" stroke-dasharray="" fill="none" fill-opacity="1.0" stroke="#000000" stroke-opacity="0.01" stroke-width="50.0px" stroke-linecap="butt" stroke-linejoin="miter" stroke-dashoffset="0.0px"/>
<path d="M142.7014 715.4572 L653.743 715.4572 L653.743 204.4156 L142.7014 204.4156 L142.7014 715.4572" stroke-dasharray="" fill="none" fill-opacity="1.0" stroke="#000000" stroke-opacity="0.01" stroke-width="50.0px" stroke-linecap="butt" stroke-linejoin="miter" stroke-dashoffset="0.0px"/>
<path d="M142.7014 715.4572 L653.743 715.4572 L653.743 204.4156 L142.7014 204.4156 L142.7014 715.4572" stroke-dasharray="" fill="none" fill-opacity="1.0" stroke="#000000" stroke-opacity="0.01" stroke-width="50.0px" stroke-linecap="butt" stroke-linejoin="miter" stroke-dashoffset="0.0px"/>
<path d="M142.7014 715.4572 L653.743 715.4572 L653.743 204.4156 L142.7014 204.4156 L142.7014 715.4572" stroke-dasharray="" fill="none" fill-opacity="1.0" stroke="#000000" stroke-opacity="0.01" stroke-width="50.0px" stroke-linecap="butt" stroke-linejoin="miter" stroke-dashoffset="0.0px"/>
</g>
</svg>