<?xml version="1.0" standalone="no"?>
<!DOCTYPE svg PUBLIC "-//W3C//DTD SVG 1.1//EN" "http://www.w3.org/Graphics/SVG/1.1/DTD/svg11.dtd">
<svg width="1800px" height="500px" version="1.1" xmlns="http://www.w3.org/2000/svg" xmlns:inkscape="http://www.inkscape.org/namespaces/inkscape">
<rect x="0" y="0" width="1800px" height="500px" fill="#ffffff"/>
<g id="layer" inkscape:groupmode="layer" inkscape:label="layer">
<path d="M1339.6667 257.1667 L1338.1667 269.25 L1339.1667 281.3333 L1342.5833 293.25 L1348.4167 304.75 L1356.5 315.6667 L1366.8333 325.8333 L1379.0833 335.0833 L1393.1667 343.1667 L1408.75 350.0833 L1425.5833 355.5833 L1443.4167 359.5833 L1461.9167 362.1667 L1480.75 363.0833 L1499.6667 362.5 L1518.25 360.25 L1536.25 356.5 L1553.3333 351.3333 L1569.1667 344.75 L1583.5833 336.9167 L1596.25 327.9167 L1607.0 317.9167 L1615.5833 307.1667 L1621.9167 295.75 L1625.8333 283.8333 L1627.3333 271.8333 L1626.4167 259.6667 L1623.0 247.8333 L1617.1667 236.25 L1609.0 225.3333 L1598.75 215.1667 L1586.4167 205.9167 L1572.4167 197.8333 L1556.8333 191.0 L1540.0 185.5 L1522.1667 181.4167 L1503.6667 178.9167 L1484.75 177.9167 L1465.9167 178.5833 L1447.25 180.75 L1429.25 184.5 L1412.1667 189.6667 L1396.3333 196.25 L1381.9167 204.1667 L1369.25 213.1667 L1358.5 223.0833 L1349.9167 233.9167 L1343.5833 245.3333 L1339.6667 257.1667" stroke-dasharray="" fill="none" fill-opacity="1.0" stroke="#000000" stroke-opacity="1.0" stroke-width="1.0px" stroke-linecap="butt" stroke-linejoin="miter" stroke-dashoffset="0.0px"/>
<path d="M956.0 255.8333 L954.5 267.9167 L955.5 280.0 L958.9167 291.9167 L964.75 303.5 L972.9167 314.4167 L983.1667 324.5833 L995.5 333.75 L1009.5 341.9167 L1025.0833 348.75 L1041.9167 354.25 L1059.75 358.3333 L1078.25 360.8333 L1097.1667 361.8333 L1116.0 361.1667 L1134.6667 359.0 L1152.6667 355.25 L1169.75 350.0833 L1185.5833 343.5 L1200.0 335.5833 L1212.6667 326.5833 L1223.4167 316.6667 L1232.0 305.8333 L1238.3333 294.4167 L1242.25 282.5833 L1243.75 270.5 L1242.75 258.4167 L1239.3333 246.5 L1233.5 235.0 L1225.4167 224.0833 L1215.0833 213.9167 L1202.8333 204.6667 L1188.75 196.5833 L1173.1667 189.6667 L1156.3333 184.1667 L1138.5 180.1667 L1120.0 177.5833 L1101.1667 176.6667 L1082.25 177.25 L1063.6667 179.5 L1045.6667 183.1667 L1028.5833 188.4167 L1012.6667 195.0 L998.3333 202.8333 L985.6667 211.8333 L974.9167 221.8333 L966.3333 232.5833 L960.0 244.0 L956.0 255.8333" stroke-dasharray="" fill="none" fill-opacity="1.0" stroke="#000000" stroke-opacity="1.0" stroke-width="1.0px" stroke-linecap="butt" stroke-linejoin="miter" stroke-dashoffset="0.0px"/>
<path d="M562.3333 254.5833 L566.3333 242.75 L572.6667 231.3333 L581.25 220.5 L592.0 210.5833 L604.6667 201.5833 L619.0833 193.75 L634.9167 187.0833 L652.0 181.9167 L670.0 178.1667 L688.5833 176.0 L707.5 175.3333 L726.3333 176.3333 L744.8333 178.8333 L762.6667 182.9167 L779.5 188.4167 L795.0833 195.25 L809.1667 203.4167 L821.4167 212.5833 L831.75 222.75 L839.8333 233.6667 L845.6667 245.25 L849.0833 257.1667 L850.0833 269.25 L848.5833 281.3333 L844.6667 293.1667 L838.3333 304.5833 L829.75 315.3333 L819.0 325.3333 L806.3333 334.3333 L791.9167 342.1667 L776.0833 348.75 L759.0 354.0 L741.0 357.6667 L722.3333 359.9167 L703.5 360.5 L684.5833 359.5833 L666.0833 357.0 L648.25 353.0 L631.4167 347.5 L615.8333 340.5833 L601.8333 332.5 L589.5 323.25 L579.25 313.0833 L571.0833 302.1667 L565.25 290.6667 L561.8333 278.75 L560.8333 266.6667 L562.3333 254.5833" stroke-dasharray="" fill="none" fill-opacity="1.0" stroke="#000000" stroke-opacity="1.0" stroke-width="1.0px" stroke-linecap="butt" stroke-linejoin="miter" stroke-dashoffset="0.0px"/>
<path d="M168.75 258.4167 L172.6667 246.5833 L179.0 235.1667 L187.5833 224.4167 L198.3333 214.4167 L211.0 205.4167 L225.4167 197.5833 L241.25 191.0 L258.3333 185.75 L276.3333 182.0 L294.9167 179.8333 L313.8333 179.25 L332.6667 180.1667 L351.1667 182.6667 L369.0 186.75 L385.8333 192.25 L401.4167 199.1667 L415.5 207.25 L427.75 216.5 L438.0833 226.5833 L446.1667 237.5833 L452.0 249.0833 L455.5 261.0 L456.4167 273.0833 L454.9167 285.1667 L451.0 297.0 L444.6667 308.4167 L436.0833 319.1667 L425.3333 329.1667 L412.6667 338.1667 L398.25 346.0 L382.4167 352.5833 L365.3333 357.8333 L347.3333 361.5833 L328.6667 363.75 L309.8333 364.4167 L290.9167 363.4167 L272.4167 360.9167 L254.6667 356.8333 L237.75 351.3333 L222.1667 344.5 L208.1667 336.3333 L195.8333 327.1667 L185.5833 317.0 L177.4167 306.0 L171.5833 294.5 L168.1667 282.5833 L167.25 270.5 L168.75 258.4167" stroke-dasharray="" fill="none" fill-opacity="1.0" stroke="#000000" stroke-opacity="1.0" stroke-width="1.0px" stroke-linecap="butt" stroke-linejoin="miter" stroke-dashoffset="0.0px"/>
<path d="M1338.1667 269.25 L1627.3333 271.8333" stroke-dasharray="" fill="none" fill-opacity="1.0" stroke="#000000" stroke-opacity="1.0" stroke-width="1.0px" stroke-linecap="butt" stroke-linejoin="miter" stroke-dashoffset="0.0px"/>
<path d="M954.5 267.9167 L1243.75 270.5" stroke-dasharray="" fill="none" fill-opacity="1.0" stroke="#000000" stroke-opacity="1.0" stroke-width="1.0px" stroke-linecap="butt" stroke-linejoin="miter" stroke-dashoffset="0.0px"/>
<path d="M560.8333 266.6667 L850.0833 269.25" stroke-dasharray="" fill="none" fill-opacity="1.0" stroke="#000000" stroke-opacity="1.0" stroke-width="1.0px" stroke-linecap="butt" stroke-linejoin="miter" stroke-dashoffset="0.0px"/>
<path d="M167.25 270.5 L456.4167 273.0833" stroke-dasharray="" fill="none" fill-opacity="1.0" stroke="#000000" stroke-opacity="1.0" stroke-width="1.0px" stroke-linecap="butt" stroke-linejoin="miter" stroke-dashoffset="0.0px"/>
</g>
</svg>