<?xml version="1.0" standalone="no"?>
<!DOCTYPE svg PUBLIC "-//W3C//DTD SVG 1.1//EN" "http://www.w3.org/Graphics/SVG/1.1/DTD/svg11.dtd">
<svg width="512px" height="512px" version="1.1" xmlns="http://www.w3.org/2000/svg" xmlns:inkscape="http://www.inkscape.org/namespaces/inkscape">
<rect x="0" y="0" width="512px" height="512px" fill="#ffffff"/>
<g id="layer" inkscape:groupmode="layer" inkscape:label="layer">
<path d="M22462972.4606 29450235.3597 L22462972.4606 -3842047.3945 L5685759.1042 -3842047.3945 L6078975.0422 -3186687.4978 L6865406.9183 -2924543.5391 L15254013.5965 -3055615.5185 L16171517.452 -2269183.6424 L16826877.3487 -1220607.8075 L17613309.2248 -958463.849 L22462972.4606 -1032191.8373 L22462972.4606 901119.8581 L15385085.5759 1007615.8413 L14729725.6791 1269759.8 L14205437.7618 1925119.6968 L14074365.7824 6774782.9327 L12763645.9889 7692286.7881 L12108286.0922 8609790.6435 L12108286.0922 13066237.9413 L10142206.402 14901245.6523 L10142206.402 16867325.3424 L9880062.4433 17653757.2185 L8831486.6085 18309117.115 L6996478.8976 18309117.115 L6472190.9802 18571261.0738 L5685759.1042 19881980.8673 L5030399.2074 20406268.7849 L573951.9096 20537340.7642 L-343551.9458 19750908.888 L-998911.8426 18702333.0533 L-2309631.6361 17915901.1772 L-2571775.5947 17391613.2598 L-2702847.5741 15032317.6316 L-4668927.2643 13459453.8793 L-4799999.2437 11100158.2511 L-5062143.2024 10575870.3336 L-6372862.9958 9789438.4577 L-6897150.9132 9134078.5607 L-6897150.9132 6643710.9533 L-5062143.2024 5070847.201 L-4931071.223 4677631.263 L-5062143.2024 2187263.6555 L-6110719.0371 1400831.7792 L-11091454.2523 1507327.7624 L-11091454.2523 16523261.3966 L-9780734.4589 16474109.4042 L-8601086.6447 14770173.6728 L-7683582.7893 14639101.6934 L-6372862.9958 16343037.4249 L-5062143.2024 17129469.3011 L-4799999.2437 17915901.1772 L-4931071.223 22110204.5163 L-5717503.0991 22765564.4129 L-8076798.7273 22896636.3924 L-8994302.5828 23945212.2272 L-8994302.5828 30629883.174 L-9100798.566 30760955.1532 L21414396.6259 30760955.1532 L21807612.5639 29712379.3184 L22331900.4813 29450235.3597 L22462972.4606 29450235.3597" stroke-dasharray="" fill="none" fill-opacity="1.0" stroke="#00ff00" stroke-opacity="1.0" stroke-width="1.0px" stroke-linecap="butt" stroke-linejoin="miter" stroke-dashoffset="0.0px"/>
</g>
</svg>