<?xml version="1.0" standalone="no"?>
<!DOCTYPE svg PUBLIC "-//W3C//DTD SVG 1.1//EN" "http://www.w3.org/Graphics/SVG/1.1/DTD/svg11.dtd">
<svg width="1024px" height="1024px" version="1.1" xmlns="http://www.w3.org/2000/svg" xmlns:inkscape="http://www.inkscape.org/namespaces/inkscape">
<g id="world" inkscape:groupmode="layer" inkscape:label="world">
<path d="M651.3778 570.0267 L653.9378 567.1822 L645.9733 565.76 L638.5778 562.3467 L635.7333 558.08 L633.5487 555.4425 L633.5525 568.1465 L639.6448 568.1494 L643.0725 568.3019 L645.9733 570.3111 L651.3778 570.0267 M654.4219 381.5871 L646.9783 380.2016 L642.2376 385.3421 L642.9284 386.7668 L640.976 392.6773 L634.7796 395.4833 L634.9596 404.9636 L633.7718 406.7949 L635.4743 409.0274 L631.4596 412.5651 L627.734 417.9009 L625.7007 423.0709 L626.2385 428.5801 L622.7338 434.4321 L625.3545 444.2522 L626.8315 445.2914 L626.8171 450.5234 L623.5702 456.0764 L623.7026 460.8289 L619.3955 464.544 L619.414 469.7704 L621.1432 475.3237 L617.7364 477.3889 L616.2161 482.4642 L614.8794 488.2906 L615.8404 495.2257 L613.5529 496.3834 L614.8811 502.9465 L617.4489 505.1029 L615.5741 507.4897 L618.2127 508.6295 L618.8215 510.7726 L616.3381 511.8503 L616.9486 515.1899 L614.8707 522.7226 L611.855 527.5792 L612.5161 530.4561 L610.7122 534.065 L606.3477 536.5671 L606.8449 542.5993 L608.8491 544.6625 L612.6366 544.2959 L612.5261 548.5566 L614.8847 551.8735 L628.6315 552.6344 L633.9041 553.5257 L636.3023 553.8132 L632.5159 550.5201 L630.6785 544.6116 L633.0098 541.9476 L638.2018 539.703 L641.8991 533.0337 L648.6182 529.8249 L650.5755 524.7211 L645.1367 523.5708 L639.5418 519.4056 L641.1731 515.1397 L645.6322 512.2254 L651.0065 512.2093 L652.3516 509.1633 L653.188 503.4404 L657.7561 499.9029 L662.9942 498.137 L661.2995 495.1819 L658.1851 496.9757 L654.3442 495.2633 L653.5507 489.6103 L655.7463 488.1219 L661.2167 490.1933 L667.0461 489.4081 L670.4583 487.4063 L669.4085 484.5374 L670.5734 480.2794 L669.3777 476.8865 L675.627 477.4595 L687.0365 476.275 L695.4715 473.2238 L700.9378 465.9289 L701.2267 463.1502 L697.6719 460.6714 L698.4486 456.7497 L691.2259 451.8769 L691.6149 448.9071 L692.0555 445.2306 L693.2898 443.9641 L693.2341 438.2976 L694.7559 432.4497 L696.177 427.8971 L703.7673 420.1401 L710.1879 414.6171 L714.0083 412.3008 L718.7983 409.1646 L718.9143 404.6215 L716.0602 401.3377 L713.2428 402.4278 L712.3126 407.4484 L707.1525 411.8064 L702.6534 412.7204 L696.2645 411.8522 L690.5277 410.3038 L696.1285 401.6564 L695.3118 399.1458 L689.4528 396.9221 L682.5019 392.7199 L677.8507 391.8547 L667.3917 382.5723 L666.4734 381.3546 L659.986 381.1194 L657.7663 385.6958 L654.4219 381.5871" stroke-dasharray="" fill="none" fill-opacity="1.0" stroke="#000000" stroke-opacity="1.0" stroke-width="1.0px" stroke-linecap="butt" stroke-linejoin="miter" stroke-dashoffset="0.0px"/>
<path d="M685.101 711.3397 L679.1958 708.9987 L676.1872 711.0051 L671.9531 713.3461 L659.6967 712.789 L646.8834 712.5662 L650.003 714.238 L650.003 714.4609 L657.1342 716.3559 L669.836 716.0216 L681.7584 716.8019 L683.4298 714.238 L685.101 711.3397 M118.2823 708.2499 L116.7223 705.6858 L112.3771 703.6794 L106.6945 701.8961 L96.1092 701.0039 L92.6555 703.122 L92.6555 703.122 L96.3322 704.6825 L96.5552 705.017 L99.8978 707.0234 L107.363 709.0302 L118.2823 708.2499 M767.1196 700.0011 L758.5402 698.7746 L750.0721 700.0011 L747.1752 700.0008 L747.1752 700.0008 L743.4982 702.3421 L740.0441 704.3482 L737.4814 706.4661 L733.916 708.9187 L729.0133 710.8138 L716.8683 712.3742 L715.8655 714.7152 L723.3309 716.6105 L736.8129 716.9447 L748.735 715.83 L759.4315 714.4923 L768.6796 713.0433 L777.4819 711.2597 L777.259 708.3614 L776.5905 705.909 L774.1393 702.4532 L767.1196 700.0011 M334.4412 674.139 L327.6445 673.1356 L326.4186 675.0309 L326.4186 675.0309 L332.1012 677.0373 L340.0123 677.483 L345.3604 676.034 L348.5915 674.0273 L341.795 675.0306 L334.4412 674.139 M309.7056 674.0273 L304.0229 672.6896 L299.9004 673.9158 L299.9004 673.9158 L307.6996 675.4766 L315.0537 676.034 L318.3964 676.2568 L309.7056 674.0273 M460.905 665.2207 L452.6597 664.7751 L445.4174 663.9945 L441.8519 664.9979 L441.8519 664.9979 L444.8605 667.3389 L450.6541 668.4537 L458.3423 668.1194 L465.362 668.3422 L472.2701 668.1194 L476.7269 668.5651 L473.3842 665.3325 L467.1446 666.0013 L460.905 665.2207 M634.5879 659.6598 L633.028 657.096 L631.1338 654.6433 L628.6824 652.0795 L627.3454 649.9613 L624.3371 647.8435 L619.1001 648.7351 L615.8689 651.4107 L615.9805 655.9812 L615.6461 658.099 L613.9749 660.9974 L607.4008 660.7746 L603.5011 661.4434 L603.5011 661.4434 L597.2615 663.6729 L597.5956 666.0139 L601.9411 667.6861 L608.2923 666.9056 L614.9774 666.1253 L612.1919 668.3549 L619.6572 668.4663 L626.0083 667.3515 L632.6938 666.5713 L634.2535 664.4532 L635.2564 662.2236 L634.5879 659.6598 M690.5507 620.9563 L696.3443 619.2841 L698.4614 617.3891 L695.1188 615.9398 L690.6621 616.6086 L687.4306 618.3922 L683.308 619.8415 L678.6284 620.5103 L674.6173 621.6251 L671.0517 623.4087 L665.5921 623.7429 L662.0265 625.1922 L658.9068 626.753 L656.6783 629.2054 L652.1098 630.8772 L648.2101 632.6611 L644.533 634.779 L641.4134 636.4511 L638.6279 639.0149 L639.2965 641.2445 L640.4105 643.6969 L639.5193 645.9262 L637.2908 648.2671 L634.6167 650.3853 L634.0596 652.6145 L634.3939 654.8441 L635.8423 656.8508 L637.625 659.0801 L639.6306 661.3096 L641.4134 663.5392 L642.0819 665.8801 L640.7449 668.3325 L637.4023 670.1161 L631.8312 671.3423 L624.5886 672.1225 L616.5662 672.7917 L609.6581 673.5719 L603.864 675.0209 L597.9588 676.2474 L590.3822 676.8045 L586.4825 674.9095 L580.6885 673.6833 L572.8888 674.2407 L567.2062 672.0111 L564.9781 674.0178 L560.521 676.1357 L553.7243 674.9095 L546.8161 674.2407 L539.3508 674.0178 L534.6712 671.7883 L527.5401 672.3457 L520.966 671.3423 L516.3978 668.7785 L511.4952 673.1259 L503.9186 673.5719 L498.1248 672.2343 L491.1052 672.9031 L483.3055 674.0178 L475.9518 674.7981 L468.2636 674.4635 L465.8125 672.4571 L460.0185 670.7849 L453.3332 669.8933 L445.9791 670.2275 L438.5139 669.8933 L434.1687 669.1131 L436.1742 673.3487 L437.3998 675.4669 L440.631 677.585 L447.9846 678.0307 L450.7702 680.0374 L454.4472 681.9324 L451.4388 684.3848 L443.6394 683.3817 L435.9512 682.6012 L427.3717 682.3784 L420.1293 683.3817 L412.1068 683.716 L405.533 682.1553 L397.8449 681.4864 L391.0482 679.3686 L385.143 681.0408 L381.4659 679.1455 L379.4603 677.139 L375.7834 675.3555 L369.6552 677.3619 L362.8583 678.3652 L355.7274 677.139 L348.8191 678.0307 L343.0254 679.7029 L335.2257 679.926 L326.7575 679.8143 L318.5124 679.7029 L310.6015 679.926 L302.1333 679.3686 L294.4453 678.8112 L286.9801 679.5914 L279.1805 679.7029 L271.6037 678.6998 L263.1358 679.48 L259.2359 679.0341 L254.7793 678.6998 L247.8711 679.926 L241.7425 681.1522 L234.0546 682.4898 L226.3665 683.0472 L218.2328 683.1586 L211.6588 684.6079 L202.968 685.7227 L199.6253 683.8274 L192.2713 684.8308 L190.6 686.8375 L192.6057 688.9553 L192.8283 691.0735 L184.249 691.6309 L177.7864 693.5259 L170.6556 695.0863 L163.0789 696.3128 L154.0537 696.8699 L149.3741 694.4175 L140.3484 695.1977 L130.9891 695.7554 L125.864 693.9718 L123.0783 693.4142 L124.8611 699.8794 L129.3181 701.8861 L136.6718 703.6697 L140.3484 705.7878 L151.3795 706.3452 L161.6303 707.1255 L173.3296 707.46 L181.6863 709.1319 L189.0401 710.6926 L191.0457 713.0336 L186.4775 714.9286 L177.1179 717.0467 L166.9786 718.7189 L158.7333 716.8236 L145.5856 717.7156 L131.7692 717.381 L140.5714 719.1646 L144.9171 721.1713 L154.3878 722.7318 L155.5022 725.0727 L153.3852 727.1909 L151.2681 729.5318 L150.2652 732.0957 L165.53 733.3219 L170.3212 735.5514 L188.7057 736.889 L211.1017 737.1122 L209.8761 739.7874 L194.0542 741.3481 L179.0119 743.0203 L165.3072 741.2367 L141.1285 740.1219 L124.7495 741.6827 L102.7995 740.3448 L89.986 738.5612 L73.8298 737.1122 L65.2504 735.2172 L62.5778 734.5375 L57.1664 733.2104 L40.4531 734.2138 L39.1591 734.5375 L31.9573 736.9064 L23.7233 734.5375 L23.0557 734.495 L22.2739 734.4313 L16.2656 736.2443 L15.6059 736.4434 L5.3551 734.6598 L0.3271 737.9709 L0.0 737.925 L0.0 768.0 L2048.0 768.0 L2048.0 737.925 L2038.1992 736.5548 L2025.1629 734.7712 L2009.4526 736.2202 L2005.2028 734.5375 L2004.1042 734.1024 L1987.725 732.8762 L1984.8287 730.0892 L1971.7924 728.3056 L1963.2125 726.5221 L1955.3015 724.7385 L1948.3932 722.8432 L1943.4911 720.7253 L1940.5939 718.3844 L1933.0174 716.4894 L1936.0254 714.3712 L1938.4769 712.2531 L1939.4797 709.5779 L1944.271 706.3452 L1955.0789 706.1221 L1963.7696 704.8959 L1974.0204 704.0043 L1971.7924 701.5516 L1961.2073 700.7716 L1958.5329 698.7649 L1957.307 696.6468 L1954.0759 694.4175 L1953.9641 692.2997 L1954.5215 689.7356 L1955.9697 687.6177 L1958.3101 685.2768 L1962.4326 683.4932 L1966.3325 681.375 L1968.8949 679.1455 L1976.2488 677.9193 L1979.5917 675.9129 L1987.0568 675.0209 L1989.7308 672.6799 L1991.7367 670.6735 L1994.2993 668.1097 L1997.3076 666.103 L1997.9764 663.8734 L1993.965 662.2016 L1988.0595 661.0868 L1982.1546 659.7489 L1975.8029 658.9686 L1969.0066 658.5227 L1962.2097 658.6341 L1956.0814 658.2998 L1949.5077 658.4113 L1943.1565 657.5196 L1938.8112 655.5129 L1932.3489 654.1753 L1929.5631 651.9457 L1922.9897 651.2769 L1916.0811 650.7195 L1911.0673 649.3822 L1906.7213 647.5983 L1901.7078 646.0376 L1898.0306 647.9332 L1891.5683 647.8212 L1885.774 646.9298 L1878.0861 646.0376 L1870.7321 645.0348 L1864.3812 643.5855 L1858.2532 642.2479 L1854.5761 640.5757 L1855.6903 638.4576 L1851.6789 636.674 L1845.328 636.2283 L1837.8629 636.0052 L1832.5145 636.1166 L1825.0492 636.1166 L1819.9236 636.4511 L1812.4585 636.5625 L1805.9962 636.8971 L1801.2049 635.8937 L1798.8648 633.9987 L1796.971 631.6578 L1795.9679 629.0937 L1792.4025 627.5332 L1792.1797 629.8742 L1790.6198 632.6611 L1785.4945 633.1068 L1780.2575 633.6642 L1773.7952 633.6642 L1768.0012 633.8873 L1761.8731 634.779 L1756.7476 635.7823 L1751.5109 635.2249 L1746.497 634.6675 L1741.3711 634.6675 L1736.0227 635.5592 L1730.1178 635.0021 L1724.9923 634.2216 L1719.867 634.6675 L1716.0784 636.4511 L1711.6217 638.2347 L1705.7162 638.6807 L1698.5854 638.1233 L1691.7885 636.674 L1687.8886 635.2249 L1681.6491 635.4478 L1677.638 633.6642 L1674.7411 631.8806 L1670.2844 630.7658 L1666.0501 631.992 L1659.699 632.2152 L1655.7993 633.8873 L1651.1194 635.4478 L1644.9914 636.2283 L1638.863 636.8971 L1633.6263 636.8971 L1628.0551 636.7854 L1620.8126 633.3299 L1617.0243 631.3232 L1612.6787 629.7628 L1609.0022 628.9822 L1601.8711 633.2182 L1597.9711 634.779 L1595.0745 636.674 L1591.2857 638.5693 L1585.3807 637.7887 L1580.1438 638.5693 L1574.0154 638.5693 L1568.8902 639.3495 L1564.5445 638.1233 L1559.7535 637.7887 L1556.1878 638.3461 L1550.8397 638.2347 L1545.0459 637.7887 L1539.5861 638.4576 L1534.1263 638.0116 L1529.3349 636.8971 L1526.6612 634.2216 L1524.5442 632.6608 L1521.647 636.4511 L1517.5245 638.0116 L1511.2848 637.6773 L1505.7135 638.3461 L1500.5886 638.9035 L1494.9059 638.3461 L1490.7834 639.2381 L1487.5522 640.2411 L1484.4322 642.1364 L1479.6409 643.2512 L1474.07 644.7003 L1470.1703 646.8178 L1468.4987 648.9359 L1465.7132 651.1655 L1459.9194 652.0571 L1454.2368 652.7262 L1447.7742 652.9491 L1444.2091 653.5065 L1441.2005 656.2931 L1439.752 658.2998 L1436.1863 659.972 L1433.0669 661.7556 L1431.1725 663.8734 L1428.0527 666.103 L1421.4787 667.1063 L1414.905 666.549 L1410.5594 664.7654 L1413.2337 662.4244 L1416.1303 660.3063 L1416.9105 658.0767 L1410.5594 658.1884 L1409.7791 655.9589 L1414.2365 653.8407 L1419.696 652.3917 L1420.3645 649.8279 L1420.5874 648.3785 L1415.9078 642.4707 L1410.2251 642.4707 L1404.6542 642.0247 L1399.3058 641.3559 L1393.7348 640.6868 L1388.3867 639.4609 L1383.4837 641.8019 L1378.9155 642.9167 L1373.456 642.5821 L1368.7764 641.0217 L1364.9881 639.4609 L1358.191 638.7921 L1354.737 637.2314 L1349.7228 635.3364 L1349.166 632.884 L1344.5976 631.3232 L1339.2495 630.7658 L1334.2353 630.4316 L1328.9986 630.8772 L1323.316 631.7692 L1318.6364 632.884 L1313.845 634.4447 L1312.7309 636.4511 L1308.0513 637.7887 L1302.7029 637.6773 L1299.026 639.2381 L1293.9005 641.2445 L1288.5523 640.5757 L1284.0956 641.8019 L1279.4157 643.1395 L1274.9589 644.3657 L1268.2735 645.4802 L1262.7026 646.2607 L1256.7971 648.1557 L1251.6718 649.1588 L1249.6662 651.6115 L1243.8722 652.9491 L1239.6379 651.4997 L1235.6269 649.4933 L1229.7217 649.9393 L1224.8189 648.6017 L1222.5905 646.595 L1216.685 645.7036 L1213.4539 647.5983 L1210.3342 650.7195 L1205.9885 652.2803 L1200.1947 652.8377 L1194.8463 653.8407 L1189.8325 655.4015 L1183.8156 656.0703 L1178.1332 656.8508 L1171.782 656.9622 L1165.3197 656.9622 L1158.6343 657.1851 L1152.3948 658.1884 L1148.7177 656.5162 L1146.0437 654.6212 L1139.9153 654.2867 L1133.5644 653.6179 L1127.5475 653.5065 L1120.8624 653.7293 L1114.734 654.3981 L1110.0544 656.5162 L1107.8258 654.3981 L1100.3607 654.0639 L1094.5666 655.6246 L1092.004 657.8539 L1085.5414 658.9686 L1082.3102 656.9622 L1078.1874 654.2867 L1072.2822 655.0672 L1068.0483 653.6179 L1064.5943 655.6246 L1059.6916 656.8508 L1053.3407 657.7424 L1047.5466 659.0801 L1041.1954 659.8606 L1034.7331 660.6408 L1028.9391 661.6442 L1022.6993 663.5392 L1020.2482 661.1982 L1013.7856 660.8636 L1006.6547 661.5327 L999.3007 662.5358 L992.5042 662.2016 L991.0557 660.0834 L984.9274 659.526 L982.0305 661.7556 L981.8077 663.8734 L975.0108 663.6506 L972.2253 661.7556 L965.4285 661.421 L961.306 662.9818 L958.5205 665.6573 L954.0636 667.8866 L948.2697 669.6702 L942.0299 671.0078 L936.1246 672.1225 L932.3362 673.9064 L930.3306 676.2474 L936.3472 677.585 L934.676 679.8143 L929.3279 681.4864 L924.3137 683.3817 L916.403 685.1653 L910.1632 686.5029 L903.2551 687.8406 L896.2355 688.9553 L887.8788 689.7356 L879.0766 689.9587 L875.1768 690.4044 L867.4887 691.1849 L859.6891 692.188 L854.5637 694.4175 L847.6555 696.0897 L840.7474 697.7619 L831.1651 699.0992 L823.0312 700.4368 L820.4686 701.6633 L819.6886 705.8993 L821.2485 708.0171 L832.3907 708.0171 L844.09 707.1255 L855.1208 706.9026 L855.1208 709.0205 L857.5721 711.0269 L861.5833 713.0336 L852.781 714.4826 L840.1903 715.486 L828.3796 716.2662 L817.6829 717.4924 L806.4295 718.7189 L792.0558 718.8303 L784.145 720.5025 L780.468 722.9549 L768.9915 721.617 L755.0639 720.8368 L740.9132 720.9482 L730.7739 722.5089 L718.9631 723.958 L709.0466 725.7415 L699.6872 727.4137 L692.7787 729.4204 L689.9933 727.3023 L684.4222 724.6271 L673.8374 722.7318 L664.1435 721.0596 L650.2157 719.4991 L636.0653 718.6072 L625.7029 716.8236 L617.569 715.04 L607.3182 713.4796 L595.2848 712.5876 L588.0421 710.4695 L586.8166 708.3517 L580.1314 706.4567 L580.3539 704.2271 L580.6885 701.8861 L588.8222 700.4368 L598.6273 700.9942 L604.9785 699.2106 L601.413 697.2042 L595.0618 695.6434 L586.371 694.6406 L584.5881 692.4111 L594.1704 692.4111 L603.1955 691.9651 L613.2237 692.188 L622.3603 691.9651 L626.9285 689.6241 L634.6167 688.398 L641.7475 687.1718 L649.3242 686.2798 L657.9039 684.162 L661.3579 682.267 L663.9206 680.2603 L671.4973 679.48 L674.8398 677.585 L677.9599 675.244 L678.7398 672.2343 L676.957 670.0047 L676.5114 667.7752 L674.8398 665.6573 L674.0599 660.4177 L672.3888 658.2998 L669.7146 656.4048 L668.0433 654.1753 L666.8177 652.0571 L664.4776 649.8279 L660.1324 648.044 L655.4526 646.7067 L652.4442 644.9228 L650.4386 642.5821 L651.3298 640.4643 L654.8953 638.0116 L658.238 636.2283 L661.3579 634.333 L666.7061 633.8873 L670.6058 632.5494 L667.9317 630.6544 L667.5976 628.5366 L668.3775 626.307 L671.1632 624.6348 L675.2858 623.1855 L679.1855 621.8479 L683.8651 621.2905 L688.0991 622.1825 L690.5507 620.9563" stroke-dasharray="" fill="none" fill-opacity="1.0" stroke="#000000" stroke-opacity="1.0" stroke-width="1.0px" stroke-linecap="butt" stroke-linejoin="miter" stroke-dashoffset="0.0px"/>
<path d="M666.4734 381.3546 L667.3917 382.5723 L669.6324 375.7604 L669.7759 372.7004 L672.5045 367.6941 L682.4188 366.0387 L687.7011 366.1193 L693.0007 369.0291 L693.0979 370.783 L694.8762 369.6071 L694.3289 366.3645 L695.8876 363.8718 L696.8982 359.3909 L695.5545 355.854 L692.447 354.2568 L691.8368 352.012 L692.6722 348.7265 L681.7656 348.4916 L679.5778 341.8676 L681.2379 341.7726 L681.1629 339.3193 L680.0543 337.6584 L679.8034 334.3699 L676.4992 332.6827 L672.9204 332.7386 L670.5659 331.0864 L666.7204 329.9593 L664.4821 327.8338 L658.1114 326.8948 L651.9337 321.7992 L652.391 317.9854 L651.6916 315.7985 L652.2969 311.5349 L644.8531 312.4982 L641.8557 314.6343 L636.8814 316.9397 L635.6124 318.6604 L632.6832 318.7847 L628.4534 318.3032 L633.372 327.4598 L632.1489 329.3851 L631.8693 333.3842 L631.7574 338.2251 L629.5351 341.0671 L630.5545 343.1764 L629.2493 345.0887 L631.6963 349.8706 L628.1078 356.0107 L630.8964 359.8798 L631.6554 363.9847 L634.6398 366.3933 L632.8481 371.8978 L635.9045 378.2789 L638.133 386.1215 L642.2376 385.3421 L646.9783 380.2016 L654.4219 381.5871 L657.7663 385.6958 L659.986 381.1194 L666.4734 381.3546" stroke-dasharray="" fill="none" fill-opacity="1.0" stroke="#000000" stroke-opacity="1.0" stroke-width="1.0px" stroke-linecap="butt" stroke-linejoin="miter" stroke-dashoffset="0.0px"/>
<path d="M696.177 427.8971 L699.8697 427.2907 L705.5744 431.6904 L707.6892 431.5243 L713.5434 435.1688 L718.0063 438.3132 L721.2966 442.1841 L718.788 444.8825 L720.3632 448.1045 L724.1267 444.8516 L726.721 439.4403 L730.5886 436.7798 L735.5911 432.2672 L741.9032 422.2548 L745.879 419.1239 L747.17 416.3478 L748.2326 410.6007 L747.2867 407.4593 L748.1147 403.2115 L752.9303 397.5691 L759.6254 393.0395 L765.9967 391.3776 L770.0036 388.8467 L778.9528 386.6607 L785.1333 386.6742 L786.4652 383.2643 L791.0698 380.799 L792.037 374.9234 L797.8051 367.4972 L798.8137 359.8922 L800.6125 357.6476 L801.2169 353.8967 L802.8029 345.1281 L802.3991 334.4689 L803.9886 330.2835 L805.4108 330.1724 L809.6221 325.2406 L813.2465 318.8094 L821.2653 310.8937 L824.1595 307.1795 L826.4249 297.7748 L825.4804 294.3328 L823.5498 287.0894 L821.4881 285.295 L816.6233 285.0668 L812.2411 283.4258 L804.9756 277.0526 L796.5658 272.3445 L788.0667 272.5661 L776.9953 269.5572 L770.3803 271.3106 L771.3131 268.1614 L768.5364 264.8277 L759.0879 261.3534 L751.9291 259.3088 L747.6082 263.0417 L747.403 257.3397 L737.3471 256.4463 L735.5776 254.7315 L739.8565 250.0483 L739.703 246.1213 L736.6606 245.1822 L733.4697 235.2333 L732.0625 232.0868 L730.1245 232.3557 L726.7593 237.5618 L725.0123 241.751 L722.8322 243.9119 L720.1083 244.3185 L719.3325 242.717 L718.06 242.4792 L716.299 244.0217 L713.8147 242.8481 L710.5559 241.6427 L707.8698 242.2243 L705.574 241.7188 L705.005 243.3661 L705.9593 244.4971 L705.4467 245.6595 L702.3537 245.1938 L700.9695 245.3976 L697.8229 244.915 L695.9731 246.428 L693.399 247.4257 L691.6012 247.6718 L690.9724 248.786 L688.18 248.5038 L684.6803 245.8346 L684.2678 243.2021 L682.8116 240.3258 L683.7168 235.483 L685.2947 233.4788 L683.9899 230.8352 L682.0352 229.9735 L682.775 227.4756 L681.451 226.1647 L678.4934 226.4162 L679.2466 228.0215 L677.1661 230.1925 L670.8029 232.3221 L666.712 233.2048 L665.0698 234.5496 L660.5463 233.1277 L656.3347 232.3998 L655.2686 232.9233 L657.8148 234.3981 L657.5853 238.2121 L658.3751 241.7948 L663.1944 242.2837 L663.502 243.4793 L659.4384 245.098 L658.7773 247.5073 L656.4351 248.441 L652.2043 249.7691 L651.1032 251.51 L646.6801 251.8787 L643.548 248.8698 L642.4744 249.5709 L641.3653 246.2151 L639.7849 244.4108 L637.9033 246.3718 L626.819 246.2447 L626.8894 249.8043 L630.2229 250.3926 L630.0306 252.5716 L628.893 251.9827 L625.6892 252.92 L625.6603 257.0533 L628.1838 259.1288 L629.0746 262.3865 L628.9402 264.8535 L626.3829 280.4519 L621.2564 280.185 L620.4937 281.0402 L615.8313 282.1347 L609.3259 286.0064 L608.913 288.6613 L607.4612 290.6407 L608.0283 293.7169 L604.5896 295.3591 L604.5958 297.7621 L603.0948 298.8022 L605.4624 303.9257 L608.6236 307.3868 L607.4214 309.8295 L611.197 310.1593 L613.3482 313.1938 L618.3685 313.3408 L623.0363 309.9882 L622.6564 318.6298 L625.2444 319.283 L628.4534 318.3032 L632.6832 318.7847 L635.6124 318.6604 L636.8814 316.9397 L641.8557 314.6343 L644.8531 312.4982 L652.2969 311.5349 L651.6916 315.7985 L652.391 317.9854 L651.9337 321.7992 L658.1114 326.8948 L664.4821 327.8338 L666.7204 329.9593 L670.5659 331.0864 L672.9204 332.7386 L676.4992 332.6827 L679.8034 334.3699 L680.0543 337.6584 L681.1629 339.3193 L681.2379 341.7726 L679.5778 341.8676 L681.7656 348.4916 L692.6722 348.7265 L691.8368 352.012 L692.447 354.2568 L695.5545 355.854 L696.8982 359.3909 L695.8876 363.8718 L694.3289 366.3645 L694.8762 369.6071 L693.0979 370.783 L694.7802 373.946 L694.402 381.6686 L700.4074 382.7607 L702.7296 381.6465 L706.5716 383.1861 L707.637 384.8853 L708.1663 390.0985 L708.8313 392.2883 L710.9524 392.5406 L713.0861 391.6207 L715.1334 392.6529 L715.1304 395.7805 L714.3598 399.1449 L713.2428 402.4278 L716.0602 401.3377 L718.9143 404.6215 L718.7983 409.1646 L714.0083 412.3008 L710.1879 414.6171 L703.7673 420.1401 L696.177 427.8971" stroke-dasharray="" fill="none" fill-opacity="1.0" stroke="#000000" stroke-opacity="1.0" stroke-width="1.0px" stroke-linecap="butt" stroke-linejoin="miter" stroke-dashoffset="0.0px"/>
<path d="M633.5487 555.4425 L629.5003 554.7708 L624.2561 557.1199 L622.4112 561.0145 L619.476 563.6229 L611.93 561.5809 L603.9433 557.7809 L599.2532 556.5866 L607.0886 562.9583 L612.8987 566.0168 L620.0566 569.1951 L626.0162 570.0177 L630.1463 571.728 L633.5147 572.1885 L636.31 572.3695 L641.1888 570.6026 L643.0725 568.3019 L639.6448 568.1494 L633.5525 568.1465 L633.5487 555.4425 M635.9045 378.2789 L632.8481 371.8978 L634.6398 366.3933 L631.6554 363.9847 L630.8964 359.8798 L628.1078 356.0107 L626.5831 358.9273 L623.6583 360.3796 L624.8424 368.3924 L625.2587 377.7042 L623.4797 390.4227 L621.6536 402.2381 L620.6286 413.243 L617.3019 420.1895 L617.9835 427.211 L616.2846 431.9041 L617.5946 440.4275 L615.1866 448.9051 L611.2533 458.0058 L607.7627 467.1931 L605.3657 467.378 L605.835 473.7871 L607.4733 479.3383 L604.8592 483.2268 L602.9201 493.766 L601.1338 501.902 L604.7213 502.7031 L606.4987 495.602 L610.3165 497.1142 L607.3438 508.8993 L601.0214 506.8973 L599.0846 516.3462 L593.6674 521.3733 L602.3021 523.0322 L596.2936 527.4278 L593.8744 532.8997 L594.6041 542.597 L597.4663 546.3802 L595.8541 549.7137 L597.6362 553.317 L604.7132 556.5728 L604.7132 556.5728 L611.2259 560.5342 L617.6438 562.3834 L620.0529 562.2514 L620.9701 556.9377 L626.1033 554.8824 L628.8425 553.4831 L633.9041 553.5257 L628.6315 552.6344 L614.8847 551.8735 L612.5261 548.5566 L612.6366 544.2959 L608.8491 544.6625 L606.8449 542.5993 L606.3477 536.5671 L610.7122 534.065 L612.5161 530.4561 L611.855 527.5792 L614.8707 522.7226 L616.9486 515.1899 L616.3381 511.8503 L618.8215 510.7726 L618.2127 508.6295 L615.5741 507.4897 L617.4489 505.1029 L614.8811 502.9465 L613.5529 496.3834 L615.8404 495.2257 L614.8794 488.2906 L616.2161 482.4642 L617.7364 477.3889 L621.1432 475.3237 L619.414 469.7704 L619.3955 464.544 L623.7026 460.8289 L623.5702 456.0764 L626.8171 450.5234 L626.8315 445.2914 L625.3545 444.2522 L622.7338 434.4321 L626.2385 428.5801 L625.7007 423.0709 L627.734 417.9009 L631.4596 412.5651 L635.4743 409.0274 L633.7718 406.7949 L634.9596 404.9636 L634.7796 395.4833 L640.976 392.6773 L642.9284 386.7668 L642.2376 385.3421 L638.133 386.1215 L635.9045 378.2789" stroke-dasharray="" fill="none" fill-opacity="1.0" stroke="#000000" stroke-opacity="1.0" stroke-width="1.0px" stroke-linecap="butt" stroke-linejoin="miter" stroke-dashoffset="0.0px"/>
<path d="M595.2101 256.8649 L596.7268 256.3254 L600.51 259.0198 L602.3259 261.705 L604.9593 263.1708 L608.3107 269.1354 L612.5466 269.848 L615.6814 268.3437 L617.7357 269.3279 L621.15 268.8391 L625.5064 271.5031 L621.8372 277.2928 L623.5361 277.4277 L626.3829 280.4519 L628.9402 264.8535 L629.0746 262.3865 L628.1838 259.1288 L625.6603 257.0533 L625.6892 252.92 L628.893 251.9827 L630.0306 252.5716 L630.2229 250.3926 L626.8894 249.8043 L626.819 246.2447 L637.9033 246.3718 L639.7849 244.4108 L641.3653 246.2151 L642.4744 249.5709 L643.548 248.8698 L641.8131 243.1964 L640.301 241.2073 L638.2368 239.9536 L641.1197 237.1217 L640.9241 235.848 L639.3069 234.1576 L638.1624 230.3776 L638.6079 226.2976 L639.8775 224.3876 L640.902 221.3236 L638.8902 220.3459 L635.6477 220.9947 L631.5502 220.6902 L629.251 221.2986 L625.2469 216.4032 L621.9421 215.6784 L614.6266 216.2255 L613.2716 214.2411 L611.8714 213.7669 L611.6712 212.5795 L612.3469 210.4739 L611.8977 208.1833 L610.6425 206.9317 L609.913 204.3163 L606.9763 203.9353 L608.5541 200.6086 L609.2499 196.5492 L610.9033 194.435 L613.1053 192.8038 L614.5484 189.9596 L618.2025 189.006 L619.3069 187.0906 L617.8143 185.5941 L615.799 185.2456 L613.0449 187.9862 L610.8283 189.2581 L606.3516 192.1308 L601.9002 191.656 L601.4478 192.8418 L597.863 192.9498 L594.6002 195.5897 L593.5519 200.3968 L593.4956 202.2784 L591.153 202.8839 L586.8847 206.8551 L583.9453 206.6745 L583.2549 207.5063 L584.5756 210.8571 L583.503 212.5479 L581.6695 212.1396 L580.9404 214.9048 L583.2439 217.935 L584.1419 222.7464 L582.9221 224.24 L584.2056 229.4444 L583.1323 232.7461 L585.2291 234.0998 L583.0518 237.0843 L580.6561 240.6593 L577.834 241.0408 L576.5 243.1013 L576.7519 245.9511 L574.6293 246.378 L575.4012 248.1441 L581.0912 251.3924 L582.1519 251.3016 L583.5379 253.749 L588.3655 254.5383 L589.9815 253.6332 L592.7739 255.5176 L595.2101 256.8649" stroke-dasharray="" fill="none" fill-opacity="1.0" stroke="#000000" stroke-opacity="1.0" stroke-width="1.0px" stroke-linecap="butt" stroke-linejoin="miter" stroke-dashoffset="0.0px"/>
<path d="M567.1677 275.3699 L567.842 277.7382 L566.2191 279.0928 L566.373 281.1775 L568.7244 280.7244 L571.0223 281.3394 L573.4099 284.2119 L576.6264 281.8718 L577.7028 278.0336 L581.1888 273.0839 L588.0298 270.8405 L594.2329 264.8838 L596.0037 261.1849 L595.2101 256.8649 L592.7739 255.5176 L589.9815 253.6332 L588.3655 254.5383 L583.5379 253.749 L582.1519 251.3016 L581.0912 251.3924 L575.4012 248.1441 L571.4901 250.4082 L568.3734 251.6285 L568.77 253.9501 L566.6172 257.614 L565.5702 261.1579 L563.5774 262.0157 L564.538 267.1789 L563.3834 268.7826 L566.7909 271.2756 L568.9654 268.6339 L570.1957 271.1183 L567.1677 275.3699" stroke-dasharray="" fill="none" fill-opacity="1.0" stroke="#000000" stroke-opacity="1.0" stroke-width="1.0px" stroke-linecap="butt" stroke-linejoin="miter" stroke-dashoffset="0.0px"/>
<path d="M2038.7476 354.6449 L2037.3366 355.5829 L2034.7498 354.8794 L2032.5549 356.8336 L2033.1034 359.3348 L2036.2391 360.0383 L2039.7665 359.2567 L2040.7072 356.2864 L2038.7476 354.6449 M2044.3827 351.581 L2048.0 350.1808 L2048.0 347.4041 L2044.6635 349.1786 L2042.8607 349.4911 L2040.0176 350.6583 L2040.747 352.7796 L2044.3827 351.581 M0.4701 349.8768 L1.1758 347.141 L0.0 347.4041 L0.0 350.1808 L0.4701 349.8768" stroke-dasharray="" fill="none" fill-opacity="1.0" stroke="#000000" stroke-opacity="1.0" stroke-width="1.0px" stroke-linecap="butt" stroke-linejoin="miter" stroke-dashoffset="0.0px"/>
<path d="M675.84 550.9689 L678.6844 553.5289 L683.52 550.9689 L686.08 552.96 L693.76 551.2533 L695.4667 549.2622 L690.9156 546.7022 L687.5022 548.9778 L682.6667 547.5556 L675.84 550.9689" stroke-dasharray="" fill="none" fill-opacity="1.0" stroke="#000000" stroke-opacity="1.0" stroke-width="1.0px" stroke-linecap="butt" stroke-linejoin="miter" stroke-dashoffset="0.0px"/>
<path d="M628.1078 356.0107 L631.6963 349.8706 L629.2493 345.0887 L630.5545 343.1764 L629.5351 341.0671 L631.7574 338.2251 L631.8693 333.3842 L632.1489 329.3851 L633.372 327.4598 L628.4534 318.3032 L625.2444 319.283 L622.6564 318.6298 L623.0363 309.9882 L618.3685 313.3408 L613.3482 313.1938 L611.197 310.1593 L607.4214 309.8295 L608.6236 307.3868 L605.4624 303.9257 L603.0948 298.8022 L604.5958 297.7621 L604.5896 295.3591 L608.0283 293.7169 L607.4612 290.6407 L608.913 288.6613 L609.3259 286.0064 L615.8313 282.1347 L620.4937 281.0402 L621.2564 280.185 L626.3829 280.4519 L623.5361 277.4277 L621.8372 277.2928 L625.5064 271.5031 L621.15 268.8391 L617.7357 269.3279 L615.6814 268.3437 L612.5466 269.848 L608.3107 269.1354 L604.9593 263.1708 L602.3259 261.705 L600.51 259.0198 L596.7268 256.3254 L595.2101 256.8649 L596.0037 261.1849 L594.2329 264.8838 L588.0298 270.8405 L581.1888 273.0839 L577.7028 278.0336 L576.6264 281.8718 L573.4099 284.2119 L571.0223 281.3394 L568.7244 280.7244 L566.373 281.1775 L566.2191 279.0928 L567.842 277.7382 L567.1677 275.3699 L562.633 278.9626 L560.8622 282.9469 L563.619 288.3729 L561.7778 290.9118 L565.8312 293.2148 L570.2509 296.9278 L572.041 301.1176 L574.3676 303.7103 L579.7424 315.0377 L585.3514 325.5337 L590.1696 332.9993 L589.2354 334.6386 L591.5921 339.3382 L595.98 342.8448 L606.1822 349.0666 L617.4604 354.779 L617.9541 357.1132 L623.6583 360.3796 L626.5831 358.9273 L628.1078 356.0107" stroke-dasharray="" fill="none" fill-opacity="1.0" stroke="#000000" stroke-opacity="1.0" stroke-width="1.0px" stroke-linecap="butt" stroke-linejoin="miter" stroke-dashoffset="0.0px"/>
<path d="M667.3917 382.5723 L677.8507 391.8547 L682.5019 392.7199 L689.4528 396.9221 L695.3118 399.1458 L696.1285 401.6564 L690.5277 410.3038 L696.2645 411.8522 L702.6534 412.7204 L707.1525 411.8064 L712.3126 407.4484 L713.2428 402.4278 L714.3598 399.1449 L715.1304 395.7805 L715.1334 392.6529 L713.0861 391.6207 L710.9524 392.5406 L708.8313 392.2883 L708.1663 390.0985 L707.637 384.8853 L706.5716 383.1861 L702.7296 381.6465 L700.4074 382.7607 L694.402 381.6686 L694.7802 373.946 L693.0979 370.783 L693.0007 369.0291 L687.7011 366.1193 L682.4188 366.0387 L672.5045 367.6941 L669.7759 372.7004 L669.6324 375.7604 L667.3917 382.5723" stroke-dasharray="" fill="none" fill-opacity="1.0" stroke="#000000" stroke-opacity="1.0" stroke-width="1.0px" stroke-linecap="butt" stroke-linejoin="miter" stroke-dashoffset="0.0px"/>
<path d="M696.177 427.8971 L694.7559 432.4497 L693.2341 438.2976 L693.2898 443.9641 L692.0555 445.2306 L691.6149 448.9071 L695.0806 452.0536 L698.9387 451.871 L704.1974 454.3137 L707.2763 453.704 L711.476 454.8417 L717.9012 451.6797 L720.3632 448.1045 L718.788 444.8825 L721.2966 442.1841 L718.0063 438.3132 L713.5434 435.1688 L707.6892 431.5243 L705.5744 431.6904 L699.8697 427.2907 L696.177 427.8971" stroke-dasharray="" fill="none" fill-opacity="1.0" stroke="#000000" stroke-opacity="1.0" stroke-width="1.0px" stroke-linecap="butt" stroke-linejoin="miter" stroke-dashoffset="0.0px"/>
</g>
</svg>