<?xml version="1.0" standalone="no"?>
<!DOCTYPE svg PUBLIC "-//W3C//DTD SVG 1.1//EN" "http://www.w3.org/Graphics/SVG/1.1/DTD/svg11.dtd">
<svg width="1600px" height="1600px" version="1.1" xmlns="http://www.w3.org/2000/svg" xmlns:inkscape="http://www.inkscape.org/namespaces/inkscape">
<rect x="0" y="0" width="1600px" height="1600px" fill="#ffffff"/>
<g id="layer" inkscape:groupmode="layer" inkscape:label="layer">
<path d="M133.3333 1466.6667 L161.3333 1230.6667 L188.6667 1020.6667 L216.6667 836.6667 L244.6667 676.6667 L272.0 540.0 L300.0 425.3333 L328.0 331.3333 L355.3333 256.6667 L383.3333 201.3333 L411.3333 162.6667 L438.6667 140.6667 L466.6667 133.3333 L494.6667 140.0 L522.0 159.3333 L550.0 190.6667 L578.0 232.0 L605.3333 282.6667 L633.3333 341.3333 L661.3333 407.3333 L688.6667 479.3333 L716.6667 555.3333 L744.6667 634.6667 L772.0 716.6667 L800.0 800.0 L828.0 883.3333 L855.3333 965.3333 L883.3333 1044.6667 L911.3333 1120.6667 L938.6667 1192.6667 L966.6667 1258.6667 L994.6667 1317.3333 L1022.0 1368.0 L1050.0 1409.3333 L1078.0 1440.6667 L1105.3333 1460.0 L1133.3333 1466.6667 L1161.3333 1459.3333 L1188.6667 1437.3333 L1216.6667 1398.6667 L1244.6667 1343.3333 L1272.0 1268.6667 L1300.0 1174.6667 L1328.0 1060.0 L1355.3333 923.3333 L1383.3333 763.3333 L1411.3333 579.3333 L1438.6667 369.3333 L1466.6667 133.3333" stroke-dasharray="" fill="none" fill-opacity="1.0" stroke="#add8e6" stroke-opacity="1.0" stroke-width="1.0px" stroke-linecap="butt" stroke-linejoin="miter" stroke-dashoffset="0.0px"/>
</g>
</svg>