<?xml version="1.0" standalone="no"?>
<!DOCTYPE svg PUBLIC "-//W3C//DTD SVG 1.1//EN" "http://www.w3.org/Graphics/SVG/1.1/DTD/svg11.dtd">
<svg width="512px" height="512px" version="1.1" xmlns="http://www.w3.org/2000/svg" xmlns:inkscape="http://www.inkscape.org/namespaces/inkscape">
<rect x="0" y="0" width="512px" height="512px" fill="#ffffff"/>
<g id="layer" inkscape:groupmode="layer" inkscape:label="layer">
<path d="M22462971.9001 29450234.6248 L22462971.9001 -3842047.2987 L5685758.9623 -3842047.2987 L6078974.8905 -3186687.4183 L6865406.747 -2924543.4662 L15254013.2159 -3055615.4422 L16171517.0484 -2269183.5858 L16826876.9288 -1220607.777 L17613308.7853 -958463.8251 L22462971.9001 -1032191.8116 L22462971.9001 901119.8356 L15385085.192 1007615.8161 L14729725.3116 1269759.7683 L14205437.4073 1925119.6488 L14074365.4312 6774782.7637 L12763645.6704 7692286.5961 L12108285.79 8609790.4287 L12108285.79 13066237.6153 L10142206.1489 14901245.2805 L10142206.1489 16867324.9215 L9880062.1967 17653756.7779 L8831486.3881 18309116.6581 L6996478.7231 18309116.6581 L6472190.8187 18571260.6104 L5685758.9623 19881980.3712 L5030399.0819 20406268.2757 L573951.8953 20537340.2518 L-343551.9373 19750908.3951 L-998911.8176 18702332.5867 L-2309631.5784 17915900.7302 L-2571775.5306 17391612.8258 L-2702847.5067 15032317.2565 L-4668927.1478 13459453.5434 L-4799999.1239 11100157.9741 L-5062143.076 10575870.0697 L-6372862.8368 9789438.2134 L-6897150.7411 9134078.3328 L-6897150.7411 6643710.7876 L-5062143.076 5070847.0745 L-4931071.1 4677631.1462 L-5062143.076 2187263.6009 L-6110718.8846 1400831.7442 L-11091453.9756 1507327.7248 L-11091453.9756 16523260.9843 L-9780734.2148 16474108.9931 L-8601086.4301 14770173.3042 L-7683582.5976 14639101.3281 L-6372862.8368 16343037.0171 L-5062143.076 17129468.8737 L-4799999.1239 17915900.7302 L-4931071.1 22110203.9646 L-5717502.9564 22765563.8449 L-8076798.5258 22896635.821 L-8994302.3583 23945211.6297 L-8994302.3583 30629882.4097 L-9100798.3389 30760954.3856 L21414396.0915 30760954.3856 L21807612.0197 29712378.5769 L22331899.9241 29450234.6248 L22462971.9001 29450234.6248" stroke-dasharray="" fill="none" fill-opacity="1.0" stroke="#00ff00" stroke-opacity="1.0" stroke-width="1.0px" stroke-linecap="butt" stroke-linejoin="miter" stroke-dashoffset="0.0px"/>
</g>
</svg>