<?xml version="1.0" standalone="no"?>
<!DOCTYPE svg PUBLIC "-//W3C//DTD SVG 1.1//EN" "http://www.w3.org/Graphics/SVG/1.1/DTD/svg11.dtd">
<svg width="514px" height="512px" version="1.1" xmlns="http://www.w3.org/2000/svg" xmlns:inkscape="http://www.inkscape.org/namespaces/inkscape">
<rect x="0" y="0" width="514px" height="512px" fill="#ffffff"/>
<g id="point" inkscape:groupmode="layer" inkscape:label="point">
<path d="M62.1705 465.4545 L48.734 442.1818 L21.861 442.1818 L8.4245 465.4545 L21.861 488.7273 L48.734 488.7273 L62.1705 465.4545 M62.1705 418.9091 L48.734 395.6364 L21.861 395.6364 L8.4245 418.9091 L21.861 442.1818 L48.734 442.1818 L62.1705 418.9091 M62.1705 372.3636 L48.734 349.0909 L21.861 349.0909 L8.4245 372.3636 L21.861 395.6364 L48.734 395.6364 L62.1705 372.3636 M62.1705 325.8182 L48.734 302.5455 L21.861 302.5455 L8.4245 325.8182 L21.861 349.0909 L48.734 349.0909 L62.1705 325.8182 M62.1705 279.2727 L48.734 256.0 L21.861 256.0 L8.4245 279.2727 L21.861 302.5455 L48.734 302.5455 L62.1705 279.2727 M62.1705 232.7273 L48.734 209.4545 L21.861 209.4545 L8.4245 232.7273 L21.861 256.0 L48.734 256.0 L62.1705 232.7273 M62.1705 186.1818 L48.734 162.9091 L21.861 162.9091 L8.4245 186.1818 L21.861 209.4545 L48.734 209.4545 L62.1705 186.1818 M62.1705 139.6364 L48.734 116.3636 L21.861 116.3636 L8.4245 139.6364 L21.861 162.9091 L48.734 162.9091 L62.1705 139.6364 M62.1705 93.0909 L48.734 69.8182 L21.861 69.8182 L8.4245 93.0909 L21.861 116.3636 L48.734 116.3636 L62.1705 93.0909 M62.1705 46.5455 L48.734 23.2727 L21.861 23.2727 L8.4245 46.5455 L21.861 69.8182 L48.734 69.8182 L62.1705 46.5455 M102.4801 488.7273 L89.0436 465.4545 L62.1705 465.4545 L48.734 488.7273 L62.1705 512.0 L89.0436 512.0 L102.4801 488.7273 M102.4801 442.1818 L89.0436 418.9091 L62.1705 418.9091 L48.734 442.1818 L62.1705 465.4545 L89.0436 465.4545 L102.4801 442.1818 M102.4801 395.6364 L89.0436 372.3636 L62.1705 372.3636 L48.734 395.6364 L62.1705 418.9091 L89.0436 418.9091 L102.4801 395.6364 M102.4801 349.0909 L89.0436 325.8182 L62.1705 325.8182 L48.734 349.0909 L62.1705 372.3636 L89.0436 372.3636 L102.4801 349.0909 M102.4801 302.5455 L89.0436 279.2727 L62.1705 279.2727 L48.734 302.5455 L62.1705 325.8182 L89.0436 325.8182 L102.4801 302.5455 M102.4801 256.0 L89.0436 232.7273 L62.1705 232.7273 L48.734 256.0 L62.1705 279.2727 L89.0436 279.2727 L102.4801 256.0 M102.4801 209.4545 L89.0436 186.1818 L62.1705 186.1818 L48.734 209.4545 L62.1705 232.7273 L89.0436 232.7273 L102.4801 209.4545 M102.4801 162.9091 L89.0436 139.6364 L62.1705 139.6364 L48.734 162.9091 L62.1705 186.1818 L89.0436 186.1818 L102.4801 162.9091 M102.4801 116.3636 L89.0436 93.0909 L62.1705 93.0909 L48.734 116.3636 L62.1705 139.6364 L89.0436 139.6364 L102.4801 116.3636 M102.4801 69.8182 L89.0436 46.5455 L62.1705 46.5455 L48.734 69.8182 L62.1705 93.0909 L89.0436 93.0909 L102.4801 69.8182 M102.4801 23.2727 L89.0436 0.0 L62.1705 0.0 L48.734 23.2727 L62.1705 46.5455 L89.0436 46.5455 L102.4801 23.2727 M142.7896 465.4545 L129.3531 442.1818 L102.4801 442.1818 L89.0436 465.4545 L102.4801 488.7273 L129.3531 488.7273 L142.7896 465.4545 M142.7896 418.9091 L129.3531 395.6364 L102.4801 395.6364 L89.0436 418.9091 L102.4801 442.1818 L129.3531 442.1818 L142.7896 418.9091 M142.7896 372.3636 L129.3531 349.0909 L102.4801 349.0909 L89.0436 372.3636 L102.4801 395.6364 L129.3531 395.6364 L142.7896 372.3636 M142.7896 325.8182 L129.3531 302.5455 L102.4801 302.5455 L89.0436 325.8182 L102.4801 349.0909 L129.3531 349.0909 L142.7896 325.8182 M142.7896 279.2727 L129.3531 256.0 L102.4801 256.0 L89.0436 279.2727 L102.4801 302.5455 L129.3531 302.5455 L142.7896 279.2727 M142.7896 232.7273 L129.3531 209.4545 L102.4801 209.4545 L89.0436 232.7273 L102.4801 256.0 L129.3531 256.0 L142.7896 232.7273 M142.7896 186.1818 L129.3531 162.9091 L102.4801 162.9091 L89.0436 186.1818 L102.4801 209.4545 L129.3531 209.4545 L142.7896 186.1818 M142.7896 139.6364 L129.3531 116.3636 L102.4801 116.3636 L89.0436 139.6364 L102.4801 162.9091 L129.3531 162.9091 L142.7896 139.6364 M142.7896 93.0909 L129.3531 69.8182 L102.4801 69.8182 L89.0436 93.0909 L102.4801 116.3636 L129.3531 116.3636 L142.7896 93.0909 M142.7896 46.5455 L129.3531 23.2727 L102.4801 23.2727 L89.0436 46.5455 L102.4801 69.8182 L129.3531 69.8182 L142.7896 46.5455 M183.0992 488.7273 L169.6627 465.4545 L142.7896 465.4545 L129.3531 488.7273 L142.7896 512.0 L169.6627 512.0 L183.0992 488.7273 M183.0992 442.1818 L169.6627 418.9091 L142.7896 418.9091 L129.3531 442.1818 L142.7896 465.4545 L169.6627 465.4545 L183.0992 442.1818 M183.0992 395.6364 L169.6627 372.3636 L142.7896 372.3636 L129.3531 395.6364 L142.7896 418.9091 L169.6627 418.9091 L183.0992 395.6364 M183.0992 349.0909 L169.6627 325.8182 L142.7896 325.8182 L129.3531 349.0909 L142.7896 372.3636 L169.6627 372.3636 L183.0992 349.0909 M183.0992 302.5455 L169.6627 279.2727 L142.7896 279.2727 L129.3531 302.5455 L142.7896 325.8182 L169.6627 325.8182 L183.0992 302.5455 M183.0992 256.0 L169.6627 232.7273 L142.7896 232.7273 L129.3531 256.0 L142.7896 279.2727 L169.6627 279.2727 L183.0992 256.0 M183.0992 209.4545 L169.6627 186.1818 L142.7896 186.1818 L129.3531 209.4545 L142.7896 232.7273 L169.6627 232.7273 L183.0992 209.4545 M183.0992 162.9091 L169.6627 139.6364 L142.7896 139.6364 L129.3531 162.9091 L142.7896 186.1818 L169.6627 186.1818 L183.0992 162.9091 M183.0992 116.3636 L169.6627 93.0909 L142.7896 93.0909 L129.3531 116.3636 L142.7896 139.6364 L169.6627 139.6364 L183.0992 116.3636 M183.0992 69.8182 L169.6627 46.5455 L142.7896 46.5455 L129.3531 69.8182 L142.7896 93.0909 L169.6627 93.0909 L183.0992 69.8182 M183.0992 23.2727 L169.6627 0.0 L142.7896 0.0 L129.3531 23.2727 L142.7896 46.5455 L169.6627 46.5455 L183.0992 23.2727 M223.4087 465.4545 L209.9722 442.1818 L183.0992 442.1818 L169.6627 465.4545 L183.0992 488.7273 L209.9722 488.7273 L223.4087 465.4545 M223.4087 418.9091 L209.9722 395.6364 L183.0992 395.6364 L169.6627 418.9091 L183.0992 442.1818 L209.9722 442.1818 L223.4087 418.9091 M223.4087 372.3636 L209.9722 349.0909 L183.0992 349.0909 L169.6627 372.3636 L183.0992 395.6364 L209.9722 395.6364 L223.4087 372.3636 M223.4087 325.8182 L209.9722 302.5455 L183.0992 302.5455 L169.6627 325.8182 L183.0992 349.0909 L209.9722 349.0909 L223.4087 325.8182 M223.4087 279.2727 L209.9722 256.0 L183.0992 256.0 L169.6627 279.2727 L183.0992 302.5455 L209.9722 302.5455 L223.4087 279.2727 M223.4087 232.7273 L209.9722 209.4545 L183.0992 209.4545 L169.6627 232.7273 L183.0992 256.0 L209.9722 256.0 L223.4087 232.7273 M223.4087 186.1818 L209.9722 162.9091 L183.0992 162.9091 L169.6627 186.1818 L183.0992 209.4545 L209.9722 209.4545 L223.4087 186.1818 M223.4087 139.6364 L209.9722 116.3636 L183.0992 116.3636 L169.6627 139.6364 L183.0992 162.9091 L209.9722 162.9091 L223.4087 139.6364 M223.4087 93.0909 L209.9722 69.8182 L183.0992 69.8182 L169.6627 93.0909 L183.0992 116.3636 L209.9722 116.3636 L223.4087 93.0909 M223.4087 46.5455 L209.9722 23.2727 L183.0992 23.2727 L169.6627 46.5455 L183.0992 69.8182 L209.9722 69.8182 L223.4087 46.5455 M263.7183 488.7273 L250.2817 465.4545 L223.4087 465.4545 L209.9722 488.7273 L223.4087 512.0 L250.2817 512.0 L263.7183 488.7273 M263.7183 442.1818 L250.2817 418.9091 L223.4087 418.9091 L209.9722 442.1818 L223.4087 465.4545 L250.2817 465.4545 L263.7183 442.1818 M263.7183 395.6364 L250.2817 372.3636 L223.4087 372.3636 L209.9722 395.6364 L223.4087 418.9091 L250.2817 418.9091 L263.7183 395.6364 M263.7183 349.0909 L250.2817 325.8182 L223.4087 325.8182 L209.9722 349.0909 L223.4087 372.3636 L250.2817 372.3636 L263.7183 349.0909 M263.7183 302.5455 L250.2817 279.2727 L223.4087 279.2727 L209.9722 302.5455 L223.4087 325.8182 L250.2817 325.8182 L263.7183 302.5455 M263.7183 256.0 L250.2817 232.7273 L223.4087 232.7273 L209.9722 256.0 L223.4087 279.2727 L250.2817 279.2727 L263.7183 256.0 M263.7183 209.4545 L250.2817 186.1818 L223.4087 186.1818 L209.9722 209.4545 L223.4087 232.7273 L250.2817 232.7273 L263.7183 209.4545 M263.7183 162.9091 L250.2817 139.6364 L223.4087 139.6364 L209.9722 162.9091 L223.4087 186.1818 L250.2817 186.1818 L263.7183 162.9091 M263.7183 116.3636 L250.2817 93.0909 L223.4087 93.0909 L209.9722 116.3636 L223.4087 139.6364 L250.2817 139.6364 L263.7183 116.3636 M263.7183 69.8182 L250.2817 46.5455 L223.4087 46.5455 L209.9722 69.8182 L223.4087 93.0909 L250.2817 93.0909 L263.7183 69.8182 M263.7183 23.2727 L250.2817 0.0 L223.4087 0.0 L209.9722 23.2727 L223.4087 46.5455 L250.2817 46.5455 L263.7183 23.2727 M304.0278 465.4545 L290.5913 442.1818 L263.7183 442.1818 L250.2817 465.4545 L263.7183 488.7273 L290.5913 488.7273 L304.0278 465.4545 M304.0278 418.9091 L290.5913 395.6364 L263.7183 395.6364 L250.2817 418.9091 L263.7183 442.1818 L290.5913 442.1818 L304.0278 418.9091 M304.0278 372.3636 L290.5913 349.0909 L263.7183 349.0909 L250.2817 372.3636 L263.7183 395.6364 L290.5913 395.6364 L304.0278 372.3636 M304.0278 325.8182 L290.5913 302.5455 L263.7183 302.5455 L250.2817 325.8182 L263.7183 349.0909 L290.5913 349.0909 L304.0278 325.8182 M304.0278 279.2727 L290.5913 256.0 L263.7183 256.0 L250.2817 279.2727 L263.7183 302.5455 L290.5913 302.5455 L304.0278 279.2727 M304.0278 232.7273 L290.5913 209.4545 L263.7183 209.4545 L250.2817 232.7273 L263.7183 256.0 L290.5913 256.0 L304.0278 232.7273 M304.0278 186.1818 L290.5913 162.9091 L263.7183 162.9091 L250.2817 186.1818 L263.7183 209.4545 L290.5913 209.4545 L304.0278 186.1818 M304.0278 139.6364 L290.5913 116.3636 L263.7183 116.3636 L250.2817 139.6364 L263.7183 162.9091 L290.5913 162.9091 L304.0278 139.6364 M304.0278 93.0909 L290.5913 69.8182 L263.7183 69.8182 L250.2817 93.0909 L263.7183 116.3636 L290.5913 116.3636 L304.0278 93.0909 M304.0278 46.5455 L290.5913 23.2727 L263.7183 23.2727 L250.2817 46.5455 L263.7183 69.8182 L290.5913 69.8182 L304.0278 46.5455 M344.3373 488.7273 L330.9008 465.4545 L304.0278 465.4545 L290.5913 488.7273 L304.0278 512.0 L330.9008 512.0 L344.3373 488.7273 M344.3373 442.1818 L330.9008 418.9091 L304.0278 418.9091 L290.5913 442.1818 L304.0278 465.4545 L330.9008 465.4545 L344.3373 442.1818 M344.3373 395.6364 L330.9008 372.3636 L304.0278 372.3636 L290.5913 395.6364 L304.0278 418.9091 L330.9008 418.9091 L344.3373 395.6364 M344.3373 349.0909 L330.9008 325.8182 L304.0278 325.8182 L290.5913 349.0909 L304.0278 372.3636 L330.9008 372.3636 L344.3373 349.0909 M344.3373 302.5455 L330.9008 279.2727 L304.0278 279.2727 L290.5913 302.5455 L304.0278 325.8182 L330.9008 325.8182 L344.3373 302.5455 M344.3373 256.0 L330.9008 232.7273 L304.0278 232.7273 L290.5913 256.0 L304.0278 279.2727 L330.9008 279.2727 L344.3373 256.0 M344.3373 209.4545 L330.9008 186.1818 L304.0278 186.1818 L290.5913 209.4545 L304.0278 232.7273 L330.9008 232.7273 L344.3373 209.4545 M344.3373 162.9091 L330.9008 139.6364 L304.0278 139.6364 L290.5913 162.9091 L304.0278 186.1818 L330.9008 186.1818 L344.3373 162.9091 M344.3373 116.3636 L330.9008 93.0909 L304.0278 93.0909 L290.5913 116.3636 L304.0278 139.6364 L330.9008 139.6364 L344.3373 116.3636 M344.3373 69.8182 L330.9008 46.5455 L304.0278 46.5455 L290.5913 69.8182 L304.0278 93.0909 L330.9008 93.0909 L344.3373 69.8182 M344.3373 23.2727 L330.9008 0.0 L304.0278 0.0 L290.5913 23.2727 L304.0278 46.5455 L330.9008 46.5455 L344.3373 23.2727 M384.6469 465.4545 L371.2104 442.1818 L344.3373 442.1818 L330.9008 465.4545 L344.3373 488.7273 L371.2104 488.7273 L384.6469 465.4545 M384.6469 418.9091 L371.2104 395.6364 L344.3373 395.6364 L330.9008 418.9091 L344.3373 442.1818 L371.2104 442.1818 L384.6469 418.9091 M384.6469 372.3636 L371.2104 349.0909 L344.3373 349.0909 L330.9008 372.3636 L344.3373 395.6364 L371.2104 395.6364 L384.6469 372.3636 M384.6469 325.8182 L371.2104 302.5455 L344.3373 302.5455 L330.9008 325.8182 L344.3373 349.0909 L371.2104 349.0909 L384.6469 325.8182 M384.6469 279.2727 L371.2104 256.0 L344.3373 256.0 L330.9008 279.2727 L344.3373 302.5455 L371.2104 302.5455 L384.6469 279.2727 M384.6469 232.7273 L371.2104 209.4545 L344.3373 209.4545 L330.9008 232.7273 L344.3373 256.0 L371.2104 256.0 L384.6469 232.7273 M384.6469 186.1818 L371.2104 162.9091 L344.3373 162.9091 L330.9008 186.1818 L344.3373 209.4545 L371.2104 209.4545 L384.6469 186.1818 M384.6469 139.6364 L371.2104 116.3636 L344.3373 116.3636 L330.9008 139.6364 L344.3373 162.9091 L371.2104 162.9091 L384.6469 139.6364 M384.6469 93.0909 L371.2104 69.8182 L344.3373 69.8182 L330.9008 93.0909 L344.3373 116.3636 L371.2104 116.3636 L384.6469 93.0909 M384.6469 46.5455 L371.2104 23.2727 L344.3373 23.2727 L330.9008 46.5455 L344.3373 69.8182 L371.2104 69.8182 L384.6469 46.5455 M424.9564 488.7273 L411.5199 465.4545 L384.6469 465.4545 L371.2104 488.7273 L384.6469 512.0 L411.5199 512.0 L424.9564 488.7273 M424.9564 442.1818 L411.5199 418.9091 L384.6469 418.9091 L371.2104 442.1818 L384.6469 465.4545 L411.5199 465.4545 L424.9564 442.1818 M424.9564 395.6364 L411.5199 372.3636 L384.6469 372.3636 L371.2104 395.6364 L384.6469 418.9091 L411.5199 418.9091 L424.9564 395.6364 M424.9564 349.0909 L411.5199 325.8182 L384.6469 325.8182 L371.2104 349.0909 L384.6469 372.3636 L411.5199 372.3636 L424.9564 349.0909 M424.9564 302.5455 L411.5199 279.2727 L384.6469 279.2727 L371.2104 302.5455 L384.6469 325.8182 L411.5199 325.8182 L424.9564 302.5455 M424.9564 256.0 L411.5199 232.7273 L384.6469 232.7273 L371.2104 256.0 L384.6469 279.2727 L411.5199 279.2727 L424.9564 256.0 M424.9564 209.4545 L411.5199 186.1818 L384.6469 186.1818 L371.2104 209.4545 L384.6469 232.7273 L411.5199 232.7273 L424.9564 209.4545 M424.9564 162.9091 L411.5199 139.6364 L384.6469 139.6364 L371.2104 162.9091 L384.6469 186.1818 L411.5199 186.1818 L424.9564 162.9091 M424.9564 116.3636 L411.5199 93.0909 L384.6469 93.0909 L371.2104 116.3636 L384.6469 139.6364 L411.5199 139.6364 L424.9564 116.3636 M424.9564 69.8182 L411.5199 46.5455 L384.6469 46.5455 L371.2104 69.8182 L384.6469 93.0909 L411.5199 93.0909 L424.9564 69.8182 M424.9564 23.2727 L411.5199 0.0 L384.6469 0.0 L371.2104 23.2727 L384.6469 46.5455 L411.5199 46.5455 L424.9564 23.2727 M465.266 465.4545 L451.8295 442.1818 L424.9564 442.1818 L411.5199 465.4545 L424.9564 488.7273 L451.8295 488.7273 L465.266 465.4545 M465.266 418.9091 L451.8295 395.6364 L424.9564 395.6364 L411.5199 418.9091 L424.9564 442.1818 L451.8295 442.1818 L465.266 418.9091 M465.266 372.3636 L451.8295 349.0909 L424.9564 349.0909 L411.5199 372.3636 L424.9564 395.6364 L451.8295 395.6364 L465.266 372.3636 M465.266 325.8182 L451.8295 302.5455 L424.9564 302.5455 L411.5199 325.8182 L424.9564 349.0909 L451.8295 349.0909 L465.266 325.8182 M465.266 279.2727 L451.8295 256.0 L424.9564 256.0 L411.5199 279.2727 L424.9564 302.5455 L451.8295 302.5455 L465.266 279.2727 M465.266 232.7273 L451.8295 209.4545 L424.9564 209.4545 L411.5199 232.7273 L424.9564 256.0 L451.8295 256.0 L465.266 232.7273 M465.266 186.1818 L451.8295 162.9091 L424.9564 162.9091 L411.5199 186.1818 L424.9564 209.4545 L451.8295 209.4545 L465.266 186.1818 M465.266 139.6364 L451.8295 116.3636 L424.9564 116.3636 L411.5199 139.6364 L424.9564 162.9091 L451.8295 162.9091 L465.266 139.6364 M465.266 93.0909 L451.8295 69.8182 L424.9564 69.8182 L411.5199 93.0909 L424.9564 116.3636 L451.8295 116.3636 L465.266 93.0909 M465.266 46.5455 L451.8295 23.2727 L424.9564 23.2727 L411.5199 46.5455 L424.9564 69.8182 L451.8295 69.8182 L465.266 46.5455 M505.5755 488.7273 L492.139 465.4545 L465.266 465.4545 L451.8295 488.7273 L465.266 512.0 L492.139 512.0 L505.5755 488.7273 M505.5755 442.1818 L492.139 418.9091 L465.266 418.9091 L451.8295 442.1818 L465.266 465.4545 L492.139 465.4545 L505.5755 442.1818 M505.5755 395.6364 L492.139 372.3636 L465.266 372.3636 L451.8295 395.6364 L465.266 418.9091 L492.139 418.9091 L505.5755 395.6364 M505.5755 349.0909 L492.139 325.8182 L465.266 325.8182 L451.8295 349.0909 L465.266 372.3636 L492.139 372.3636 L505.5755 349.0909 M505.5755 302.5455 L492.139 279.2727 L465.266 279.2727 L451.8295 302.5455 L465.266 325.8182 L492.139 325.8182 L505.5755 302.5455 M505.5755 256.0 L492.139 232.7273 L465.266 232.7273 L451.8295 256.0 L465.266 279.2727 L492.139 279.2727 L505.5755 256.0 M505.5755 209.4545 L492.139 186.1818 L465.266 186.1818 L451.8295 209.4545 L465.266 232.7273 L492.139 232.7273 L505.5755 209.4545 M505.5755 162.9091 L492.139 139.6364 L465.266 139.6364 L451.8295 162.9091 L465.266 186.1818 L492.139 186.1818 L505.5755 162.9091 M505.5755 116.3636 L492.139 93.0909 L465.266 93.0909 L451.8295 116.3636 L465.266 139.6364 L492.139 139.6364 L505.5755 116.3636 M505.5755 69.8182 L492.139 46.5455 L465.266 46.5455 L451.8295 69.8182 L465.266 93.0909 L492.139 93.0909 L505.5755 69.8182 M505.5755 23.2727 L492.139 0.0 L465.266 0.0 L451.8295 23.2727 L465.266 46.5455 L492.139 46.5455 L505.5755 23.2727" stroke-dasharray="" fill="none" fill-opacity="1.0" stroke="#808080" stroke-opacity="1.0" stroke-width="0.2px" stroke-linecap="butt" stroke-linejoin="miter" stroke-dashoffset="0.0px"/>
</g>
</svg>