<?xml version="1.0" standalone="no"?>
<!DOCTYPE svg PUBLIC "-//W3C//DTD SVG 1.1//EN" "http://www.w3.org/Graphics/SVG/1.1/DTD/svg11.dtd">
<svg width="1200px" height="800px" version="1.1" xmlns="http://www.w3.org/2000/svg" xmlns:inkscape="http://www.inkscape.org/namespaces/inkscape">
<rect x="0" y="0" width="1200px" height="800px" fill="#ffffff"/>
<g id="point" inkscape:groupmode="layer" inkscape:label="point">
<path d="M295.5789 727.2727 L274.5844 690.9091 L232.5953 690.9091 L211.6007 727.2727 L232.5953 763.6364 L274.5844 763.6364 L295.5789 727.2727 M295.5789 654.5455 L274.5844 618.1818 L232.5953 618.1818 L211.6007 654.5455 L232.5953 690.9091 L274.5844 690.9091 L295.5789 654.5455 M295.5789 581.8182 L274.5844 545.4545 L232.5953 545.4545 L211.6007 581.8182 L232.5953 618.1818 L274.5844 618.1818 L295.5789 581.8182 M295.5789 509.0909 L274.5844 472.7273 L232.5953 472.7273 L211.6007 509.0909 L232.5953 545.4545 L274.5844 545.4545 L295.5789 509.0909 M295.5789 436.3636 L274.5844 400.0 L232.5953 400.0 L211.6007 436.3636 L232.5953 472.7273 L274.5844 472.7273 L295.5789 436.3636 M295.5789 363.6364 L274.5844 327.2727 L232.5953 327.2727 L211.6007 363.6364 L232.5953 400.0 L274.5844 400.0 L295.5789 363.6364 M295.5789 290.9091 L274.5844 254.5455 L232.5953 254.5455 L211.6007 290.9091 L232.5953 327.2727 L274.5844 327.2727 L295.5789 290.9091 M295.5789 218.1818 L274.5844 181.8182 L232.5953 181.8182 L211.6007 218.1818 L232.5953 254.5455 L274.5844 254.5455 L295.5789 218.1818 M295.5789 145.4545 L274.5844 109.0909 L232.5953 109.0909 L211.6007 145.4545 L232.5953 181.8182 L274.5844 181.8182 L295.5789 145.4545 M295.5789 72.7273 L274.5844 36.3636 L232.5953 36.3636 L211.6007 72.7273 L232.5953 109.0909 L274.5844 109.0909 L295.5789 72.7273 M358.5626 763.6364 L337.5681 727.2727 L295.5789 727.2727 L274.5844 763.6364 L295.5789 800.0 L337.5681 800.0 L358.5626 763.6364 M358.5626 690.9091 L337.5681 654.5455 L295.5789 654.5455 L274.5844 690.9091 L295.5789 727.2727 L337.5681 727.2727 L358.5626 690.9091 M358.5626 618.1818 L337.5681 581.8182 L295.5789 581.8182 L274.5844 618.1818 L295.5789 654.5455 L337.5681 654.5455 L358.5626 618.1818 M358.5626 545.4545 L337.5681 509.0909 L295.5789 509.0909 L274.5844 545.4545 L295.5789 581.8182 L337.5681 581.8182 L358.5626 545.4545 M358.5626 472.7273 L337.5681 436.3636 L295.5789 436.3636 L274.5844 472.7273 L295.5789 509.0909 L337.5681 509.0909 L358.5626 472.7273 M358.5626 400.0 L337.5681 363.6364 L295.5789 363.6364 L274.5844 400.0 L295.5789 436.3636 L337.5681 436.3636 L358.5626 400.0 M358.5626 327.2727 L337.5681 290.9091 L295.5789 290.9091 L274.5844 327.2727 L295.5789 363.6364 L337.5681 363.6364 L358.5626 327.2727 M358.5626 254.5455 L337.5681 218.1818 L295.5789 218.1818 L274.5844 254.5455 L295.5789 290.9091 L337.5681 290.9091 L358.5626 254.5455 M358.5626 181.8182 L337.5681 145.4545 L295.5789 145.4545 L274.5844 181.8182 L295.5789 218.1818 L337.5681 218.1818 L358.5626 181.8182 M358.5626 109.0909 L337.5681 72.7273 L295.5789 72.7273 L274.5844 109.0909 L295.5789 145.4545 L337.5681 145.4545 L358.5626 109.0909 M358.5626 36.3636 L337.5681 0.0 L295.5789 0.0 L274.5844 36.3636 L295.5789 72.7273 L337.5681 72.7273 L358.5626 36.3636 M421.5463 727.2727 L400.5517 690.9091 L358.5626 690.9091 L337.5681 727.2727 L358.5626 763.6364 L400.5517 763.6364 L421.5463 727.2727 M421.5463 654.5455 L400.5517 618.1818 L358.5626 618.1818 L337.5681 654.5455 L358.5626 690.9091 L400.5517 690.9091 L421.5463 654.5455 M421.5463 581.8182 L400.5517 545.4545 L358.5626 545.4545 L337.5681 581.8182 L358.5626 618.1818 L400.5517 618.1818 L421.5463 581.8182 M421.5463 509.0909 L400.5517 472.7273 L358.5626 472.7273 L337.5681 509.0909 L358.5626 545.4545 L400.5517 545.4545 L421.5463 509.0909 M421.5463 436.3636 L400.5517 400.0 L358.5626 400.0 L337.5681 436.3636 L358.5626 472.7273 L400.5517 472.7273 L421.5463 436.3636 M421.5463 363.6364 L400.5517 327.2727 L358.5626 327.2727 L337.5681 363.6364 L358.5626 400.0 L400.5517 400.0 L421.5463 363.6364 M421.5463 290.9091 L400.5517 254.5455 L358.5626 254.5455 L337.5681 290.9091 L358.5626 327.2727 L400.5517 327.2727 L421.5463 290.9091 M421.5463 218.1818 L400.5517 181.8182 L358.5626 181.8182 L337.5681 218.1818 L358.5626 254.5455 L400.5517 254.5455 L421.5463 218.1818 M421.5463 145.4545 L400.5517 109.0909 L358.5626 109.0909 L337.5681 145.4545 L358.5626 181.8182 L400.5517 181.8182 L421.5463 145.4545 M421.5463 72.7273 L400.5517 36.3636 L358.5626 36.3636 L337.5681 72.7273 L358.5626 109.0909 L400.5517 109.0909 L421.5463 72.7273 M484.5299 763.6364 L463.5354 727.2727 L421.5463 727.2727 L400.5517 763.6364 L421.5463 800.0 L463.5354 800.0 L484.5299 763.6364 M484.5299 690.9091 L463.5354 654.5455 L421.5463 654.5455 L400.5517 690.9091 L421.5463 727.2727 L463.5354 727.2727 L484.5299 690.9091 M484.5299 618.1818 L463.5354 581.8182 L421.5463 581.8182 L400.5517 618.1818 L421.5463 654.5455 L463.5354 654.5455 L484.5299 618.1818 M484.5299 545.4545 L463.5354 509.0909 L421.5463 509.0909 L400.5517 545.4545 L421.5463 581.8182 L463.5354 581.8182 L484.5299 545.4545 M484.5299 472.7273 L463.5354 436.3636 L421.5463 436.3636 L400.5517 472.7273 L421.5463 509.0909 L463.5354 509.0909 L484.5299 472.7273 M484.5299 400.0 L463.5354 363.6364 L421.5463 363.6364 L400.5517 400.0 L421.5463 436.3636 L463.5354 436.3636 L484.5299 400.0 M484.5299 327.2727 L463.5354 290.9091 L421.5463 290.9091 L400.5517 327.2727 L421.5463 363.6364 L463.5354 363.6364 L484.5299 327.2727 M484.5299 254.5455 L463.5354 218.1818 L421.5463 218.1818 L400.5517 254.5455 L421.5463 290.9091 L463.5354 290.9091 L484.5299 254.5455 M484.5299 181.8182 L463.5354 145.4545 L421.5463 145.4545 L400.5517 181.8182 L421.5463 218.1818 L463.5354 218.1818 L484.5299 181.8182 M484.5299 109.0909 L463.5354 72.7273 L421.5463 72.7273 L400.5517 109.0909 L421.5463 145.4545 L463.5354 145.4545 L484.5299 109.0909 M484.5299 36.3636 L463.5354 0.0 L421.5463 0.0 L400.5517 36.3636 L421.5463 72.7273 L463.5354 72.7273 L484.5299 36.3636 M547.5136 727.2727 L526.5191 690.9091 L484.5299 690.9091 L463.5354 727.2727 L484.5299 763.6364 L526.5191 763.6364 L547.5136 727.2727 M547.5136 654.5455 L526.5191 618.1818 L484.5299 618.1818 L463.5354 654.5455 L484.5299 690.9091 L526.5191 690.9091 L547.5136 654.5455 M547.5136 581.8182 L526.5191 545.4545 L484.5299 545.4545 L463.5354 581.8182 L484.5299 618.1818 L526.5191 618.1818 L547.5136 581.8182 M547.5136 509.0909 L526.5191 472.7273 L484.5299 472.7273 L463.5354 509.0909 L484.5299 545.4545 L526.5191 545.4545 L547.5136 509.0909 M547.5136 436.3636 L526.5191 400.0 L484.5299 400.0 L463.5354 436.3636 L484.5299 472.7273 L526.5191 472.7273 L547.5136 436.3636 M547.5136 363.6364 L526.5191 327.2727 L484.5299 327.2727 L463.5354 363.6364 L484.5299 400.0 L526.5191 400.0 L547.5136 363.6364 M547.5136 290.9091 L526.5191 254.5455 L484.5299 254.5455 L463.5354 290.9091 L484.5299 327.2727 L526.5191 327.2727 L547.5136 290.9091 M547.5136 218.1818 L526.5191 181.8182 L484.5299 181.8182 L463.5354 218.1818 L484.5299 254.5455 L526.5191 254.5455 L547.5136 218.1818 M547.5136 145.4545 L526.5191 109.0909 L484.5299 109.0909 L463.5354 145.4545 L484.5299 181.8182 L526.5191 181.8182 L547.5136 145.4545 M547.5136 72.7273 L526.5191 36.3636 L484.5299 36.3636 L463.5354 72.7273 L484.5299 109.0909 L526.5191 109.0909 L547.5136 72.7273 M610.4973 763.6364 L589.5027 727.2727 L547.5136 727.2727 L526.5191 763.6364 L547.5136 800.0 L589.5027 800.0 L610.4973 763.6364 M610.4973 690.9091 L589.5027 654.5455 L547.5136 654.5455 L526.5191 690.9091 L547.5136 727.2727 L589.5027 727.2727 L610.4973 690.9091 M610.4973 618.1818 L589.5027 581.8182 L547.5136 581.8182 L526.5191 618.1818 L547.5136 654.5455 L589.5027 654.5455 L610.4973 618.1818 M610.4973 545.4545 L589.5027 509.0909 L547.5136 509.0909 L526.5191 545.4545 L547.5136 581.8182 L589.5027 581.8182 L610.4973 545.4545 M610.4973 472.7273 L589.5027 436.3636 L547.5136 436.3636 L526.5191 472.7273 L547.5136 509.0909 L589.5027 509.0909 L610.4973 472.7273 M610.4973 400.0 L589.5027 363.6364 L547.5136 363.6364 L526.5191 400.0 L547.5136 436.3636 L589.5027 436.3636 L610.4973 400.0 M610.4973 327.2727 L589.5027 290.9091 L547.5136 290.9091 L526.5191 327.2727 L547.5136 363.6364 L589.5027 363.6364 L610.4973 327.2727 M610.4973 254.5455 L589.5027 218.1818 L547.5136 218.1818 L526.5191 254.5455 L547.5136 290.9091 L589.5027 290.9091 L610.4973 254.5455 M610.4973 181.8182 L589.5027 145.4545 L547.5136 145.4545 L526.5191 181.8182 L547.5136 218.1818 L589.5027 218.1818 L610.4973 181.8182 M610.4973 109.0909 L589.5027 72.7273 L547.5136 72.7273 L526.5191 109.0909 L547.5136 145.4545 L589.5027 145.4545 L610.4973 109.0909 M610.4973 36.3636 L589.5027 0.0 L547.5136 0.0 L526.5191 36.3636 L547.5136 72.7273 L589.5027 72.7273 L610.4973 36.3636 M673.4809 727.2727 L652.4864 690.9091 L610.4973 690.9091 L589.5027 727.2727 L610.4973 763.6364 L652.4864 763.6364 L673.4809 727.2727 M673.4809 654.5455 L652.4864 618.1818 L610.4973 618.1818 L589.5027 654.5455 L610.4973 690.9091 L652.4864 690.9091 L673.4809 654.5455 M673.4809 581.8182 L652.4864 545.4545 L610.4973 545.4545 L589.5027 581.8182 L610.4973 618.1818 L652.4864 618.1818 L673.4809 581.8182 M673.4809 509.0909 L652.4864 472.7273 L610.4973 472.7273 L589.5027 509.0909 L610.4973 545.4545 L652.4864 545.4545 L673.4809 509.0909 M673.4809 436.3636 L652.4864 400.0 L610.4973 400.0 L589.5027 436.3636 L610.4973 472.7273 L652.4864 472.7273 L673.4809 436.3636 M673.4809 363.6364 L652.4864 327.2727 L610.4973 327.2727 L589.5027 363.6364 L610.4973 400.0 L652.4864 400.0 L673.4809 363.6364 M673.4809 290.9091 L652.4864 254.5455 L610.4973 254.5455 L589.5027 290.9091 L610.4973 327.2727 L652.4864 327.2727 L673.4809 290.9091 M673.4809 218.1818 L652.4864 181.8182 L610.4973 181.8182 L589.5027 218.1818 L610.4973 254.5455 L652.4864 254.5455 L673.4809 218.1818 M673.4809 145.4545 L652.4864 109.0909 L610.4973 109.0909 L589.5027 145.4545 L610.4973 181.8182 L652.4864 181.8182 L673.4809 145.4545 M673.4809 72.7273 L652.4864 36.3636 L610.4973 36.3636 L589.5027 72.7273 L610.4973 109.0909 L652.4864 109.0909 L673.4809 72.7273 M736.4646 763.6364 L715.4701 727.2727 L673.4809 727.2727 L652.4864 763.6364 L673.4809 800.0 L715.4701 800.0 L736.4646 763.6364 M736.4646 690.9091 L715.4701 654.5455 L673.4809 654.5455 L652.4864 690.9091 L673.4809 727.2727 L715.4701 727.2727 L736.4646 690.9091 M736.4646 618.1818 L715.4701 581.8182 L673.4809 581.8182 L652.4864 618.1818 L673.4809 654.5455 L715.4701 654.5455 L736.4646 618.1818 M736.4646 545.4545 L715.4701 509.0909 L673.4809 509.0909 L652.4864 545.4545 L673.4809 581.8182 L715.4701 581.8182 L736.4646 545.4545 M736.4646 472.7273 L715.4701 436.3636 L673.4809 436.3636 L652.4864 472.7273 L673.4809 509.0909 L715.4701 509.0909 L736.4646 472.7273 M736.4646 400.0 L715.4701 363.6364 L673.4809 363.6364 L652.4864 400.0 L673.4809 436.3636 L715.4701 436.3636 L736.4646 400.0 M736.4646 327.2727 L715.4701 290.9091 L673.4809 290.9091 L652.4864 327.2727 L673.4809 363.6364 L715.4701 363.6364 L736.4646 327.2727 M736.4646 254.5455 L715.4701 218.1818 L673.4809 218.1818 L652.4864 254.5455 L673.4809 290.9091 L715.4701 290.9091 L736.4646 254.5455 M736.4646 181.8182 L715.4701 145.4545 L673.4809 145.4545 L652.4864 181.8182 L673.4809 218.1818 L715.4701 218.1818 L736.4646 181.8182 M736.4646 109.0909 L715.4701 72.7273 L673.4809 72.7273 L652.4864 109.0909 L673.4809 145.4545 L715.4701 145.4545 L736.4646 109.0909 M736.4646 36.3636 L715.4701 0.0 L673.4809 0.0 L652.4864 36.3636 L673.4809 72.7273 L715.4701 72.7273 L736.4646 36.3636 M799.4483 727.2727 L778.4537 690.9091 L736.4646 690.9091 L715.4701 727.2727 L736.4646 763.6364 L778.4537 763.6364 L799.4483 727.2727 M799.4483 654.5455 L778.4537 618.1818 L736.4646 618.1818 L715.4701 654.5455 L736.4646 690.9091 L778.4537 690.9091 L799.4483 654.5455 M799.4483 581.8182 L778.4537 545.4545 L736.4646 545.4545 L715.4701 581.8182 L736.4646 618.1818 L778.4537 618.1818 L799.4483 581.8182 M799.4483 509.0909 L778.4537 472.7273 L736.4646 472.7273 L715.4701 509.0909 L736.4646 545.4545 L778.4537 545.4545 L799.4483 509.0909 M799.4483 436.3636 L778.4537 400.0 L736.4646 400.0 L715.4701 436.3636 L736.4646 472.7273 L778.4537 472.7273 L799.4483 436.3636 M799.4483 363.6364 L778.4537 327.2727 L736.4646 327.2727 L715.4701 363.6364 L736.4646 400.0 L778.4537 400.0 L799.4483 363.6364 M799.4483 290.9091 L778.4537 254.5455 L736.4646 254.5455 L715.4701 290.9091 L736.4646 327.2727 L778.4537 327.2727 L799.4483 290.9091 M799.4483 218.1818 L778.4537 181.8182 L736.4646 181.8182 L715.4701 218.1818 L736.4646 254.5455 L778.4537 254.5455 L799.4483 218.1818 M799.4483 145.4545 L778.4537 109.0909 L736.4646 109.0909 L715.4701 145.4545 L736.4646 181.8182 L778.4537 181.8182 L799.4483 145.4545 M799.4483 72.7273 L778.4537 36.3636 L736.4646 36.3636 L715.4701 72.7273 L736.4646 109.0909 L778.4537 109.0909 L799.4483 72.7273 M862.4319 763.6364 L841.4374 727.2727 L799.4483 727.2727 L778.4537 763.6364 L799.4483 800.0 L841.4374 800.0 L862.4319 763.6364 M862.4319 690.9091 L841.4374 654.5455 L799.4483 654.5455 L778.4537 690.9091 L799.4483 727.2727 L841.4374 727.2727 L862.4319 690.9091 M862.4319 618.1818 L841.4374 581.8182 L799.4483 581.8182 L778.4537 618.1818 L799.4483 654.5455 L841.4374 654.5455 L862.4319 618.1818 M862.4319 545.4545 L841.4374 509.0909 L799.4483 509.0909 L778.4537 545.4545 L799.4483 581.8182 L841.4374 581.8182 L862.4319 545.4545 M862.4319 472.7273 L841.4374 436.3636 L799.4483 436.3636 L778.4537 472.7273 L799.4483 509.0909 L841.4374 509.0909 L862.4319 472.7273 M862.4319 400.0 L841.4374 363.6364 L799.4483 363.6364 L778.4537 400.0 L799.4483 436.3636 L841.4374 436.3636 L862.4319 400.0 M862.4319 327.2727 L841.4374 290.9091 L799.4483 290.9091 L778.4537 327.2727 L799.4483 363.6364 L841.4374 363.6364 L862.4319 327.2727 M862.4319 254.5455 L841.4374 218.1818 L799.4483 218.1818 L778.4537 254.5455 L799.4483 290.9091 L841.4374 290.9091 L862.4319 254.5455 M862.4319 181.8182 L841.4374 145.4545 L799.4483 145.4545 L778.4537 181.8182 L799.4483 218.1818 L841.4374 218.1818 L862.4319 181.8182 M862.4319 109.0909 L841.4374 72.7273 L799.4483 72.7273 L778.4537 109.0909 L799.4483 145.4545 L841.4374 145.4545 L862.4319 109.0909 M862.4319 36.3636 L841.4374 0.0 L799.4483 0.0 L778.4537 36.3636 L799.4483 72.7273 L841.4374 72.7273 L862.4319 36.3636 M925.4156 727.2727 L904.4211 690.9091 L862.4319 690.9091 L841.4374 727.2727 L862.4319 763.6364 L904.4211 763.6364 L925.4156 727.2727 M925.4156 654.5455 L904.4211 618.1818 L862.4319 618.1818 L841.4374 654.5455 L862.4319 690.9091 L904.4211 690.9091 L925.4156 654.5455 M925.4156 581.8182 L904.4211 545.4545 L862.4319 545.4545 L841.4374 581.8182 L862.4319 618.1818 L904.4211 618.1818 L925.4156 581.8182 M925.4156 509.0909 L904.4211 472.7273 L862.4319 472.7273 L841.4374 509.0909 L862.4319 545.4545 L904.4211 545.4545 L925.4156 509.0909 M925.4156 436.3636 L904.4211 400.0 L862.4319 400.0 L841.4374 436.3636 L862.4319 472.7273 L904.4211 472.7273 L925.4156 436.3636 M925.4156 363.6364 L904.4211 327.2727 L862.4319 327.2727 L841.4374 363.6364 L862.4319 400.0 L904.4211 400.0 L925.4156 363.6364 M925.4156 290.9091 L904.4211 254.5455 L862.4319 254.5455 L841.4374 290.9091 L862.4319 327.2727 L904.4211 327.2727 L925.4156 290.9091 M925.4156 218.1818 L904.4211 181.8182 L862.4319 181.8182 L841.4374 218.1818 L862.4319 254.5455 L904.4211 254.5455 L925.4156 218.1818 M925.4156 145.4545 L904.4211 109.0909 L862.4319 109.0909 L841.4374 145.4545 L862.4319 181.8182 L904.4211 181.8182 L925.4156 145.4545 M925.4156 72.7273 L904.4211 36.3636 L862.4319 36.3636 L841.4374 72.7273 L862.4319 109.0909 L904.4211 109.0909 L925.4156 72.7273 M988.3993 763.6364 L967.4047 727.2727 L925.4156 727.2727 L904.4211 763.6364 L925.4156 800.0 L967.4047 800.0 L988.3993 763.6364 M988.3993 690.9091 L967.4047 654.5455 L925.4156 654.5455 L904.4211 690.9091 L925.4156 727.2727 L967.4047 727.2727 L988.3993 690.9091 M988.3993 618.1818 L967.4047 581.8182 L925.4156 581.8182 L904.4211 618.1818 L925.4156 654.5455 L967.4047 654.5455 L988.3993 618.1818 M988.3993 545.4545 L967.4047 509.0909 L925.4156 509.0909 L904.4211 545.4545 L925.4156 581.8182 L967.4047 581.8182 L988.3993 545.4545 M988.3993 472.7273 L967.4047 436.3636 L925.4156 436.3636 L904.4211 472.7273 L925.4156 509.0909 L967.4047 509.0909 L988.3993 472.7273 M988.3993 400.0 L967.4047 363.6364 L925.4156 363.6364 L904.4211 400.0 L925.4156 436.3636 L967.4047 436.3636 L988.3993 400.0 M988.3993 327.2727 L967.4047 290.9091 L925.4156 290.9091 L904.4211 327.2727 L925.4156 363.6364 L967.4047 363.6364 L988.3993 327.2727 M988.3993 254.5455 L967.4047 218.1818 L925.4156 218.1818 L904.4211 254.5455 L925.4156 290.9091 L967.4047 290.9091 L988.3993 254.5455 M988.3993 181.8182 L967.4047 145.4545 L925.4156 145.4545 L904.4211 181.8182 L925.4156 218.1818 L967.4047 218.1818 L988.3993 181.8182 M988.3993 109.0909 L967.4047 72.7273 L925.4156 72.7273 L904.4211 109.0909 L925.4156 145.4545 L967.4047 145.4545 L988.3993 109.0909 M988.3993 36.3636 L967.4047 0.0 L925.4156 0.0 L904.4211 36.3636 L925.4156 72.7273 L967.4047 72.7273 L988.3993 36.3636" stroke-dasharray="" fill="none" fill-opacity="1.0" stroke="#808080" stroke-opacity="1.0" stroke-width="0.2px" stroke-linecap="butt" stroke-linejoin="miter" stroke-dashoffset="0.0px"/>
</g>
</svg>