<?xml version="1.0" standalone="no"?>
<!DOCTYPE svg PUBLIC "-//W3C//DTD SVG 1.1//EN" "http://www.w3.org/Graphics/SVG/1.1/DTD/svg11.dtd">
<svg width="1200px" height="800px" version="1.1" xmlns="http://www.w3.org/2000/svg" xmlns:inkscape="http://www.inkscape.org/namespaces/inkscape">
<rect x="0" y="0" width="1200px" height="800px" fill="#ffffff"/>
<g id="layer" inkscape:groupmode="layer" inkscape:label="layer">
<path d="M1030.1078 24.0761 L1030.1078 800.0 L1005.066 785.9034 L995.5779 776.7033 L983.2772 761.7595 L976.7541 754.0335 L951.5768 734.3457 L930.076 718.775 L917.1993 705.7289 L901.6287 688.9891 L894.0721 680.992 L875.2483 663.3543 L865.0317 653.8662 L856.8821 644.9711 L848.8849 638.2955 L819.0991 614.7616 L790.6347 584.5352 L773.302 565.9826 L759.0868 549.1073 L751.6657 539.4667 L741.1441 528.1996 L731.351 520.7277 L715.8142 508.7829 L693.7544 486.3503 L682.0467 474.4562 L674.5748 466.8319 L656.4797 447.6523 L645.2634 434.6231 L638.3845 425.2028 L633.4202 420.3571 L625.6941 414.5456 L611.1231 398.7716 L601.3978 390.1307 L590.8423 382.6588 L586.471 377.6945 L581.0153 369.7312 L575.0683 363.7165 L569.3924 353.9742 L564.1739 344.8419 L548.8743 332.8801 L543.6728 325.8826 L536.2009 313.6667 L527.6616 305.3646 L516.0387 297.6555 L511.4133 293.8941 L504.8902 285.1007 L490.5564 276.4259 L478.9334 268.0221 L467.2088 252.7395 L443.7258 224.3938 L433.3058 212.6692 L418.0062 192.7611 L397.5051 170.2268 L392.7441 157.8923 L384.9334 146.5066 L377.8173 139.1702 L369.5152 122.3458 L360.6201 103.6068 L356.2319 95.3047 L347.3537 72.1774 L344.6259 66.1457 L339.1702 59.8429 L335.5105 45.6276 L330.2751 34.1233 L326.0224 27.956 L316.7546 22.5173 L309.0624 20.9755 L300.8789 19.6709 L294.3728 19.6709 L287.3753 18.0105 L272.296 14.3338 L261.9946 8.1666 L251.4391 3.1853 L244.6958 0.4575 L239.9517 0.0 L230.938 4.8457 L220.9755 13.2495 L202.2534 21.3313 L185.5476 24.1608 L169.8922 24.0761" stroke-dasharray="" fill="none" fill-opacity="1.0" stroke="#ff0000" stroke-opacity="1.0" stroke-width="0.2px" stroke-linecap="butt" stroke-linejoin="miter" stroke-dashoffset="0.0px"/>
</g>
</svg>