<?xml version="1.0" standalone="no"?>
<!DOCTYPE svg PUBLIC "-//W3C//DTD SVG 1.1//EN" "http://www.w3.org/Graphics/SVG/1.1/DTD/svg11.dtd">
<svg width="1024px" height="1024px" version="1.1" xmlns="http://www.w3.org/2000/svg" xmlns:inkscape="http://www.inkscape.org/namespaces/inkscape">
<g id="one" inkscape:groupmode="layer" inkscape:label="one">
<path d="M75.2941 203.2941 L150.5882 286.1176 L214.5882 331.2941 L274.8235 391.5294 L278.5882 429.1765 L289.8824 527.0588 L323.7647 591.0588 L380.2353 734.1176 L455.5294 790.5882 L527.0588 828.2353 L640.0 877.1765" stroke-dasharray="" fill="none" fill-opacity="1.0" stroke="#000000" stroke-opacity="1.0" stroke-width="1.0px" stroke-linecap="butt" stroke-linejoin="miter" stroke-dashoffset="0.0px"/>
</g>
<g id="two" inkscape:groupmode="layer" inkscape:label="two">
<path d="M304.9412 180.7059 L327.5294 323.7647 L293.6471 372.7059 L259.7647 432.9412 L263.5294 530.8235 L357.6471 798.1176 L512.0 820.7059 L587.2941 820.7059 L681.4118 820.7059 L850.8235 771.7647 L1024.0 643.7647" stroke-dasharray="" fill="none" fill-opacity="1.0" stroke="#000000" stroke-opacity="1.0" stroke-width="1.0px" stroke-linecap="butt" stroke-linejoin="miter" stroke-dashoffset="0.0px"/>
<path d="M485.6471 176.9412 L22.5882 327.5294 L530.8235 417.8824 L22.5882 515.7647 L500.7059 560.9412 L154.3529 688.9412 L632.4706 688.9412 L440.4706 888.4706 L816.9412 655.0588 L937.4118 877.1765" stroke-dasharray="" fill="none" fill-opacity="1.0" stroke="#000000" stroke-opacity="1.0" stroke-width="1.0px" stroke-linecap="butt" stroke-linejoin="miter" stroke-dashoffset="0.0px"/>
<path d="M207.0588 135.5294 L542.1176 880.9412 L0.0 222.1176 L771.7647 880.9412 L907.2941 621.1765" stroke-dasharray="" fill="none" fill-opacity="1.0" stroke="#000000" stroke-opacity="1.0" stroke-width="1.0px" stroke-linecap="butt" stroke-linejoin="miter" stroke-dashoffset="0.0px"/>
</g>
</svg>