<?xml version="1.0" standalone="no"?>
<!DOCTYPE svg PUBLIC "-//W3C//DTD SVG 1.1//EN" "http://www.w3.org/Graphics/SVG/1.1/DTD/svg11.dtd">
<svg width="2304px" height="768px" version="1.1" xmlns="http://www.w3.org/2000/svg" xmlns:inkscape="http://www.inkscape.org/namespaces/inkscape">
<rect x="0" y="0" width="2304px" height="768px" fill="#ffffff"/>
<g id="carto_tests" inkscape:groupmode="layer" inkscape:label="carto_tests">
<path d="M213.3333 128.0 L128.0 213.3333 L42.6667 128.0 L128.0 42.6667 L213.3333 128.0" stroke-dasharray="" fill="none" fill-opacity="1.0" stroke="#000000" stroke-opacity="1.0" stroke-width="1.0px" stroke-linecap="butt" stroke-linejoin="miter" stroke-dashoffset="0.0px"/>
<path d="M469.3333 128.0 L384.0 213.3333 L298.6667 128.0 L384.0 42.6667 L469.3333 128.0" stroke-dasharray="" fill="none" fill-opacity="1.0" stroke="#000000" stroke-opacity="1.0" stroke-width="1.0px" stroke-linecap="butt" stroke-linejoin="miter" stroke-dashoffset="0.0px"/>
<path d="M725.3333 128.0 L640.0 213.3333 L554.6667 128.0 L640.0 42.6667 L725.3333 128.0" stroke-dasharray="" fill="none" fill-opacity="1.0" stroke="#000000" stroke-opacity="1.0" stroke-width="1.0px" stroke-linecap="butt" stroke-linejoin="miter" stroke-dashoffset="0.0px"/>
<path d="M981.3333 128.0 L896.0 213.3333 L810.6667 128.0 L896.0 42.6667 L981.3333 128.0" stroke-dasharray="" fill="none" fill-opacity="1.0" stroke="#000000" stroke-opacity="1.0" stroke-width="1.0px" stroke-linecap="butt" stroke-linejoin="miter" stroke-dashoffset="0.0px"/>
<path d="M1237.3333 128.0 L1152.0 213.3333 L1066.6667 128.0 L1152.0 42.6667 L1237.3333 128.0" stroke-dasharray="" fill="none" fill-opacity="1.0" stroke="#000000" stroke-opacity="1.0" stroke-width="1.0px" stroke-linecap="butt" stroke-linejoin="miter" stroke-dashoffset="0.0px"/>
<path d="M1493.3333 128.0 L1408.0 213.3333 L1322.6667 128.0 L1408.0 42.6667 L1493.3333 128.0" stroke-dasharray="" fill="none" fill-opacity="1.0" stroke="#000000" stroke-opacity="1.0" stroke-width="1.0px" stroke-linecap="butt" stroke-linejoin="miter" stroke-dashoffset="0.0px"/>
<path d="M1749.3333 128.0 L1664.0 213.3333 L1578.6667 128.0 L1664.0 42.6667 L1749.3333 128.0" stroke-dasharray="" fill="none" fill-opacity="1.0" stroke="#000000" stroke-opacity="1.0" stroke-width="1.0px" stroke-linecap="butt" stroke-linejoin="miter" stroke-dashoffset="0.0px"/>
<path d="M2005.3333 128.0 L1920.0 213.3333 L1834.6667 128.0 L1920.0 42.6667 L2005.3333 128.0" stroke-dasharray="" fill="none" fill-opacity="1.0" stroke="#000000" stroke-opacity="1.0" stroke-width="1.0px" stroke-linecap="butt" stroke-linejoin="miter" stroke-dashoffset="0.0px"/>
<path d="M2261.3333 128.0 L2176.0 213.3333 L2090.6667 128.0 L2176.0 42.6667 L2261.3333 128.0" stroke-dasharray="" fill="none" fill-opacity="1.0" stroke="#000000" stroke-opacity="1.0" stroke-width="1.0px" stroke-linecap="butt" stroke-linejoin="miter" stroke-dashoffset="0.0px"/>
<path d="M213.3333 384.0 L128.0 469.3333 L42.6667 384.0 L128.0 298.6667 L213.3333 384.0" stroke-dasharray="" fill="none" fill-opacity="1.0" stroke="#000000" stroke-opacity="1.0" stroke-width="1.0px" stroke-linecap="butt" stroke-linejoin="miter" stroke-dashoffset="0.0px"/>
<path d="M469.3333 384.0 L384.0 469.3333 L298.6667 384.0 L384.0 298.6667 L469.3333 384.0" stroke-dasharray="" fill="none" fill-opacity="1.0" stroke="#000000" stroke-opacity="1.0" stroke-width="1.0px" stroke-linecap="butt" stroke-linejoin="miter" stroke-dashoffset="0.0px"/>
<path d="M725.3333 384.0 L640.0 469.3333 L554.6667 384.0 L640.0 298.6667 L725.3333 384.0" stroke-dasharray="" fill="none" fill-opacity="1.0" stroke="#000000" stroke-opacity="1.0" stroke-width="1.0px" stroke-linecap="butt" stroke-linejoin="miter" stroke-dashoffset="0.0px"/>
<path d="M981.3333 384.0 L896.0 469.3333 L810.6667 384.0 L896.0 298.6667 L981.3333 384.0" stroke-dasharray="" fill="none" fill-opacity="1.0" stroke="#000000" stroke-opacity="1.0" stroke-width="1.0px" stroke-linecap="butt" stroke-linejoin="miter" stroke-dashoffset="0.0px"/>
<path d="M1237.3333 384.0 L1152.0 469.3333 L1066.6667 384.0 L1152.0 298.6667 L1237.3333 384.0" stroke-dasharray="" fill="none" fill-opacity="1.0" stroke="#000000" stroke-opacity="1.0" stroke-width="1.0px" stroke-linecap="butt" stroke-linejoin="miter" stroke-dashoffset="0.0px"/>
<path d="M1493.3333 384.0 L1408.0 469.3333 L1322.6667 384.0 L1408.0 298.6667 L1493.3333 384.0" stroke-dasharray="" fill="none" fill-opacity="1.0" stroke="#000000" stroke-opacity="1.0" stroke-width="1.0px" stroke-linecap="butt" stroke-linejoin="miter" stroke-dashoffset="0.0px"/>
<path d="M1749.3333 384.0 L1664.0 469.3333 L1578.6667 384.0 L1664.0 298.6667 L1749.3333 384.0" stroke-dasharray="" fill="none" fill-opacity="1.0" stroke="#000000" stroke-opacity="1.0" stroke-width="1.0px" stroke-linecap="butt" stroke-linejoin="miter" stroke-dashoffset="0.0px"/>
<path d="M2005.3333 384.0 L1920.0 469.3333 L1834.6667 384.0 L1920.0 298.6667 L2005.3333 384.0" stroke-dasharray="" fill="none" fill-opacity="1.0" stroke="#000000" stroke-opacity="1.0" stroke-width="1.0px" stroke-linecap="butt" stroke-linejoin="miter" stroke-dashoffset="0.0px"/>
<path d="M2261.3333 384.0 L2176.0 469.3333 L2090.6667 384.0 L2176.0 298.6667 L2261.3333 384.0" stroke-dasharray="" fill="none" fill-opacity="1.0" stroke="#000000" stroke-opacity="1.0" stroke-width="1.0px" stroke-linecap="butt" stroke-linejoin="miter" stroke-dashoffset="0.0px"/>
<path d="M213.3333 640.0 L128.0 725.3333 L42.6667 640.0 L128.0 554.6667 L213.3333 640.0" stroke-dasharray="" fill="none" fill-opacity="1.0" stroke="#000000" stroke-opacity="1.0" stroke-width="1.0px" stroke-linecap="butt" stroke-linejoin="miter" stroke-dashoffset="0.0px"/>
<path d="M469.3333 640.0 L384.0 725.3333 L298.6667 640.0 L384.0 554.6667 L469.3333 640.0" stroke-dasharray="" fill="none" fill-opacity="1.0" stroke="#000000" stroke-opacity="1.0" stroke-width="1.0px" stroke-linecap="butt" stroke-linejoin="miter" stroke-dashoffset="0.0px"/>
<path d="M725.3333 640.0 L640.0 725.3333 L554.6667 640.0 L640.0 554.6667 L725.3333 640.0" stroke-dasharray="" fill="none" fill-opacity="1.0" stroke="#000000" stroke-opacity="1.0" stroke-width="1.0px" stroke-linecap="butt" stroke-linejoin="miter" stroke-dashoffset="0.0px"/>
<path d="M981.3333 640.0 L896.0 725.3333 L810.6667 640.0 L896.0 554.6667 L981.3333 640.0" stroke-dasharray="" fill="none" fill-opacity="1.0" stroke="#000000" stroke-opacity="1.0" stroke-width="1.0px" stroke-linecap="butt" stroke-linejoin="miter" stroke-dashoffset="0.0px"/>
<path d="M1237.3333 640.0 L1152.0 725.3333 L1066.6667 640.0 L1152.0 554.6667 L1237.3333 640.0" stroke-dasharray="" fill="none" fill-opacity="1.0" stroke="#000000" stroke-opacity="1.0" stroke-width="1.0px" stroke-linecap="butt" stroke-linejoin="miter" stroke-dashoffset="0.0px"/>
<path d="M1493.3333 640.0 L1408.0 725.3333 L1322.6667 640.0 L1408.0 554.6667 L1493.3333 640.0" stroke-dasharray="" fill="none" fill-opacity="1.0" stroke="#000000" stroke-opacity="1.0" stroke-width="1.0px" stroke-linecap="butt" stroke-linejoin="miter" stroke-dashoffset="0.0px"/>
<path d="M1749.3333 640.0 L1664.0 725.3333 L1578.6667 640.0 L1664.0 554.6667 L1749.3333 640.0" stroke-dasharray="" fill="none" fill-opacity="1.0" stroke="#000000" stroke-opacity="1.0" stroke-width="1.0px" stroke-linecap="butt" stroke-linejoin="miter" stroke-dashoffset="0.0px"/>
<path d="M2005.3333 640.0 L1920.0 725.3333 L1834.6667 640.0 L1920.0 554.6667 L2005.3333 640.0" stroke-dasharray="" fill="none" fill-opacity="1.0" stroke="#000000" stroke-opacity="1.0" stroke-width="1.0px" stroke-linecap="butt" stroke-linejoin="miter" stroke-dashoffset="0.0px"/>
<path d="M2261.3333 640.0 L2176.0 725.3333 L2090.6667 640.0 L2176.0 554.6667 L2261.3333 640.0" stroke-dasharray="" fill="none" fill-opacity="1.0" stroke="#000000" stroke-opacity="1.0" stroke-width="1.0px" stroke-linecap="butt" stroke-linejoin="miter" stroke-dashoffset="0.0px"/>
</g>
</svg>