<?xml version="1.0" standalone="no"?>
<!DOCTYPE svg PUBLIC "-//W3C//DTD SVG 1.1//EN" "http://www.w3.org/Graphics/SVG/1.1/DTD/svg11.dtd">
<svg width="1200px" height="800px" version="1.1" xmlns="http://www.w3.org/2000/svg" xmlns:inkscape="http://www.inkscape.org/namespaces/inkscape">
<g id="multi" inkscape:groupmode="layer" inkscape:label="multi">
<path d="M577.7778 622.2222 L400.0 444.4444 L222.2222 622.2222 L400.0 800.0 L577.7778 622.2222 M1022.2222 622.2222 L844.4444 444.4444 L666.6667 622.2222 L844.4444 800.0 L1022.2222 622.2222 M1022.2222 177.7778 L844.4444 0.0 L666.6667 177.7778 L844.4444 355.5556 L1022.2222 177.7778" stroke-dasharray="" fill="none" fill-opacity="1.0" stroke="#000000" stroke-opacity="1.0" stroke-width="1.0px" stroke-linecap="butt" stroke-linejoin="miter" stroke-dashoffset="0.0px"/>
<path d="M391.1111 222.2222 L355.5556 186.6667 L320.0 222.2222 L355.5556 257.7778 L391.1111 222.2222 M355.5556 177.7778 L266.6667 88.8889 L177.7778 177.7778 L266.6667 266.6667 L355.5556 177.7778 M391.1111 133.3333 L355.5556 97.7778 L320.0 133.3333 L355.5556 168.8889 L391.1111 133.3333" stroke-dasharray="" fill="none" fill-opacity="1.0" stroke="#000000" stroke-opacity="1.0" stroke-width="1.0px" stroke-linecap="butt" stroke-linejoin="miter" stroke-dashoffset="0.0px"/>
</g>
</svg>