<?xml version="1.0" standalone="no"?>
<!DOCTYPE svg PUBLIC "-//W3C//DTD SVG 1.1//EN" "http://www.w3.org/Graphics/SVG/1.1/DTD/svg11.dtd">
<svg width="800px" height="1200px" version="1.1" xmlns="http://www.w3.org/2000/svg" xmlns:inkscape="http://www.inkscape.org/namespaces/inkscape">
<rect x="0" y="0" width="800px" height="1200px" fill="#ffffff"/>
<g id="point" inkscape:groupmode="layer" inkscape:label="point">
<path d="M86.4865 937.0477 L64.8649 899.598 L21.6216 899.598 L0.0 937.0477 L21.6216 974.4975 L64.8649 974.4975 L86.4865 937.0477 M86.4865 862.1482 L64.8649 824.6985 L21.6216 824.6985 L0.0 862.1482 L21.6216 899.598 L64.8649 899.598 L86.4865 862.1482 M86.4865 787.2487 L64.8649 749.799 L21.6216 749.799 L0.0 787.2487 L21.6216 824.6985 L64.8649 824.6985 L86.4865 787.2487 M86.4865 712.3492 L64.8649 674.8995 L21.6216 674.8995 L0.0 712.3492 L21.6216 749.799 L64.8649 749.799 L86.4865 712.3492 M86.4865 637.4497 L64.8649 600.0 L21.6216 600.0 L0.0 637.4497 L21.6216 674.8995 L64.8649 674.8995 L86.4865 637.4497 M86.4865 562.5503 L64.8649 525.1005 L21.6216 525.1005 L0.0 562.5503 L21.6216 600.0 L64.8649 600.0 L86.4865 562.5503 M86.4865 487.6508 L64.8649 450.201 L21.6216 450.201 L0.0 487.6508 L21.6216 525.1005 L64.8649 525.1005 L86.4865 487.6508 M86.4865 412.7513 L64.8649 375.3015 L21.6216 375.3015 L0.0 412.7513 L21.6216 450.201 L64.8649 450.201 L86.4865 412.7513 M86.4865 337.8518 L64.8649 300.402 L21.6216 300.402 L0.0 337.8518 L21.6216 375.3015 L64.8649 375.3015 L86.4865 337.8518 M86.4865 262.9523 L64.8649 225.5025 L21.6216 225.5025 L0.0 262.9523 L21.6216 300.402 L64.8649 300.402 L86.4865 262.9523 M151.3514 974.4975 L129.7297 937.0477 L86.4865 937.0477 L64.8649 974.4975 L86.4865 1011.9472 L129.7297 1011.9472 L151.3514 974.4975 M151.3514 899.598 L129.7297 862.1482 L86.4865 862.1482 L64.8649 899.598 L86.4865 937.0477 L129.7297 937.0477 L151.3514 899.598 M151.3514 824.6985 L129.7297 787.2487 L86.4865 787.2487 L64.8649 824.6985 L86.4865 862.1482 L129.7297 862.1482 L151.3514 824.6985 M151.3514 749.799 L129.7297 712.3492 L86.4865 712.3492 L64.8649 749.799 L86.4865 787.2487 L129.7297 787.2487 L151.3514 749.799 M151.3514 674.8995 L129.7297 637.4497 L86.4865 637.4497 L64.8649 674.8995 L86.4865 712.3492 L129.7297 712.3492 L151.3514 674.8995 M151.3514 600.0 L129.7297 562.5503 L86.4865 562.5503 L64.8649 600.0 L86.4865 637.4497 L129.7297 637.4497 L151.3514 600.0 M151.3514 525.1005 L129.7297 487.6508 L86.4865 487.6508 L64.8649 525.1005 L86.4865 562.5503 L129.7297 562.5503 L151.3514 525.1005 M151.3514 450.201 L129.7297 412.7513 L86.4865 412.7513 L64.8649 450.201 L86.4865 487.6508 L129.7297 487.6508 L151.3514 450.201 M151.3514 375.3015 L129.7297 337.8518 L86.4865 337.8518 L64.8649 375.3015 L86.4865 412.7513 L129.7297 412.7513 L151.3514 375.3015 M151.3514 300.402 L129.7297 262.9523 L86.4865 262.9523 L64.8649 300.402 L86.4865 337.8518 L129.7297 337.8518 L151.3514 300.402 M151.3514 225.5025 L129.7297 188.0528 L86.4865 188.0528 L64.8649 225.5025 L86.4865 262.9523 L129.7297 262.9523 L151.3514 225.5025 M216.2162 937.0477 L194.5946 899.598 L151.3514 899.598 L129.7297 937.0477 L151.3514 974.4975 L194.5946 974.4975 L216.2162 937.0477 M216.2162 862.1482 L194.5946 824.6985 L151.3514 824.6985 L129.7297 862.1482 L151.3514 899.598 L194.5946 899.598 L216.2162 862.1482 M216.2162 787.2487 L194.5946 749.799 L151.3514 749.799 L129.7297 787.2487 L151.3514 824.6985 L194.5946 824.6985 L216.2162 787.2487 M216.2162 712.3492 L194.5946 674.8995 L151.3514 674.8995 L129.7297 712.3492 L151.3514 749.799 L194.5946 749.799 L216.2162 712.3492 M216.2162 637.4497 L194.5946 600.0 L151.3514 600.0 L129.7297 637.4497 L151.3514 674.8995 L194.5946 674.8995 L216.2162 637.4497 M216.2162 562.5503 L194.5946 525.1005 L151.3514 525.1005 L129.7297 562.5503 L151.3514 600.0 L194.5946 600.0 L216.2162 562.5503 M216.2162 487.6508 L194.5946 450.201 L151.3514 450.201 L129.7297 487.6508 L151.3514 525.1005 L194.5946 525.1005 L216.2162 487.6508 M216.2162 412.7513 L194.5946 375.3015 L151.3514 375.3015 L129.7297 412.7513 L151.3514 450.201 L194.5946 450.201 L216.2162 412.7513 M216.2162 337.8518 L194.5946 300.402 L151.3514 300.402 L129.7297 337.8518 L151.3514 375.3015 L194.5946 375.3015 L216.2162 337.8518 M216.2162 262.9523 L194.5946 225.5025 L151.3514 225.5025 L129.7297 262.9523 L151.3514 300.402 L194.5946 300.402 L216.2162 262.9523 M281.0811 974.4975 L259.4595 937.0477 L216.2162 937.0477 L194.5946 974.4975 L216.2162 1011.9472 L259.4595 1011.9472 L281.0811 974.4975 M281.0811 899.598 L259.4595 862.1482 L216.2162 862.1482 L194.5946 899.598 L216.2162 937.0477 L259.4595 937.0477 L281.0811 899.598 M281.0811 824.6985 L259.4595 787.2487 L216.2162 787.2487 L194.5946 824.6985 L216.2162 862.1482 L259.4595 862.1482 L281.0811 824.6985 M281.0811 749.799 L259.4595 712.3492 L216.2162 712.3492 L194.5946 749.799 L216.2162 787.2487 L259.4595 787.2487 L281.0811 749.799 M281.0811 674.8995 L259.4595 637.4497 L216.2162 637.4497 L194.5946 674.8995 L216.2162 712.3492 L259.4595 712.3492 L281.0811 674.8995 M281.0811 600.0 L259.4595 562.5503 L216.2162 562.5503 L194.5946 600.0 L216.2162 637.4497 L259.4595 637.4497 L281.0811 600.0 M281.0811 525.1005 L259.4595 487.6508 L216.2162 487.6508 L194.5946 525.1005 L216.2162 562.5503 L259.4595 562.5503 L281.0811 525.1005 M281.0811 450.201 L259.4595 412.7513 L216.2162 412.7513 L194.5946 450.201 L216.2162 487.6508 L259.4595 487.6508 L281.0811 450.201 M281.0811 375.3015 L259.4595 337.8518 L216.2162 337.8518 L194.5946 375.3015 L216.2162 412.7513 L259.4595 412.7513 L281.0811 375.3015 M281.0811 300.402 L259.4595 262.9523 L216.2162 262.9523 L194.5946 300.402 L216.2162 337.8518 L259.4595 337.8518 L281.0811 300.402 M281.0811 225.5025 L259.4595 188.0528 L216.2162 188.0528 L194.5946 225.5025 L216.2162 262.9523 L259.4595 262.9523 L281.0811 225.5025 M345.9459 937.0477 L324.3243 899.598 L281.0811 899.598 L259.4595 937.0477 L281.0811 974.4975 L324.3243 974.4975 L345.9459 937.0477 M345.9459 862.1482 L324.3243 824.6985 L281.0811 824.6985 L259.4595 862.1482 L281.0811 899.598 L324.3243 899.598 L345.9459 862.1482 M345.9459 787.2487 L324.3243 749.799 L281.0811 749.799 L259.4595 787.2487 L281.0811 824.6985 L324.3243 824.6985 L345.9459 787.2487 M345.9459 712.3492 L324.3243 674.8995 L281.0811 674.8995 L259.4595 712.3492 L281.0811 749.799 L324.3243 749.799 L345.9459 712.3492 M345.9459 637.4497 L324.3243 600.0 L281.0811 600.0 L259.4595 637.4497 L281.0811 674.8995 L324.3243 674.8995 L345.9459 637.4497 M345.9459 562.5503 L324.3243 525.1005 L281.0811 525.1005 L259.4595 562.5503 L281.0811 600.0 L324.3243 600.0 L345.9459 562.5503 M345.9459 487.6508 L324.3243 450.201 L281.0811 450.201 L259.4595 487.6508 L281.0811 525.1005 L324.3243 525.1005 L345.9459 487.6508 M345.9459 412.7513 L324.3243 375.3015 L281.0811 375.3015 L259.4595 412.7513 L281.0811 450.201 L324.3243 450.201 L345.9459 412.7513 M345.9459 337.8518 L324.3243 300.402 L281.0811 300.402 L259.4595 337.8518 L281.0811 375.3015 L324.3243 375.3015 L345.9459 337.8518 M345.9459 262.9523 L324.3243 225.5025 L281.0811 225.5025 L259.4595 262.9523 L281.0811 300.402 L324.3243 300.402 L345.9459 262.9523 M410.8108 974.4975 L389.1892 937.0477 L345.9459 937.0477 L324.3243 974.4975 L345.9459 1011.9472 L389.1892 1011.9472 L410.8108 974.4975 M410.8108 899.598 L389.1892 862.1482 L345.9459 862.1482 L324.3243 899.598 L345.9459 937.0477 L389.1892 937.0477 L410.8108 899.598 M410.8108 824.6985 L389.1892 787.2487 L345.9459 787.2487 L324.3243 824.6985 L345.9459 862.1482 L389.1892 862.1482 L410.8108 824.6985 M410.8108 749.799 L389.1892 712.3492 L345.9459 712.3492 L324.3243 749.799 L345.9459 787.2487 L389.1892 787.2487 L410.8108 749.799 M410.8108 674.8995 L389.1892 637.4497 L345.9459 637.4497 L324.3243 674.8995 L345.9459 712.3492 L389.1892 712.3492 L410.8108 674.8995 M410.8108 600.0 L389.1892 562.5503 L345.9459 562.5503 L324.3243 600.0 L345.9459 637.4497 L389.1892 637.4497 L410.8108 600.0 M410.8108 525.1005 L389.1892 487.6508 L345.9459 487.6508 L324.3243 525.1005 L345.9459 562.5503 L389.1892 562.5503 L410.8108 525.1005 M410.8108 450.201 L389.1892 412.7513 L345.9459 412.7513 L324.3243 450.201 L345.9459 487.6508 L389.1892 487.6508 L410.8108 450.201 M410.8108 375.3015 L389.1892 337.8518 L345.9459 337.8518 L324.3243 375.3015 L345.9459 412.7513 L389.1892 412.7513 L410.8108 375.3015 M410.8108 300.402 L389.1892 262.9523 L345.9459 262.9523 L324.3243 300.402 L345.9459 337.8518 L389.1892 337.8518 L410.8108 300.402 M410.8108 225.5025 L389.1892 188.0528 L345.9459 188.0528 L324.3243 225.5025 L345.9459 262.9523 L389.1892 262.9523 L410.8108 225.5025 M475.6757 937.0477 L454.0541 899.598 L410.8108 899.598 L389.1892 937.0477 L410.8108 974.4975 L454.0541 974.4975 L475.6757 937.0477 M475.6757 862.1482 L454.0541 824.6985 L410.8108 824.6985 L389.1892 862.1482 L410.8108 899.598 L454.0541 899.598 L475.6757 862.1482 M475.6757 787.2487 L454.0541 749.799 L410.8108 749.799 L389.1892 787.2487 L410.8108 824.6985 L454.0541 824.6985 L475.6757 787.2487 M475.6757 712.3492 L454.0541 674.8995 L410.8108 674.8995 L389.1892 712.3492 L410.8108 749.799 L454.0541 749.799 L475.6757 712.3492 M475.6757 637.4497 L454.0541 600.0 L410.8108 600.0 L389.1892 637.4497 L410.8108 674.8995 L454.0541 674.8995 L475.6757 637.4497 M475.6757 562.5503 L454.0541 525.1005 L410.8108 525.1005 L389.1892 562.5503 L410.8108 600.0 L454.0541 600.0 L475.6757 562.5503 M475.6757 487.6508 L454.0541 450.201 L410.8108 450.201 L389.1892 487.6508 L410.8108 525.1005 L454.0541 525.1005 L475.6757 487.6508 M475.6757 412.7513 L454.0541 375.3015 L410.8108 375.3015 L389.1892 412.7513 L410.8108 450.201 L454.0541 450.201 L475.6757 412.7513 M475.6757 337.8518 L454.0541 300.402 L410.8108 300.402 L389.1892 337.8518 L410.8108 375.3015 L454.0541 375.3015 L475.6757 337.8518 M475.6757 262.9523 L454.0541 225.5025 L410.8108 225.5025 L389.1892 262.9523 L410.8108 300.402 L454.0541 300.402 L475.6757 262.9523 M540.5405 974.4975 L518.9189 937.0477 L475.6757 937.0477 L454.0541 974.4975 L475.6757 1011.9472 L518.9189 1011.9472 L540.5405 974.4975 M540.5405 899.598 L518.9189 862.1482 L475.6757 862.1482 L454.0541 899.598 L475.6757 937.0477 L518.9189 937.0477 L540.5405 899.598 M540.5405 824.6985 L518.9189 787.2487 L475.6757 787.2487 L454.0541 824.6985 L475.6757 862.1482 L518.9189 862.1482 L540.5405 824.6985 M540.5405 749.799 L518.9189 712.3492 L475.6757 712.3492 L454.0541 749.799 L475.6757 787.2487 L518.9189 787.2487 L540.5405 749.799 M540.5405 674.8995 L518.9189 637.4497 L475.6757 637.4497 L454.0541 674.8995 L475.6757 712.3492 L518.9189 712.3492 L540.5405 674.8995 M540.5405 600.0 L518.9189 562.5503 L475.6757 562.5503 L454.0541 600.0 L475.6757 637.4497 L518.9189 637.4497 L540.5405 600.0 M540.5405 525.1005 L518.9189 487.6508 L475.6757 487.6508 L454.0541 525.1005 L475.6757 562.5503 L518.9189 562.5503 L540.5405 525.1005 M540.5405 450.201 L518.9189 412.7513 L475.6757 412.7513 L454.0541 450.201 L475.6757 487.6508 L518.9189 487.6508 L540.5405 450.201 M540.5405 375.3015 L518.9189 337.8518 L475.6757 337.8518 L454.0541 375.3015 L475.6757 412.7513 L518.9189 412.7513 L540.5405 375.3015 M540.5405 300.402 L518.9189 262.9523 L475.6757 262.9523 L454.0541 300.402 L475.6757 337.8518 L518.9189 337.8518 L540.5405 300.402 M540.5405 225.5025 L518.9189 188.0528 L475.6757 188.0528 L454.0541 225.5025 L475.6757 262.9523 L518.9189 262.9523 L540.5405 225.5025 M605.4054 937.0477 L583.7838 899.598 L540.5405 899.598 L518.9189 937.0477 L540.5405 974.4975 L583.7838 974.4975 L605.4054 937.0477 M605.4054 862.1482 L583.7838 824.6985 L540.5405 824.6985 L518.9189 862.1482 L540.5405 899.598 L583.7838 899.598 L605.4054 862.1482 M605.4054 787.2487 L583.7838 749.799 L540.5405 749.799 L518.9189 787.2487 L540.5405 824.6985 L583.7838 824.6985 L605.4054 787.2487 M605.4054 712.3492 L583.7838 674.8995 L540.5405 674.8995 L518.9189 712.3492 L540.5405 749.799 L583.7838 749.799 L605.4054 712.3492 M605.4054 637.4497 L583.7838 600.0 L540.5405 600.0 L518.9189 637.4497 L540.5405 674.8995 L583.7838 674.8995 L605.4054 637.4497 M605.4054 562.5503 L583.7838 525.1005 L540.5405 525.1005 L518.9189 562.5503 L540.5405 600.0 L583.7838 600.0 L605.4054 562.5503 M605.4054 487.6508 L583.7838 450.201 L540.5405 450.201 L518.9189 487.6508 L540.5405 525.1005 L583.7838 525.1005 L605.4054 487.6508 M605.4054 412.7513 L583.7838 375.3015 L540.5405 375.3015 L518.9189 412.7513 L540.5405 450.201 L583.7838 450.201 L605.4054 412.7513 M605.4054 337.8518 L583.7838 300.402 L540.5405 300.402 L518.9189 337.8518 L540.5405 375.3015 L583.7838 375.3015 L605.4054 337.8518 M605.4054 262.9523 L583.7838 225.5025 L540.5405 225.5025 L518.9189 262.9523 L540.5405 300.402 L583.7838 300.402 L605.4054 262.9523 M670.2703 974.4975 L648.6486 937.0477 L605.4054 937.0477 L583.7838 974.4975 L605.4054 1011.9472 L648.6486 1011.9472 L670.2703 974.4975 M670.2703 899.598 L648.6486 862.1482 L605.4054 862.1482 L583.7838 899.598 L605.4054 937.0477 L648.6486 937.0477 L670.2703 899.598 M670.2703 824.6985 L648.6486 787.2487 L605.4054 787.2487 L583.7838 824.6985 L605.4054 862.1482 L648.6486 862.1482 L670.2703 824.6985 M670.2703 749.799 L648.6486 712.3492 L605.4054 712.3492 L583.7838 749.799 L605.4054 787.2487 L648.6486 787.2487 L670.2703 749.799 M670.2703 674.8995 L648.6486 637.4497 L605.4054 637.4497 L583.7838 674.8995 L605.4054 712.3492 L648.6486 712.3492 L670.2703 674.8995 M670.2703 600.0 L648.6486 562.5503 L605.4054 562.5503 L583.7838 600.0 L605.4054 637.4497 L648.6486 637.4497 L670.2703 600.0 M670.2703 525.1005 L648.6486 487.6508 L605.4054 487.6508 L583.7838 525.1005 L605.4054 562.5503 L648.6486 562.5503 L670.2703 525.1005 M670.2703 450.201 L648.6486 412.7513 L605.4054 412.7513 L583.7838 450.201 L605.4054 487.6508 L648.6486 487.6508 L670.2703 450.201 M670.2703 375.3015 L648.6486 337.8518 L605.4054 337.8518 L583.7838 375.3015 L605.4054 412.7513 L648.6486 412.7513 L670.2703 375.3015 M670.2703 300.402 L648.6486 262.9523 L605.4054 262.9523 L583.7838 300.402 L605.4054 337.8518 L648.6486 337.8518 L670.2703 300.402 M670.2703 225.5025 L648.6486 188.0528 L605.4054 188.0528 L583.7838 225.5025 L605.4054 262.9523 L648.6486 262.9523 L670.2703 225.5025 M735.1351 937.0477 L713.5135 899.598 L670.2703 899.598 L648.6486 937.0477 L670.2703 974.4975 L713.5135 974.4975 L735.1351 937.0477 M735.1351 862.1482 L713.5135 824.6985 L670.2703 824.6985 L648.6486 862.1482 L670.2703 899.598 L713.5135 899.598 L735.1351 862.1482 M735.1351 787.2487 L713.5135 749.799 L670.2703 749.799 L648.6486 787.2487 L670.2703 824.6985 L713.5135 824.6985 L735.1351 787.2487 M735.1351 712.3492 L713.5135 674.8995 L670.2703 674.8995 L648.6486 712.3492 L670.2703 749.799 L713.5135 749.799 L735.1351 712.3492 M735.1351 637.4497 L713.5135 600.0 L670.2703 600.0 L648.6486 637.4497 L670.2703 674.8995 L713.5135 674.8995 L735.1351 637.4497 M735.1351 562.5503 L713.5135 525.1005 L670.2703 525.1005 L648.6486 562.5503 L670.2703 600.0 L713.5135 600.0 L735.1351 562.5503 M735.1351 487.6508 L713.5135 450.201 L670.2703 450.201 L648.6486 487.6508 L670.2703 525.1005 L713.5135 525.1005 L735.1351 487.6508 M735.1351 412.7513 L713.5135 375.3015 L670.2703 375.3015 L648.6486 412.7513 L670.2703 450.201 L713.5135 450.201 L735.1351 412.7513 M735.1351 337.8518 L713.5135 300.402 L670.2703 300.402 L648.6486 337.8518 L670.2703 375.3015 L713.5135 375.3015 L735.1351 337.8518 M735.1351 262.9523 L713.5135 225.5025 L670.2703 225.5025 L648.6486 262.9523 L670.2703 300.402 L713.5135 300.402 L735.1351 262.9523 M800.0 974.4975 L778.3784 937.0477 L735.1351 937.0477 L713.5135 974.4975 L735.1351 1011.9472 L778.3784 1011.9472 L800.0 974.4975 M800.0 899.598 L778.3784 862.1482 L735.1351 862.1482 L713.5135 899.598 L735.1351 937.0477 L778.3784 937.0477 L800.0 899.598 M800.0 824.6985 L778.3784 787.2487 L735.1351 787.2487 L713.5135 824.6985 L735.1351 862.1482 L778.3784 862.1482 L800.0 824.6985 M800.0 749.799 L778.3784 712.3492 L735.1351 712.3492 L713.5135 749.799 L735.1351 787.2487 L778.3784 787.2487 L800.0 749.799 M800.0 674.8995 L778.3784 637.4497 L735.1351 637.4497 L713.5135 674.8995 L735.1351 712.3492 L778.3784 712.3492 L800.0 674.8995 M800.0 600.0 L778.3784 562.5503 L735.1351 562.5503 L713.5135 600.0 L735.1351 637.4497 L778.3784 637.4497 L800.0 600.0 M800.0 525.1005 L778.3784 487.6508 L735.1351 487.6508 L713.5135 525.1005 L735.1351 562.5503 L778.3784 562.5503 L800.0 525.1005 M800.0 450.201 L778.3784 412.7513 L735.1351 412.7513 L713.5135 450.201 L735.1351 487.6508 L778.3784 487.6508 L800.0 450.201 M800.0 375.3015 L778.3784 337.8518 L735.1351 337.8518 L713.5135 375.3015 L735.1351 412.7513 L778.3784 412.7513 L800.0 375.3015 M800.0 300.402 L778.3784 262.9523 L735.1351 262.9523 L713.5135 300.402 L735.1351 337.8518 L778.3784 337.8518 L800.0 300.402 M800.0 225.5025 L778.3784 188.0528 L735.1351 188.0528 L713.5135 225.5025 L735.1351 262.9523 L778.3784 262.9523 L800.0 225.5025" stroke-dasharray="" fill="none" fill-opacity="1.0" stroke="#808080" stroke-opacity="1.0" stroke-width="0.2px" stroke-linecap="butt" stroke-linejoin="miter" stroke-dashoffset="0.0px"/>
</g>
</svg>