<?xml version="1.0" standalone="no"?>
<!DOCTYPE svg PUBLIC "-//W3C//DTD SVG 1.1//EN" "http://www.w3.org/Graphics/SVG/1.1/DTD/svg11.dtd">
<svg width="1024px" height="1024px" version="1.1" xmlns="http://www.w3.org/2000/svg" xmlns:inkscape="http://www.inkscape.org/namespaces/inkscape">
<g id="poly" inkscape:groupmode="layer" inkscape:label="poly">
<path d="M8.0256 134.8423 L6.9854 138.6546 L3.7711 141.913 L1.0643 143.0318 L0.0 144.6659 L0.5544 146.2994 L1.1176 146.8426 L3.7958 145.1796 L8.0929 140.7993 L8.0686 138.106 L12.9103 135.3269 L15.5989 132.6076 L17.2178 132.6072 L18.8458 133.8934 L20.4968 135.2047 L20.4977 135.2386 L20.5062 135.7766 L21.6004 137.4134 L22.1728 139.5591 L21.1274 142.2541 L21.1359 142.2769 L21.69 145.5143 L23.8758 147.1403 L25.5282 149.2919 L26.6436 151.9744 L27.1927 152.491 L27.7367 153.062 L31.0019 154.6361 L31.5504 155.1772 L31.0257 156.8138 L28.8536 156.8423 L27.7882 157.9269 L27.8128 159.565 L29.9979 162.2211 L30.5839 164.393 L27.9119 168.2109 L27.9004 168.2275 L27.9058 169.3197 L29.5808 173.0992 L30.6728 174.1526 L31.2218 174.6691 L36.671 177.8688 L38.8564 179.4703 L40.4979 182.7354 L40.5026 182.7638 L41.107 187.5985 L41.6917 191.9116 L42.8122 195.1455 L44.448 197.8331 L46.6564 200.523 L54.3844 213.9895 L55.4667 214.5296 L57.0931 215.043 L57.6373 215.5893 L57.665 217.7354 L57.1583 220.455 L57.1711 221.5355 L57.7152 222.0817 L59.3437 222.0487 L64.1988 220.3915 L65.7957 218.7327 L66.8521 213.8394 L67.8822 212.1989 L67.8975 212.1768 L67.8958 211.6939 L68.9743 211.6667 L72.7869 213.8084 L74.9578 213.7809 L79.2821 212.6584 L81.4548 213.1723 L82.5598 215.3158 L82.0226 216.9505 L80.4225 219.1217 L79.9283 223.4699 L77.7691 224.5853 L74.5279 225.1604 L72.3803 226.7908 L72.4097 228.963 L74.6308 234.9095 L74.6305 235.4241 L76.2675 238.1129 L76.2878 238.136 L77.9214 239.743 L80.6409 240.7972 L82.2804 241.8522 L81.7991 247.8278 L81.7987 248.3423 L81.2899 249.4571 L80.2071 251.0913 L78.6075 253.2617 L78.607 254.3489 L82.4073 254.8635 L86.2197 256.9727 L82.9772 258.0935 L78.672 259.7507 L75.4427 262.4999 L73.8325 263.0683 L72.1913 261.9873 L72.728 260.3535 L73.7948 258.7245 L73.7769 257.6406 L69.4358 256.0679 L66.7907 262.5884 L60.3621 269.7103 L60.3891 271.3067 L62.547 271.2787 L67.9248 266.9015 L68.4541 266.8726 L70.6168 266.8731 L74.9988 270.1027 L76.6142 270.5839 L79.2955 267.867 L79.8144 266.7848 L80.3376 264.6099 L80.3114 261.9262 L82.4739 260.8061 L86.2577 260.7776 L88.4286 262.3783 L91.1765 265.6038 L92.8034 266.6582 L96.044 265.5113 L96.5898 265.5112 L98.2064 265.5123 L102.5473 266.5719 L107.4017 265.4248 L109.5513 263.2497 L110.6193 261.0487 L112.2076 257.8159 L113.8222 257.2427 L115.4585 258.8443 L115.4721 259.9337 L119.3351 266.9307 L121.5213 269.0751 L123.7601 276.6462 L124.2907 277.1582 L126.5264 283.6474 L131.483 293.875 L132.0301 294.4157 L133.1382 296.0136 L136.4045 298.6977 L139.6561 299.1803 L143.4406 299.1806 L147.2144 298.0361 L148.2941 298.0363 L150.9909 296.4037 L153.1403 294.7448 L154.7262 292.5745 L156.8883 290.4016 L159.5677 288.2 L161.7285 287.1138 L164.4353 287.0827 L167.1539 288.6795 L167.1514 289.2256 L168.234 290.2826 L170.4432 294.5961 L172.1103 299.4513 L173.7617 302.1364 L177.0265 304.822 L181.3724 307.4762 L183.5666 310.1598 L183.5843 310.181 L184.6637 312.3319 L185.8101 318.2671 L185.2987 322.0688 L183.6876 323.6966 L177.7634 326.4128 L173.4467 328.1294 L169.6841 330.3008 L169.1387 330.3005 L164.8283 331.4493 L158.8686 329.8828 L152.9236 330.4516 L151.3102 331.0238 L150.2658 335.3392 L149.7196 335.9109 L148.119 337.5378 L145.4252 339.1958 L144.3584 340.2502 L144.3837 341.3389 L146.5424 342.3931 L149.2525 342.39 L152.9978 338.5632 L155.1604 338.5335 L156.7985 341.2486 L156.2777 343.4153 L155.7559 345.5895 L154.7036 347.7245 L155.2765 352.0674 L156.3667 352.5818 L158.0053 354.2105 L158.5427 354.2049 L163.9808 357.9132 L165.6064 358.454 L167.2202 357.3685 L170.9684 353.5452 L171.5137 353.5455 L172.0763 355.6824 L169.9526 360.0541 L169.9771 362.7682 L170.016 367.6166 L167.8661 369.2474 L167.3337 369.7873 L167.3467 370.8752 L166.813 372.5009 L167.9067 373.5573 L169.533 374.638 L169.5563 376.8116 L169.0252 378.439 L167.9568 379.5245 L165.811 381.1496 L160.9683 382.8359 L160.4229 382.8355 L157.1957 383.9525 L155.0332 384.4956 L152.8739 383.9795 L151.2325 381.8434 L150.1433 380.7575 L147.9815 380.7871 L146.368 381.8725 L142.5942 383.5276 L139.8992 384.1049 L134.5004 384.6731 L130.7261 385.275 L130.1771 385.2805 L124.2308 384.2553 L118.297 384.2845 L113.9546 383.8009 L105.2998 381.7538 L103.6614 381.7519 L103.6845 382.8382 L105.3226 385.4926 L108.0444 386.5422 L111.8303 387.0587 L114.0031 388.1141 L117.2816 392.4221 L118.9086 392.93 L121.0565 392.9311 L123.2173 391.8475 L124.3198 393.4151 L124.8827 396.1224 L124.8922 396.6681 L124.8911 397.7533 L123.8541 400.4612 L123.332 403.1719 L123.3572 406.3981 L128.2479 409.0486 L133.142 412.8122 L136.9431 414.3777 L137.4763 414.3775 L138.5564 414.3457 L141.2489 412.7228 L143.4072 412.691 L144.4896 413.2328 L145.0611 416.4851 L145.6081 416.4535 L148.8337 414.8308 L150.4471 414.799 L150.4603 415.8862 L150.4752 418.0192 L151.0334 419.1066 L152.6449 419.1067 L154.249 416.9047 L155.8751 416.9072 L159.126 418.503 L160.1931 417.9313 L161.7945 415.2217 L163.9564 414.6789 L164.4913 414.647 L166.6469 414.108 L170.958 413.5358 L177.4641 415.0987 L179.6259 415.6092 L180.1683 416.1549 L181.2522 416.6653 L182.3678 419.9183 L183.4618 421.5139 L186.168 422.5967 L187.807 424.1928 L187.8181 426.3648 L186.2051 427.449 L184.5937 427.4483 L181.3278 425.3098 L179.7266 425.3415 L178.099 426.4234 L177.581 428.5897 L177.0566 430.7597 L178.1487 432.3868 L178.1775 434.5216 L176.562 436.1509 L175.4935 437.8069 L176.0544 439.4017 L177.1492 440.4837 L178.7713 440.9979 L181.4546 438.8312 L184.6711 437.1704 L187.9088 436.6027 L191.6974 437.1093 L192.2331 437.1113 L197.6563 439.2195 L198.7244 438.1352 L199.2428 435.9692 L201.9393 435.3958 L201.9412 434.3111 L199.7423 431.1196 L199.1787 428.4109 L203.9984 422.9889 L212.662 425.6104 L214.3033 427.7147 L217.0195 430.9702 L217.5663 430.9391 L217.5826 432.0206 L214.3427 433.1663 L210.6313 439.6383 L209.5648 442.3485 L210.6688 445.0627 L210.1345 446.6865 L208.5207 447.2304 L204.7494 447.2578 L201.518 448.9152 L199.9326 453.2514 L199.9544 455.3891 L199.9666 455.4064 L201.5825 457.5576 L196.2474 464.6298 L185.5359 473.8693 L178.6252 484.22 L176.4752 487.4452 L172.7372 491.2659 L170.0603 493.4596 L169.0021 496.7117 L167.3903 497.7951 L164.7228 499.9872 L161.4933 502.158 L158.8237 503.2718 L157.1976 504.353 L156.6662 504.8923 L156.6754 505.4373 L157.2251 506.5178 L157.2394 508.1429 L156.7185 509.7659 L154.5705 510.3088 L149.7015 510.371 L147.5551 511.453 L147.5562 511.992 L147.5655 512.537 L151.8894 513.0449 L154.0626 514.6403 L155.6626 514.6084 L157.2869 514.6108 L159.4486 514.0369 L159.9968 514.5782 L161.0792 516.7515 L161.0876 516.7742 L162.2064 520.5058 L164.378 523.185 L166.0185 524.7808 L168.707 526.3889 L168.7259 526.4027 L170.3522 527.4252 L173.6032 529.5603 L175.7791 530.0988 L177.3906 530.6139 L179.0083 529.5274 L180.6186 528.9572 L182.7939 530.0086 L185.4991 531.6627 L187.6466 531.0629 L190.3395 529.951 L191.4093 528.3234 L191.9279 527.2451 L191.3708 526.1589 L188.6758 525.6465 L185.9696 523.5113 L184.3165 520.3241 L184.2766 515.964 L182.1061 513.3178 L181.5589 513.3154 L177.2007 507.9608 L176.0831 503.6576 L176.5906 500.4091 L178.1535 494.4534 L180.2896 491.2019 L180.8214 490.6628 L184.0342 487.9246 L187.7968 486.2675 L189.947 484.6414 L188.8388 480.8819 L188.2701 478.1712 L189.3339 476.546 L190.4014 475.4621 L192.0183 474.349 L194.7228 474.3208 L199.0406 475.4061 L201.2034 474.833 L203.3388 472.6654 L204.9367 470.4693 L208.1682 468.2992 L210.3156 467.1845 L213.0095 466.6435 L215.1669 466.6135 L220.0477 469.802 L222.7405 469.7744 L222.196 468.7212 L221.1023 466.5867 L218.3832 464.4489 L218.3573 461.7361 L217.8236 461.1965 L215.1175 461.737 L215.1177 460.6845 L216.7169 459.0277 L217.2387 456.3175 L217.7737 455.2333 L219.3873 455.2365 L220.465 455.2374 L220.4813 456.3186 L219.9578 458.4557 L219.9585 459.5421 L220.505 460.6215 L223.2122 459.51 L223.7451 459.5103 L225.3713 460.0534 L225.93 463.2719 L227.5561 463.815 L234.5458 461.0459 L236.6677 455.6265 L237.7342 454.5747 L238.2809 454.5437 L242.0551 453.9728 L245.8294 453.4021 L246.3494 451.7762 L247.4336 450.6876 L250.6562 449.0332 L252.8191 447.9796 L253.3296 446.3216 L250.6187 444.1879 L249.5278 442.5603 L252.2198 442.0183 L258.7014 441.414 L265.7293 444.0636 L266.2774 444.606 L268.4353 444.5773 L271.1431 445.1172 L274.9538 448.8535 L275.4868 448.8541 L276.5686 448.8503 L275.996 444.5493 L277.6213 445.0596 L279.2478 446.1431 L279.2502 446.6509 L280.3427 448.8279 L280.3445 448.8541 L280.9137 452.6135 L280.4191 456.9204 L281.5121 459.5952 L283.685 461.7343 L288.5779 466.5791 L289.6687 467.0963 L290.7229 466.011 L292.352 466.0104 L293.9903 467.6337 L295.073 468.1451 L296.1503 467.6075 L296.672 465.4355 L297.7252 461.6458 L298.7794 458.9349 L299.8606 458.3918 L302.0311 458.9373 L302.5679 458.9325 L311.778 464.2641 L313.4089 465.8576 L316.1007 465.3176 L316.6088 460.9537 L317.1553 460.4419 L322.0367 463.6307 L323.6593 465.7992 L324.2325 467.9364 L324.2209 468.4754 L325.312 470.0716 L328.0186 470.0737 L331.7932 470.5853 L336.1248 471.6383 L340.4356 471.067 L343.6873 472.6888 L346.9317 473.7413 L352.3423 474.7654 L355.0472 476.36 L355.5949 477.4421 L355.5938 477.9888 L357.221 479.0416 L359.3947 480.1222 L363.7402 484.3971 L365.3652 486.0209 L367.5132 487.0746 L370.2331 487.5857 L372.9285 487.5813 L376.7014 485.962 L378.8623 485.9303 L379.9398 486.4724 L379.4095 487.5515 L376.7276 489.7226 L376.1935 490.8073 L377.2729 491.8567 L388.6096 494.5045 L389.7027 494.5023 L391.3291 495.5555 L392.4198 497.1858 L394.5808 498.8057 L403.7818 502.5095 L406.489 504.0996 L406.5007 506.8123 L403.8197 508.9746 L403.8222 509.5156 L401.6718 510.06 L398.4603 514.4205 L397.3792 514.9621 L394.1491 514.4237 L392.5236 514.9637 L389.8439 517.1599 L388.2427 522.5441 L388.8121 525.251 L390.4532 527.9568 L392.0646 528.4681 L396.3981 530.6049 L397.4814 531.1432 L400.1851 533.8085 L400.2049 533.8148 L402.8919 534.8758 L403.4426 535.4128 L405.6029 535.9544 L409.3865 536.4692 L410.9998 538.0605 L411.5752 540.2246 L411.5735 541.8486 L413.1992 542.9017 L413.7441 545.0683 L414.3052 548.2832 L414.8505 549.9109 L422.4124 552.0411 L424.5746 552.0122 L425.1071 552.0137 L426.7461 552.5545 L428.3595 553.6072 L430.5091 553.0638 L434.8139 550.3307 L435.8684 547.6224 L438.0304 546.5407 L439.1092 547.6238 L439.6556 549.7587 L440.7482 551.9218 L445.6138 555.1413 L447.7895 556.1931 L452.6285 555.0809 L453.177 555.65 L458.0301 556.1326 L462.3388 556.6713 L463.4335 558.2641 L462.9124 560.4272 L470.4836 567.4045 L472.6445 567.4013 L476.4306 568.9998 L479.125 569.5052 L479.6442 568.9997 L479.114 567.913 L476.4165 566.833 L474.7765 564.1588 L475.314 561.452 L478.554 560.3679 L479.0613 557.6636 L475.2604 551.7406 L475.7899 549.5999 L477.9409 549.6059 L478.4891 549.5445 L485.5164 553.8427 L485.5279 555.4689 L486.0756 556.5188 L489.3131 558.1457 L493.6372 560.8208 L495.2634 561.9012 L497.9574 561.3616 L501.742 563.4664 L502.2909 566.1683 L502.837 566.7112 L503.9038 565.5965 L506.5996 565.5978 L507.6901 566.1432 L508.2257 566.6784 L509.3174 568.8176 L509.3329 573.1427 L510.9965 581.2271 L510.9946 581.7732 L511.0068 584.4779 L509.9391 586.6116 L507.7928 588.7725 L507.259 589.8891 L508.3279 592.0192 L514.846 597.9114 L519.167 601.1249 L521.3261 602.7475 L520.7932 604.3704 L520.2582 605.4526 L518.6609 607.0715 L514.3397 604.3966 L512.7116 603.8288 L511.629 604.4002 L511.0968 604.3983 L508.9368 604.4006 L507.3244 604.3998 L504.0686 602.8082 L499.2166 600.6724 L496.5222 600.1327 L493.8296 599.6192 L492.2021 598.5711 L491.6551 595.3246 L490.0267 594.8149 L486.7998 595.8987 L484.6425 598.0596 L483.5992 600.7661 L483.6006 601.845 L481.4384 601.3075 L480.3697 601.848 L481.4495 603.4713 L483.6272 606.1425 L483.6229 606.6865 L484.1705 608.308 L485.7996 611.5208 L488.5052 613.6851 L492.8247 615.2461 L493.8903 616.3285 L493.3837 618.4921 L493.9323 621.192 L493.3979 622.2743 L491.7821 622.2793 L490.7041 621.735 L489.6224 620.1438 L488.5307 619.5729 L487.4643 621.2254 L485.8497 621.2231 L484.2243 619.5717 L483.1562 619.6315 L481.5419 620.7154 L481.0053 621.2573 L479.3839 620.1726 L477.2107 616.9581 L475.5694 613.7451 L474.489 612.6604 L472.8749 612.12 L471.8044 613.2062 L471.8083 614.8254 L473.9935 619.6648 L474.0068 622.3683 L472.4192 627.7731 L471.3501 631.5283 L471.3661 632.6091 L470.8429 636.3923 L471.3908 638.527 L472.4682 639.6092 L475.7164 640.1748 L476.2556 641.201 L475.7251 643.9016 L477.3503 646.0662 L477.9094 648.7394 L479.0001 650.9002 L481.1634 652.4912 L484.3887 653.5458 L486.0153 655.1648 L486.5543 656.7625 L484.9605 658.9209 L484.9617 659.4853 L482.8254 663.2743 L483.3748 664.863 L484.9995 666.4555 L485.5447 667.5358 L485.0011 668.1053 L482.3191 668.6428 L481.2375 669.7278 L479.637 672.4275 L478.5695 672.4295 L476.9438 672.4268 L475.3442 675.1602 L473.7279 677.2931 L470.5269 678.915 L469.4447 680.0242 L469.4609 681.1045 L471.0722 681.6183 L473.2214 681.6166 L476.9841 679.4223 L478.0615 679.966 L479.1563 681.5827 L478.0861 683.2059 L477.5408 683.749 L474.8616 684.8268 L473.7917 686.4501 L474.3405 689.1475 L473.2728 689.6875 L471.1103 688.6111 L470.0331 688.6389 L468.965 690.2303 L469.5239 694.0111 L471.1639 698.8435 L471.709 699.9232 L469.0169 699.9229 L466.8678 701.034 L466.8795 703.7085 L467.4268 705.3279 L467.9739 707.9985 L469.0689 709.0767 L473.362 710.13 L479.8297 709.0486 L481.9653 706.3466 L483.5653 703.0767 L484.6308 701.9972 L487.3275 701.4547 L493.7832 701.963 L494.3266 701.9652 L506.694 699.7424 L511.5319 698.1257 L512.0676 697.5507 L515.2962 697.011 L517.9884 697.0127 L518.5213 698.0924 L519.0816 699.6809 L518.5354 700.7616 L516.3873 700.7959 L513.1588 701.3355 L512.6244 702.4165 L512.6257 703.4941 L514.2645 704.0375 L518.5612 704.0025 L519.6166 704.5142 L521.786 705.5973 L523.9485 706.1371 L526.109 705.052 L526.616 701.2754 L526.0714 699.6817 L521.2213 696.9981 L520.1244 694.8489 L519.575 691.6116 L520.1003 689.4467 L522.7892 688.3689 L526.5537 687.8261 L530.8609 688.3374 L533.0316 690.4988 L534.1145 691.0061 L535.1779 691.0103 L536.2597 691.0113 L542.2211 701.7546 L545.4605 703.8832 L546.5554 706.5534 L547.6348 708.7151 L549.2479 708.7184 L549.2492 707.0957 L549.7805 704.9355 L550.8484 704.3965 L550.853 704.4246 L551.3952 707.0939 L550.8758 709.2546 L549.8083 711.3843 L549.2805 713.58 L549.2824 713.6063 L549.2877 715.1675 L550.8904 717.3252 L551.4602 718.3744 L551.4422 718.3942 L550.9146 718.9168 L549.8339 718.9492 L548.7528 718.3767 L547.1417 716.7844 L544.9689 715.7063 L542.8166 715.1982 L540.1383 715.7359 L535.2951 717.3879 L533.6966 717.3872 L530.4536 716.8799 L525.5987 714.7473 L523.9865 714.2067 L522.3734 715.2886 L518.0664 715.3157 L514.2902 714.7811 L513.7586 714.7791 L510.5312 714.2676 L505.6757 712.1359 L502.9845 711.5968 L498.6888 713.2477 L492.2323 715.4372 L486.8808 718.6796 L482.5753 721.4079 L482.0414 721.9176 L479.3594 723.5714 L469.1704 729.0016 L463.8075 733.3194 L462.207 735.5114 L459.5246 738.7203 L455.2305 740.9103 L454.1871 745.2323 L454.1975 748.9468 L455.2811 750.0574 L456.8933 752.2184 L456.9196 753.272 L455.8403 754.3486 L453.1589 754.9182 L442.9275 752.282 L439.6788 749.0682 L438.5932 747.4517 L435.3689 747.4824 L433.2112 749.0991 L426.7896 753.962 L424.1125 755.5776 L423.0295 755.6094 L422.496 754.5312 L429.4603 748.5613 L429.98 746.9741 L430.5132 745.8932 L431.0485 745.8892 L431.5801 745.3531 L434.2873 745.8607 L436.4257 743.7003 L437.4795 741.5621 L437.4937 741.5477 L438.5286 740.4877 L439.6217 739.3794 L439.6395 739.3594 L442.294 735.6003 L444.4282 732.3607 L446.5507 726.9606 L446.5491 726.4546 L446.525 722.6713 L445.9751 720.5128 L444.8983 719.4319 L443.2733 718.3787 L439.4979 717.8396 L437.3493 716.7909 L436.8035 716.2493 L436.2698 715.1707 L437.8708 713.0113 L437.8589 711.9598 L436.7753 710.8823 L435.6976 710.8769 L433.5497 711.3931 L431.9359 710.8781 L430.3071 709.8307 L429.2275 708.2101 L429.2297 707.6985 L427.0586 704.4569 L427.0447 703.3789 L428.6555 702.8405 L429.7386 702.2951 L429.7245 701.755 L427.0323 700.1666 L427.0183 699.0886 L428.0853 696.3875 L428.0582 692.0631 L426.433 690.4721 L424.8075 688.8809 L422.1264 687.8307 L418.8853 687.2882 L417.2704 687.8324 L416.7368 689.4521 L417.2851 691.0714 L421.0597 692.1217 L421.0696 693.743 L420.5379 693.7416 L418.9231 694.2857 L416.764 693.2051 L414.6167 693.7722 L413.0043 695.3941 L411.9463 695.3953 L411.3761 693.8014 L410.8092 692.1685 L409.7609 691.647 L408.1375 691.6719 L406.5341 693.2923 L406.5348 693.806 L403.8546 695.4552 L401.1725 697.0781 L399.0249 696.5362 L396.8636 696.0256 L395.7736 693.8932 L396.2767 689.5698 L396.2909 689.5555 L396.8267 689.0301 L398.9719 689.0321 L401.6651 689.5441 L404.3622 690.0507 L404.8914 688.9743 L403.7871 686.3012 L403.7886 685.218 L403.7902 683.5968 L402.696 682.0076 L402.1567 680.3865 L402.1494 680.3563 L403.2294 679.8496 L404.8276 677.6869 L404.2713 675.5235 L405.3381 672.8214 L405.326 670.6932 L403.7122 670.6923 L401.0309 671.2323 L397.8024 673.4237 L396.7373 675.0426 L395.1221 676.6632 L392.4541 678.8271 L389.7846 683.6881 L388.7175 684.2292 L386.5564 684.2324 L384.9449 684.2581 L380.1036 686.4492 L375.8073 687.0211 L373.6476 685.4035 L371.4859 684.8935 L370.9541 684.8923 L369.3405 685.4299 L368.2868 688.1324 L366.6831 690.8368 L365.0726 691.9144 L366.1614 694.0783 L366.1788 695.6961 L364.0408 698.3972 L361.3594 700.0212 L355.4361 700.5914 L351.1444 701.1589 L350.0518 700.0765 L349.5042 697.4083 L350.0247 695.7879 L353.7739 693.598 L358.0686 690.898 L359.122 688.1954 L357.4974 686.5737 L356.9608 686.0644 L354.8018 686.0946 L350.5197 687.1743 L345.6805 688.822 L341.3692 690.4762 L340.8358 690.9869 L338.1554 691.5865 L334.3819 691.0458 L330.0636 688.9148 L328.9814 688.3781 L324.6861 690.0281 L320.9127 690.067 L319.2995 690.0844 L320.8714 684.6849 L320.3431 684.1406 L318.1946 685.2216 L317.1246 686.8447 L314.4459 689.0344 L312.3095 690.116 L309.6311 690.6847 L308.5497 691.2244 L308.0276 693.9596 L308.5765 695.0069 L310.1874 696.0629 L312.336 695.5197 L315.0296 694.4082 L317.1781 693.865 L323.6727 698.1276 L324.7608 700.8024 L324.2835 708.8718 L325.3609 710.4966 L325.9331 713.7028 L325.4012 715.3225 L325.4272 719.104 L322.7328 719.1059 L318.9723 718.6244 L325.4236 719.6471 L326.505 719.6458 L327.5852 720.6937 L327.6115 722.8545 L326.533 723.3955 L323.8476 725.0162 L320.6353 726.6642 L317.9678 729.3644 L315.855 736.3894 L315.3239 736.9262 L314.2983 742.8703 L314.2922 742.8907 L313.2388 745.5658 L311.0922 747.1838 L309.5039 750.9624 L311.691 755.2504 L313.8359 754.1439 L314.0196 754.1463 L314.9052 754.1421 L315.4518 755.2202 L313.3284 757.9209 L312.1165 759.9669 L311.7274 760.624 L311.6095 761.5044 L311.2219 764.3689 L312.302 766.0112 L313.3801 766.5282 L314.9969 766.4979 L316.196 765.6327 L318.7442 763.7973 L322.4763 759.4822 L325.1625 757.8304 L327.308 757.7991 L330.5199 758.3426 L331.0932 758.3412 L332.6818 757.8027 L332.6674 755.6431 L332.1218 753.4827 L332.6444 751.8653 L334.2193 748.0846 L333.6865 746.4954 L332.0599 744.8735 L332.5926 743.8255 L334.1957 742.1731 L335.8082 741.6353 L337.968 743.2266 L339.5806 743.2263 L341.1822 742.1432 L342.2484 740.5272 L343.3191 737.823 L345.9852 735.635 L349.1993 733.4766 L351.8834 732.9059 L355.1227 733.4122 L357.8187 735.0334 L359.4551 738.2429 L360.0125 741.9592 L358.4143 744.1525 L358.3991 744.1744 L356.8156 746.3124 L356.2786 746.886 L351.9837 749.0448 L350.929 750.1234 L349.3558 756.6004 L345.6168 761.4892 L343.4709 763.6192 L341.3375 764.1879 L339.7224 763.6488 L337.5473 762.0628 L335.9471 762.6009 L335.9614 764.7603 L336.5191 767.4584 L337.0665 769.5869 L337.0778 771.2067 L336.0119 772.2849 L334.9446 772.7176 L333.3339 773.3635 L332.6444 774.0812 L332.2662 774.4735 L332.0858 774.5644 L330.1168 775.551 L329.0681 777.1542 L327.9926 778.7954 L326.9534 784.7267 L326.6599 785.3213 L325.8982 786.8536 L325.375 789.0149 L328.0813 792.2535 L328.0949 793.8411 L326.988 795.7067 L326.494 796.5427 L325.9717 798.1591 L324.6948 799.454 L324.3717 799.779 L324.0912 800.0774 L323.839 800.3469 L321.1583 801.968 L316.8756 804.1254 L314.1344 805.5452 L312.5932 806.3407 L308.3142 809.0375 L306.6997 810.118 L305.6434 812.2761 L306.1732 813.3248 L306.1897 813.3534 L307.2727 813.3537 L308.1481 813.5654 L309.4164 813.8666 L309.4286 816.0226 L308.8945 817.1014 L308.4125 817.3016 L306.2279 818.2121 L305.5638 818.8819 L305.1601 819.2881 L305.172 820.907 L312.6956 820.8184 L315.3781 820.8178 L315.8298 821.256 L316.4572 821.8642 L315.3901 822.9736 L314.3333 824.5942 L315.3038 825.0739 L315.4166 825.1317 L317.0157 824.5937 L321.2733 820.784 L323.9663 819.6765 L326.1149 819.1364 L328.8075 819.6473 L330.4202 819.0781 L333.6229 815.8416 L336.3061 814.76 L340.0543 813.6824 L341.1472 816.3502 L341.1604 817.9375 L340.1054 821.7153 L333.7376 833.5825 L329.9919 836.3044 L330.0421 842.2118 L327.9092 844.3646 L322.0142 847.6001 L307.5522 853.1132 L308.0998 855.2393 L312.9626 858.4455 L310.2963 861.1397 L309.2299 862.2487 L306.5488 863.8673 L302.2526 864.4353 L299.558 863.3867 L298.9995 860.1554 L299.5077 856.4092 L297.3572 856.4112 L296.2808 855.9285 L296.28 855.8949 L296.2783 854.2843 L295.1982 852.6683 L293.0375 852.6959 L288.2365 857.5499 L276.459 862.4303 L273.8024 865.7257 L272.7323 867.3437 L265.7717 869.5277 L265.2632 872.7607 L266.3706 878.6606 L264.7944 881.8958 L265.3283 882.4349 L269.1112 884.0228 L269.098 884.5328 L268.5778 886.1814 L264.3099 888.874 L256.293 894.8612 L249.8359 892.7365 L246.6208 893.3047 L243.432 898.1881 L235.4637 908.4562 L235.4923 912.1951 L237.6433 914.3281 L237.6684 914.3382 L240.8927 915.3678 L243.0261 914.2896 L241.3995 913.2408 L241.9315 911.6265 L250.4836 906.7167 L255.3008 904.5335 L256.8793 900.7572 L260.055 896.4664 L268.0813 892.0783 L272.3427 886.1478 L277.1438 882.3441 L282.5061 881.236 L286.7771 877.4318 L289.4694 876.8942 L292.6702 875.7884 L306.6356 876.7462 L307.7064 875.6655 L307.159 873.5399 L308.7603 871.9233 L314.135 872.938 L320.0286 871.296 L320.5747 872.3727 L313.6242 876.7147 L310.9698 880.4893 L304.5514 885.369 L303.4991 888.0637 L304.5917 890.1919 L309.9797 892.8253 L313.2158 896.0117 L314.8323 895.4877 L314.2881 893.9012 L316.4218 892.2544 L316.9069 884.7383 L317.9714 883.6613 L319.573 882.0452 L331.8578 872.8224 L333.994 870.665 L333.9823 868.5105 L329.6591 866.3501 L329.652 864.2235 L338.2288 862.0384 L339.3181 863.6291 L340.3848 862.5781 L341.989 861.467 L344.1226 858.7707 L344.642 856.6168 L343.5611 855.0486 L343.5489 855.0315 L339.5366 856.12 L335.5187 857.188 L329.0642 857.7836 L324.2479 858.8944 L341.2737 835.6779 L340.691 828.7268 L345.9888 816.859 L348.6586 816.2883 L350.8181 814.6414 L352.9521 813.0253 L354.0208 813.561 L355.6599 815.6878 L357.2731 816.7713 L359.941 816.2325 L361.0343 815.6876 L362.0743 811.9147 L364.2262 809.7251 L366.3686 809.1893 L372.8112 808.6178 L373.8798 808.0795 L377.1087 806.969 L379.7896 808.0182 L383.0448 811.7612 L385.7481 813.8927 L388.9794 813.8588 L392.1905 813.3226 L396.4995 815.4514 L400.2736 815.4196 L402.4083 814.3417 L402.4057 813.8027 L405.6229 812.1557 L408.8496 812.1521 L410.9988 811.6139 L412.5997 811.0699 L412.5997 809.4251 L412.0422 807.2968 L411.4937 804.0591 L412.0273 804.0624 L413.6529 805.6772 L415.2807 806.1861 L417.9467 805.1098 L419.5604 805.0794 L420.6295 805.6494 L420.6316 806.7255 L420.1107 807.8061 L419.0565 809.9334 L419.5876 809.9348 L422.8028 809.3942 L424.9655 809.362 L431.4203 811.4898 L434.6434 812.5425 L436.2595 812.5142 L436.8063 812.5108 L442.1819 812.5077 L449.6813 811.3702 L455.6023 810.8013 L457.7626 811.3386 L462.0561 811.3104 L464.203 810.7716 L467.4301 811.2826 L470.1238 812.361 L473.8989 813.9452 L474.9772 815.0272 L474.9793 815.5662 L473.3673 817.7216 L472.3128 818.2611 L468.0149 819.881 L465.3336 820.4236 L464.2665 822.6074 L466.4291 824.1966 L470.2022 826.3248 L470.204 827.4007 L469.1334 828.4822 L465.9201 830.0968 L465.4006 833.8729 L464.332 836.0301 L462.7425 838.7303 L462.211 839.2655 L460.5981 840.3448 L455.78 843.5817 L453.0983 845.1981 L451.5095 847.8984 L450.9646 848.4649 L449.3655 848.4635 L446.6682 847.416 L437.5332 847.4492 L434.3029 848.0184 L432.1808 850.7151 L430.037 852.867 L427.3539 853.4085 L425.2063 853.9797 L422.527 852.9296 L420.8998 851.3137 L417.0745 841.1282 L415.9937 838.9717 L414.9132 837.9224 L413.2994 837.9193 L412.2461 840.6162 L411.1763 841.6981 L409.0306 842.2382 L407.9477 842.2366 L405.2936 844.9645 L406.3621 847.0869 L406.4146 854.576 L405.8925 856.7947 L404.2802 858.4115 L404.8376 860.5385 L404.8504 862.1585 L407.5333 863.2023 L408.6255 863.7726 L407.5436 864.2835 L405.3835 863.2351 L402.1675 863.7741 L401.6481 867.0102 L404.3227 868.5847 L404.341 868.5816 L424.7494 867.9679 L427.4319 866.3195 L430.6457 865.2429 L433.8873 867.367 L436.033 867.8771 L436.5675 867.8731 L438.7156 867.3359 L440.3285 867.8761 L440.8772 869.4603 L439.8071 871.0782 L440.8877 872.1609 L441.9689 871.6168 L446.7832 868.3541 L448.9197 867.8168 L453.2131 866.1708 L453.748 864.5809 L455.3509 863.4699 L458.5623 863.4414 L461.7899 863.4416 L462.325 862.9011 L463.407 863.44 L465.566 865.0264 L468.2472 865.0302 L469.846 863.4123 L471.4629 862.8405 L471.9802 860.1467 L473.0625 859.6365 L474.6771 860.1456 L475.1999 860.695 L475.2173 860.7161 L475.7542 863.3832 L476.3025 864.9675 L477.3823 864.9679 L480.061 864.9702 L484.3717 867.6348 L486.5187 867.6018 L496.1768 864.3396 L496.7114 864.336 L512.2788 859.9654 L514.426 860.5034 L515.5032 861.0148 L515.5043 863.173 L514.982 864.7891 L513.917 866.4027 L510.7011 868.0541 L507.4868 870.2107 L505.8867 872.3645 L504.8169 876.1395 L504.8418 879.8765 L504.8555 879.9031 L505.3909 880.9579 L507.0012 880.9605 L510.2184 880.9303 L513.4456 880.9324 L516.1268 881.9791 L516.6613 881.9756 L518.2873 883.056 L520.448 886.257 L521.5313 887.335 L523.1532 887.3382 L525.8114 884.6413 L527.9443 882.4586 L531.7087 881.3772 L534.3862 881.9173 L537.6277 885.6584 L538.711 886.1663 L540.3233 885.6256 L540.3106 884.55 L539.7639 881.8829 L541.3753 880.7794 L542.4423 879.1925 L542.4317 877.5728 L542.4299 877.0342 L537.0548 875.988 L530.0684 875.4755 L529.532 874.9403 L529.5212 873.3205 L531.1209 871.7038 L531.1218 870.6547 L530.0401 868.503 L531.6426 865.8053 L531.6188 864.1924 L531.6209 864.1608 L531.0826 862.5743 L534.8453 861.4908 L538.0585 861.4912 L542.8883 859.8458 L546.6615 860.8953 L548.8085 861.4341 L550.4104 860.3561 L549.8505 854.4536 L549.8382 852.8651 L549.839 852.8409 L549.3058 851.7538 L549.3068 851.2171 L549.2929 848.5193 L549.2914 846.368 L549.8135 844.776 L549.8111 843.1616 L549.8017 840.4916 L549.2555 839.924 L548.1835 839.416 L545.4914 838.3356 L543.3322 837.7965 L542.2539 836.2087 L542.2504 835.131 L542.7844 834.0519 L544.931 833.5149 L546.5442 832.9739 L546.5347 830.8164 L547.6006 830.2447 L548.6691 830.2456 L549.2145 830.2501 L550.8278 829.7091 L551.8965 828.6266 L552.9625 827.0127 L552.4309 825.4218 L551.349 824.8816 L549.7349 824.3467 L549.7257 821.1055 L550.7909 820.0285 L555.0841 819.4917 L555.6331 821.1039 L556.7121 822.7256 L557.7917 822.6934 L558.3274 822.153 L558.3132 820.5377 L557.2335 818.4106 L555.0703 816.7929 L553.9921 815.2048 L556.1414 814.1234 L557.2173 814.0966 L559.3677 816.251 L561.007 819.9982 L561.5413 821.0783 L563.6879 820.5082 L563.6891 819.4584 L562.5978 816.76 L563.1265 812.9877 L562.0489 812.9883 L560.9697 811.937 L563.1041 809.7774 L567.9441 809.7511 L569.0365 809.2401 L569.0131 807.0796 L569.5451 806.5447 L571.1579 806.5411 L572.7729 807.0522 L573.8657 810.2901 L574.9316 810.2892 L576.0134 809.2408 L577.6261 809.1794 L579.242 810.254 L579.7871 812.4183 L580.3084 814.0353 L581.9355 814.0343 L584.0806 812.9254 L584.63 812.9247 L587.3094 811.3075 L591.0579 807.5318 L592.6605 804.8312 L593.7278 804.2935 L597.5013 805.8829 L599.1156 806.4188 L600.1974 809.6248 L602.3562 812.3252 L604.5014 814.4693 L604.5174 814.4811 L605.5966 815.0201 L607.7433 813.3748 L612.0382 811.7571 L613.1066 811.2122 L613.1053 809.5971 L611.4784 806.9325 L612.0138 806.3588 L615.2402 806.9331 L616.8576 807.9767 L618.4677 808.5183 L619.0046 807.4076 L619.0014 806.9003 L618.4568 802.5831 L620.6033 802.5848 L623.298 803.1233 L624.3628 802.5839 L625.4445 801.5023 L625.4315 799.8866 L619.5074 795.6005 L617.3621 796.1379 L615.2129 796.6809 L613.5911 794.5495 L609.8144 790.8045 L609.8122 789.1553 L610.8801 788.1046 L610.337 787.0253 L609.8006 786.489 L609.7899 785.4048 L610.8665 783.7891 L613.0024 781.6297 L613.5354 780.5819 L609.2411 779.5022 L602.773 777.9132 L600.6261 776.3222 L598.4667 775.2442 L594.1589 773.6255 L590.3977 773.652 L588.7682 772.0371 L588.2217 769.879 L587.6782 767.2097 L587.6799 765.588 L588.2081 762.9218 L588.1968 762.3503 L589.2646 760.2224 L591.9476 758.0592 L591.9347 754.2815 L593.5494 753.7408 L595.697 753.742 L598.3885 754.2517 L601.0832 754.2505 L602.1378 753.1726 L601.07 751.0436 L600.5352 750.4754 L597.8409 749.9635 L596.7611 749.4243 L596.7631 747.8024 L597.2975 747.2935 L599.976 747.2636 L601.6043 747.2629 L601.5923 746.1855 L600.5197 744.6161 L600.5022 744.595 L599.9619 742.9459 L600.4969 741.8658 L601.0441 741.8633 L602.1124 740.8119 L603.1788 739.7342 L605.3405 739.7043 L606.9675 739.1642 L607.4843 738.0872 L607.4747 736.4647 L606.3806 730.5876 L606.9164 728.9362 L607.4468 727.8856 L607.9816 727.3188 L609.5943 726.7763 L611.2231 725.185 L612.2755 724.105 L614.4237 724.0485 L617.117 722.455 L618.1984 722.457 L620.3465 723.5359 L621.426 724.0421 L623.0389 724.0467 L625.1884 722.9639 L626.2689 721.9128 L626.2606 721.8901 L622.467 712.7351 L621.9202 712.2241 L620.8418 707.9309 L620.8334 707.9082 L619.7471 705.2338 L620.2669 698.2402 L620.2562 696.0771 L619.7351 695.5353 L618.643 694.9949 L617.5601 696.078 L617.0432 699.8579 L616.5077 700.9383 L615.9742 701.9872 L615.9841 706.3125 L615.4527 707.9346 L614.387 709.5521 L612.2253 709.0105 L611.6782 706.3447 L611.6791 704.1821 L612.1985 701.4819 L611.6655 700.9396 L610.0378 700.4024 L609.5048 699.8601 L608.9579 698.2715 L609.487 696.1336 L609.4916 696.1039 L609.4781 693.4083 L608.9334 690.1965 L609.4661 688.0361 L609.4647 687.4963 L609.4566 686.4126 L608.3732 684.7929 L605.1347 682.6618 L604.0514 679.4506 L605.1206 678.3405 L606.7353 677.2595 L609.428 676.7165 L611.5878 677.2564 L614.2696 677.7668 L615.8956 677.2581 L616.963 676.1799 L616.9642 675.0945 L616.4205 674.0136 L616.4165 672.3937 L616.9388 671.8503 L619.645 672.3954 L622.3266 671.2805 L623.9415 670.1998 L625.5645 670.2029 L627.1657 669.1535 L627.7126 668.0394 L628.2216 665.3714 L629.8459 664.2891 L633.6101 663.1768 L637.3833 661.0427 L638.9832 658.3416 L639.5317 656.6892 L638.4374 655.1019 L637.89 653.4786 L638.4127 652.3878 L638.4252 652.3639 L640.0368 652.3669 L642.1999 653.474 L644.3607 655.0688 L647.599 655.0699 L652.9751 653.4139 L654.0573 653.4163 L654.0532 654.5001 L651.9069 656.1178 L650.2948 658.8185 L650.3062 660.4444 L650.3086 661.5245 L651.9027 661.5233 L651.921 661.5203 L657.3067 660.4443 L658.9227 659.8704 L658.9096 659.3298 L659.4546 657.7412 L661.0561 655.5802 L662.1384 655.0353 L663.2176 657.1679 L664.2983 657.7087 L665.3782 656.6311 L667.5132 652.3336 L669.1115 650.6845 L670.7376 650.1429 L674.5127 652.8148 L676.6717 652.8163 L678.2893 651.7624 L680.4324 649.603 L680.955 647.4415 L680.9573 644.2234 L680.4195 643.6352 L678.264 642.5741 L675.0349 642.6039 L670.726 644.7657 L667.4999 644.7979 L664.8054 645.3058 L663.1902 646.4198 L661.566 645.8179 L659.9627 646.9325 L658.8839 646.4181 L658.8702 644.259 L661.0186 641.5554 L663.1784 641.0425 L665.8574 638.8219 L669.0993 639.3903 L671.2466 639.3911 L671.7803 638.3081 L671.249 637.2269 L669.6196 636.148 L666.9286 635.0653 L664.7812 636.1766 L663.6986 635.6095 L661.5254 635.6396 L660.4712 637.7988 L659.9386 638.31 L658.8558 637.801 L656.697 636.7216 L655.0854 636.7184 L652.4051 639.4196 L651.8585 639.9619 L650.7778 639.4214 L650.7788 637.829 L650.7611 635.1274 L650.7627 634.5893 L650.763 632.9631 L649.6699 630.2891 L646.9629 625.4531 L644.2593 620.0466 L643.164 613.5863 L643.6967 610.8838 L644.2227 608.2425 L644.2261 608.2201 L645.8323 604.4255 L645.8187 602.8301 L645.2862 602.2626 L644.7395 602.2575 L641.5108 600.6711 L640.4322 599.5845 L642.5796 597.9653 L643.6459 596.37 L643.0992 594.7212 L642.02 591.5005 L641.4746 587.7439 L641.9901 585.036 L641.9938 585.0138 L645.2425 585.0208 L647.3839 580.6817 L648.4457 578.5511 L648.9819 578.5484 L649.5292 581.2525 L649.5421 582.8147 L649.5428 582.8484 L649.5423 583.9275 L651.1553 582.3036 L652.7675 579.0598 L653.837 577.4663 L657.0656 576.3542 L657.6099 576.3575 L659.756 576.3561 L663.5428 577.4086 L666.2385 577.9795 L669.4659 577.4067 L670.0123 578.4913 L672.1744 579.5401 L674.3313 580.1119 L675.4031 578.4868 L676.478 577.9188 L679.188 580.0787 L682.4156 581.6741 L686.7368 583.2972 L691.5914 583.2964 L693.2033 582.2117 L692.6552 580.594 L691.5768 579.5063 L689.4155 578.4907 L686.1864 578.4885 L684.0285 577.3758 L681.8667 575.2138 L679.7085 574.1592 L675.9227 572.5335 L673.7584 570.4032 L672.1462 569.3203 L668.9055 568.2389 L667.2815 567.1556 L665.6638 564.4824 L665.651 563.9413 L664.5608 558.5261 L662.9344 555.3399 L662.3871 549.3866 L661.8432 548.3037 L660.2242 547.2243 L658.5998 547.2542 L656.4525 548.3351 L655.9044 548.3374 L654.294 548.3361 L653.2003 547.7944 L651.5864 546.1707 L648.3464 545.1159 L639.17 540.2769 L637.0118 539.7637 L632.155 539.7673 L630.5314 539.2252 L629.4525 538.1715 L628.9122 536.0034 L628.9039 535.9807 L628.9043 535.466 L628.903 534.9251 L626.7559 533.299 L626.729 531.7091 L626.1821 530.6243 L624.0387 529.541 L622.9435 527.3787 L621.3185 525.7812 L616.4629 524.732 L613.7552 523.108 L612.6766 521.4816 L611.5692 515.0154 L611.3738 514.0405 L611.0111 512.3689 L611.0249 512.3375 L613.1717 510.1412 L613.7161 510.144 L617.5031 509.0914 L626.0919 501.478 L626.6261 499.3127 L620.1189 488.028 L617.9454 484.7785 L617.402 484.2362 L615.7859 483.185 L610.9193 481.0153 L607.1199 477.797 L604.4284 476.7422 L603.3443 475.6598 L603.8793 474.0348 L603.8697 472.407 L601.173 471.8971 L602.764 468.1003 L602.7809 468.0878 L604.3875 467.0205 L607.6308 466.479 L608.1729 466.4799 L610.3347 465.9385 L611.5083 464.7263 L611.9509 464.2797 L613.5627 464.2803 L615.1904 464.8246 L616.8043 465.8743 L618.9621 466.4192 L620.0443 464.8235 L621.6567 464.251 L622.7383 465.3319 L624.9108 466.96 L626.5234 466.3877 L627.6055 464.792 L628.6712 463.1679 L629.2199 463.1655 L631.9109 462.0836 L634.6192 465.3051 L636.2469 465.3011 L637.3141 464.2183 L638.3931 463.1358 L639.4715 463.6493 L640.553 463.6495 L641.607 461.5341 L642.7111 461.5427 L645.9557 463.6475 L647.5675 463.6486 L648.1137 462.5635 L648.1125 462.0221 L648.1029 458.7719 L649.7136 458.2316 L653.4992 458.7737 L655.663 459.2823 L656.1952 458.2284 L654.568 456.6025 L654.0209 456.0653 L655.1017 453.8945 L655.6362 450.6714 L656.1552 449.5909 L656.356 449.7724 L656.7308 450.0992 L657.2515 451.1825 L657.2628 452.8127 L656.728 454.9792 L657.2621 455.5234 L658.3411 455.522 L659.4214 453.8665 L661.0373 451.7249 L662.6486 450.1038 L666.4255 450.0991 L669.1315 450.6094 L671.3056 453.322 L671.84 454.374 L673.9968 454.3788 L675.0804 453.2913 L678.85 451.6681 L679.9336 450.5806 L680.4643 448.4438 L680.466 446.7896 L679.3745 441.9397 L679.3734 441.3982 L682.6023 440.3151 L685.8416 439.7722 L686.9214 438.6899 L686.9129 436.5535 L686.9074 434.9269 L686.9074 433.8119 L685.2937 432.7607 L684.2019 431.6708 L683.6537 429.5348 L683.6464 429.5045 L683.1084 427.9086 L685.8137 427.3701 L686.3601 427.308 L687.9751 426.2548 L689.0412 423.0317 L690.6546 421.403 L693.9227 421.9464 L696.0559 419.2372 L699.2958 418.6945 L703.0828 419.7468 L705.7748 419.748 L709.5642 418.0887 L711.1804 417.5776 L714.9656 421.8837 L715.5115 422.429 L716.0586 422.9668 L717.1349 423.5132 L718.7514 421.887 L720.3639 419.1757 L720.3772 417.0378 L721.4318 414.8375 L724.6728 411.6155 L727.9125 411.04 L734.3912 408.3318 L738.1655 406.7364 L739.2424 406.734 L738.7141 409.9569 L739.8074 411.582 L741.4204 413.1837 L741.9667 413.18 L744.6601 414.2658 L748.9817 415.3494 L756.5542 418.5734 L763.0509 422.3341 L763.0515 422.8757 L765.7431 425.0432 L775.4768 429.8946 L783.584 433.1181 L784.6632 433.1181 L787.89 434.201 L797.6278 436.877 L803.027 437.963 L803.0255 439.5858 L803.0126 439.6095 L802.4918 440.6726 L800.3302 442.2686 L798.7211 442.8083 L792.7711 441.7556 L792.2369 441.7596 L791.1582 442.301 L787.3717 442.8099 L784.6779 442.2966 L780.8899 440.132 L778.7306 439.0489 L776.0377 439.6189 L771.1695 439.6189 L766.8495 439.0759 L766.3009 439.0776 L760.9141 439.0771 L755.5164 441.816 L750.6591 442.3327 L746.8712 441.8183 L739.3103 440.7346 L738.7776 441.822 L739.3132 442.9005 L742.0065 444.5273 L750.6606 446.1211 L756.607 447.1766 L757.14 447.1799 L762.0073 448.8353 L765.2483 450.4274 L765.2493 451.5103 L762.0077 455.2782 L760.4067 460.6932 L759.8742 466.624 L760.9558 469.3304 L762.0363 472.5519 L764.7414 475.2619 L766.3692 475.8014 L767.9818 474.6902 L769.0604 472.5512 L766.8877 469.303 L765.807 465.5401 L765.2623 461.2335 L765.2592 457.9851 L765.7928 454.7345 L768.489 451.5117 L770.6473 449.3139 L772.8072 448.8321 L777.1304 448.7703 L782.5175 449.8547 L783.0622 449.8585 L796.0251 453.1089 L801.4229 454.1609 L804.1179 454.1593 L806.2781 453.079 L806.8267 453.0776 L808.988 451.9898 L813.3057 449.8272 L817.0797 449.8266 L821.9609 450.905 L825.1872 451.423 L826.8018 450.3632 L827.879 449.7961 L827.8803 448.7393 L825.7219 448.1968 L824.0938 447.1147 L824.642 446.0304 L825.1723 445.4907 L828.416 445.4887 L828.9618 444.4025 L828.417 442.8076 L826.8011 442.2092 L818.6913 442.2689 L815.4534 441.1847 L812.2123 439.5569 L809.5198 439.5601 L807.3463 438.474 L806.8126 436.3379 L807.8945 434.1664 L811.1314 432.5427 L813.8241 431.4901 L816.5218 431.4574 L826.2549 435.2495 L828.9468 436.3375 L830.5769 435.7632 L834.9089 434.1358 L835.4275 434.1372 L837.0554 433.0535 L841.9093 433.0546 L847.8443 433.6244 L849.4724 433.6241 L850.5516 432.5418 L851.6307 431.4594 L851.0967 428.1721 L848.9236 423.8689 L847.8441 422.7848 L845.6829 422.2736 L845.1497 422.2697 L842.9871 422.2737 L841.3625 420.6438 L840.8295 418.5071 L840.8282 415.2232 L837.575 411.4605 L835.9646 410.3745 L833.2544 409.8646 L831.0939 410.3789 L827.8563 413.0859 L826.2404 414.7122 L824.0817 415.2529 L820.8278 415.7981 L820.2946 415.7944 L813.2773 416.3409 L808.9481 416.8808 L805.1728 416.8818 L801.3848 415.799 L798.1473 414.1996 L795.4379 412.0338 L793.2797 410.4347 L792.7325 409.8626 L790.5701 408.2689 L787.8802 407.7255 L786.7856 407.1815 L785.1703 405.56 L785.1692 401.7939 L785.1564 400.7098 L786.2234 399.6259 L787.3182 399.079 L788.3998 397.9975 L786.786 396.9103 L786.7734 395.3181 L786.7728 395.2843 L787.8521 394.7425 L792.1849 394.2035 L795.9588 393.692 L799.1991 392.577 L800.826 390.9747 L801.361 390.4045 L803.5214 388.8058 L805.6808 388.8063 L808.3857 390.4028 L810.0146 390.4018 L814.8698 388.7754 L815.9495 388.7758 L816.4921 388.778 L818.109 388.7766 L820.8115 389.8635 L825.1329 391.4591 L833.802 395.2539 L838.1089 395.7977 L840.2536 395.7966 L840.8265 395.7965 L842.9738 395.7973 L844.5907 395.7964 L848.3748 399.0202 L850.0014 399.5935 L851.0829 399.0206 L851.0755 397.9649 L851.0764 397.9406 L850.0019 394.7096 L850.0015 392.0003 L851.6155 388.7464 L854.3375 388.2318 L859.1747 387.6611 L863.5101 390.9449 L864.0445 390.9413 L866.2022 392.5426 L868.3654 393.081 L872.1533 393.6248 L874.8591 393.624 L878.0982 393.0854 L878.6329 392.5403 L878.8597 392.0917 L879.7102 390.3719 L878.8594 389.2567 L878.0981 388.233 L874.2982 386.6045 L871.6043 385.5221 L871.6045 383.3545 L873.7652 383.3491 L874.2963 381.1835 L874.3005 378.4684 L874.2984 377.9581 L874.2961 374.1623 L874.8573 372.5359 L875.3921 370.9064 L878.6293 370.9078 L878.858 370.5773 L879.7112 369.3092 L879.1781 367.137 L879.1784 365.511 L880.2567 363.9179 L881.8692 361.7454 L883.4984 361.2035 L885.6558 361.7461 L886.728 362.8592 L887.2865 364.4248 L891.0722 367.1359 L891.0682 367.6834 L891.0704 368.7693 L890.5227 370.9064 L890.5251 371.9924 L891.0713 373.0736 L892.151 373.6168 L893.7679 374.7007 L893.7633 376.8741 L893.7517 376.8905 L892.6877 378.4688 L891.0727 380.0966 L890.5237 381.7571 L891.6052 382.8104 L893.7661 382.8056 L894.8575 383.3492 L895.3899 386.0628 L893.7654 387.6583 L893.2207 388.2295 L891.0598 389.3182 L891.0615 390.3701 L891.0612 391.4538 L892.6836 391.4575 L896.4591 390.9425 L896.4693 390.9167 L898.6333 385.5195 L901.3141 382.807 L902.4174 383.3513 L902.9541 384.9755 L904.0336 385.5188 L905.66 384.9756 L907.275 383.348 L907.2738 381.7541 L902.4187 377.9563 L899.7128 377.4144 L898.0845 375.2459 L898.0849 374.162 L897.5518 373.0739 L895.9258 371.9914 L894.8463 370.9061 L894.8424 368.2259 L894.8465 367.6784 L895.3919 367.6831 L897.0064 367.681 L899.7122 369.3069 L902.9541 369.8214 L905.1112 369.8222 L907.2852 368.7678 L909.9781 366.5975 L912.1542 366.0535 L913.232 364.9689 L914.8448 364.457 L916.4733 364.9662 L915.9242 365.5426 L912.6863 368.7679 L912.6854 370.3939 L913.7645 372.0214 L917.5541 374.7032 L919.1685 374.7016 L919.7108 375.2463 L924.5807 375.2447 L927.8224 377.954 L929.4327 378.5001 L933.7547 380.1274 L935.917 381.7513 L938.6242 382.8043 L939.1552 383.3825 L942.4076 383.381 L945.1 382.296 L947.8118 380.1241 L950.5152 380.1234 L961.3291 377.9858 L965.1038 375.8117 L967.8094 376.3555 L970.5308 377.4702 L971.0511 377.9824 L973.7572 377.9845 L975.9198 381.2372 L978.0775 382.8675 L982.3998 384.4892 L986.1731 385.0354 L990.519 384.4892 L991.0379 384.4914 L994.2803 385.0352 L996.4382 385.6064 L998.6131 383.9787 L1000.2242 385.036 L1001.8412 386.1479 L1003.467 388.3179 L1005.6252 388.8311 L1007.7855 389.4045 L1009.947 388.8605 L1011.5748 387.7772 L1013.7354 387.775 L1015.3467 388.3488 L1015.3473 389.4008 L1014.2703 391.0277 L1012.6399 392.6263 L1012.1103 393.7092 L1013.1883 394.7955 L1015.8814 395.3402 L1020.202 397.5393 L1021.2837 395.3653 L1019.6695 393.7376 L1019.6695 392.1102 L1023.9882 389.9761 L1024.0 386.7213 L1022.92 385.6666 L1020.7604 384.5508 L1018.07 384.0081 L1013.7331 384.5516 L1009.4127 383.4382 L1006.7172 381.2396 L1002.3985 378.5588 L998.0781 376.962 L993.2089 376.4181 L992.1331 376.9278 L988.8917 377.47 L985.6508 377.4702 L983.4886 376.3871 L979.1698 372.5895 L977.5447 371.5056 L974.8369 370.9933 L970.5299 370.9605 L968.357 370.9631 L966.195 369.3383 L964.5844 366.6215 L964.583 366.1114 L961.8875 362.8464 L961.8715 362.8345 L959.184 361.228 L956.473 361.7739 L954.3118 363.9137 L951.6071 367.7104 L950.529 368.7946 L946.7421 369.3333 L944.0345 368.7638 L941.3396 366.6268 L938.6321 364.4555 L938.6325 363.9134 L939.1672 362.8507 L939.1799 362.8268 L939.1803 362.2847 L941.3414 359.6022 L943.499 359.6041 L948.9002 362.2847 L951.6079 362.8544 L952.6884 362.3143 L955.3938 357.9753 L958.0985 357.4329 L958.6462 356.3462 L959.1809 354.2067 L955.9398 350.9533 L954.3292 350.4066 L952.1548 351.4938 L951.6202 351.4969 L949.993 352.0396 L948.9138 350.9534 L946.7543 349.8654 L942.4337 348.2388 L940.8069 348.2395 L937.5652 348.2416 L935.4053 347.6959 L933.2461 346.0658 L932.1504 345.5268 L929.4588 348.2413 L928.3786 348.2396 L926.2061 346.0408 L924.591 346.0422 L922.4064 347.6982 L919.7252 348.2092 L919.1786 348.2119 L916.4834 348.2118 L914.856 349.2973 L914.3124 350.921 L915.954 355.2612 L915.3949 356.3476 L912.1538 354.6905 L909.9924 352.5507 L905.1254 346.5822 L902.9635 344.9846 L901.3366 344.986 L899.7233 346.0404 L897.0184 347.669 L894.8577 348.7507 L893.7641 349.8407 L893.2329 350.3806 L891.6055 350.8905 L889.9911 351.4686 L887.2817 350.3826 L886.2017 349.8393 L884.0439 354.6937 L882.9636 355.7767 L881.3504 356.3474 L879.712 355.2644 L878.8605 353.8148 L878.0949 352.5541 L876.4722 351.4662 L874.8429 351.4662 L872.1504 352.5537 L869.9902 352.0095 L868.3608 350.9252 L866.2032 351.4674 L866.2032 352.0095 L864.5764 353.0958 L862.9495 353.0981 L861.3359 352.009 L860.2557 351.4659 L857.5489 352.5514 L856.4687 352.0084 L855.3885 350.9233 L855.922 349.843 L855.3883 348.2126 L853.202 347.6996 L852.1372 343.3564 L848.3493 339.5618 L848.3471 339.0513 L846.178 335.2483 L842.9339 330.3976 L840.7729 329.3116 L839.1614 328.2246 L835.9075 329.8565 L834.2817 330.3938 L831.586 329.8541 L830.4935 329.3107 L830.4862 323.3415 L830.4871 323.3171 L829.9618 321.743 L829.4158 320.1118 L828.8689 320.1153 L827.788 319.03 L821.8387 319.0308 L820.2153 319.0281 L819.1343 317.943 L815.3463 315.2595 L813.7223 314.1722 L809.9338 314.1745 L807.2253 313.693 L805.6128 311.4634 L803.9865 310.4079 L801.8135 310.4071 L799.1211 310.4049 L798.5717 310.4064 L793.7058 308.8103 L790.4678 308.8044 L780.733 313.1504 L780.2005 316.9171 L779.1057 318.5493 L778.0257 319.0917 L773.7041 319.6343 L771.5462 320.1788 L772.6251 321.2615 L774.2516 321.8075 L777.493 321.8073 L780.7318 321.8053 L782.3581 322.86 L783.9883 323.4008 L785.0679 322.3162 L786.6912 322.3182 L787.7725 323.4029 L787.7737 327.1728 L789.9479 329.3425 L790.479 329.3442 L792.6523 330.4293 L794.2645 331.5157 L799.682 331.5114 L802.919 332.026 L805.6273 333.65 L809.4123 338.5066 L810.5082 340.6782 L811.5751 342.8449 L811.5715 343.3926 L812.6665 344.9881 L815.3766 346.0718 L819.6951 346.6137 L821.5821 347.5626 L824.0265 348.8164 L826.186 351.5017 L826.7321 354.7249 L826.2139 356.892 L826.7362 359.0636 L827.8124 360.662 L829.4421 361.7455 L832.145 362.291 L834.3086 361.2026 L835.389 362.2873 L834.3078 364.9705 L831.5998 366.6305 L830.5221 367.6821 L827.2784 367.686 L825.1227 367.1712 L824.0419 365.0026 L823.4926 364.4619 L822.4128 365.0035 L821.332 367.6868 L819.1615 370.3955 L817.0136 370.9371 L813.7736 370.3939 L811.0647 369.3444 L807.8251 369.8854 L801.8786 370.3957 L801.3461 370.9679 L796.4803 371.5125 L794.32 370.9701 L791.0675 369.8852 L789.4499 369.345 L786.2093 371.0027 L780.8009 372.0545 L777.0222 372.6303 L774.3181 373.7106 L771.0761 375.3423 L770.5452 375.3408 L766.2249 379.1068 L762.4375 380.193 L760.8232 382.9049 L759.744 383.4471 L757.5822 383.9875 L755.4102 381.8463 L752.1711 380.1898 L750.542 379.6836 L742.9808 378.6271 L740.8237 377.5386 L740.823 376.9967 L737.5662 372.662 L737.5698 370.4905 L739.7138 368.8948 L741.8783 367.2644 L739.169 365.6673 L735.3841 362.383 L733.7552 361.3276 L730.5163 360.8137 L729.9935 360.8184 L725.646 360.2758 L724.5691 359.729 L724.021 358.6486 L724.0217 355.9665 L724.0231 355.3927 L724.0224 355.3589 L722.4075 355.3638 L719.689 354.8772 L716.9837 353.2507 L715.9019 352.1672 L716.4369 350.5385 L716.9834 350.0262 L719.1413 348.3983 L723.9955 346.7405 L726.1562 345.1146 L727.7829 342.9434 L727.7838 342.4275 L728.3213 341.3503 L728.3352 341.3189 L729.3979 339.7136 L730.4767 338.6286 L732.0892 337.5468 L733.7016 334.3147 L733.7106 334.2964 L734.7852 331.0329 L735.8652 329.4318 L739.1065 327.2631 L743.969 325.6361 L746.6775 324.0067 L748.8246 322.3784 L749.3729 321.2921 L747.2125 321.8352 L741.7994 322.9217 L737.4796 324.5506 L736.942 324.5529 L734.7732 324.5481 L731.5312 325.6661 L727.7433 326.1803 L724.5035 327.2668 L720.7172 328.9241 L719.6368 328.9248 L717.4751 330.0089 L714.7714 330.0089 L714.2387 328.9231 L715.3163 328.4119 L716.93 326.7555 L719.6124 324.0396 L721.7963 323.4968 L722.3309 322.9839 L721.7839 321.8957 L719.091 321.3536 L717.9996 321.8963 L716.3839 323.5263 L714.758 323.5236 L712.0662 323.5241 L709.3574 324.6123 L706.1279 326.2402 L705.5732 326.2383 L699.6208 327.3276 L695.8513 327.8981 L692.5974 328.9833 L689.3563 330.6112 L687.7451 330.6114 L686.1142 330.0722 L685.0356 327.3585 L686.1046 325.216 L687.1841 324.6725 L690.972 325.2151 L692.0633 324.6721 L693.1282 323.5597 L693.1289 321.4187 L693.6611 320.8456 L693.6619 318.7045 L692.5725 318.1573 L691.4929 318.7007 L690.4206 320.3328 L688.7963 321.415 L687.7159 321.4161 L686.6252 318.7015 L685.5447 318.7026 L684.4744 320.3612 L682.8505 322.5019 L680.6895 322.5042 L677.4609 327.9328 L675.8479 333.3553 L676.3949 334.4094 L678.5538 335.497 L679.1137 339.268 L680.1929 339.8408 L685.0464 335.4979 L689.903 332.7817 L696.3952 331.1249 L703.9556 330.5834 L705.581 330.5523 L705.5827 331.6368 L704.5032 332.1799 L697.4892 334.8917 L692.6231 336.5508 L692.0739 336.553 L686.1408 339.2644 L683.4349 341.4377 L681.8231 342.5203 L678.0367 342.5204 L675.3253 343.0652 L672.6194 344.1805 L671.0188 345.7796 L668.8579 347.9806 L666.1401 349.0621 L661.2869 349.6069 L655.886 349.0644 L652.6341 349.635 L648.8724 352.8935 L646.1782 353.9761 L641.8432 353.9801 L639.6878 354.5032 L638.0708 356.7227 L634.8553 365.3709 L634.3369 367.5105 L633.2424 367.5098 L632.6965 366.9985 L631.6027 364.3179 L633.7495 358.8601 L633.7527 358.3463 L634.819 352.3814 L634.781 343.7271 L634.7687 337.7893 L634.7675 337.2471 L634.7445 335.6479 L634.7453 335.6235 L634.2098 334.0205 L632.5816 331.8521 L631.4757 324.8225 L629.8425 321.601 L628.2099 319.9708 L626.5957 319.9699 L622.2739 322.1428 L620.6624 323.2267 L616.3631 332.969 L616.3664 333.5377 L615.2987 335.6806 L616.3912 338.3938 L615.3257 340.0302 L615.3034 340.0388 L613.6841 340.567 L610.9792 339.4782 L609.3646 340.0516 L610.4459 341.1077 L615.8563 344.8763 L616.4178 347.5886 L616.4178 348.6709 L613.7228 349.762 L613.1902 351.8997 L612.6438 352.9865 L611.0282 354.1 L608.868 355.1862 L606.1611 355.7274 L602.9232 355.186 L601.8406 355.1862 L599.6839 356.841 L598.6038 356.8431 L595.8975 355.2127 L594.2688 353.0455 L594.7999 351.448 L594.8099 351.4221 L595.3354 349.8204 L593.7096 347.1393 L591.5479 344.4124 L591.5357 344.3951 L591.5242 343.8788 L588.2444 336.3147 L585.5401 333.0878 L585.0075 332.545 L582.2848 330.9196 L582.2852 330.4038 L583.3663 328.7786 L583.3497 327.1512 L582.8172 326.6086 L582.2728 326.0655 L580.113 326.0626 L578.4982 328.8094 L577.4191 328.8044 L576.3246 327.1817 L575.2449 326.094 L572.5384 326.096 L570.9228 327.2106 L569.8466 328.8061 L569.3249 333.1493 L568.7906 334.237 L569.8815 337.4635 L572.6042 341.2609 L575.3226 348.2843 L579.1231 349.8804 L580.2019 350.934 L577.5102 352.5608 L578.0555 354.2197 L576.9618 355.8515 L574.2811 355.8469 L568.8652 355.8811 L564.0012 354.7912 L563.4546 354.796 L554.2539 352.6567 L547.7743 353.256 L546.148 352.1739 L546.1235 345.6909 L546.6536 344.6087 L549.3587 343.5235 L548.2634 341.3514 L546.6396 339.7552 L543.9242 336.4974 L543.3718 334.326 L543.3645 334.2956 L543.8719 325.1318 L542.7762 323.5335 L541.6833 321.3631 L540.6067 321.3604 L539.5408 322.9886 L540.1353 335.9854 L540.1376 338.6999 L540.1357 338.7318 L539.0694 339.7518 L537.989 340.3288 L536.3604 340.3269 L532.5743 338.7273 L529.8693 337.1004 L529.32 337.1035 L528.2399 336.0165 L526.6041 333.3302 L521.6843 320.9099 L520.0348 317.1399 L518.9544 316.0527 L515.1657 317.1404 L515.1788 319.3138 L515.1918 320.3969 L513.5648 321.512 L509.2553 322.058 L508.1623 322.6011 L504.4035 328.5701 L503.8672 329.6562 L500.0956 330.199 L498.469 331.3142 L499.0133 332.913 L499.546 333.4383 L499.5648 333.4522 L501.19 334.5073 L502.8133 335.5944 L503.3741 337.2219 L497.9878 343.1891 L495.2932 344.308 L493.1468 346.4461 L487.1848 345.967 L486.1199 347.0796 L486.1311 349.7659 L485.5831 350.2775 L485.5971 350.8201 L484.5183 351.39 L482.8926 350.8173 L481.8099 351.3928 L481.2898 354.6193 L480.7421 355.7049 L479.6771 356.2434 L477.518 356.2429 L474.2648 355.7617 L472.1014 356.3071 L470.4889 357.9313 L470.5029 360.1035 L472.126 360.6159 L474.2876 360.6181 L474.3005 362.2407 L471.6064 364.4159 L471.6059 364.956 L473.2354 365.4648 L475.3824 365.4647 L477.5535 364.9254 L480.7929 364.3822 L482.9698 365.4355 L484.5929 367.0374 L485.6882 370.2881 L486.7777 371.8882 L489.4871 372.9676 L492.1905 374.6 L492.7413 376.1944 L493.286 376.7367 L496.552 382.6412 L498.7246 384.2734 L500.8983 385.8986 L507.3904 387.4939 L510.6442 389.0916 L510.1096 391.7743 L509.033 392.8855 L511.2194 396.1082 L512.3114 399.3316 L512.3087 400.4187 L514.4824 401.5039 L514.4837 402.5856 L512.3217 402.5897 L509.6166 402.0444 L508.0024 398.8441 L507.9825 398.8377 L506.8951 398.2782 L504.7317 398.8468 L504.2124 400.9917 L501.5114 402.1038 L501.5202 404.2466 L501.5194 404.7863 L501.5345 406.4101 L500.466 408.5825 L498.8539 410.2052 L495.6133 411.8343 L494.5447 414.0065 L495.0904 415.6298 L495.1039 417.2271 L495.0978 417.2475 L494.5722 418.8801 L493.506 419.9652 L491.3432 421.0493 L490.8103 422.1362 L490.2897 425.8996 L490.849 429.6931 L492.4885 433.4588 L493.5672 435.0836 L495.1803 434.5426 L496.2627 433.4282 L496.8077 433.4306 L497.3239 431.2845 L498.4073 430.7192 L500.5706 431.2563 L502.2108 433.4276 L503.2896 436.083 L503.2888 436.1073 L503.3002 437.7357 L504.9276 439.3574 L506.5546 439.8739 L511.4077 439.8407 L513.5757 440.9384 L514.1286 442.5503 L515.2097 443.0888 L516.8483 443.6057 L517.3817 445.2282 L516.8571 447.9412 L516.8589 447.9674 L516.8492 448.4505 L515.7803 450.1062 L512.0048 450.1096 L509.845 450.6796 L507.7007 452.8146 L505.5405 455.0126 L507.1844 457.1365 L509.3381 457.692 L509.8947 461.4578 L510.4446 463.6237 L512.0695 465.7919 L514.7899 467.9277 L518.5659 469.5201 L522.3504 470.0641 L522.8991 470.5761 L521.8186 471.6578 L519.6705 473.2823 L514.2827 474.9385 L510.5114 476.564 L506.7337 478.7661 L504.5727 478.2218 L504.0287 477.6802 L505.1069 476.0571 L507.8032 474.4291 L509.418 472.8022 L509.401 470.6385 L508.857 469.5818 L508.8569 469.0087 L501.7757 457.184 L500.1518 456.0967 L498.5371 456.096 L496.3759 457.2134 L494.7612 457.2128 L493.6817 457.7556 L490.9759 457.2429 L488.8151 456.7326 L487.2024 457.2736 L486.1245 458.3243 L485.0411 458.9308 L483.9746 459.4085 L482.3598 461.0359 L481.2799 462.6915 L479.1323 464.3171 L478.0506 464.3185 L476.4383 464.8598 L475.3584 465.9421 L474.3034 468.0891 L474.2891 468.1035 L473.2265 469.1903 L470.531 470.2799 L469.4532 470.276 L466.1973 466.5443 L464.5713 466.0045 L462.4119 466.0026 L459.7162 466.5777 L457.5569 466.5758 L454.3142 466.6075 L451.6106 465.0098 L449.9822 463.9288 L448.3418 460.1654 L448.3442 459.5942 L447.2502 459.0805 L445.6375 460.1617 L444.556 460.1637 L442.9321 459.1111 L441.3032 456.4025 L440.2238 455.8914 L439.1437 456.401 L438.0622 457.5157 L437.5417 460.1969 L437.009 460.7684 L436.4784 462.9023 L435.9535 465.0736 L433.2475 465.1021 L432.7006 464.0194 L432.7002 462.3919 L433.7581 459.6824 L432.1293 457.5472 L431.5838 455.9175 L429.9577 455.3783 L427.2516 454.8674 L426.17 454.8697 L424.5423 452.1875 L423.4607 452.1897 L423.4628 453.2706 L422.9282 454.3556 L422.3977 454.8956 L421.3135 454.3563 L420.2217 452.7903 L419.1444 453.3022 L418.6092 454.3535 L418.0872 457.0665 L417.5542 457.0651 L416.995 454.9275 L416.448 453.3053 L417.5171 451.6748 L420.2112 450.5907 L420.7436 448.9644 L419.6638 448.4533 L416.9721 450.0789 L415.8762 448.9997 L414.7955 447.4004 L413.1689 447.4009 L412.1039 448.4866 L411.0217 449.5678 L409.9401 449.5703 L409.4071 449.0293 L408.8222 442.5559 L406.6519 439.3343 L405.5595 438.7892 L402.8503 437.7374 L401.2377 438.8197 L400.7163 441.5335 L399.1039 442.6157 L397.4909 442.6432 L394.7837 441.0203 L393.1543 440.4796 L390.9953 441.0526 L389.3677 440.4802 L388.8347 440.4789 L375.3018 435.209 L372.5942 434.1263 L369.8902 434.6983 L367.7404 435.2704 L365.5804 435.8101 L362.8754 434.7297 L360.7172 434.7563 L356.4085 436.9233 L354.2467 436.9556 L345.0609 435.9597 L342.8858 434.3396 L340.1799 433.8238 L338.0299 434.3383 L335.8717 433.8258 L334.2353 432.2273 L330.4586 432.8021 L327.2157 432.2912 L325.5926 432.2878 L320.7378 432.8607 L320.1928 432.8594 L316.4174 432.3818 L313.7097 432.38 L311.0166 432.3807 L311.5383 429.6681 L313.1378 428.0441 L312.0456 425.9075 L308.2452 423.2295 L307.1638 422.6859 L303.3789 423.2559 L301.7653 422.7454 L301.2083 421.1174 L300.6577 420.0666 L301.726 418.4098 L302.2625 417.8653 L301.1804 416.8233 L297.409 416.8393 L296.86 416.8437 L294.6849 415.2165 L290.8641 409.8529 L289.2365 408.2288 L287.5975 407.1441 L281.1033 407.2326 L274.0764 405.1223 L269.1971 403.0173 L264.3191 399.7934 L263.7675 399.7961 L262.1433 399.2539 L259.4465 399.2541 L247.5791 401.5428 L243.249 401.0612 L238.3827 398.3789 L237.8098 397.2958 L237.2483 394.0726 L239.3947 391.3622 L247.4527 385.8759 L246.9066 385.335 L245.8292 384.8202 L242.5865 385.3675 L240.4247 385.3949 L238.2526 383.7967 L235.5343 381.6579 L235.5237 381.0858 L232.8025 378.9449 L231.1758 378.4349 L228.4678 377.922 L227.3865 377.4129 L226.8309 375.2388 L228.9763 373.0412 L230.5722 370.3253 L230.5847 370.3012 L231.0978 368.7015 L229.4608 366.0179 L228.3659 364.9345 L226.2055 364.4242 L223.4971 363.9113 L221.3346 362.8685 L221.3147 362.8622 L220.2228 360.6856 L219.6741 359.089 L219.6751 358.5171 L219.6347 355.2921 L221.2522 353.6619 L222.8652 352.0035 L222.8505 351.4947 L221.7613 349.3198 L219.052 349.3548 L217.9738 349.894 L216.3698 352.0986 L214.7562 353.7234 L213.1562 354.8101 L209.3565 354.2965 L207.7295 353.2392 L207.1697 351.0703 L206.6199 348.3856 L206.6127 348.3555 L204.4391 346.7574 L203.8809 345.1622 L204.9454 344.0483 L207.6391 342.9642 L208.72 341.879 L209.2249 339.1604 L209.2429 339.1404 L210.3086 338.0772 L213.0263 338.0481 L213.5255 336.9855 L213.5435 336.9656 L214.6167 335.8745 L214.6057 335.302 L214.5896 333.1649 L214.0559 333.1647 L211.8956 334.249 L209.177 332.6836 L209.6956 329.4268 L208.058 327.8304 L208.0446 326.2016 L209.6622 325.6249 L211.2737 323.9976 L211.2491 320.7415 L209.5962 317.5478 L207.9316 313.1997 L207.9061 310.5156 L210.0635 307.7758 L210.0408 307.2609 L211.1088 304.5461 L211.0824 302.3759 L209.9886 300.2053 L206.1667 296.4629 L204.5262 293.2031 L202.886 292.6926 L201.831 295.9488 L201.2999 295.9507 L200.2057 294.8929 L199.6463 293.2629 L199.1115 292.1741 L199.1005 292.1494 L196.3907 291.6706 L196.3805 290.5835 L197.4594 289.4956 L197.9933 289.4957 L198.529 288.4092 L198.5154 286.7797 L199.0276 285.1443 L200.1143 284.6103 L202.8244 284.0344 L204.4343 283.4927 L206.0481 281.8325 L206.0355 280.2366 L205.4769 279.1468 L205.466 277.519 L207.0782 275.8906 L207.0646 274.2607 L205.9738 273.7452 L201.0919 272.151 L198.9222 271.1204 L196.7615 271.6334 L195.6944 272.722 L194.0769 273.84 L191.9183 274.9276 L190.2935 274.4122 L188.1061 272.8125 L186.4921 272.8118 L184.3195 272.876 L182.1589 273.3893 L178.9048 272.3306 L177.8127 271.2747 L177.8143 270.1877 L178.8684 268.5579 L180.4951 268.0445 L182.1079 266.8979 L183.7225 265.2708 L184.2591 264.7245 L185.8703 263.6099 L186.3886 262.0118 L186.3654 260.3831 L185.2842 258.2387 L183.6479 257.1501 L180.9382 257.1543 L177.1522 257.7589 L175.5263 257.2098 L174.4482 256.1392 L174.4321 256.1274 L174.4058 253.4414 L174.9404 251.8135 L178.1713 249.6063 L181.3946 246.8618 L181.373 244.7522 L182.4514 243.6296 L182.4384 243.0884 L184.5977 242.0001 L188.9062 239.2261 L189.9837 239.2248 L190.0115 241.9375 L191.0917 242.4866 L192.7078 240.8515 L194.8654 239.7372 L195.9309 238.6218 L196.9893 234.8168 L200.1565 226.7194 L200.1744 226.6992 L201.4496 225.1302 L202.8459 223.4336 L205.5402 221.2319 L206.607 219.6017 L206.0465 217.4291 L203.8492 214.2252 L202.2086 213.1413 L200.5846 212.5933 L197.342 212.657 L196.2496 212.6559 L194.1015 213.7448 L194.1263 217.0049 L193.581 218.094 L189.2998 221.8949 L184.4583 226.2416 L184.4563 226.2734 L184.4692 227.3632 L185.5532 227.3582 L187.711 226.2435 L192.0049 222.9841 L196.3249 220.7495 L199.5663 220.203 L199.0428 222.3803 L197.4467 225.0944 L193.139 228.385 L189.9089 230.5603 L183.9752 232.7945 L179.6785 237.1731 L176.9992 239.3438 L176.455 239.9181 L174.3048 241.0049 L168.9205 244.2638 L164.5985 245.9563 L161.9033 246.4703 L158.1036 245.986 L154.3181 246.0772 L152.1321 245.5015 L149.4384 245.5351 L147.3027 248.8256 L145.6897 249.3665 L145.157 249.9076 L142.983 249.9389 L135.9288 248.3736 L132.6878 248.9464 L129.997 250.0623 L128.3724 250.6032 L125.6628 250.0943 L124.0483 250.6675 L119.7288 251.7817 L117.0212 251.2413 L116.4239 248.0402 L116.9327 242.6065 L118.5365 240.9455 L122.3349 240.9452 L124.519 243.0884 L126.1446 243.6029 L127.2267 243.5709 L126.6689 241.4276 L126.108 239.797 L126.6394 238.7149 L127.1735 238.7146 L132.536 232.7049 L136.8697 232.1323 L137.9367 231.5909 L138.468 229.9604 L137.9112 228.8723 L136.2734 226.7287 L136.2479 224.0099 L136.7795 222.9277 L142.1831 222.2891 L142.1904 222.3193 L142.7527 225.04 L143.3001 225.5813 L144.9007 223.3774 L146.5021 220.6588 L144.875 219.6029 L143.2484 219.6026 L138.9149 220.2088 L137.3003 220.2091 L134.558 218.0644 L134.022 218.0966 L132.9457 217.5181 L130.7706 218.1227 L128.101 220.8421 L125.4072 222.5052 L121.6194 223.0785 L119.4472 222.5638 L117.8082 220.935 L117.2622 220.935 L115.1009 221.5084 L110.7702 220.448 L109.1174 218.8508 L107.476 216.7054 L106.9321 216.1588 L106.9172 216.1396 L104.7221 210.7571 L104.1365 206.9815 L106.2676 204.2669 L107.327 201.0023 L106.2198 198.2832 L102.4211 197.8032 L100.7941 197.8036 L96.4721 199.4345 L92.6872 198.9816 L90.4999 197.892 L88.8605 195.7484 L88.8243 192.008 L88.8066 191.9868 L87.7179 190.3448 L86.6494 189.8309 L83.3944 191.4935 L82.8503 190.9469 L81.1852 186.6244 L81.1716 186.0827 L77.8687 180.7063 L75.6985 179.1062 L73.523 179.1393 L68.6679 181.8869 L67.0551 182.4635 L65.4137 181.3741 L62.6943 179.7727 L61.6016 179.2 L59.4307 179.8349 L57.2728 179.8312 L55.6322 177.6879 L55.084 177.1469 L53.4289 175.001 L40.7084 150.1954 L40.6999 150.1726 L39.6055 148.0451 L39.0571 147.504 L34.6765 142.6731 L33.545 137.8012 L31.8425 131.3075 L30.1632 127.0162 L27.9672 123.2377 L27.3802 120.0003 L28.4359 117.2786 L29.4918 114.5569 L29.4402 109.1156 L25.6294 108.6322 L25.1315 112.4093 L24.0758 115.1311 L23.0111 115.7932 L21.3834 116.8013 L20.8757 119.515 L19.2855 123.3265 L18.7554 123.871 L18.22 125.5005 L12.8536 131.0059 L8.0256 134.8423 M24.2318 129.2504 L23.7112 130.8823 L19.9103 130.9129 L19.3517 129.8242 L19.8825 128.74 L23.1384 128.1626 L24.2318 129.2504 M88.8349 248.8269 L88.8526 249.9109 L87.2353 250.4245 L85.0618 249.9427 L83.4225 248.8877 L83.4252 247.827 L83.4096 247.2593 L85.0246 246.171 L86.1162 246.6853 L87.2091 248.3131 L88.8349 248.8269 M155.1815 281.2332 L155.7425 283.9183 L154.1399 286.1183 L151.4598 288.8344 L150.405 291.5508 L149.8712 293.1781 L148.2707 293.719 L145.017 294.8368 L142.8578 294.8367 L139.0587 293.8131 L136.8973 293.2972 L135.8032 292.2158 L135.2427 290.5861 L135.1683 283.0104 L134.0658 280.2955 L132.9703 278.7316 L133.4919 276.5554 L134.5589 275.4417 L135.1073 274.8957 L136.704 273.8119 L142.6538 272.6614 L148.0542 271.5166 L150.7703 272.6044 L155.1815 281.2332 M170.6204 253.4737 L170.1146 256.1859 L167.9672 258.9024 L163.6711 262.1914 L162.5906 262.7638 L161.4974 262.2223 L160.9361 260.0512 L160.91 256.7927 L161.9824 255.1592 L162.5113 254.0755 L165.7411 252.9889 L168.4368 251.2958 L170.0628 251.2966 L170.6204 253.4737 M169.7984 343.264 L168.2359 349.2332 L167.1453 349.2326 L166.0503 347.6358 L166.0357 346.0072 L166.0104 344.4122 L164.9302 343.324 L162.769 342.815 L161.6795 341.7284 L162.2119 340.6405 L162.1989 340.0999 L164.3471 340.0683 L166.0004 341.152 L169.7862 342.2095 L169.7984 343.264 M182.7338 337.7488 L182.7451 339.3754 L181.667 340.4628 L180.0534 341.0342 L178.4157 338.8909 L178.9501 338.3189 L180.0145 337.2629 L180.5627 337.2653 L182.1891 337.2343 L182.7338 337.7488 M188.6928 340.4292 L187.6255 342.0307 L186.5695 342.603 L186.0002 342.6017 L185.9993 341.5139 L185.999 340.4597 L184.9059 339.3783 L184.9042 338.8043 L186.5197 338.2592 L188.6817 338.8026 L188.6928 340.4292 M199.445 332.1978 L198.3775 333.8575 L196.7528 333.8563 L192.9502 332.2625 L192.9384 330.6601 L192.9363 329.5795 L194.0058 329.0002 L195.6195 327.3746 L197.2452 327.916 L199.4175 329.4881 L199.445 332.1978 M192.0764 356.0735 L193.7164 357.671 L192.6475 358.7565 L189.9398 359.3322 L189.3906 358.7896 L188.8451 357.7352 L188.8351 356.6492 L189.9121 356.0759 L192.0764 356.0735 M200.7036 353.8434 L199.6356 355.4689 L198.5529 355.4737 L198.0092 354.3874 L197.9937 352.7909 L199.6091 351.1341 L200.6918 351.1292 L201.2372 352.1837 L200.7036 353.8434 M195.3283 419.8002 L195.3422 420.88 L193.7262 422.5093 L192.138 425.7921 L191.5931 425.7917 L190.4907 423.0788 L191.0192 421.9977 L191.0219 421.4524 L192.625 419.283 L194.7843 419.2863 L195.3283 419.8002 M208.8237 419.6767 L210.4614 420.7916 L209.931 421.2993 L207.7718 421.8429 L206.143 421.3316 L205.0483 419.196 L205.0384 418.111 L206.1174 417.5402 L207.184 417.5404 L208.8237 419.6767 M217.4886 421.7854 L216.9599 422.8665 L214.8094 423.9554 L214.2617 423.9528 L213.7188 422.8674 L213.7043 421.8119 L215.3179 420.7282 L217.4789 420.7002 L217.4886 421.7854 M182.9167 483.6202 L183.9998 483.078 L183.996 482.5368 L185.6109 482.5075 L186.6922 483.0494 L186.7023 484.1337 L185.0775 485.183 L183.4662 484.7011 L182.9167 483.6202 M176.6924 511.7218 L176.171 513.3448 L173.477 514.9702 L168.6107 515.0333 L166.4599 514.5219 L164.2764 511.842 L163.7163 509.6775 L163.7068 508.0806 L165.8507 504.2642 L166.3489 501.5809 L167.4278 501.0442 L169.0294 499.9285 L171.736 499.9015 L172.8313 501.5217 L173.4147 506.9087 L176.6924 511.7218 M178.4058 523.606 L178.4228 525.7381 L177.366 526.8536 L175.2065 526.8488 L174.1264 526.3411 L174.1142 524.6846 L174.6476 524.1719 L176.2478 523.0641 L178.4058 523.606 M185.9945 527.3052 L185.4731 528.9279 L184.3922 528.3864 L183.2892 525.709 L183.2854 525.1681 L184.3415 525.1698 L185.9945 527.3052 M217.7216 449.8483 L217.2011 451.4406 L215.0395 452.5868 L212.8802 452.0436 L211.7871 450.4483 L209.6249 449.3975 L210.1607 448.8526 L211.7727 448.2825 L212.3057 448.2827 L214.4789 448.7945 L216.0963 448.7921 L217.7216 449.8483 M211.839 456.38 L212.9333 457.4622 L212.3973 458.0068 L210.7721 458.0035 L209.7051 457.4635 L209.1303 456.4131 L210.211 455.869 L211.839 456.38 M221.95 438.499 L222.5119 441.1736 L221.4309 441.7177 L220.3501 441.2089 L218.7132 438.4942 L219.2455 437.955 L219.7776 437.4156 L220.8596 437.4111 L221.95 438.499 M233.3897 449.1822 L233.9231 450.2689 L232.8548 451.3527 L229.6129 451.3849 L228.5227 450.2971 L228.5218 449.7575 L229.5891 448.1341 L230.1225 447.5875 L232.2569 446.5043 L233.3495 446.5079 L233.8978 447.5558 L233.3897 449.1822 M289.5433 449.8119 L289.5433 450.8984 L288.4724 452.0132 L287.3946 452.0115 L285.2241 449.874 L284.6606 448.2502 L284.6638 447.7052 L285.7295 447.167 L286.8231 447.1636 L289.5433 449.8119 M305.5792 428.1048 L305.0431 429.1888 L304.5099 429.188 L302.885 429.2168 L302.336 427.5947 L302.3395 427.0496 L304.4874 426.5079 L305.5792 428.1048 M292.3016 458.4514 L291.7651 460.082 L290.1665 461.7056 L289.0856 461.1626 L289.0592 459.0284 L289.5923 457.9427 L290.1372 457.9439 L291.7563 457.9109 L292.3016 458.4514 M315.5026 457.1898 L315.5155 457.7633 L314.981 458.2757 L313.3533 457.7627 L311.7165 455.6259 L311.7153 455.0527 L313.3301 455.0501 L314.9558 455.5947 L315.5026 457.1898 M335.4022 445.7794 L336.4808 444.6371 L336.4714 443.0369 L337.0035 442.4646 L338.0851 441.9219 L341.8579 441.8926 L342.9507 442.9763 L342.9498 443.5233 L341.8834 445.687 L342.4293 446.743 L344.0553 447.8278 L346.2281 449.4217 L346.7871 451.5909 L346.257 452.6707 L344.6275 452.131 L339.7624 451.0766 L335.4404 451.1344 L332.7444 449.514 L331.6413 447.9168 L332.1747 446.2917 L333.2566 446.2885 L335.4022 445.7794 M428.8879 458.0874 L429.435 458.6306 L427.2739 459.7158 L426.7431 459.2012 L426.1962 458.1185 L426.1955 457.6033 L428.355 457.6045 L428.8879 458.0874 M401.7104 517.0974 L401.7252 518.6925 L400.654 519.2662 L398.4841 519.2653 L397.404 517.1285 L397.9359 516.5569 L399.5497 516.0167 L401.7104 517.0974 M407.6087 510.0567 L409.2347 511.11 L407.0865 512.7343 L405.4472 512.7662 L404.9122 511.6849 L405.9927 510.6285 L407.6087 510.0567 M440.2877 468.8322 L439.7552 470.458 L439.2223 470.4565 L437.5944 469.949 L437.0467 467.7782 L437.049 467.2071 L438.1164 466.6633 L439.2083 467.2085 L440.2877 468.8322 M404.4691 527.3261 L403.9349 528.4101 L402.3213 528.9502 L400.1609 528.9477 L400.693 527.3563 L401.7615 526.2418 L402.3198 525.7312 L403.9235 525.6981 L404.4704 526.2407 L404.4691 527.3261 M452.1688 469.3143 L452.1825 470.3954 L450.5542 471.4813 L448.9402 470.9422 L448.3932 470.399 L448.9422 468.8017 L449.4629 468.2298 L451.6222 468.2315 L452.1688 469.3143 M455.9815 474.6994 L456.5258 477.9223 L454.9142 477.9245 L454.3674 476.3269 L453.276 475.2422 L453.811 474.1578 L455.4349 473.6167 L455.9815 474.6994 M450.6338 483.9089 L450.6333 485.5023 L448.4866 487.1281 L447.4054 487.1301 L447.3935 484.9632 L447.9378 484.4503 L449.5521 483.3378 L450.6338 483.9089 M428.8304 541.7296 L428.2958 543.3522 L426.6809 544.4381 L423.4564 546.058 L420.2234 546.121 L418.5882 545.0358 L418.0536 543.4739 L419.1201 542.8724 L423.4279 541.791 L426.6659 540.6784 L427.7493 540.6782 L428.8304 541.7296 M482.3885 465.9404 L483.4674 468.0796 L481.8783 469.6758 L481.3058 469.1632 L480.7757 467.5359 L480.7459 466.4842 L482.3885 465.9404 M481.3575 477.8042 L481.3709 478.8851 L479.756 479.4242 L477.5975 478.8824 L476.5186 478.371 L477.0512 477.7997 L479.1963 477.2604 L481.3575 477.8042 M489.439 475.0645 L488.3728 476.6882 L486.7565 476.1466 L486.1987 474.0089 L485.1172 473.4373 L484.5729 472.9538 L485.1042 471.3019 L486.1837 470.7592 L488.3344 471.8102 L489.4413 473.9783 L489.439 475.0645 M550.6851 402.9473 L552.8562 406.2018 L553.405 406.1988 L555.0178 406.1984 L555.5511 406.2006 L558.8063 408.8494 L562.6076 410.4456 L563.6836 412.1036 L563.1644 416.4106 L563.7105 418.576 L563.1767 420.178 L562.0949 419.6632 L560.4687 419.1214 L558.8323 416.9507 L557.2159 416.4411 L555.6032 416.4415 L553.9897 416.9818 L553.4407 416.9846 L550.7367 414.3017 L548.5654 413.7575 L547.4825 412.6768 L547.4698 411.0794 L548.0171 410.5348 L550.1622 409.4549 L550.1673 408.3361 L549.6169 405.6605 L549.0708 404.5766 L549.6077 402.4027 L550.6851 402.9473 M562.0349 402.3728 L562.0316 403.4598 L560.4178 404.0 L559.8737 403.4575 L558.7783 400.7789 L558.7787 400.2054 L559.8609 400.2047 L560.9405 400.2022 L562.0349 402.3728 M609.4649 370.8582 L608.9225 371.9393 L606.7733 372.4838 L604.5989 372.4854 L601.8939 370.8889 L597.5615 367.1184 L595.9365 365.4619 L595.9232 363.3215 L597.0031 362.2373 L598.6283 362.238 L600.2388 362.7521 L602.4162 363.8344 L606.2126 364.9209 L608.3625 363.8024 L609.4415 364.89 L608.9233 368.6857 L609.4649 370.8582 M591.325 436.2852 L590.7913 438.4524 L589.178 438.9919 L587.5504 438.4816 L585.3898 437.9108 L582.1362 435.2042 L578.8982 432.5504 L577.2573 429.3283 L576.1632 426.0771 L575.0845 424.9908 L572.9126 423.9382 L571.8301 422.8573 L571.8319 421.2289 L572.912 419.09 L573.979 418.0058 L576.1238 416.893 L584.2339 417.9423 L588.5543 417.403 L588.5642 419.032 L587.4851 421.7122 L588.5797 423.875 L591.8312 425.4749 L591.8305 427.6448 L591.2993 429.2653 L591.3118 432.4922 L591.3122 433.5735 L591.325 436.2852 M628.9377 375.1026 L631.6303 372.9621 L632.1763 375.1049 L630.5615 377.2753 L630.0274 380.5015 L628.4157 382.1247 L626.7998 383.7531 L623.5867 390.8015 L621.9712 392.4299 L620.8915 392.4318 L620.3463 391.347 L620.345 390.8052 L620.3312 389.1473 L624.6249 381.6149 L626.256 380.497 L627.3192 378.3606 L628.9326 375.6482 L628.9377 375.1026 M569.5925 403.9691 L571.2052 402.3138 L571.2081 401.8002 L573.9015 399.6026 L574.9802 399.0921 L576.0632 399.5997 L576.0733 401.229 L577.7005 404.45 L577.7039 407.1305 L576.1015 408.2444 L575.0207 407.1314 L573.9289 403.9394 L572.8482 404.4816 L571.7681 406.1054 L570.6718 406.6526 L569.6064 406.1084 L569.5925 403.9691 M566.9396 415.8676 L568.5644 415.2943 L569.112 416.3466 L568.5774 418.5801 L568.0296 419.0909 L566.4199 418.5777 L566.403 416.9521 L566.9505 416.3496 L566.9396 415.8676 M521.7293 452.7836 L521.2073 454.9831 L519.044 454.9852 L518.5137 454.412 L517.9403 452.245 L517.9384 451.7035 L519.5688 451.6994 L521.7293 452.7836 M536.1845 424.6039 L536.7332 425.6897 L536.1997 426.261 L534.5746 426.801 L533.4789 426.2598 L532.4124 425.2082 L532.9495 424.6313 L534.5611 423.5493 L535.1061 423.5517 L536.1845 424.6039 M526.5294 437.6139 L526.533 438.1816 L525.4504 439.2375 L523.3042 440.3493 L523.2873 438.758 L524.3702 437.6442 L524.9043 437.6387 L526.5294 437.6139 M522.1574 426.8311 L523.7735 425.2036 L524.8404 423.579 L526.4649 423.5786 L528.0927 425.75 L528.6509 428.9706 L528.1187 431.1385 L527.0533 433.3042 L524.8925 434.929 L523.2791 436.5581 L521.1154 436.5602 L518.9432 434.4204 L518.4101 434.4184 L517.8763 436.0447 L516.812 437.6708 L515.1833 437.128 L514.6372 436.0445 L515.158 432.8214 L514.0525 430.1459 L515.1444 429.0305 L516.2264 429.0291 L516.7576 428.4894 L519.9972 427.9164 L522.1574 426.8311 M528.6132 419.783 L528.0682 420.8695 L526.9878 421.412 L526.4417 419.8131 L526.4399 419.2715 L526.4406 418.7317 L527.5191 417.6474 L528.0541 418.1912 L528.6132 419.783 M545.8333 406.1987 L546.379 407.856 L545.2969 407.8569 L543.6823 407.316 L543.1363 406.2319 L543.1274 405.1444 L544.7503 405.1179 L545.8333 406.1987 M624.1692 405.3849 L625.25 404.8432 L625.7845 403.7567 L626.319 402.6703 L627.4013 402.6706 L627.9464 403.7552 L627.9423 404.8422 L626.8759 406.4677 L624.7182 408.0947 L623.0921 407.5517 L623.0895 406.4682 L624.1692 405.3849 M670.5011 353.3425 L671.048 355.5123 L669.4188 356.6317 L666.7245 357.7137 L665.1006 357.1716 L664.0183 356.0888 L664.5535 355.0019 L665.0962 355.0032 L665.6325 354.4585 L667.2699 354.4608 L669.4071 353.3752 L670.5011 353.3425 M520.6763 577.4112 L520.6782 577.9518 L519.0748 579.0361 L517.9852 577.952 L517.438 576.3297 L517.4387 575.2767 L519.0515 574.7053 L520.13 575.2504 L520.6634 576.3315 L520.6763 577.4112 M515.3283 587.1196 L514.7952 588.7427 L514.263 589.313 L512.6478 589.8245 L511.5684 588.7729 L511.5526 587.6913 L512.6335 587.1516 L514.2625 586.6088 L515.3283 587.1196 M527.7666 594.6339 L527.2218 595.6843 L522.9149 595.7152 L521.2776 594.12 L521.2767 593.0411 L521.2755 590.8755 L522.341 589.2545 L522.8889 589.2514 L523.4211 589.2534 L525.598 592.4984 L527.1977 593.5518 L527.7666 594.6339 M490.7655 632.5222 L491.3011 634.1428 L490.2345 635.223 L489.1529 634.6843 L488.0748 634.14 L488.0595 632.5209 L488.5954 632.5172 L490.7655 632.5222 M495.6606 643.8142 L499.4225 641.6177 L503.1829 640.5389 L505.9038 645.9141 L508.0623 646.9638 L510.2221 647.5089 L510.7572 648.0436 L510.769 649.1297 L509.1564 651.2911 L510.2457 654.5043 L511.8772 655.042 L515.1038 656.1238 L515.115 657.1762 L515.6489 657.7183 L515.6611 660.4202 L524.3021 665.761 L525.3841 665.762 L526.9955 665.1913 L529.1469 665.7309 L530.7708 667.3243 L532.9331 668.4024 L536.157 668.9446 L539.3996 669.4261 L542.6284 668.9114 L543.172 669.4277 L543.1729 670.5058 L542.1062 671.5849 L539.9559 673.2086 L536.7289 674.3213 L536.198 675.9108 L535.6769 679.1483 L534.5955 680.2662 L529.2354 683.5036 L527.6198 684.0459 L524.3798 682.9617 L523.3123 683.5347 L521.1524 684.6126 L517.9242 684.6143 L516.3101 683.5672 L514.1369 680.8661 L511.9642 676.5995 L514.1254 676.0276 L514.656 674.9515 L514.1131 673.3258 L510.3245 670.1153 L509.7927 670.1133 L508.1646 668.5259 L507.6178 666.9055 L508.6584 660.96 L505.9551 657.7444 L504.8717 657.2373 L503.2711 658.8272 L503.2704 660.4507 L503.2836 662.1011 L501.6854 663.1789 L500.0565 662.6433 L499.5133 661.0174 L498.9639 660.4806 L496.8036 658.8913 L495.1876 658.3488 L494.6588 656.7252 L494.0978 655.1359 L494.6163 652.9735 L493.5263 648.6748 L495.6714 645.9769 L495.6606 643.8142 M603.4995 521.573 L603.5162 522.6237 L601.899 523.7067 L600.2712 524.2504 L599.1954 523.7061 L599.1925 522.6242 L599.7267 521.5729 L600.8068 520.459 L602.4205 520.4615 L603.4995 521.573 M532.3593 660.8694 L534.5316 664.6235 L533.4495 664.6224 L530.2124 662.4877 L524.2872 661.4409 L522.6519 658.2233 L522.65 657.6832 L522.6491 656.6051 L523.1848 656.6016 L529.1331 659.787 L532.3593 660.8694 M542.5765 654.8908 L542.5762 657.5927 L540.9601 658.135 L539.879 657.5958 L539.3488 656.0036 L538.8015 655.4348 L537.1864 654.9251 L537.1749 653.8392 L537.7195 653.3036 L538.7892 652.7567 L539.8675 652.7633 L542.5765 654.8908 M539.9194 664.049 L539.9181 665.6725 L539.3862 666.2421 L538.3188 665.6716 L537.226 664.6183 L537.7471 662.9964 L537.7462 662.4322 L538.8255 662.4312 L539.9194 664.049 M537.2136 657.6224 L536.1213 659.2466 L534.5074 659.2435 L532.3465 656.5751 L530.1593 653.9039 L530.1623 652.8203 L530.1623 652.2484 L532.3213 652.2465 L534.4822 653.2988 L536.107 656.5424 L537.2136 657.6224 M506.0665 680.3537 L506.0664 680.9252 L503.9191 681.4661 L501.7475 679.305 L500.6776 679.3048 L498.5197 678.2558 L499.0538 677.1742 L499.5895 677.1706 L500.1212 677.1725 L501.7324 677.1732 L503.9091 677.6812 L504.441 678.2548 L506.0665 680.3537 M632.2744 578.5791 L632.2704 579.6637 L630.6583 580.7737 L627.9654 579.6918 L626.8837 579.1509 L626.3397 578.0687 L626.8839 578.0718 L630.1143 576.9853 L631.1796 577.4974 L632.2744 578.5791 M638.2069 579.1217 L637.6583 582.9096 L635.528 582.9065 L634.9787 582.3682 L634.98 581.2816 L636.5938 578.0058 L637.1294 577.4961 L637.6589 577.4967 L638.2069 579.1217 M644.1144 572.0901 L644.1142 573.1695 L641.9648 575.8758 L641.4329 578.0074 L640.9031 578.0066 L639.8232 579.1192 L639.8203 578.5524 L639.8093 575.331 L639.8081 574.7904 L640.8875 573.1708 L642.5005 571.5465 L643.0209 571.5487 L644.1144 572.0901 M648.4374 574.2187 L647.9036 575.3027 L647.3679 575.8123 L645.2084 575.3308 L644.6607 574.2538 L645.1945 573.1698 L645.7295 572.6264 L647.8869 573.1396 L648.4374 574.2187 M662.4122 559.6721 L661.8807 561.2316 L660.7874 561.8029 L659.7187 561.8028 L659.1738 560.1794 L659.7212 558.5569 L659.7062 558.0475 L661.3304 558.0176 L662.4122 559.6721 M478.5851 783.2845 L478.0539 784.904 L476.4392 784.8998 L475.9042 784.9035 L475.3575 783.2857 L475.8931 782.7448 L477.5051 782.7469 L478.5851 783.2845 M470.5557 790.3265 L470.0226 791.9196 L467.8751 791.9456 L466.7929 790.8691 L466.7815 790.3314 L466.7832 789.7868 L467.8617 789.2479 L470.5557 790.3265 M418.4327 796.5059 L418.9642 797.5575 L418.4428 798.1254 L416.2982 799.7417 L414.1491 799.2056 L414.1368 798.155 L414.1384 797.0734 L414.6696 797.0747 L416.2855 795.996 L418.4327 796.5059 M402.89 805.1995 L403.9708 804.662 L402.8657 802.5038 L402.867 801.422 L403.9476 801.4216 L406.0928 801.9629 L406.6522 804.1175 L406.1177 805.7088 L403.4482 807.8985 L400.233 808.9769 L398.6096 808.9757 L397.5306 807.8946 L398.0775 806.8166 L398.0731 806.3093 L400.7453 805.7661 L402.89 805.1995 M389.4877 810.6537 L389.4982 811.7357 L387.8938 811.7651 L386.8017 811.7654 L386.2717 810.6827 L387.326 809.6052 L388.9395 809.5739 L389.4877 810.6537 M409.0401 752.9973 L413.905 757.801 L416.0528 757.2606 L417.6676 757.8011 L417.132 758.88 L413.4091 763.7388 L410.185 764.8451 L406.9564 765.386 L404.8191 767.5465 L404.2882 768.6535 L402.7022 769.1927 L401.0718 769.195 L398.9122 768.1476 L397.8306 767.577 L397.8202 766.4944 L398.3535 765.9846 L401.0487 765.4158 L402.6485 764.8453 L402.1128 764.3364 L401.036 763.2566 L391.8592 758.49 L389.6862 755.283 L390.2084 752.5818 L391.2889 752.0101 L393.4484 751.4695 L395.0366 749.8812 L396.1055 748.7717 L397.1719 748.2311 L398.2393 748.7415 L400.4094 749.2839 L400.9446 748.7422 L402.0135 747.6906 L403.6382 748.7426 L406.3464 751.4086 L409.0401 752.9973 M422.955 740.0116 L422.4193 741.0907 L420.8053 741.6345 L419.1925 742.171 L417.044 741.6605 L417.5797 740.5814 L418.6443 739.5018 L419.6999 739.4744 L420.7927 738.4238 L421.8594 738.4211 L422.955 740.0116 M411.7071 749.2234 L411.7049 750.2723 L411.174 750.8419 L409.5615 750.8409 L408.48 749.7906 L407.4005 748.7087 L406.8549 747.63 L407.3864 747.0937 L410.08 747.0943 L410.6132 747.6015 L411.7071 749.2234 M422.3663 733.5647 L421.8491 735.6918 L420.2448 736.8053 L418.6321 736.8042 L417.0053 735.7255 L416.9926 734.103 L417.5263 733.0553 L418.062 732.5138 L421.2866 730.8938 L422.358 730.8615 L423.4354 731.4044 L422.8996 732.4836 L422.3663 733.5647 M434.6834 720.0298 L434.1357 721.1088 L432.533 721.6529 L431.4538 721.1415 L430.3726 720.6043 L430.3741 720.0592 L430.9062 718.9853 L431.9732 718.9828 L433.5764 718.9519 L434.134 719.4938 L434.6834 720.0298 M367.1576 766.1648 L369.3047 764.5485 L370.9071 761.8468 L373.5879 760.7375 L376.2668 759.6597 L376.8008 760.2003 L377.363 761.7867 L380.5884 762.8382 L387.0551 765.5073 L386.5368 767.6653 L384.9326 768.7454 L383.8675 771.4445 L383.3336 771.4414 L382.2527 770.9046 L381.1606 768.2351 L379.5313 766.6182 L376.306 766.1041 L373.6236 767.1871 L371.4891 769.3746 L369.3554 772.0751 L367.7432 772.6121 L365.5962 773.1536 L362.8985 772.6467 L361.2874 772.1017 L360.7395 770.5179 L360.7257 768.8963 L361.8077 767.8133 L363.408 767.2757 L367.1576 766.1648 M390.5125 713.8218 L391.5777 713.3127 L394.7799 707.9432 L395.834 706.2593 L397.4611 705.749 L400.6893 706.2567 L403.3821 706.2308 L412.5438 707.793 L413.104 711.0014 L414.1735 711.5384 L415.7962 712.0513 L417.3994 710.4314 L419.014 709.8874 L420.6257 710.4337 L421.7209 712.049 L421.7314 714.1835 L421.2002 716.8801 L421.7578 719.0107 L422.2899 721.1723 L421.7727 721.711 L418.5432 722.8231 L417.4759 723.9011 L415.849 722.2845 L415.8366 720.1241 L413.1274 716.9433 L411.5187 717.4502 L409.3809 719.6456 L406.1658 722.3157 L399.7368 724.025 L397.0429 726.1511 L394.8964 726.1807 L392.2004 725.6745 L390.5732 725.134 L384.1435 728.4067 L380.9052 727.8919 L379.2896 726.8141 L378.7311 724.6839 L379.8018 723.0623 L377.0934 719.8511 L374.9217 717.1826 L374.9057 713.9445 L375.9745 712.8342 L378.6558 710.6732 L380.7899 709.0537 L382.9504 709.0504 L388.3489 712.7718 L390.5125 713.8218 M422.7099 697.497 L422.7095 698.0348 L421.1088 699.6569 L420.0296 700.1969 L418.9599 700.1977 L417.8684 699.6858 L417.8678 697.5252 L418.4022 697.5286 L420.0149 697.0161 L422.7099 697.497 M405.7077 735.2741 L405.7102 736.3513 L402.4952 737.4325 L400.8662 736.3857 L400.8677 735.3032 L401.9366 734.7311 L404.0833 734.7352 L405.7077 735.2741 M411.5785 725.0153 L412.1143 726.0622 L411.0336 726.634 L408.3535 727.711 L406.7369 727.7155 L406.1912 726.6365 L406.1904 726.1231 L407.8074 725.581 L410.4893 724.4721 L411.5785 725.0153 M379.3686 741.8751 L379.391 743.4959 L377.2577 745.6522 L372.4315 747.8425 L368.6803 750.5732 L367.6028 750.031 L366.5218 749.4945 L366.5081 747.3346 L364.3488 746.2802 L364.3486 745.2052 L365.4153 744.6645 L367.0171 743.5818 L375.6191 741.3656 L379.3659 741.3356 L379.3686 741.8751 M343.1046 788.3825 L345.2642 788.8913 L344.1946 789.9747 L343.6754 790.5113 L341.5141 790.5136 L340.9699 789.462 L340.9698 788.9248 L342.0356 788.384 L343.1046 788.3825 M332.9484 797.0505 L333.4837 798.6406 L331.8972 800.2869 L330.2949 800.8228 L328.6664 799.7783 L328.6548 798.1589 L329.737 797.5888 L330.803 797.0481 L332.9484 797.0505 M337.7267 788.4153 L337.7532 788.9553 L336.6712 790.0049 L335.0577 790.574 L332.3638 789.5256 L331.2854 787.9339 L330.7392 786.8562 L332.341 786.2866 L333.418 786.828 L334.4998 787.3398 L336.6492 787.3368 L337.7267 788.4153 M316.4053 814.3443 L316.9511 814.8844 L315.3514 816.5041 L313.7393 816.529 L313.7388 815.9918 L313.7241 815.4525 L315.3404 814.3406 L316.4053 814.3443 M395.2746 701.9679 L394.7535 703.0501 L393.1402 703.0494 L390.9789 702.0011 L389.9013 701.4585 L388.8208 700.3759 L388.819 699.8698 L389.3381 699.2992 L393.1166 699.8048 L395.2746 701.9679 M390.4832 707.3714 L390.4839 707.9429 L389.4069 708.9893 L387.2457 708.479 L386.7115 707.9381 L386.6997 707.3999 L387.7786 706.3217 L389.3937 706.8284 L390.4832 707.3714 M342.4631 692.6101 L344.6237 692.0679 L346.7727 692.0633 L346.771 692.575 L346.2383 693.6571 L344.088 694.7692 L342.4892 695.3094 L341.9429 694.7683 L341.9435 693.6851 L342.4751 693.1483 L342.4631 692.6101 M255.248 898.0964 L254.1944 900.7892 L252.0481 901.3304 L250.9802 900.2527 L250.9545 899.2031 L252.5562 897.5544 L254.169 897.5547 L255.248 898.0964 M248.7956 897.5832 L247.7396 899.7712 L246.1395 900.308 L245.5937 899.7687 L245.0591 898.6934 L245.5801 897.615 L246.6471 897.0758 L248.2624 897.0779 L248.7956 897.5832 M424.7225 863.116 L424.1892 864.1618 L423.1216 864.7327 L422.0414 864.1628 L421.509 863.6562 L421.4966 863.1433 L423.1094 862.5761 L424.7264 862.5738 L424.7225 863.116 M410.201 859.4281 L411.2793 860.5085 L408.5986 860.54 L408.0511 859.4609 L407.4917 858.3813 L408.0409 857.8427 L410.201 859.4281 M414.9779 850.2628 L414.9922 850.802 L413.3772 851.88 L412.2955 851.3752 L410.6834 850.2914 L410.681 849.2158 L413.364 848.6737 L414.9779 850.2628 M465.5277 858.0491 L464.9943 859.6651 L464.4591 860.2056 L455.868 860.2392 L454.7882 859.1897 L455.3215 857.5737 L455.8561 857.5698 L459.6173 857.0033 L462.2982 857.5436 L464.4463 857.5437 L465.5277 858.0491 M499.1344 807.3852 L498.0666 809.5111 L496.9909 810.1093 L495.9202 809.5122 L494.8284 807.8905 L494.8251 806.846 L495.3627 806.8444 L495.9055 806.8466 L497.5229 807.3827 L499.1344 807.3852 M475.1194 843.4952 L476.199 844.0326 L476.2004 844.5378 L475.1323 845.1082 L474.6012 846.7263 L474.6108 847.8078 L474.0779 848.8872 L473.0091 849.4241 L471.3842 848.8828 L469.2368 847.2963 L468.1449 845.6757 L468.6768 844.6037 L470.29 843.5247 L475.1194 843.4952 M487.9793 834.325 L487.4455 836.454 L484.7633 838.0698 L483.1523 838.0675 L481.5371 837.558 L482.6044 835.3749 L486.899 833.7539 L487.9793 834.325 M509.833 798.1824 L511.4624 798.7193 L512.5303 799.7697 L513.6213 801.9289 L515.2348 801.9 L516.2898 800.8481 L517.9163 801.8959 L517.396 803.5729 L515.782 804.594 L514.1796 805.6732 L506.1141 806.812 L505.5797 805.1948 L506.6446 804.117 L507.7112 803.5782 L507.7014 799.799 L508.7663 798.7212 L509.833 798.1824 M513.1377 815.3863 L514.2324 817.4819 L512.0861 817.5405 L509.926 817.0018 L508.3095 815.4157 L508.2966 813.7686 L508.8301 812.6889 L510.4473 813.2252 L510.9914 814.3036 L513.1377 815.3863 M522.2629 812.117 L522.2758 813.1935 L519.5827 813.1971 L517.4307 811.5806 L516.8867 810.5021 L517.4206 809.4226 L518.4866 809.4211 L519.5818 811.0375 L521.1813 811.0399 L522.2629 812.117 M511.0539 827.7634 L511.0551 829.352 L509.9862 829.8888 L508.9086 829.3772 L507.8268 828.3004 L507.8139 826.6536 L508.3632 826.6524 L511.0539 827.7634 M536.684 788.9179 L537.2179 788.4089 L537.22 787.8064 L538.2851 787.2996 L538.8321 787.2967 L539.3668 788.3772 L539.3785 790.5042 L537.7519 792.1533 L536.1635 793.2347 L534.5499 792.6924 L534.5372 791.6156 L534.5373 791.1027 L536.684 788.9179 M603.0228 693.4392 L603.0243 695.0566 L601.9704 695.5975 L600.3426 695.0604 L599.7961 693.9778 L599.7947 693.438 L599.7977 692.9263 L601.9441 692.9257 L603.0228 693.4392 M591.2177 706.9141 L590.6989 708.0233 L588.5385 708.0219 L588.0037 707.4537 L587.4575 704.8138 L589.6062 704.8148 L591.2207 706.4026 L591.2177 706.9141 M497.1301 839.6234 L498.2216 841.2445 L497.1429 842.3196 L495.5261 841.7838 L492.2993 839.6591 L492.8234 837.4982 L493.3667 836.9635 L494.9809 837.4973 L497.1301 839.6234 M506.7212 820.7807 L506.7198 822.3674 L505.6533 823.4766 L504.0401 824.0184 L500.8232 824.0173 L498.1455 825.124 L495.9849 825.1228 L495.9854 824.073 L495.9847 822.4601 L498.1194 820.2675 L499.1865 819.1917 L500.7997 818.6498 L504.0309 818.6199 L506.1765 819.6688 L506.7212 820.7807 M642.5888 603.9155 L643.6733 604.965 L643.1359 605.5063 L641.5241 606.6158 L639.908 606.6182 L639.3642 605.5362 L640.4287 603.9148 L640.9767 603.9126 L642.5888 603.9155 M495.6185 858.9785 L495.62 860.054 L494.0027 860.055 L492.9353 859.5181 L492.3867 858.47 L492.922 857.9297 L495.072 857.8989 L495.6185 858.9785 M513.7906 838.4255 L514.3324 840.1056 L512.7208 841.1524 L511.6532 840.6152 L508.9588 839.5678 L508.4149 837.9771 L508.3991 836.8989 L509.4819 835.8185 L510.5456 835.7907 L511.6258 835.7915 L513.7906 838.4255 M507.3715 846.5434 L507.9181 848.1938 L506.8492 849.2428 L504.6906 847.6551 L504.6892 846.5794 L504.6891 845.4964 L506.2883 845.4987 L507.3715 846.5434 M583.7993 737.0961 L583.2671 738.1782 L580.5826 738.718 L580.0511 738.7156 L580.0389 737.6381 L580.5707 737.1272 L581.6523 736.5576 L582.7058 736.0169 L583.2688 736.5561 L583.7993 737.0961 M567.2599 769.9663 L566.7252 771.0461 L565.109 771.6189 L562.9618 771.6185 L560.8151 772.6947 L558.1336 773.7743 L557.0554 773.7748 L557.0395 771.6192 L558.6532 770.0014 L561.8824 769.9956 L563.4676 768.9198 L567.2428 768.9189 L567.2599 769.9663 M530.4072 828.7215 L529.877 830.3659 L527.7275 831.9845 L525.0561 834.6828 L522.9133 836.298 L520.7751 838.9667 L518.6275 838.999 L518.6184 837.9174 L518.6153 836.3027 L517.5371 835.7575 L514.8407 835.2542 L513.7769 834.7114 L513.2304 833.6314 L513.762 833.0963 L516.4414 832.0163 L517.5099 831.4462 L519.6702 831.4479 L522.3499 830.3678 L523.4165 829.8295 L526.1144 829.3171 L528.7813 827.6739 L530.3963 827.6715 L530.4072 828.7215 M524.0313 844.8685 L524.0325 845.9442 L522.4169 846.4835 L520.2702 844.8957 L519.7245 843.2788 L520.2535 842.742 L521.8711 842.7415 L522.9521 843.818 L524.0313 844.8685 M516.5354 851.3664 L516.5464 852.9866 L515.4637 854.0666 L513.8648 854.0643 L513.3182 852.9844 L513.8518 851.9054 L514.388 850.8283 L514.9188 850.8303 L516.5354 851.3664 M589.2401 751.045 L588.1614 752.6931 L587.0938 753.2314 L585.4776 753.2328 L584.934 752.1531 L585.4794 751.611 L587.6268 750.5351 L588.6934 750.5344 L589.2401 751.045 M587.0688 746.2147 L587.0664 746.8175 L583.3058 748.9159 L581.6914 748.9437 L581.1595 747.8643 L579.5297 745.7358 L578.9967 745.194 L580.0649 744.0845 L581.1455 744.6572 L583.3077 745.7039 L583.8391 745.7062 L584.3728 745.1637 L587.0637 745.1673 L587.0688 746.2147 M583.7869 732.8376 L584.8678 732.2343 L584.867 731.7283 L586.481 731.725 L588.0942 731.1578 L588.631 731.6943 L589.164 732.2362 L588.6291 733.3165 L587.5626 734.3943 L586.4841 734.3947 L584.8676 734.3961 L584.3346 733.8542 L583.7869 732.8376 M591.8821 737.6359 L590.8157 740.3042 L589.1889 740.8445 L588.6572 739.7652 L588.6527 738.1466 L589.1875 737.0664 L589.1905 736.555 L590.8025 736.5255 L591.8821 737.6359 M578.5666 773.7181 L580.7131 773.6852 L582.8721 775.2761 L583.4068 775.844 L582.3391 776.8951 L580.7271 776.8912 L579.1138 778.5421 L577.4979 778.5436 L576.4168 777.4656 L576.9632 776.3863 L578.0328 775.3034 L578.0324 774.2269 L578.5666 773.7181 M566.3076 803.3325 L567.9312 804.9256 L567.3992 805.4606 L566.3187 805.4591 L564.7043 804.9237 L563.625 803.8723 L564.1572 803.3375 L564.6922 803.3343 L566.3076 803.3325 M590.4486 787.0847 L590.4486 788.6741 L588.8338 789.7854 L587.7666 790.3234 L584.5383 789.8152 L582.3777 788.1984 L581.8333 785.4963 L581.8325 784.9907 L583.9818 782.7996 L586.6615 783.3421 L589.3705 785.4954 L590.4486 787.0847 M588.3121 793.5647 L589.393 794.6427 L588.3273 795.7197 L586.7132 796.2603 L586.1806 795.7188 L585.6307 794.6431 L585.633 794.0985 L586.1654 793.5637 L587.2326 793.0257 L588.3121 793.5647 M545.9878 827.5768 L545.9877 828.1474 L544.9075 828.1462 L543.8263 827.5819 L543.2936 826.528 L543.2946 825.9911 L543.2809 825.4517 L544.3614 824.9402 L545.9716 825.9932 L545.9878 827.5768 M537.9681 839.9844 L537.9815 841.0941 L536.3706 841.0909 L535.2869 840.5249 L534.7432 838.9339 L535.2744 838.3656 L535.8236 838.3646 L537.9681 839.9844 M527.8192 851.8475 L527.8311 853.9729 L525.1511 856.1593 L524.0831 856.1589 L523.002 855.0824 L523.5081 853.4954 L523.5083 852.9251 L525.6709 851.8459 L526.7374 851.3078 L527.8192 851.8475 M535.3276 849.659 L536.4076 849.6601 L538.5537 849.1228 L541.758 845.8833 L543.9064 845.8853 L544.9709 846.9335 L545.5434 849.0584 L544.4612 850.1719 L541.7818 851.2508 L538.0338 852.8662 L535.8874 853.4031 L534.7946 852.8965 L534.2584 851.2781 L534.7938 850.7379 L535.3276 849.659 M535.8991 856.0988 L535.3671 857.7163 L534.2961 858.7966 L532.6816 858.799 L532.14 857.7472 L532.67 856.1035 L533.2073 855.5895 L534.8163 855.0538 L535.8991 856.0988 M585.6726 805.9386 L586.2156 807.5305 L584.6048 809.1491 L584.0672 809.1501 L583.5358 808.0717 L583.5238 806.4822 L583.5223 805.9431 L584.5933 805.3999 L585.6726 805.9386 M594.2463 798.3602 L593.7135 799.4657 L592.6478 800.5427 L591.566 800.5483 L591.0334 800.0068 L591.0198 798.391 L592.088 796.7695 L592.6215 796.2274 L594.2347 796.7706 L594.2463 798.3602 M604.9849 792.9647 L604.4538 794.0385 L603.3694 794.0421 L601.2106 792.964 L599.599 791.3704 L599.0506 789.7574 L599.0529 789.2128 L599.5827 788.676 L600.6791 788.6729 L603.3597 791.3444 L604.9849 792.9647 M608.2644 806.3922 L607.7197 807.4972 L606.6354 807.5007 L605.5694 807.5012 L605.0243 805.8495 L605.5571 804.802 L606.092 804.799 L607.1725 804.8009 L608.2654 805.3086 L608.2644 806.3922 M633.5717 647.5628 L634.6536 649.7216 L633.0362 651.8544 L631.9704 652.4284 L630.8898 651.8881 L630.3446 651.3449 L629.8089 649.7219 L628.7156 648.6747 L629.7999 647.0194 L631.9414 645.4307 L632.4785 644.8896 L634.6365 645.3704 L633.5717 647.5628 M647.5486 639.4521 L647.551 640.5325 L645.4006 642.1562 L642.7052 643.2365 L641.0939 642.1551 L641.0799 639.9959 L642.161 638.9105 L642.6918 638.373 L644.3088 637.8323 L645.9216 637.828 L647.5486 639.4521 M644.3223 645.9067 L643.8006 646.9901 L641.6531 648.0681 L640.0259 648.0701 L639.4922 647.0209 L639.491 646.4807 L641.6378 645.369 L643.2533 645.3666 L644.3223 645.9067 M623.9275 663.7459 L623.3945 665.9069 L622.2995 665.9118 L621.765 664.8292 L622.3013 663.2345 L622.298 662.6681 L623.3813 662.6629 L623.9132 662.6655 L623.9275 663.7459 M644.2968 634.0731 L643.2287 635.6993 L641.6129 636.7801 L640.5333 636.7799 L640.5335 635.7013 L640.5349 634.6154 L641.0669 634.6181 L642.1481 633.5326 L643.2277 633.5329 L644.2968 634.0731 M675.0348 646.3548 L675.5818 647.9786 L675.0351 648.5208 L673.4344 647.9775 L671.8059 645.8204 L672.3385 645.3093 L673.9559 645.2757 L675.0348 646.3548 M722.9167 341.8844 L721.8349 343.5171 L720.2107 344.5985 L718.0502 344.6 L716.4342 345.6874 L715.3548 346.2303 L713.7276 345.1433 L713.183 344.0576 L713.1823 342.4573 L714.2517 341.3736 L716.9576 338.6592 L719.1174 338.1155 L720.7439 338.6606 L722.9023 339.7489 L722.9167 341.8844 M669.0669 425.2295 L669.6113 426.3141 L668.5341 427.3986 L667.4382 427.4292 L665.2932 426.3437 L664.7476 424.7175 L664.7465 424.1759 L666.359 424.1774 L667.4398 423.6363 L669.0669 425.2295 M659.8906 429.566 L659.9071 431.7329 L659.3562 431.767 L656.6646 431.767 L654.4904 431.226 L653.4115 429.5972 L653.4104 429.0556 L654.4919 427.9992 L656.6513 427.9719 L659.8906 429.566 M712.2171 398.664 L710.6176 405.1408 L707.9085 406.226 L705.2072 405.169 L704.1253 404.0526 L704.6595 401.9168 L704.1254 401.372 L701.9525 400.2897 L700.3249 398.1538 L699.7787 394.9276 L700.3252 393.3001 L703.0161 392.2176 L706.8042 391.6467 L708.4193 392.1834 L711.1246 393.7845 L712.2076 395.951 L712.2171 398.664 M678.8136 436.0092 L678.8284 437.6342 L677.7337 437.0914 L676.1165 436.5537 L676.1071 434.3835 L676.1041 433.8738 L676.6518 433.33 L678.2821 435.4666 L678.8136 436.0092 M712.2472 410.0171 L712.2444 411.0722 L709.5366 411.0759 L709.007 410.5594 L708.4571 410.0195 L708.4562 409.4778 L709.5377 408.9372 L711.166 408.9344 L712.2472 410.0171 M721.9534 403.5092 L722.5002 404.5965 L720.8745 405.109 L719.2462 404.0544 L718.1643 402.4298 L720.8721 401.9183 L721.9534 403.5092 M780.8136 373.1389 L781.891 374.7703 L780.2638 376.9398 L781.3572 379.1079 L780.28 379.6181 L778.6392 379.6193 L777.5721 378.5622 L777.0243 376.9399 L777.5698 375.8524 L778.6363 374.2259 L779.1829 373.7142 L780.8136 373.1389 M787.8525 389.3523 L787.3165 390.9798 L785.6919 391.5176 L785.1447 390.4373 L785.1438 389.3536 L785.6904 388.842 L786.2266 388.2644 L787.8525 389.3523 M836.4685 367.6819 L837.5487 368.7666 L837.0143 369.3123 L837.0161 369.8806 L835.3897 369.8831 L834.305 368.7702 L834.854 367.685 L836.4685 367.6819 M847.2833 374.7033 L846.749 375.7909 L844.5892 375.7894 L843.5092 375.2467 L842.4152 374.1934 L842.9597 373.6219 L845.1213 373.1077 L845.6658 372.5362 L846.7496 372.5315 L847.8296 373.6162 L847.2833 374.7033 M864.5769 359.0344 L864.5769 360.1185 L863.4968 360.6596 L861.8677 359.0336 L861.3367 357.9474 L862.4168 356.8641 L863.4943 357.4053 L864.5769 359.0344 M864.0441 366.5948 L864.0405 368.2265 L862.4178 369.3071 L860.2541 368.7687 L860.2579 367.1372 L861.3379 365.512 L862.4177 364.9708 L863.4951 365.5119 L864.0441 366.5948 M873.232 356.8597 L873.7654 358.49 L873.2279 359.0336 L871.6052 358.4879 L871.068 357.4052 L871.068 356.8631 L870.5231 356.3503 L871.6032 356.3513 L873.232 356.8597 M865.6559 372.5357 L865.125 373.6176 L862.9613 374.7051 L862.9652 372.5317 L864.0452 370.9067 L864.5777 370.393 L865.6576 370.394 L866.2025 370.9067 L865.6559 372.5357 M868.3633 363.9129 L868.3616 364.9707 L866.7351 364.9727 L866.2022 363.9184 L865.6552 363.3456 L866.2039 362.8606 L867.8191 363.3421 L868.3633 363.9129 M900.2556 349.2975 L900.8043 350.3809 L900.2571 352.0101 L899.7139 353.0917 L898.0992 353.0937 L897.0192 352.5502 L898.097 351.4652 L899.1774 350.9245 L899.1778 349.8402 L898.6325 349.8356 L899.7128 349.2948 L900.2556 349.2975 M894.3128 361.7435 L893.7639 362.8623 L892.6855 363.9133 L891.0705 363.3395 L890.5243 362.2583 L891.0688 361.7451 L891.6063 361.2017 L893.2329 361.2001 L894.3128 361.7435 M902.4188 360.1145 L902.4183 361.1986 L901.3387 362.257 L899.7143 361.7428 L898.0975 360.1165 L898.0979 359.0324 L898.0981 358.4903 L899.1756 357.9475 L901.8821 358.4896 L902.4188 360.1145 M905.6592 364.4235 L905.1239 365.5107 L902.9545 366.0514 L902.4174 365.5107 L902.9527 364.4234 L904.58 363.9138 L905.6592 364.4235 M920.2601 368.7643 L920.7927 370.3944 L919.1661 370.3957 L918.0868 369.3101 L917.5537 368.7638 L917.5543 367.6798 L918.6343 367.6814 L920.2601 368.7643 M942.9407 375.2428 L942.9417 377.4127 L941.3271 377.4138 L940.7828 376.3251 L940.249 375.2441 L940.7939 374.7314 L941.8738 374.7333 L942.9407 375.2428 M957.5417 372.0818 L957.0098 373.6471 L955.9304 373.1031 L954.8476 370.9628 L954.8486 369.8788 L955.3844 368.7919 L956.4741 368.2504 L958.0898 369.8775 L957.5417 372.0818 M997.5444 381.2387 L997.5473 382.3508 L995.9045 382.8974 L994.8262 381.8111 L994.2919 381.2382 L994.2904 380.728 L995.3741 380.725 L997.5444 381.2387 M1020.2124 387.2644 L1020.2135 387.7744 L1018.599 388.35 L1017.509 387.2629 L1016.9735 386.1798 L1016.9762 385.6643 L1018.6024 385.6649 L1020.2124 387.2644 M792.6406 325.0006 L792.6413 326.0852 L791.5609 326.085 L789.947 325.5729 L789.9462 324.4883 L791.0143 323.9455 L792.6406 325.0006 M516.7442 424.1831 L516.7454 425.7797 L515.1301 425.7788 L514.0378 424.1849 L512.4225 424.184 L511.3451 423.64 L511.3293 423.1297 L511.8671 422.0131 L514.5735 422.0112 L515.651 422.5553 L516.7442 424.1831 M527.4567 404.1506 L527.4566 405.2396 L525.841 405.2385 L525.2948 404.1545 L524.7506 402.5232 L524.7516 401.9834 L525.8311 401.9805 L526.3644 401.9825 L527.4567 404.1506 M533.3649 394.9333 L532.8196 396.02 L531.7372 396.0208 L530.6595 395.4764 L530.1134 394.3923 L530.1145 392.7633 L530.6442 391.6817 L530.6469 390.5943 L530.1007 389.5101 L530.085 388.9996 L531.1657 388.4569 L532.7945 388.9665 L533.8719 390.0846 L532.8061 391.6777 L533.3503 393.3093 L533.3649 394.9333 M505.3827 419.9068 L504.8509 421.5016 L504.3039 422.0463 L502.6888 422.0457 L502.145 420.4487 L502.1336 419.3931 L502.1337 418.8197 L503.2118 418.3086 L504.8408 418.2778 L505.3827 419.9068 M517.6816 392.8271 L518.2317 394.9949 L517.6964 395.5402 L516.0734 394.9935 L514.9782 392.8234 L514.9658 390.6858 L515.509 390.1463 L516.045 389.6347 L517.1242 390.1135 L517.6724 391.7395 L517.6816 392.8271 M511.6463 375.02 L511.6495 376.644 L509.5016 376.135 L507.8736 376.1341 L506.7936 375.5634 L506.2477 373.4235 L507.3126 372.3698 L507.8618 371.7928 L509.4752 371.7916 L511.6463 375.02 M513.2475 368.54 L513.2487 370.1377 L512.7151 370.7095 L511.6352 369.6231 L511.0886 368.5387 L511.0756 367.4563 L511.0736 366.9142 L512.1564 366.9131 L513.2475 368.54 M505.1406 370.1967 L505.1519 371.8266 L503.5399 372.91 L501.9146 372.9109 L501.366 371.2846 L501.9 370.2308 L502.4333 369.1432 L502.9806 369.1137 L504.0633 369.1125 L505.1406 370.1967 M515.3071 347.4403 L515.8537 348.525 L514.2537 349.0686 L512.6136 349.0671 L511.5341 348.0142 L512.0676 347.4421 L514.7742 346.8981 L515.3071 347.4403 M506.1466 352.8978 L506.6909 354.4963 L505.612 355.066 L505.0655 354.4973 L503.9859 352.3548 L503.9719 351.8122 L505.0664 351.8112 L506.1466 352.8978 M516.3352 335.0189 L516.3351 336.1089 L512.5612 337.165 L510.9241 335.0192 L510.9228 333.9366 L511.4545 333.3963 L513.0805 333.3956 L514.1627 333.9348 L515.7885 333.934 L516.3352 335.0189 M507.1875 344.2144 L506.6678 345.2709 L505.0255 345.8751 L503.9452 344.7885 L503.9339 343.158 L503.9306 342.1075 L506.0946 340.9888 L507.1736 340.993 L508.2514 342.0778 L507.7217 343.1603 L507.1875 344.2144 M507.4835 407.4648 L508.5742 409.0908 L508.0254 409.094 L505.8674 409.0929 L504.2395 406.9551 L504.2394 406.3815 L506.9371 406.3809 L507.4835 407.4648" stroke-dasharray="" fill="#808080" fill-opacity="1.0" stroke="none" stroke-opacity="1.0" stroke-width="0.0px" stroke-linecap="butt" stroke-linejoin="miter" stroke-dashoffset="0.0px"/>
</g>
</svg>