<?xml version="1.0" standalone="no"?>
<!DOCTYPE svg PUBLIC "-//W3C//DTD SVG 1.1//EN" "http://www.w3.org/Graphics/SVG/1.1/DTD/svg11.dtd">
<svg width="800px" height="800px" version="1.1" xmlns="http://www.w3.org/2000/svg" xmlns:inkscape="http://www.inkscape.org/namespaces/inkscape">
<rect x="0" y="0" width="800px" height="800px" fill="#ffffff"/>
<g id="layer" inkscape:groupmode="layer" inkscape:label="layer">
<path d="M0.0 330.1938 L1.3929 333.3557 L5.0884 340.7241 L6.636 345.5854 L7.0036 346.6995 L5.8818 349.193 L5.6299 353.6087 L12.7193 365.2601 L12.8179 365.7072 L11.7181 378.5109 L10.7559 381.9659 L10.0101 385.9254 L11.0915 390.7321 L13.585 401.8187 L15.2029 405.3893 L18.4045 407.6749 L23.7165 413.1358 L26.5307 414.9652 L30.7896 416.0636 L33.9636 417.6793 L36.5905 419.7485 L54.1747 428.9369 L62.7962 436.5252 L64.7121 440.4669 L62.9331 443.8176 L61.1542 446.6751 L61.0414 447.9843 L62.3853 449.336 L66.9018 453.4751 L73.7451 463.2035 L75.4012 468.531 L78.2673 471.8931 L82.6014 476.9758 L83.3422 481.515 L83.7516 483.2124 L85.4703 490.3401 L84.0149 492.5682 L83.2954 495.4854 L80.8927 500.3964 L76.912 503.5356 L73.3278 506.303 L68.7609 508.4977 L64.9824 511.1956 L61.4983 514.9244 L57.426 518.5086 L53.556 520.8842 L49.864 524.0 L45.7903 526.849 L42.9108 529.6696 L41.7832 531.9992 L40.6621 536.1503 L39.829 538.7445 L37.9969 544.5035 L36.1115 549.2705 L35.1124 551.6682 L34.6803 554.2106 L35.1273 558.7598 L39.9312 569.0282 L43.3784 579.5535 L46.3175 587.6633 L55.4264 612.1689 L60.3474 625.409 L65.1257 637.6579 L62.1994 645.9387 L56.918 653.3205 L52.0154 660.8124 L48.1298 667.2348 L43.2024 675.2751 L39.189 681.7018 L38.9044 688.8992 L44.635 690.6674 L46.6418 691.4927 L48.7088 692.5003 L50.5189 693.7712 L52.4015 696.1029 L55.4378 698.8064 L58.103 699.2499 L63.9791 700.0993 L69.4762 700.6797 L72.8198 701.0756 L75.7028 701.2928 L78.7022 701.8001 L80.2023 702.2238 L83.0116 702.6268 L86.9547 702.6573 L87.186 702.9404 L91.7884 702.4111 L93.7866 702.1421 L95.1497 701.9378 L100.1012 701.7427 L110.5442 700.635 L121.0467 699.3812 L125.9188 697.7484 L131.5947 696.4094 L136.6122 695.5522 L141.072 694.9633 L144.451 694.1324 L146.87 692.098 L149.4337 687.0053 L150.1915 685.4988 L153.1051 682.7045 L153.6046 682.4284 L160.4429 680.7283 L163.5431 680.0166 L170.0166 677.2144 L172.8266 677.5224 L176.9536 677.9659 L180.0005 677.2265 L183.591 677.7821 L188.4063 681.6316 L193.318 685.325 L197.8792 687.4424 L203.6787 688.0001 L212.0021 686.1424 L219.2534 682.9748 L223.0291 680.9781 L231.2134 679.3418 L233.4408 682.0921 L236.414 682.6286 L237.7586 680.3692 L239.5929 679.2105 L244.455 680.6985 L247.1287 678.767 L244.1846 674.6535 L248.589 670.2825 L257.3858 664.83 L261.1934 663.1561 L280.4352 661.9796 L286.4546 669.0606 L289.288 672.4041 L294.17 676.6077 L301.7533 678.4023 L306.3784 680.5537 L313.2152 684.5615 L316.8639 687.1628 L319.1211 692.4379 L318.0865 696.5911 L317.8431 699.2669 L320.3054 701.0018 L316.7255 703.3215 L315.3546 705.644 L316.5517 707.8522 L320.3019 710.2328 L324.7517 712.7313 L327.2849 714.7564 L325.5769 719.8477 L325.9282 721.423 L329.034 725.765 L331.4516 727.4992 L333.6655 729.706 L335.7999 732.1349 L339.1428 735.0463 L343.5983 737.0658 L345.9548 737.9358 L350.401 738.9647 L352.9265 741.1168 L355.8258 742.9298 L357.736 743.8821 L360.8717 745.4141 L363.5759 746.7736 L366.7158 747.4754 L372.7125 747.6571 L376.1881 747.8898 L379.5707 748.5994 L383.12 749.0904 L388.2773 747.7451 L390.2563 746.7509 L394.9566 744.9131 L400.1898 743.4109 L403.7023 743.0065 L407.1012 743.8118 L409.8898 744.8549 L413.5009 746.5615 L417.2617 747.9849 L419.1478 748.5852 L420.7912 746.1435 L421.9422 743.8147 L423.1343 740.7847 L425.2517 738.5488 L427.8934 738.3097 L431.6571 737.4022 L434.7346 736.8884 L439.1922 735.8098 L443.0218 734.5205 L445.1917 733.6605 L447.4411 732.5791 L449.413 731.3288 L451.0437 729.8777 L452.2457 728.956 L453.3633 728.3507 L454.7002 728.9027 L456.0519 729.5825 L457.6116 730.4922 L458.7945 731.4225 L464.7223 729.75 L467.1037 729.8224 L468.5917 729.293 L470.5821 728.4905 L472.6037 727.9136 L475.3342 727.6773 L477.7113 727.8128 L479.7705 728.4827 L481.8425 729.3122 L484.6865 729.7819 L488.4587 729.0986 L491.8817 728.7232 L495.0387 727.9888 L498.6384 727.6191 L502.3332 727.1245 L506.9732 726.3397 L511.4897 726.1581 L517.3927 726.0502 L522.4393 726.2361 L527.8265 726.2723 L531.6426 726.7399 L536.5146 726.8882 L541.1944 726.9351 L545.0949 727.0862 L549.51 727.1245 L553.671 727.3473 L558.0931 727.6425 L563.0503 727.8575 L567.4966 728.1208 L571.2886 728.2364 L574.845 728.6005 L575.2956 728.6374 L579.8128 729.0078 L584.9275 729.1639 L588.4733 729.3363 L591.042 729.6067 L593.4305 729.5513 L596.6172 729.4413 L598.0861 724.7105 L599.9438 720.1358 L601.0649 715.3149 L601.727 712.3013 L603.0283 707.4215 L604.119 704.261 L605.8958 699.9389 L608.1664 695.4728 L610.0099 690.7696 L611.4646 687.4282 L612.1948 686.2687 L614.5045 684.1676 L616.3565 681.9566 L619.1757 679.8385 L621.0568 678.2667 L623.1955 676.4481 L626.5468 672.3978 L628.164 670.435 L629.7456 668.3112 L630.5524 666.2279 L630.9846 664.1332 L631.2705 662.6402 L632.4485 661.0153 L633.6987 659.6486 L634.6985 658.0499 L635.0619 656.3682 L635.5174 654.2423 L635.6742 651.9468 L636.1489 649.96 L639.6096 648.4904 L642.5423 647.0783 L645.9987 645.012 L649.2663 643.1643 L651.5129 641.7635 L653.6353 639.8484 L654.5506 638.183 L654.0951 636.1571 L651.9926 634.3356 L649.5892 633.4954 L646.8906 632.8057 L641.517 632.8973 L638.5828 632.4559 L638.8723 629.0151 L639.5571 626.3847 L639.7998 623.7408 L639.5188 619.484 L639.5557 615.8438 L639.5918 612.5868 L639.8175 609.112 L639.4464 606.7689 L639.1256 603.5651 L639.1171 601.0738 L639.6358 598.63 L639.0944 598.2184 L639.0284 597.1214 L639.5031 595.3041 L639.303 594.2816 L636.2752 594.3384 L635.4841 593.6395 L634.7362 592.1947 L633.7988 591.1772 L632.6748 589.9844 L632.5577 588.92 L632.3633 586.4152 L632.457 584.0785 L632.7018 582.2109 L632.9586 580.2879 L633.8917 578.526 L634.8681 576.4696 L634.976 575.4748 L635.8651 573.4794 L637.9818 571.2371 L638.9816 570.5808 L639.8239 568.8338 L641.7312 565.8727 L643.6748 563.4026 L645.0713 561.105 L650.6685 558.9478 L654.5307 556.6119 L657.4564 555.3921 L660.1251 553.5372 L661.0064 551.7278 L660.9255 550.1745 L661.308 548.309 L662.1034 547.5185 L663.6326 546.4648 L664.946 544.8555 L666.3751 543.2504 L667.4956 542.4897 L670.7497 542.2413 L676.4236 542.406 L678.6119 542.3953 L681.9406 541.1578 L684.9365 540.4546 L687.8344 540.2481 L691.217 540.3815 L694.3087 539.5825 L697.5586 538.372 L703.8157 537.876 L706.7576 536.7165 L708.3365 535.1384 L709.1142 533.5418 L711.5601 527.5054 L712.7891 523.7297 L713.3951 521.1447 L714.6369 518.9875 L715.9227 515.2828 L715.1442 512.5033 L714.4659 512.1209 L714.7071 509.5621 L716.5563 505.1989 L717.1673 501.6183 L718.0401 499.7308 L718.8887 496.1999 L721.4411 492.9216 L724.1134 489.6668 L725.4325 488.6379 L727.8018 485.1687 L731.6038 482.2438 L734.4776 479.602 L737.482 476.8027 L739.2269 474.7562 L739.4042 472.6864 L739.1623 472.0307 L738.5088 471.3701 L737.5707 468.5885 L737.7708 466.2164 L741.4024 462.9558 L744.2145 461.6658 L746.7811 460.9371 L748.6211 460.468 L751.1898 459.7684 L752.709 459.3845 L755.5544 458.5053 L756.9239 457.9235 L757.5668 456.886 L759.0541 453.1877 L760.2377 449.8349 L760.3988 446.8603 L760.0667 446.382 L765.6575 439.707 L768.3333 439.1017 L772.0104 438.4276 L773.7333 437.2241 L776.6071 436.1626 L779.1346 435.067 L780.1224 434.058 L779.9053 432.9844 L783.7349 430.3539 L786.5541 427.7235 L790.2148 426.012 L792.0945 424.3991 L793.7826 420.8725 L794.8463 419.1049 L796.5713 417.768 L800.0 415.1255 L799.2358 410.3458 L798.7348 404.1362 L798.429 400.3449 L798.1395 395.294 L798.9406 395.0868 L796.3683 389.3647 L796.3016 388.3699 L795.2287 385.3137 L793.2916 379.2184 L791.7312 374.7891 L788.631 366.8134 L786.393 360.3675 L785.8913 358.6085 L784.79 356.2803 L782.579 351.3899 L781.2946 348.9964 L779.6917 347.3693 L778.6372 346.7392 L776.275 343.1154 L774.4883 340.7659 L772.3106 337.7772 L769.0486 333.9738 L766.1031 329.8809 L762.5836 325.1955 L760.8493 323.1633 L757.8797 320.4846 L754.7618 317.5774 L748.8361 312.3002 L747.1047 310.3822 L744.9646 308.0526 L741.4812 304.1393 L737.7289 300.0357 L731.1858 292.2594 L732.6341 289.6403 L735.1517 285.778 L737.8531 281.2431 L740.6609 276.8919 L742.4363 274.0961 L745.9161 268.2186 L749.9501 261.6174 L750.5916 260.4721 L751.751 259.4319 L751.2387 258.7946 L746.0545 254.2739 L741.4677 250.4911 L739.0793 248.7753 L739.0026 245.2174 L738.8941 240.1638 L738.3441 232.2079 L737.763 221.4634 L737.8311 220.7857 L734.0448 213.5664 L731.6456 207.7662 L728.102 199.8664 L740.3863 197.7476 L744.8411 197.3609 L748.0711 197.5908 L750.6753 197.6256 L754.5617 196.7648 L756.8721 196.0907 L760.2689 194.0145 L762.0968 192.816 L765.4971 192.5215 L769.2551 192.3079 L769.9618 191.9645 L770.9077 190.9427 L772.6143 188.9416 L773.4047 187.6523 L773.6119 186.3502 L773.5098 184.9474 L773.2202 183.4346 L774.0086 181.8834 L772.8349 180.3074 L772.7477 178.9145 L770.8815 175.8697 L769.8831 174.8862 L768.7421 172.7219 L767.3605 171.009 L767.0852 169.1258 L766.1514 164.1062 L766.3877 162.8395 L765.9903 162.0008 L765.9151 159.7947 L766.2039 156.542 L766.8659 155.5166 L766.8609 154.8588 L766.3351 151.9084 L764.8635 150.0549 L762.8752 148.4087 L762.998 147.0484 L761.3993 143.0584 L760.4222 140.6756 L761.3418 137.5364 L760.8692 136.7233 L760.7599 134.2 L759.9212 133.1356 L758.4715 132.3465 L757.9329 131.5844 L757.0594 130.1532 L757.1943 129.9396 L758.3828 129.8048 L758.7092 129.2811 L758.7894 128.7277 L759.1307 127.7633 L758.8313 127.0431 L758.6574 126.4208 L760.4974 125.8155 L763.572 124.6241 L763.5351 124.0827 L764.3249 122.7771 L766.7275 119.8919 L767.5138 118.8566 L770.1868 117.5872 L770.1421 116.8712 L769.8 115.7181 L770.1946 114.7722 L771.6237 113.5454 L771.7081 110.8525 L772.5334 109.4589 L773.7233 108.4179 L775.0034 108.0972 L776.6319 107.4209 L779.4433 105.8584 L780.8455 105.1439 L780.8639 105.1474 L783.4879 104.6159 L785.0952 104.6372 L788.3273 104.5805 L789.2477 104.1831 L791.0876 103.8993 L795.3444 103.8049 L796.9325 104.0369 L799.035 104.1029 L797.3305 97.8969 L796.1583 92.3749 L796.0803 92.0059 L794.9541 88.6318 L793.1021 80.8931 L792.0328 77.0308 L792.3663 73.8206 L792.9453 69.246 L790.7775 65.163 L788.7176 60.6493 L788.2975 59.8567 L787.3346 59.5509 L781.3166 56.4245 L781.13 57.0205 L777.9872 57.9423 L776.2651 57.5938 L769.2381 58.1785 L762.15 58.5042 L758.2877 59.2429 L754.0089 59.0322 L752.7906 57.8628 L752.0044 55.5978 L752.1768 53.6571 L754.1736 51.9314 L754.2686 50.9096 L751.47 51.0444 L748.4649 52.25 L746.1822 53.381 L744.4799 54.1048 L743.2282 55.172 L743.6873 56.0789 L745.5216 56.5224 L746.4717 57.1064 L747.1579 58.0792 L746.7321 59.5005 L744.9397 59.8652 L743.0473 59.3472 L739.0786 57.4037 L735.9053 55.8767 L732.9293 54.3957 L731.4008 56.0874 L728.312 60.0213 L727.5684 60.3733 L727.1518 59.487 L723.4925 59.1741 L721.3758 58.9421 L718.6538 58.5915 L714.1068 58.1267 L713.3696 59.2592 L712.2662 61.1886 L713.8407 61.8187 L719.4713 63.0406 L718.6453 64.7025 L717.2219 66.954 L715.0066 70.0989 L715.4366 72.0935 L713.9138 72.9848 L708.8921 73.1849 L707.9505 73.6801 L708.1747 74.973 L709.0184 75.5868 L710.9648 77.8603 L711.0961 78.6068 L708.78 80.3581 L706.3227 82.5273 L703.9221 83.867 L703.2566 86.4243 L701.836 88.0684 L700.128 88.8631 L697.4685 88.2117 L694.738 87.5419 L693.1918 87.3581 L689.6609 87.8442 L684.5796 90.1326 L682.1407 91.8988 L680.1532 94.0531 L679.1307 95.4658 L678.0159 95.9327 L673.8144 93.0391 L672.7188 92.9908 L671.4572 92.9021 L669.1127 92.8886 L667.7858 92.9142 L665.1092 92.9092 L663.2764 92.8482 L662.239 92.636 L661.1789 92.4189 L659.7568 91.9818 L658.4434 91.8193 L654.122 96.2173 L650.4861 100.7239 L649.3274 101.161 L648.346 102.0295 L648.6305 103.4657 L649.074 104.1128 L648.5858 104.3683 L647.7514 104.2392 L647.1525 103.9525 L646.499 103.9021 L645.524 104.8742 L645.0613 105.9038 L644.8137 106.2615 L643.9792 107.0477 L643.6166 107.4273 L642.5118 108.1 L641.319 108.5591 L640.3759 109.6363 L638.228 111.1349 L636.7464 112.2326 L635.1782 113.7079 L633.1843 115.6557 L632.2292 115.7295 L630.7114 115.5244 L627.5814 115.4598 L624.7878 114.2493 L622.5228 113.5688 L618.3802 113.1735 L616.2302 113.319 L614.4754 113.9392 L613.6459 114.6289 L611.6917 115.2342 L610.501 115.8756 L610.115 116.4923 L608.5972 116.8151 L608.2828 117.6879 L607.647 118.0278 L606.5465 118.3627 L605.9965 118.9496 L605.0556 119.2448 L604.4106 119.3824 L603.7585 119.6783 L602.4848 120.1055 L601.4843 120.3858 L600.9592 120.659 L600.3426 120.9527 L599.5684 121.2635 L598.9127 121.5559 L598.1911 121.8042 L597.1877 122.2477 L595.5734 122.5401 L594.7574 122.567 L593.7328 123.0134 L592.7131 123.2851 L591.6743 123.6052 L590.3409 124.4503 L589.862 125.0527 L589.058 125.2407 L588.6862 125.5274 L587.1301 126.0284 L585.9039 126.7522 L585.3831 126.9877 L584.6387 127.2148 L583.8922 127.246 L583.4743 127.5121 L582.2872 127.5881 L579.1827 128.2579 L578.0027 128.0926 L577.396 128.1784 L576.8886 128.5935 L576.2394 128.7078 L575.5205 128.5928 L574.0489 128.6645 L572.8766 128.8632 L571.3517 129.5245 L570.1575 129.6969 L568.9931 130.0964 L568.116 130.3334 L567.2454 130.3923 L566.4038 130.503 L565.6701 130.5669 L565.1351 130.4115 L564.5667 130.3611 L562.6565 129.9687 L561.9348 129.9758 L561.5786 129.8005 L560.4213 129.8559 L559.5762 129.709 L558.3493 129.6175 L557.3573 129.9645 L556.5469 129.5664 L555.4797 129.5295 L553.6852 129.7062 L552.6102 129.9517 L551.8608 130.0737 L548.3491 130.1518 L547.2542 130.2533 L546.8483 130.1979 L544.8572 130.7769 L543.9589 130.9678 L542.1182 131.2673 L539.4254 131.092 L538.185 131.1182 L537.347 131.3907 L536.1102 131.5965 L535.2736 131.737 L534.1056 132.2536 L533.6117 132.7467 L532.7964 133.0405 L531.7327 133.7075 L530.7358 133.6174 L530.254 133.4712 L529.704 133.6763 L528.3998 134.0737 L528.1955 134.5008 L527.7087 134.7953 L526.6393 135.0721 L525.9837 135.2856 L525.526 135.5844 L524.2523 135.8462 L523.6016 136.0208 L522.2882 136.5508 L521.3345 136.7623 L520.9832 137.0454 L520.4929 137.1469 L519.3384 137.7408 L518.7367 138.0899 L517.9824 138.1204 L517.2913 138.0686 L516.4767 138.1602 L516.2361 138.2446 L514.3366 137.8458 L514.008 138.0048 L512.9153 137.9963 L512.4029 138.3518 L511.7693 138.5902 L511.4223 138.8478 L510.8248 139.3693 L510.1053 140.0966 L509.781 139.9874 L508.943 140.1527 L506.3637 140.4741 L505.6356 140.7324 L504.9991 141.0943 L504.0305 141.6826 L502.6852 142.1303 L500.9857 142.4837 L500.3833 143.1081 L499.9866 143.6637 L499.177 143.6907 L498.1878 143.9291 L497.3427 144.2186 L496.2421 144.8253 L495.4992 145.1226 L494.5583 145.6179 L494.0658 146.3587 L492.7056 146.8377 L491.8675 146.7313 L491.1076 146.7795 L490.1397 146.7717 L489.5231 146.7831 L488.8333 146.9434 L487.8995 147.091 L486.6627 147.3578 L485.7899 147.4685 L485.1932 147.8666 L484.6887 147.9851 L484.4786 148.2299 L483.8066 148.7046 L483.0225 149.1084 L482.44 149.2084 L481.8673 149.6058 L480.7476 150.0117 L480.3382 150.3672 L479.8464 150.4537 L479.6669 150.9036 L478.4989 151.3443 L477.8979 151.4017 L477.1153 152.0219 L476.2297 152.5619 L475.408 152.349 L474.1173 152.8465 L473.4942 152.8614 L472.8769 152.9089 L472.3 152.9054 L471.6309 153.0749 L470.7176 153.5071 L469.6348 153.9626 L469.1161 154.3536 L468.371 154.5495 L467.7721 155.0178 L466.1834 156.4533 L466.1458 156.9748 L465.3368 157.3956 L464.5017 157.5751 L463.1137 157.9384 L462.0756 158.6133 L461.6953 159.1412 L461.3319 160.405 L461.3958 160.7576 L460.6805 161.5467 L457.1234 163.3306 L453.1298 165.1429 L450.9578 166.132 L447.6703 167.4348 L441.8758 169.3543 L435.2008 171.5462 L430.9198 173.2705 L427.9183 174.4249 L422.0209 177.3314 L413.1937 181.9615 L403.0232 187.1244 L383.4017 196.8812 L380.4421 198.5076 L376.1526 200.5838 L371.3012 203.0553 L354.4414 211.554 L352.0593 212.6773 L350.2315 213.7516 L349.7291 214.491 L344.5399 218.564 L341.4638 221.1064 L338.7177 223.2998 L331.8865 228.7139 L327.2501 232.5471 L323.7781 235.4174 L319.2126 236.3625 L316.9051 236.8287 L313.5111 237.4815 L306.7878 238.5686 L306.0236 238.5551 L301.5255 243.1469 L296.6173 248.1402 L291.6992 253.2074 L284.6615 260.2025 L281.9793 262.8187 L277.6288 267.5062 L274.2533 270.6121 L271.1964 273.5228 L268.9712 275.3415 L261.4198 278.1975 L258.4331 279.9573 L253.9244 282.9028 L250.6958 285.4389 L248.1314 287.6939 L244.5302 290.9531 L243.0656 292.9257 L238.8372 298.5896 L235.5618 302.5221 L230.1973 302.1326 L228.9619 302.0921 L226.7991 302.0219 L218.0208 301.3357 L203.172 300.2955 L200.5551 300.1741 L198.1027 300.0208 L189.7765 299.4532 L188.7206 299.4915 L176.9301 298.4761 L168.9061 297.6757 L162.3098 297.0888 L154.3171 296.7866 L148.9654 296.4857 L143.0006 296.1777 L142.1754 296.4296 L133.0558 295.4916 L130.9313 295.2645 L126.2019 294.76 L122.6923 294.7096 L121.3817 294.6904 L119.7205 294.6919 L118.9733 294.6926 L117.3285 294.2278 L115.8888 297.2882 L115.1324 298.8507 L113.0135 302.2752 L110.8784 305.6024 L105.6416 311.338 L96.9826 320.7265 L92.5179 326.2478 L89.8378 329.37 L87.7147 327.1568 L86.9838 327.337 L85.4845 327.8721 L83.9078 327.7209 L82.7249 327.2292 L81.0957 326.1698 L79.6006 326.0917 L78.1523 326.4344 L77.1376 327.4563 L76.4181 328.9315 L75.1039 330.748 L74.2099 330.8587 L72.6289 330.3599 L69.0597 330.3507 L66.7209 330.01 L65.1719 331.0382 L63.4355 331.6563 L59.5328 332.5568 L58.1796 332.4319 L56.5518 331.5271 L53.2927 329.4296 L47.0171 326.7665 L37.9018 326.0711 L32.0612 324.4292 L25.3485 320.8209 L20.8795 319.125 L15.7116 318.4694 L13.6354 317.3347 L11.2711 314.5815 L8.1815 308.8275 L7.6011 309.178 L6.8298 310.29 L4.2561 313.3121 L2.3601 315.8191 L1.0445 319.0505 L0.2512 321.1956 L0.193 325.2764 L0.0 330.1938" stroke-dasharray="" fill="none" fill-opacity="1.0" stroke="#008000" stroke-opacity="1.0" stroke-width="1.0px" stroke-linecap="butt" stroke-linejoin="miter" stroke-dashoffset="0.0px"/>
</g>
</svg>