<?xml version="1.0" standalone="no"?>
<!DOCTYPE svg PUBLIC "-//W3C//DTD SVG 1.1//EN" "http://www.w3.org/Graphics/SVG/1.1/DTD/svg11.dtd">
<svg width="600px" height="600px" version="1.1" xmlns="http://www.w3.org/2000/svg" xmlns:inkscape="http://www.inkscape.org/namespaces/inkscape">
<rect x="0" y="0" width="600px" height="600px" fill="#000000"/>
<g id="frame" inkscape:groupmode="layer" inkscape:label="frame">
<path d="M80.0 600.0 L520.0 600.0 L520.0 0.0 L80.0 0.0 L80.0 600.0" stroke-dasharray="" fill="#808080" fill-opacity="1.0" stroke="none" stroke-opacity="1.0" stroke-width="0.0px" stroke-linecap="butt" stroke-linejoin="miter" stroke-dashoffset="0.0px"/>
</g>
<g id="bug" inkscape:groupmode="layer" inkscape:label="bug">
<path d="M500.0 380.0 L100.0 380.0 L100.0 580.0 L500.0 580.0 L500.0 380.0 M140.0 420.0 L260.0 420.0 L260.0 540.0 L140.0 540.0 L140.0 420.0 M340.0 420.0 L460.0 420.0 L460.0 540.0 L340.0 540.0 L340.0 420.0" stroke-dasharray="" fill="#800000" fill-opacity="1.0" stroke="#ff0000" stroke-opacity="1.0" stroke-width="2.0px" stroke-linecap="butt" stroke-linejoin="miter" stroke-dashoffset="0.0px"/>
<path d="M100.0 20.0 L100.0 220.0 L500.0 220.0 L500.0 20.0 L100.0 20.0 M140.0 60.0 L260.0 60.0 L260.0 180.0 L140.0 180.0 L140.0 60.0 M460.0 180.0 L340.0 180.0 L340.0 60.0 L460.0 60.0 L460.0 180.0" stroke-dasharray="" fill="#800000" fill-opacity="1.0" stroke="#ff0000" stroke-opacity="1.0" stroke-width="2.0px" stroke-linecap="butt" stroke-linejoin="miter" stroke-dashoffset="0.0px"/>
</g>
</svg>