<?xml version="1.0" standalone="no"?>
<!DOCTYPE svg PUBLIC "-//W3C//DTD SVG 1.1//EN" "http://www.w3.org/Graphics/SVG/1.1/DTD/svg11.dtd">
<svg width="1024px" height="1024px" version="1.1" xmlns="http://www.w3.org/2000/svg" xmlns:inkscape="http://www.inkscape.org/namespaces/inkscape">
<g id="carto_tests" inkscape:groupmode="layer" inkscape:label="carto_tests">
<path d="M1024.0 361.0467 L1004.5021 351.6031 L1001.1176 350.9607 L977.2894 348.3435 L972.4338 346.6205 L968.0917 343.934 L964.6418 339.8476 L958.8939 332.0556 L952.123 323.9424 L947.7154 320.1078 L937.4291 313.3408 L916.6048 301.1353 L910.6626 298.0046 L905.1705 296.4105 L899.8688 295.899 L892.5843 296.3431 L878.8521 298.7085 L864.989 297.9431 L856.6854 298.7085 L850.2317 299.8624 L826.6613 307.012 L811.1387 309.5063 L802.5595 312.062 L791.7003 315.7221 L781.2574 319.4317 L775.5511 323.6172 L762.3463 335.1506 L756.9117 337.2106 L739.8545 336.9707 L735.8237 336.7169 L725.7297 335.7553 L716.7937 330.5983 L708.9679 324.1525 L698.7094 314.013 L691.76 308.2691 L687.8283 305.8204 L683.9006 304.4345 L679.4672 304.1232 L674.6255 305.0928 L663.4668 308.7092 L649.1001 313.555 L643.1005 316.9018 L636.849 323.0343 L634.67 327.081 L633.0402 334.4467 L631.573 339.7227 L630.2981 343.0616 L628.2976 346.5313 L624.6851 350.9884 L619.195 355.6101 L610.1756 362.5873 L601.3685 367.1733 L597.2504 370.2227 L594.425 373.2324 L591.9367 377.0749 L586.6865 388.0789 L584.1725 391.1898 L581.5949 393.3946 L578.8291 394.146 L575.8729 394.2412 L571.2829 393.0773 L564.7757 391.4138 L556.5078 391.854 L551.1009 391.7568 L544.2467 390.0596 L538.4632 387.04 L535.1639 386.003 L532.1126 385.8464 L529.2099 386.0883 L524.154 389.6988 L514.6211 401.1826 L499.384 413.0253 L492.8966 424.063 L480.6772 446.2456 L477.4315 451.4858 L475.0444 454.4064 L470.4306 457.5807 L466.3839 460.069 L457.8939 463.3147 L446.6024 467.2285 L440.4521 469.9052 L436.5085 472.4292 L431.1294 476.6979 L425.8832 479.8108 L421.428 481.619 L410.6203 484.0538 L407.7374 484.4761 L404.6702 484.375 L402.6359 484.0855 L399.3367 483.1179 L396.4321 481.6091 L388.9711 477.1302 L381.0899 472.8435 L372.2867 468.8801 L366.4873 466.8736 L361.5523 465.8843 L346.0912 463.2215 L327.0869 459.9897 L304.6665 456.3514 L293.6367 455.1776 L289.0388 454.6859 L283.6796 454.3846 L281.0386 454.2854 L277.5153 454.4381 L271.9221 454.6681 L247.8739 455.7427 L227.7811 457.3348 L217.7506 459.3968 L197.6004 465.9636 L188.8606 469.0764 L185.6605 469.6098 L180.2359 469.7882 L174.5455 468.5431 L167.5644 465.1625 L152.7873 456.4803 L138.9599 445.4921 L130.805 437.1211 L126.2706 431.4328 L124.4485 426.2262 L123.9588 419.5564 L122.0018 402.7529 L112.0586 403.3854 L107.5796 404.7178 L90.3618 412.2203 L83.8367 415.1191 L82.0087 416.1461 L79.0425 418.8604 L76.8199 422.4015 L74.629 427.2155 L72.688 432.7453 L69.6009 443.9119 L63.165 460.8105 L61.1982 471.6995 L58.351 483.3856 L55.7557 490.4916 L50.9635 501.5908 L18.8535 569.3517 L12.6834 583.3576 L8.4602 593.277 L5.8609 602.7901 L5.0757 607.848 L5.1392 612.5489 L5.6923 618.4931 L6.5211 622.9839 L7.681 630.0899 L8.4562 635.352 L10.1138 646.818 L11.2875 652.7582 L13.1533 658.633 L15.8101 665.9293 L17.3407 671.5523 L17.8523 677.0503 L17.1603 688.2685 L15.6019 699.6274 L13.2227 713.4865 L10.9465 724.6095 L0.0 728.101" stroke-dasharray="" fill="none" fill-opacity="1.0" stroke="#ffffff" stroke-opacity="1.0" stroke-width="1.0px" stroke-linecap="butt" stroke-linejoin="miter" stroke-dashoffset="0.0px"/>
</g>
</svg>