<?xml version="1.0" standalone="no"?>
<!DOCTYPE svg PUBLIC "-//W3C//DTD SVG 1.1//EN" "http://www.w3.org/Graphics/SVG/1.1/DTD/svg11.dtd">
<svg width="1200px" height="800px" version="1.1" xmlns="http://www.w3.org/2000/svg" xmlns:inkscape="http://www.inkscape.org/namespaces/inkscape">
<rect x="0" y="0" width="1200px" height="800px" fill="#b8dee6"/>
<g id="countries" inkscape:groupmode="layer" inkscape:label="countries">
<path d="M647.53 31.5246 L645.7262 29.2956 L642.0285 26.4095 L641.3971 23.5557 L634.124 13.6605 L630.7225 10.4363 L628.4742 6.6161 L633.4733 0.0 L622.8631 0.2416 L612.4075 1.6299 L622.0579 12.6685 L632.5779 23.1144 L638.0472 29.5629 L642.6147 36.5945 L642.4987 43.2976 L638.0086 48.3804 L640.7143 51.0313 L644.9532 56.2366 L647.8457 56.7552 L648.8893 58.4205 L648.8249 61.036 L650.3066 63.2199 L654.1912 66.7598 L655.7695 65.5809 L659.055 60.4723 L661.6576 58.1724 L664.4986 56.1528 L666.9917 55.0706 L669.7683 55.4796 L668.7762 57.8568 L667.2494 59.8055 L660.672 64.1958 L656.4266 69.4043 L689.6423 108.8817 L692.5026 112.7019 L696.4774 120.3422 L699.1444 122.2942 L702.1529 121.4116 L703.4413 118.342 L701.9403 115.9616 L693.2627 107.0392 L687.9093 99.051 L687.3875 95.0665 L687.7354 92.2256 L691.1562 99.2056 L695.3371 105.5511 L708.8785 113.4459 L710.3666 113.1109 L708.7754 110.1089 L709.761 108.0829 L711.9836 108.5499 L717.5496 112.879 L717.7106 115.0049 L715.0758 118.0424 L715.1402 121.3569 L718.5932 123.1961 L720.9188 126.0242 L721.3826 129.7574 L719.9783 133.1073 L718.0972 135.4394 L708.3824 128.1469 L704.8392 128.6043 L716.8732 143.1732 L718.3742 145.8048 L720.7706 152.9298 L722.7097 156.6308 L726.5106 158.586 L730.5562 159.359 L734.705 158.499 L738.7506 157.0978 L741.8106 156.7467 L750.9649 165.537 L746.9128 165.8172 L743.157 167.1121 L739.5881 169.6084 L738.8344 173.6638 L734.1832 165.7818 L731.0652 164.6061 L729.5835 166.3423 L734.9884 177.2778 L737.1594 180.5279 L740.9152 181.3847 L739.4335 184.7732 L738.5187 188.2198 L739.7749 191.705 L745.7983 202.9561 L750.9134 210.3936 L747.892 211.4114 L745.225 213.1637 L743.0346 216.0691 L745.4247 223.9961 L743.5114 228.8052 L737.6555 236.642 L733.7709 249.2815 L731.6192 260.3072 L730.2986 271.5133 L728.3595 275.0371 L721.6468 280.2875 L717.9039 282.5809 L715.2626 283.18 L712.4925 283.1124 L697.5145 286.8617 L683.3612 293.5969 L680.9776 295.4812 L679.4573 298.0774 L678.5038 301.4531 L678.3363 304.7837 L679.541 308.3623 L681.3577 311.4513 L688.9723 316.6469 L702.3333 320.3253 L715.0114 325.012 L721.4084 330.7358 L728.4368 335.59 L735.9032 337.7191 L743.7884 338.5308 L755.9769 344.2643 L765.1183 354.4074 L768.494 359.6771 L771.2383 365.2817 L767.8948 378.7426 L765.5241 385.99 L756.4407 400.0789 L745.9078 413.2402 L735.755 423.145 L733.9899 425.2354 L732.6693 427.6158 L733.1395 429.0653 L734.8016 429.9124 L740.2516 429.8544 L745.502 427.6996 L744.162 425.9634 L744.8964 423.9599 L747.0223 423.48 L749.174 424.7007 L747.6086 426.9201 L747.6214 434.7795 L748.0015 436.0067 L749.5412 436.5607 L758.7599 433.9613 L765.7238 435.5912 L766.9092 437.5657 L768.1461 442.9223 L769.2477 445.3832 L774.7042 447.638 L779.1041 445.7311 L783.2658 443.1252 L798.2373 435.2401 L807.733 429.5291 L816.6618 422.868 L821.4676 417.6595 L825.1267 411.3913 L833.4178 401.902 L837.2895 395.1765 L841.7345 388.8632 L847.4294 382.7721 L855.8493 374.7935 L860.6615 365.5362 L865.7701 361.4809 L870.2216 357.0841 L878.0617 341.681 L886.9068 326.8738 L877.978 322.6348 L876.2708 319.5265 L876.0582 315.5002 L877.1985 307.8276 L882.0043 301.5497 L884.8453 298.7345 L888.0857 296.512 L898.5477 292.1313 L905.4601 289.97 L912.656 289.5158 L920.9406 290.2567 L929.0641 291.8253 L931.7118 293.9319 L934.6301 298.9664 L936.7044 299.8426 L940.2476 293.7966 L939.3586 290.8075 L937.194 288.8008 L936.8075 286.269 L938.1604 276.2032 L940.9047 267.6029 L947.6818 265.8346 L953.6537 262.082 L959.078 256.9348 L962.0542 250.2575 L964.0384 235.1024 L966.9503 220.1051 L970.2615 213.5051 L974.552 207.4753 L975.8146 203.391 L972.0589 201.3746 L964.8759 198.7977 L959.355 195.5831 L942.9662 194.839 L939.7709 196.4431 L936.7495 198.7043 L930.7197 201.1362 L925.3985 204.2317 L920.5089 210.6029 L914.8592 216.1883 L908.314 219.9247 L901.0022 222.0087 L897.1369 222.173 L890.1472 221.6963 L865.725 215.7051 L856.049 212.046 L835.9109 202.6405 L832.8831 201.6291 L829.6427 201.8255 L824.489 200.463 L820.089 197.6897 L819.5929 196.1693 L821.0489 195.261 L825.7709 196.82 L824.869 193.8051 L817.1127 187.4918 L812.8094 173.0034 L810.0135 157.6164 L807.894 152.4659 L804.0545 148.0724 L803.5263 143.7401 L797.8765 144.4777 L788.3099 134.0285 L786.416 130.495 L784.1226 127.5671 L780.3153 129.1357 L779.4327 132.5952 L781.9709 134.8145 L783.9422 137.4558 L785.7782 140.8991 L786.6414 144.5453 L786.1196 148.2141 L786.1389 151.8797 L789.7981 163.1502 L790.8095 170.1818 L789.2118 172.8037 L784.129 173.7572 L779.4198 173.1484 L777.004 169.9821 L775.7478 162.8023 L774.0664 159.8293 L770.6778 158.4636 L758.3283 154.7787 L752.4079 151.0841 L750.2369 151.8378 L748.6264 154.6047 L746.0431 152.3081 L743.054 151.1002 L738.1 150.3497 L737.8616 147.5248 L739.762 146.1655 L741.5079 138.4221 L744.1298 136.0739 L739.9231 128.5141 L741.5014 125.6312 L741.2115 122.2845 L743.0669 117.2081 L730.7688 102.9388 L727.2708 98.3359 L722.903 90.6955 L717.7364 85.2874 L717.4401 83.8154 L726.3173 85.0619 L729.2614 84.553 L724.7648 77.1896 L726.2078 74.6643 L726.9422 71.8684 L722.0333 63.8898 L719.1923 61.1906 L717.06 58.4688 L717.5689 58.559 L716.3385 55.8146 L713.0336 50.9637 L710.7016 51.3921 L705.7347 54.8225 L701.9918 54.2846 L700.4715 51.9719 L699.9046 49.0762 L700.4779 46.3318 L699.5503 44.4926 L688.3216 39.1488 L683.3419 37.2259 L681.3963 38.1535 L679.7407 39.8639 L676.816 38.991 L673.975 35.9374 L660.1953 32.2815 L658.0758 31.1348 L658.6492 25.8845 L654.5004 29.1345 L651.9236 32.3427 L648.4706 34.3752 L647.53 31.5246" stroke-dasharray="" fill="none" fill-opacity="1.0" stroke="#85c5d3" stroke-opacity="1.0" stroke-width="2.0px" stroke-linecap="butt" stroke-linejoin="miter" stroke-dashoffset="0.0px"/>
<path d="M637.9248 426.9845 L635.013 421.1608 L633.9822 414.4739 L633.3702 406.6853 L630.0268 400.1176 L622.5797 398.3782 L616.1955 395.4567 L613.8377 392.3516 L612.3109 388.8664 L612.7297 384.9786 L614.0696 381.139 L627.2244 379.5768 L620.151 377.7924 L612.7297 378.2047 L608.3361 379.5478 L597.5842 386.0254 L585.4021 394.5355 L577.0982 406.2859 L574.2186 422.14 L569.0713 437.2983 L565.1674 443.151 L557.8491 450.4145 L551.6776 454.4312 L547.9669 455.9966 L539.5019 456.7954 L536.3775 459.1146 L532.2868 470.2305 L528.5246 476.8917 L526.1796 483.6946 L524.5498 490.768 L521.7925 496.9621 L524.524 498.7434 L525.6063 500.5891 L522.0953 500.9112 L519.8663 501.7422 L517.8886 503.1047 L507.8002 515.2932 L509.0371 521.89 L508.4638 525.6425 L506.8017 527.0759 L507.1818 522.94 L506.7824 519.5096 L504.1991 516.6847 L496.1206 524.8018 L489.9684 529.7107 L488.9505 532.7127 L489.569 536.0949 L485.2141 531.8237 L482.109 532.5195 L476.3755 534.7968 L477.1421 536.7777 L481.8771 539.9601 L477.1421 537.8826 L472.3298 536.5909 L467.3952 538.3689 L462.6151 540.9458 L467.0731 542.6336 L468.4259 545.597 L465.9135 543.8125 L462.4412 543.2521 L458.7176 544.4535 L455.561 548.0804 L453.0163 549.6717 L450.2076 550.7572 L444.8348 556.0204 L434.9526 560.794 L438.0062 562.076 L436.9368 563.0101 L433.458 562.849 L432.7751 565.2262 L433.3872 567.7128 L429.3544 567.803 L422.6417 571.0885 L413.5261 573.1113 L401.5501 577.9655 L391.9771 582.6747 L389.8706 585.3417 L392.5634 591.1558 L389.8834 590.3312 L385.5543 588.0635 L380.8129 589.7127 L369.3459 596.0711 L367.3746 596.3546 L359.657 594.8342 L347.5908 598.474 L341.9282 601.6822 L331.3051 610.5111 L320.2247 618.931 L310.1363 627.7793 L310.7483 633.4741 L312.9386 635.5292 L313.4025 638.0029 L310.3102 635.5066 L305.8007 633.6577 L300.2605 636.5438 L292.749 642.7476 L286.9768 644.6544 L285.4178 646.5839 L285.1859 648.8225 L286.7964 651.045 L286.6161 653.6058 L285.8044 656.305 L282.3514 648.1751 L268.8744 656.6239 L267.4572 658.7208 L269.5251 661.9032 L272.9201 664.0292 L268.475 664.77 L264.7193 662.0643 L258.3609 666.606 L258.1612 669.914 L258.7925 672.7647 L264.6806 675.4704 L269.6346 676.3691 L271.0905 677.0004 L265.8015 677.7155 L264.0879 678.7237 L263.7336 680.9623 L266.4522 684.5151 L259.9972 682.7886 L251.0491 678.0666 L248.5946 678.3017 L248.994 681.8159 L251.7577 684.3283 L242.932 684.4378 L240.7288 688.1034 L240.1619 692.7836 L248.5817 693.1766 L256.177 692.046 L245.876 696.4782 L244.1367 699.1452 L244.8968 702.4758 L256.9501 703.2875 L253.787 705.6646 L246.5267 707.1785 L226.3821 709.4977 L224.8489 710.7539 L224.1854 715.1732 L225.1517 718.9838 L232.6052 718.4523 L239.1633 714.3358 L240.149 716.7644 L239.7302 718.9451 L234.9244 723.8315 L239.9364 724.5175 L247.7958 720.0435 L251.5515 718.5682 L238.8026 729.5682 L240.0137 733.5687 L246.1981 735.2888 L262.9992 736.7801 L279.7423 736.2841 L282.564 735.4982 L287.3247 730.8759 L290.3718 730.4894 L299.2684 733.2595 L301.7551 735.3886 L309.228 744.063 L312.8678 744.1596 L323.8967 743.2352 L330.8671 743.8085 L333.431 745.2741 L335.6729 747.3324 L339.0099 749.1039 L340.4594 751.7162 L339.3771 755.2497 L341.342 757.9071 L342.8945 758.9668 L348.1513 757.8781 L354.7481 759.3212 L358.4394 757.8588 L366.8721 756.5317 L371.2979 757.2726 L379.2797 759.4436 L387.5578 760.5452 L402.7419 759.9074 L424.2071 755.6169 L426.8548 753.7326 L428.8261 751.1364 L438.6439 742.0756 L455.3419 731.2592 L460.3732 726.3825 L464.6508 720.7199 L469.8689 717.5568 L485.7617 714.7352 L488.7315 713.6303 L492.1265 713.1891 L493.0606 711.498 L492.8867 708.2963 L489.8524 706.0254 L487.3529 703.4035 L487.4109 701.5513 L494.5552 691.2633 L499.2129 682.2088 L502.3115 672.391 L505.4939 668.3454 L513.1343 661.346 L514.4356 657.5162 L507.4974 654.978 L506.0093 653.3803 L515.1893 653.4351 L518.404 644.4354 L519.3574 634.7303 L520.4719 629.0548 L525.5805 615.3878 L523.8604 613.9448 L521.0774 613.0332 L528.7951 612.4631 L532.0935 609.577 L533.6589 605.0353 L538.3488 603.9498 L547.1488 603.8725 L550.4536 602.6485 L556.4576 599.2084 L561.5856 597.002 L567.0098 595.5879 L573.4391 593.1818 L579.6107 590.0864 L576.9565 586.2082 L571.6611 580.3652 L570.6174 577.9784 L577.4912 581.834 L582.1617 585.6638 L586.8903 588.3341 L590.2466 587.8026 L592.4176 585.9473 L593.0618 582.723 L595.1877 580.7678 L598.3444 579.5342 L601.2691 580.3298 L604.7929 582.4557 L598.0738 586.1857 L599.7423 586.8266 L602.9763 586.06 L615.1068 584.9198 L619.3715 588.4726 L625.7879 589.8029 L632.1913 589.4293 L634.8262 588.7528 L636.5913 586.8524 L638.0215 583.9696 L636.849 578.0911 L635.2964 576.3872 L627.4499 575.2888 L618.7079 572.9471 L616.1891 569.2654 L615.1004 566.4824 L614.5528 563.3998 L611.628 561.9342 L601.2304 563.2098 L603.4465 561.4157 L607.8079 560.91 L612.0146 559.1512 L614.1985 556.3554 L611.2544 553.8494 L607.4793 552.9088 L607.2989 551.221 L613.1935 550.3674 L618.7659 546.5665 L623.8037 541.983 L635.2449 537.9921 L640.0121 535.6568 L644.5216 532.7772 L652.4003 524.3186 L664.7112 504.1902 L667.462 501.4491 L683.0842 488.7903 L686.1571 485.0989 L686.0862 480.0225 L691.4396 476.9271 L696.0135 472.0987 L706.4949 462.5708 L708.2343 460.2581 L710.7145 455.7389 L706.598 451.8221 L703.6603 450.5401 L698.2812 451.3873 L703.1063 444.594 L698.8223 441.067 L697.6112 438.9765 L697.3857 436.3449 L699.4279 432.383 L703.6346 429.9607 L707.8477 429.0363 L711.597 426.0504 L715.9777 421.3154 L716.1323 416.0425 L710.7402 420.2686 L701.6762 425.0486 L695.4724 424.6524 L699.4923 423.1289 L705.5028 419.5567 L706.3854 417.405 L710.1411 413.8619 L711.9256 410.7954 L707.0167 411.095 L706.2694 408.6695 L702.6167 409.0109 L700.6197 409.871 L698.0879 409.9611 L693.0308 409.1559 L692.9149 411.3301 L694.564 414.0777 L690.4218 415.8009 L687.7483 419.4246 L688.9143 421.2542 L686.6531 424.4946 L680.4622 426.5271 L684.4886 421.5473 L684.3597 417.3309 L687.774 413.9488 L685.5773 411.533 L686.2022 410.0256 L690.1254 408.6308 L693.2176 404.4499 L689.7711 404.8461 L686.6789 406.5049 L679.5925 407.8546 L676.7258 408.8885 L665.7935 415.9362 L658.617 419.0123 L651.7883 422.7262 L645.1207 427.2905 L637.9248 426.9845" stroke-dasharray="" fill="none" fill-opacity="1.0" stroke="#85c5d3" stroke-opacity="1.0" stroke-width="2.0px" stroke-linecap="butt" stroke-linejoin="miter" stroke-dashoffset="0.0px"/>
<path d="M789.2569 115.3303 L787.3501 108.9493 L783.0918 105.0679 L780.9144 102.3397 L779.6775 102.7617 L779.1879 103.8278 L776.3791 106.3209 L776.9782 111.494 L777.7577 112.296 L783.1111 114.9534 L784.9794 117.5174 L789.753 118.7285 L789.2569 115.3303" stroke-dasharray="" fill="none" fill-opacity="1.0" stroke="#85c5d3" stroke-opacity="1.0" stroke-width="2.0px" stroke-linecap="butt" stroke-linejoin="miter" stroke-dashoffset="0.0px"/>
<path d="M687.7483 401.0807 L690.4475 396.2877 L690.8534 391.688 L687.0396 393.7592 L685.1714 393.9524 L681.3706 396.7129 L679.7407 402.1855 L679.4057 404.7011 L687.7483 401.0807" stroke-dasharray="" fill="none" fill-opacity="1.0" stroke="#85c5d3" stroke-opacity="1.0" stroke-width="2.0px" stroke-linecap="butt" stroke-linejoin="miter" stroke-dashoffset="0.0px"/>
<path d="M240.9349 699.783 L240.0072 698.7136 L237.1534 697.2383 L229.7643 699.0679 L227.5739 702.5241 L229.2682 703.0427 L231.2975 702.6433 L234.4606 704.0573 L237.7074 704.3988 L239.8655 704.3827 L240.5999 702.8462 L240.9349 699.783" stroke-dasharray="" fill="none" fill-opacity="1.0" stroke="#85c5d3" stroke-opacity="1.0" stroke-width="2.0px" stroke-linecap="butt" stroke-linejoin="miter" stroke-dashoffset="0.0px"/>
<path d="M328.1098 774.9755 L316.3207 764.52 L305.6139 764.855 L304.4479 770.9492 L306.6575 777.7392 L302.9984 780.8765 L302.9275 784.4133 L297.5162 786.3201 L296.0731 789.0387 L295.9507 792.4337 L290.3267 795.9704 L289.2831 799.6876 L291.3317 800.0 L298.9012 798.7116 L305.6719 794.5371 L307.2824 794.186 L313.1899 794.7787 L320.0121 790.8876 L330.5385 789.8955 L334.0946 787.9307 L335.325 785.2507 L334.1268 782.2551 L328.7991 782.8349 L326.8987 780.8314 L321.7708 779.3626 L321.6355 776.5732 L328.1356 777.4622 L328.1098 774.9755" stroke-dasharray="" fill="none" fill-opacity="1.0" stroke="#85c5d3" stroke-opacity="1.0" stroke-width="2.0px" stroke-linecap="butt" stroke-linejoin="miter" stroke-dashoffset="0.0px"/>
<path d="M255.4684 670.1041 L254.4183 670.1427 L250.057 673.8921 L252.4534 676.1597 L258.1612 677.5898 L255.4684 670.1041" stroke-dasharray="" fill="none" fill-opacity="1.0" stroke="#85c5d3" stroke-opacity="1.0" stroke-width="2.0px" stroke-linecap="butt" stroke-linejoin="miter" stroke-dashoffset="0.0px"/>
<path d="M647.53 31.5246 L645.7262 29.2956 L642.0285 26.4095 L641.3971 23.5557 L634.124 13.6605 L630.7225 10.4363 L628.4742 6.6161 L633.4733 0.0 L622.8631 0.2416 L612.4075 1.6299 L622.0579 12.6685 L632.5779 23.1144 L638.0472 29.5629 L642.6147 36.5945 L642.4987 43.2976 L638.0086 48.3804 L640.7143 51.0313 L644.9532 56.2366 L647.8457 56.7552 L648.8893 58.4205 L648.8249 61.036 L650.3066 63.2199 L654.1912 66.7598 L655.7695 65.5809 L659.055 60.4723 L661.6576 58.1724 L664.4986 56.1528 L666.9917 55.0706 L669.7683 55.4796 L668.7762 57.8568 L667.2494 59.8055 L660.672 64.1958 L656.4266 69.4043 L689.6423 108.8817 L692.5026 112.7019 L696.4774 120.3422 L699.1444 122.2942 L702.1529 121.4116 L703.4413 118.342 L701.9403 115.9616 L693.2627 107.0392 L687.9093 99.051 L687.3875 95.0665 L687.7354 92.2256 L691.1562 99.2056 L695.3371 105.5511 L708.8785 113.4459 L710.3666 113.1109 L708.7754 110.1089 L709.761 108.0829 L711.9836 108.5499 L717.5496 112.879 L717.7106 115.0049 L715.0758 118.0424 L715.1402 121.3569 L718.5932 123.1961 L720.9188 126.0242 L721.3826 129.7574 L719.9783 133.1073 L718.0972 135.4394 L708.3824 128.1469 L704.8392 128.6043 L716.8732 143.1732 L718.3742 145.8048 L720.7706 152.9298 L722.7097 156.6308 L726.5106 158.586 L730.5562 159.359 L734.705 158.499 L738.7506 157.0978 L741.8106 156.7467 L750.9649 165.537 L746.9128 165.8172 L743.157 167.1121 L739.5881 169.6084 L738.8344 173.6638 L734.1832 165.7818 L731.0652 164.6061 L729.5835 166.3423 L734.9884 177.2778 L737.1594 180.5279 L740.9152 181.3847 L739.4335 184.7732 L738.5187 188.2198 L739.7749 191.705 L745.7983 202.9561 L750.9134 210.3936 L747.892 211.4114 L745.225 213.1637 L743.0346 216.0691 L745.4247 223.9961 L743.5114 228.8052 L737.6555 236.642 L733.7709 249.2815 L731.6192 260.3072 L730.2986 271.5133 L728.3595 275.0371 L721.6468 280.2875 L717.9039 282.5809 L715.2626 283.18 L712.4925 283.1124 L697.5145 286.8617 L683.3612 293.5969 L680.9776 295.4812 L679.4573 298.0774 L678.5038 301.4531 L678.3363 304.7837 L679.541 308.3623 L681.3577 311.4513 L688.9723 316.6469 L702.3333 320.3253 L715.0114 325.012 L721.4084 330.7358 L728.4368 335.59 L735.9032 337.7191 L743.7884 338.5308 L755.9769 344.2643 L765.1183 354.4074 L768.494 359.6771 L771.2383 365.2817 L767.8948 378.7426 L765.5241 385.99 L756.4407 400.0789 L745.9078 413.2402 L735.755 423.145 L733.9899 425.2354 L732.6693 427.6158 L733.1395 429.0653 L734.8016 429.9124 L740.2516 429.8544 L745.502 427.6996 L744.162 425.9634 L744.8964 423.9599 L747.0223 423.48 L749.174 424.7007 L747.6086 426.9201 L747.6214 434.7795 L748.0015 436.0067 L749.5412 436.5607 L758.7599 433.9613 L765.7238 435.5912 L766.9092 437.5657 L768.1461 442.9223 L769.2477 445.3832 L774.7042 447.638 L779.1041 445.7311 L783.2658 443.1252 L798.2373 435.2401 L807.733 429.5291 L816.6618 422.868 L821.4676 417.6595 L825.1267 411.3913 L833.4178 401.902 L837.2895 395.1765 L841.7345 388.8632 L847.4294 382.7721 L855.8493 374.7935 L860.6615 365.5362 L865.7701 361.4809 L870.2216 357.0841 L878.0617 341.681 L886.9068 326.8738 L877.978 322.6348 L876.2708 319.5265 L876.0582 315.5002 L877.1985 307.8276 L882.0043 301.5497 L884.8453 298.7345 L888.0857 296.512 L898.5477 292.1313 L905.4601 289.97 L912.656 289.5158 L920.9406 290.2567 L929.0641 291.8253 L931.7118 293.9319 L934.6301 298.9664 L936.7044 299.8426 L940.2476 293.7966 L939.3586 290.8075 L937.194 288.8008 L936.8075 286.269 L938.1604 276.2032 L940.9047 267.6029 L947.6818 265.8346 L953.6537 262.082 L959.078 256.9348 L962.0542 250.2575 L964.0384 235.1024 L966.9503 220.1051 L970.2615 213.5051 L974.552 207.4753 L975.8146 203.391 L972.0589 201.3746 L964.8759 198.7977 L959.355 195.5831 L942.9662 194.839 L939.7709 196.4431 L936.7495 198.7043 L930.7197 201.1362 L925.3985 204.2317 L920.5089 210.6029 L914.8592 216.1883 L908.314 219.9247 L901.0022 222.0087 L897.1369 222.173 L890.1472 221.6963 L865.725 215.7051 L856.049 212.046 L835.9109 202.6405 L832.8831 201.6291 L829.6427 201.8255 L824.489 200.463 L820.089 197.6897 L819.5929 196.1693 L821.0489 195.261 L825.7709 196.82 L824.869 193.8051 L817.1127 187.4918 L812.8094 173.0034 L810.0135 157.6164 L807.894 152.4659 L804.0545 148.0724 L803.5263 143.7401 L797.8765 144.4777 L788.3099 134.0285 L786.416 130.495 L784.1226 127.5671 L780.3153 129.1357 L779.4327 132.5952 L781.9709 134.8145 L783.9422 137.4558 L785.7782 140.8991 L786.6414 144.5453 L786.1196 148.2141 L786.1389 151.8797 L789.7981 163.1502 L790.8095 170.1818 L789.2118 172.8037 L784.129 173.7572 L779.4198 173.1484 L777.004 169.9821 L775.7478 162.8023 L774.0664 159.8293 L770.6778 158.4636 L758.3283 154.7787 L752.4079 151.0841 L750.2369 151.8378 L748.6264 154.6047 L746.0431 152.3081 L743.054 151.1002 L738.1 150.3497 L737.8616 147.5248 L739.762 146.1655 L741.5079 138.4221 L744.1298 136.0739 L739.9231 128.5141 L741.5014 125.6312 L741.2115 122.2845 L743.0669 117.2081 L730.7688 102.9388 L727.2708 98.3359 L722.903 90.6955 L717.7364 85.2874 L717.4401 83.8154 L726.3173 85.0619 L729.2614 84.553 L724.7648 77.1896 L726.2078 74.6643 L726.9422 71.8684 L722.0333 63.8898 L719.1923 61.1906 L717.06 58.4688 L717.5689 58.559 L716.3385 55.8146 L713.0336 50.9637 L710.7016 51.3921 L705.7347 54.8225 L701.9918 54.2846 L700.4715 51.9719 L699.9046 49.0762 L700.4779 46.3318 L699.5503 44.4926 L688.3216 39.1488 L683.3419 37.2259 L681.3963 38.1535 L679.7407 39.8639 L676.816 38.991 L673.975 35.9374 L660.1953 32.2815 L658.0758 31.1348 L658.6492 25.8845 L654.5004 29.1345 L651.9236 32.3427 L648.4706 34.3752 L647.53 31.5246" stroke-dasharray="" fill="#ffffff" fill-opacity="1.0" stroke="none" stroke-opacity="1.0" stroke-width="0.0px" stroke-linecap="butt" stroke-linejoin="miter" stroke-dashoffset="0.0px"/>
<path d="M637.9248 426.9845 L635.013 421.1608 L633.9822 414.4739 L633.3702 406.6853 L630.0268 400.1176 L622.5797 398.3782 L616.1955 395.4567 L613.8377 392.3516 L612.3109 388.8664 L612.7297 384.9786 L614.0696 381.139 L627.2244 379.5768 L620.151 377.7924 L612.7297 378.2047 L608.3361 379.5478 L597.5842 386.0254 L585.4021 394.5355 L577.0982 406.2859 L574.2186 422.14 L569.0713 437.2983 L565.1674 443.151 L557.8491 450.4145 L551.6776 454.4312 L547.9669 455.9966 L539.5019 456.7954 L536.3775 459.1146 L532.2868 470.2305 L528.5246 476.8917 L526.1796 483.6946 L524.5498 490.768 L521.7925 496.9621 L524.524 498.7434 L525.6063 500.5891 L522.0953 500.9112 L519.8663 501.7422 L517.8886 503.1047 L507.8002 515.2932 L509.0371 521.89 L508.4638 525.6425 L506.8017 527.0759 L507.1818 522.94 L506.7824 519.5096 L504.1991 516.6847 L496.1206 524.8018 L489.9684 529.7107 L488.9505 532.7127 L489.569 536.0949 L485.2141 531.8237 L482.109 532.5195 L476.3755 534.7968 L477.1421 536.7777 L481.8771 539.9601 L477.1421 537.8826 L472.3298 536.5909 L467.3952 538.3689 L462.6151 540.9458 L467.0731 542.6336 L468.4259 545.597 L465.9135 543.8125 L462.4412 543.2521 L458.7176 544.4535 L455.561 548.0804 L453.0163 549.6717 L450.2076 550.7572 L444.8348 556.0204 L434.9526 560.794 L438.0062 562.076 L436.9368 563.0101 L433.458 562.849 L432.7751 565.2262 L433.3872 567.7128 L429.3544 567.803 L422.6417 571.0885 L413.5261 573.1113 L401.5501 577.9655 L391.9771 582.6747 L389.8706 585.3417 L392.5634 591.1558 L389.8834 590.3312 L385.5543 588.0635 L380.8129 589.7127 L369.3459 596.0711 L367.3746 596.3546 L359.657 594.8342 L347.5908 598.474 L341.9282 601.6822 L331.3051 610.5111 L320.2247 618.931 L310.1363 627.7793 L310.7483 633.4741 L312.9386 635.5292 L313.4025 638.0029 L310.3102 635.5066 L305.8007 633.6577 L300.2605 636.5438 L292.749 642.7476 L286.9768 644.6544 L285.4178 646.5839 L285.1859 648.8225 L286.7964 651.045 L286.6161 653.6058 L285.8044 656.305 L282.3514 648.1751 L268.8744 656.6239 L267.4572 658.7208 L269.5251 661.9032 L272.9201 664.0292 L268.475 664.77 L264.7193 662.0643 L258.3609 666.606 L258.1612 669.914 L258.7925 672.7647 L264.6806 675.4704 L269.6346 676.3691 L271.0905 677.0004 L265.8015 677.7155 L264.0879 678.7237 L263.7336 680.9623 L266.4522 684.5151 L259.9972 682.7886 L251.0491 678.0666 L248.5946 678.3017 L248.994 681.8159 L251.7577 684.3283 L242.932 684.4378 L240.7288 688.1034 L240.1619 692.7836 L248.5817 693.1766 L256.177 692.046 L245.876 696.4782 L244.1367 699.1452 L244.8968 702.4758 L256.9501 703.2875 L253.787 705.6646 L246.5267 707.1785 L226.3821 709.4977 L224.8489 710.7539 L224.1854 715.1732 L225.1517 718.9838 L232.6052 718.4523 L239.1633 714.3358 L240.149 716.7644 L239.7302 718.9451 L234.9244 723.8315 L239.9364 724.5175 L247.7958 720.0435 L251.5515 718.5682 L238.8026 729.5682 L240.0137 733.5687 L246.1981 735.2888 L262.9992 736.7801 L279.7423 736.2841 L282.564 735.4982 L287.3247 730.8759 L290.3718 730.4894 L299.2684 733.2595 L301.7551 735.3886 L309.228 744.063 L312.8678 744.1596 L323.8967 743.2352 L330.8671 743.8085 L333.431 745.2741 L335.6729 747.3324 L339.0099 749.1039 L340.4594 751.7162 L339.3771 755.2497 L341.342 757.9071 L342.8945 758.9668 L348.1513 757.8781 L354.7481 759.3212 L358.4394 757.8588 L366.8721 756.5317 L371.2979 757.2726 L379.2797 759.4436 L387.5578 760.5452 L402.7419 759.9074 L424.2071 755.6169 L426.8548 753.7326 L428.8261 751.1364 L438.6439 742.0756 L455.3419 731.2592 L460.3732 726.3825 L464.6508 720.7199 L469.8689 717.5568 L485.7617 714.7352 L488.7315 713.6303 L492.1265 713.1891 L493.0606 711.498 L492.8867 708.2963 L489.8524 706.0254 L487.3529 703.4035 L487.4109 701.5513 L494.5552 691.2633 L499.2129 682.2088 L502.3115 672.391 L505.4939 668.3454 L513.1343 661.346 L514.4356 657.5162 L507.4974 654.978 L506.0093 653.3803 L515.1893 653.4351 L518.404 644.4354 L519.3574 634.7303 L520.4719 629.0548 L525.5805 615.3878 L523.8604 613.9448 L521.0774 613.0332 L528.7951 612.4631 L532.0935 609.577 L533.6589 605.0353 L538.3488 603.9498 L547.1488 603.8725 L550.4536 602.6485 L556.4576 599.2084 L561.5856 597.002 L567.0098 595.5879 L573.4391 593.1818 L579.6107 590.0864 L576.9565 586.2082 L571.6611 580.3652 L570.6174 577.9784 L577.4912 581.834 L582.1617 585.6638 L586.8903 588.3341 L590.2466 587.8026 L592.4176 585.9473 L593.0618 582.723 L595.1877 580.7678 L598.3444 579.5342 L601.2691 580.3298 L604.7929 582.4557 L598.0738 586.1857 L599.7423 586.8266 L602.9763 586.06 L615.1068 584.9198 L619.3715 588.4726 L625.7879 589.8029 L632.1913 589.4293 L634.8262 588.7528 L636.5913 586.8524 L638.0215 583.9696 L636.849 578.0911 L635.2964 576.3872 L627.4499 575.2888 L618.7079 572.9471 L616.1891 569.2654 L615.1004 566.4824 L614.5528 563.3998 L611.628 561.9342 L601.2304 563.2098 L603.4465 561.4157 L607.8079 560.91 L612.0146 559.1512 L614.1985 556.3554 L611.2544 553.8494 L607.4793 552.9088 L607.2989 551.221 L613.1935 550.3674 L618.7659 546.5665 L623.8037 541.983 L635.2449 537.9921 L640.0121 535.6568 L644.5216 532.7772 L652.4003 524.3186 L664.7112 504.1902 L667.462 501.4491 L683.0842 488.7903 L686.1571 485.0989 L686.0862 480.0225 L691.4396 476.9271 L696.0135 472.0987 L706.4949 462.5708 L708.2343 460.2581 L710.7145 455.7389 L706.598 451.8221 L703.6603 450.5401 L698.2812 451.3873 L703.1063 444.594 L698.8223 441.067 L697.6112 438.9765 L697.3857 436.3449 L699.4279 432.383 L703.6346 429.9607 L707.8477 429.0363 L711.597 426.0504 L715.9777 421.3154 L716.1323 416.0425 L710.7402 420.2686 L701.6762 425.0486 L695.4724 424.6524 L699.4923 423.1289 L705.5028 419.5567 L706.3854 417.405 L710.1411 413.8619 L711.9256 410.7954 L707.0167 411.095 L706.2694 408.6695 L702.6167 409.0109 L700.6197 409.871 L698.0879 409.9611 L693.0308 409.1559 L692.9149 411.3301 L694.564 414.0777 L690.4218 415.8009 L687.7483 419.4246 L688.9143 421.2542 L686.6531 424.4946 L680.4622 426.5271 L684.4886 421.5473 L684.3597 417.3309 L687.774 413.9488 L685.5773 411.533 L686.2022 410.0256 L690.1254 408.6308 L693.2176 404.4499 L689.7711 404.8461 L686.6789 406.5049 L679.5925 407.8546 L676.7258 408.8885 L665.7935 415.9362 L658.617 419.0123 L651.7883 422.7262 L645.1207 427.2905 L637.9248 426.9845" stroke-dasharray="" fill="#ffffff" fill-opacity="1.0" stroke="none" stroke-opacity="1.0" stroke-width="0.0px" stroke-linecap="butt" stroke-linejoin="miter" stroke-dashoffset="0.0px"/>
<path d="M789.2569 115.3303 L787.3501 108.9493 L783.0918 105.0679 L780.9144 102.3397 L779.6775 102.7617 L779.1879 103.8278 L776.3791 106.3209 L776.9782 111.494 L777.7577 112.296 L783.1111 114.9534 L784.9794 117.5174 L789.753 118.7285 L789.2569 115.3303" stroke-dasharray="" fill="#ffffff" fill-opacity="1.0" stroke="none" stroke-opacity="1.0" stroke-width="0.0px" stroke-linecap="butt" stroke-linejoin="miter" stroke-dashoffset="0.0px"/>
<path d="M687.7483 401.0807 L690.4475 396.2877 L690.8534 391.688 L687.0396 393.7592 L685.1714 393.9524 L681.3706 396.7129 L679.7407 402.1855 L679.4057 404.7011 L687.7483 401.0807" stroke-dasharray="" fill="#ffffff" fill-opacity="1.0" stroke="none" stroke-opacity="1.0" stroke-width="0.0px" stroke-linecap="butt" stroke-linejoin="miter" stroke-dashoffset="0.0px"/>
<path d="M240.9349 699.783 L240.0072 698.7136 L237.1534 697.2383 L229.7643 699.0679 L227.5739 702.5241 L229.2682 703.0427 L231.2975 702.6433 L234.4606 704.0573 L237.7074 704.3988 L239.8655 704.3827 L240.5999 702.8462 L240.9349 699.783" stroke-dasharray="" fill="#ffffff" fill-opacity="1.0" stroke="none" stroke-opacity="1.0" stroke-width="0.0px" stroke-linecap="butt" stroke-linejoin="miter" stroke-dashoffset="0.0px"/>
<path d="M328.1098 774.9755 L316.3207 764.52 L305.6139 764.855 L304.4479 770.9492 L306.6575 777.7392 L302.9984 780.8765 L302.9275 784.4133 L297.5162 786.3201 L296.0731 789.0387 L295.9507 792.4337 L290.3267 795.9704 L289.2831 799.6876 L291.3317 800.0 L298.9012 798.7116 L305.6719 794.5371 L307.2824 794.186 L313.1899 794.7787 L320.0121 790.8876 L330.5385 789.8955 L334.0946 787.9307 L335.325 785.2507 L334.1268 782.2551 L328.7991 782.8349 L326.8987 780.8314 L321.7708 779.3626 L321.6355 776.5732 L328.1356 777.4622 L328.1098 774.9755" stroke-dasharray="" fill="#ffffff" fill-opacity="1.0" stroke="none" stroke-opacity="1.0" stroke-width="0.0px" stroke-linecap="butt" stroke-linejoin="miter" stroke-dashoffset="0.0px"/>
<path d="M255.4684 670.1041 L254.4183 670.1427 L250.057 673.8921 L252.4534 676.1597 L258.1612 677.5898 L255.4684 670.1041" stroke-dasharray="" fill="#ffffff" fill-opacity="1.0" stroke="none" stroke-opacity="1.0" stroke-width="0.0px" stroke-linecap="butt" stroke-linejoin="miter" stroke-dashoffset="0.0px"/>
</g>
<g id="places" inkscape:groupmode="layer" inkscape:label="places">
</g>
</svg>