<?xml version="1.0" standalone="no"?>
<!DOCTYPE svg PUBLIC "-//W3C//DTD SVG 1.1//EN" "http://www.w3.org/Graphics/SVG/1.1/DTD/svg11.dtd">
<svg width="1024px" height="1024px" version="1.1" xmlns="http://www.w3.org/2000/svg" xmlns:inkscape="http://www.inkscape.org/namespaces/inkscape">
<rect x="0" y="0" width="1024px" height="1024px" fill="#800080"/>
<g id="world" inkscape:groupmode="layer" inkscape:label="world">
<path d="M53.8026 82.1944 L53.8167 82.1145 L53.6984 82.1373 L53.8026 82.1944 M53.2635 82.1471 L53.703 82.0085 L52.1892 82.3559 L53.2635 82.1471 M60.0491 81.9841 L59.5278 81.808 L59.659 82.0672 L60.0491 81.9841 M59.0189 81.5618 L59.0396 81.438 L58.9099 81.482 L59.0189 81.5618 M58.6776 81.5749 L58.8104 81.4754 L58.6476 81.4314 L58.6776 81.5749" stroke-dasharray="" fill="#ffff00" fill-opacity="0.6" stroke="none" stroke-opacity="1.0" stroke-width="0.0px" stroke-linecap="butt" stroke-linejoin="miter" stroke-dashoffset="0.0px"/>
<path d="M633.6932 375.1463 L633.5367 374.2903 L633.497 375.1187 L633.6932 375.1463 M660.9714 373.5667 L655.6144 374.5889 L656.0521 375.3029 L660.9714 373.5667 M635.6654 356.7474 L633.6422 353.4854 L633.5384 374.1282 L645.9954 376.7348 L652.2089 375.5201 L653.4368 372.782 L640.8011 366.7045 L634.0629 359.0349 L635.6654 356.7474 M671.9779 243.0753 L671.9115 242.3168 L670.7468 241.9502 L671.9779 243.0753 M671.3063 241.7874 L671.3947 241.4943 L670.5335 241.4353 L671.3063 241.7874 M649.9666 129.0348 L647.2647 127.0038 L641.7998 133.4057 L642.8397 134.5243 L640.9339 140.8455 L633.9413 145.548 L635.1533 147.6987 L633.8354 156.4706 L635.5215 159.0817 L632.5428 160.3925 L627.7383 168.6241 L625.5991 174.5054 L626.7353 180.2989 L622.7452 186.8979 L625.2152 200.2375 L627.0609 201.657 L626.8444 207.5072 L622.5493 214.5151 L623.3639 220.7371 L619.0348 225.7341 L621.0891 238.1447 L617.8054 240.7138 L616.1319 245.5932 L614.6812 254.1413 L615.9581 264.4881 L613.6493 265.9641 L613.6209 271.5352 L615.9201 272.9289 L615.2248 282.2555 L619.4741 283.5948 L618.4833 285.6791 L613.9528 285.432 L618.3948 289.6492 L615.6484 292.5336 L616.2805 300.9965 L614.7397 302.1288 L615.1474 305.5176 L612.3503 307.6026 L611.3485 311.4179 L612.766 315.0026 L611.1905 318.9792 L605.391 325.3627 L607.7661 336.1517 L612.7265 335.2211 L612.1213 343.0446 L614.9088 347.4762 L625.7872 347.4813 L634.6424 351.0203 L631.5345 344.0615 L627.9743 344.0717 L631.6484 343.5959 L630.4221 338.1096 L629.1405 339.0794 L631.8017 332.8799 L635.049 330.7315 L631.4034 329.5373 L637.7402 329.3062 L639.548 320.9679 L649.7438 311.767 L647.1474 310.8994 L649.2618 310.0335 L649.788 305.2478 L643.8858 303.5952 L639.9652 299.1737 L639.5201 295.4023 L643.132 289.3438 L650.7819 287.4151 L650.2873 285.0115 L652.8031 281.7892 L652.3875 276.571 L658.2328 271.4012 L654.4466 268.8758 L657.6466 267.7125 L659.4165 270.6112 L662.2973 268.5472 L661.3507 264.4413 L657.34 267.1725 L654.1447 264.454 L653.4574 255.0054 L661.2432 257.4032 L669.0702 255.4129 L670.2428 253.3682 L668.5045 250.8986 L670.9033 245.0112 L669.7118 243.7572 L671.1751 244.072 L669.1192 239.825 L676.4405 241.2666 L692.3314 237.5407 L696.4812 234.9892 L701.6501 226.1489 L701.2029 222.0227 L697.5905 219.518 L698.6619 215.0222 L691.3722 209.604 L691.8605 206.2718 L691.0182 202.5831 L691.6156 199.7242 L693.2069 199.4168 L692.911 195.3491 L695.1458 183.9798 L696.2745 180.2619 L706.7575 167.4945 L717.8935 160.4476 L717.5775 151.2499 L713.3928 150.5691 L712.8273 156.0452 L706.9234 162.4337 L690.6048 161.6487 L696.4527 150.4192 L695.4319 148.074 L676.9335 139.549 L667.6266 129.8165 L666.6698 128.3307 L660.2461 128.3545 L658.0638 133.7264 L656.5515 129.6679 L653.1402 128.9308 L649.9666 129.0348" stroke-dasharray="" fill="#ffff00" fill-opacity="0.6" stroke="none" stroke-opacity="1.0" stroke-width="0.0px" stroke-linecap="butt" stroke-linejoin="miter" stroke-dashoffset="0.0px"/>
<path d="M653.1402 128.9308 L656.5515 129.6679 L658.0638 133.7264 L660.2461 128.3545 L666.6698 128.3307 L667.6266 129.8165 L672.7538 114.0146 L687.8103 112.2276 L693.1832 115.121 L693.1405 117.1793 L694.9049 116.033 L693.3554 114.597 L696.7688 105.3475 L695.5062 101.6958 L691.7831 99.6454 L692.1813 93.8822 L681.7549 93.7867 L679.4161 86.8995 L681.1938 86.8766 L679.9881 79.3192 L676.756 77.4804 L672.2339 77.7823 L665.1733 72.5563 L657.6687 71.4587 L654.2696 68.8182 L651.9877 64.5103 L652.0493 55.4349 L644.924 56.6425 L633.8364 63.581 L628.2329 62.6824 L633.3218 71.6887 L631.612 73.838 L632.3026 81.6172 L629.3823 85.1625 L630.6876 87.7738 L629.0662 89.9706 L632.4764 94.2411 L627.9458 99.4402 L628.6238 101.1721 L628.7155 101.9495 L631.0589 104.3599 L631.9912 110.4588 L634.6667 112.7184 L632.8493 118.6282 L636.0826 124.0462 L637.8587 133.4451 L641.7998 133.4057 L647.2647 127.0038 L649.9666 129.0348 L653.1402 128.9308" stroke-dasharray="" fill="#ffff00" fill-opacity="0.6" stroke="none" stroke-opacity="1.0" stroke-width="0.0px" stroke-linecap="butt" stroke-linejoin="miter" stroke-dashoffset="0.0px"/>
<path d="M747.8013 164.8862 L748.5535 162.1097 L747.9909 162.3785 L747.8013 164.8862 M747.6274 155.7487 L747.874 154.3247 L746.9069 155.2285 L747.6274 155.7487 M749.3262 150.0199 L749.4732 149.0927 L749.0386 149.5597 L749.3262 150.0199 M751.6286 147.1317 L753.1709 145.6054 L751.9763 146.3351 L751.6286 147.1317 M760.7024 140.6432 L760.4701 140.2748 L759.9423 140.401 L760.7024 140.6432 M767.2809 139.5991 L767.4026 139.5059 L767.2241 139.4523 L767.2809 139.5991 M766.7437 139.3383 L765.489 140.2679 L766.7579 140.4356 L766.7437 139.3383 M773.1832 135.5859 L772.3883 134.9467 L771.5887 135.5722 L773.1832 135.5859 M854.2436 119.1713 L854.174 119.1392 L854.193 119.1983 L854.2436 119.1713 M851.6535 119.2286 L851.4323 119.0852 L851.516 119.3147 L851.6535 119.2286 M802.6359 78.5465 L802.6295 78.0327 L802.1791 78.0652 L802.6359 78.5465 M802.492 77.8863 L802.6564 76.8512 L801.9137 76.9227 L801.8994 77.2996 L802.3356 77.5139 L802.2218 77.8863 L802.492 77.8863 M803.5287 75.2586 L804.4563 74.5254 L804.1624 73.9693 L803.5287 75.2586 M812.7573 63.7161 L813.3009 62.6905 L812.6783 63.5953 L812.7573 63.7161 M825.6063 40.342 L825.6474 40.2003 L825.521 40.3341 L825.6063 40.342 M825.7185 39.9519 L825.6869 39.8898 L825.6679 40.0013 L825.7185 39.9519 M839.3908 22.1104 L839.7558 21.8633 L839.5425 21.895 L839.3908 22.1104 M770.2171 17.1204 L770.2092 16.432 L769.9563 16.9241 L770.2171 17.1204 M770.353 17.3736 L770.9361 15.4226 L770.4035 15.9463 L770.353 17.3736 M784.7775 15.7169 L784.6716 15.285 L784.0174 15.2375 L784.7775 15.7169 M775.4335 13.2414 L775.8775 12.8745 L775.1727 13.3742 L775.4335 13.2414 M734.641 10.8725 L733.0228 10.4045 L733.9346 11.3437 L734.641 10.8725 M745.1069 10.4077 L744.9284 9.7927 L744.3516 10.5721 L745.1069 10.4077 M745.4657 10.218 L745.7975 8.9738 L744.9821 9.7026 L745.4657 10.218 M769.9753 9.2394 L769.6324 8.8821 L769.2326 9.2125 L769.2579 9.4907 L769.9216 9.4559 L769.9753 9.2394 M728.0371 8.9912 L728.6645 8.6276 L728.0102 8.1913 L727.0352 9.369 L728.0371 8.9912 M725.7979 8.6908 L727.2185 8.0127 L725.7252 8.343 L725.7979 8.6908 M747.3288 8.4474 L747.1929 7.8277 L746.9701 8.245 L747.3288 8.4474 M747.9419 8.6766 L747.7855 7.7724 L747.5626 8.2055 L747.9419 8.6766 M768.0711 7.9763 L768.6763 7.2998 L768.139 7.1781 L768.0711 7.9763 M764.3923 7.6602 L764.4334 6.4115 L764.0778 7.7424 L764.3923 7.6602 M748.9975 6.8999 L749.0987 6.127 L748.5882 6.1159 L748.2848 6.6154 L748.9975 6.8999 M759.473 5.8045 L759.808 5.7255 L759.7132 5.0554 L759.1917 5.5311 L759.277 5.7887 L759.473 5.8045 M733.9393 4.929 L732.8284 6.2107 L733.4682 5.9042 L733.756 5.6418 L733.7949 5.2312 L734.317 4.9479 L733.9393 4.929 M731.7317 6.9046 L732.5045 6.5079 L732.7115 4.7883 L732.4507 5.8298 L731.7981 6.4257 L731.5895 6.8382 L731.7317 6.9046 M734.3202 4.8073 L734.7611 4.1404 L734.3059 4.1483 L734.3202 4.8073 M751.3031 4.1372 L751.6381 3.829 L751.3173 3.622 L751.0992 3.8685 L751.2083 4.1641 L751.3031 4.1372 M752.8217 4.0345 L752.9971 3.5319 L752.8375 3.2633 L752.5325 3.6441 L752.6589 4.0661 L752.8217 4.0345 M733.116 5.4584 L734.9144 3.2554 L733.4668 3.9507 L733.116 5.4584 M733.5759 3.75 L733.7228 3.189 L733.3072 3.6062 L733.5759 3.75 M728.7388 8.4015 L731.117 7.0564 L732.3212 5.7698 L733.0228 3.8101 L732.7305 3.0104 L731.6938 3.08 L730.398 4.1751 L730.0993 6.1633 L728.832 6.707 L728.4496 8.1407 L728.7388 8.4015 M731.5721 3.0768 L732.5045 2.5853 L731.5263 2.8429 L731.5721 3.0768 M734.1021 3.2285 L735.1356 2.1839 L734.5588 2.1918 L734.1021 3.2285 M733.2535 3.072 L734.1701 2.0133 L733.6691 1.6103 L733.2535 3.072 M734.3944 1.9105 L734.5003 1.6577 L733.7244 1.4159 L734.3944 1.9105 M741.1863 1.2958 L735.8135 1.5882 L735.0218 5.5295 L736.4266 6.0827 L735.1119 6.5537 L734.9839 8.196 L736.2671 10.2464 L744.2979 9.1824 L747.3651 6.0558 L748.811 1.645 L741.1863 1.2958 M734.9855 2.0417 L735.2952 1.2895 L734.3897 2.0385 L734.9855 2.0417 M731.7017 2.7576 L733.0844 1.6229 L733.2804 0.6906 L731.7017 2.7576 M736.3872 0.3556 L733.7118 1.2753 L734.6757 1.6103 L736.3872 0.3556 M734.426 0.2702 L735.5875 -0.1359 L734.8353 -0.3461 L734.426 0.2702 M742.2546 0.7648 L742.3905 -0.4014 L740.3947 0.3666 L742.2546 0.7648 M736.9639 0.1296 L736.9102 -0.8344 L735.8957 -0.9734 L736.9639 0.1296 M741.6257 -1.2942 L737.3227 -0.6226 L739.6424 0.4109 L741.6257 -1.2942 M738.1728 -1.3053 L739.0799 -1.8205 L738.5078 -1.8442 L738.1728 -1.3053 M737.1868 -1.1994 L737.4285 -3.5351 L736.5041 -1.2863 L737.1868 -1.1994 M738.2044 -1.9959 L739.1937 -3.6757 L737.803 -2.8808 L738.2044 -1.9959 M739.5145 -5.0159 L738.4146 -5.0017 L738.0322 -4.2763 L739.5145 -5.0159 M739.3422 -5.0317 L739.3153 -5.223 L739.0214 -5.2388 L739.3422 -5.0317 M739.5018 -5.3209 L739.8526 -5.999 L739.132 -5.5817 L739.5018 -5.3209 M737.299 -10.705 L737.5296 -12.0458 L736.6826 -11.5224 L737.299 -10.705 M736.8517 -12.0616 L737.2484 -12.4823 L736.6131 -12.536 L736.8517 -12.0616 M682.1072 -29.7213 L678.5117 -29.6503 L679.3687 -28.1761 L677.0631 -25.7437 L667.0459 -22.9594 L666.3111 -20.2671 L663.6484 -22.5523 L659.8099 -22.1246 L655.3868 -24.379 L658.8239 -20.4618 L659.655 -14.1271 L663.5457 -13.7665 L663.3639 -12.2419 L651.2703 -3.6963 L650.8673 -5.6275 L646.7587 -4.27 L643.5733 -6.9503 L642.4082 -6.6754 L640.4313 -12.1992 L637.6406 -9.9302 L636.0383 -11.252 L636.2848 -9.8101 L626.6533 -9.732 L626.6753 -6.1001 L629.9306 -5.9073 L630.7571 -3.6694 L625.5265 -3.3612 L625.4475 0.896 L628.0106 2.944 L629.3159 7.6127 L626.0228 24.1251 L621.421 23.609 L609.5533 29.1929 L608.0062 36.7552 L604.4776 39.2164 L602.9622 43.0265 L608.9149 51.3159 L607.5432 53.7587 L612.3156 54.2618 L613.5814 57.2072 L618.3885 57.1591 L622.8499 53.8785 L622.1859 63.0189 L628.2329 62.6824 L633.8364 63.581 L644.924 56.6425 L652.0493 55.4349 L651.9877 64.5103 L654.2696 68.8182 L657.6687 71.4587 L665.1733 72.5563 L672.2339 77.7823 L676.756 77.4804 L679.9881 79.3192 L681.1938 86.8766 L679.4161 86.8995 L681.7549 93.7867 L692.1813 93.8822 L691.7831 99.6454 L695.5062 101.6958 L696.7687 105.3475 L693.3554 114.597 L694.9049 116.033 L693.1405 117.1793 L695.1001 122.064 L694.1292 128.913 L706.2771 130.1237 L708.7692 140.4391 L714.4833 140.1918 L714.9195 144.953 L713.3928 150.5691 L717.5775 151.2499 L717.8935 160.4476 L706.7575 167.4945 L696.2745 180.2619 L700.8063 179.7379 L705.3715 186.1784 L707.8005 184.6263 L717.4842 192.1047 L721.9595 197.2357 L719.5148 200.0695 L720.3595 204.1117 L724.5558 199.945 L728.3753 187.9055 L732.3243 184.2932 L732.2643 179.1117 L734.2743 181.8071 L736.0916 180.2989 L736.3287 182.0564 L732.4365 188.7868 L727.6863 191.1387 L727.7653 193.4903 L735.292 186.1871 L740.9635 174.9187 L746.526 169.409 L748.1726 160.9734 L746.368 153.6911 L747.6227 154.4057 L746.5497 152.5064 L748.8774 150.5891 L746.8452 149.6331 L750.1859 148.6732 L749.7465 149.8659 L750.7848 147.0567 L760.1335 139.8911 L765.6201 139.6578 L770.4051 136.7109 L769.92 134.8042 L778.1357 134.4882 L778.9464 132.4598 L778.8547 134.2273 L784.8707 134.0077 L786.4146 130.4756 L790.9167 128.2761 L790.9799 123.6732 L797.5743 113.9391 L798.4719 105.464 L801.389 102.238 L800.9576 99.04 L802.8618 91.4844 L801.7525 84.2295 L802.5852 79.954 L801.9121 81.4803 L802.3435 78.5823 L801.6766 77.7449 L801.8125 76.8041 L802.3798 76.8188 L803.6962 73.8655 L802.6959 72.8803 L803.8874 72.1353 L805.0425 74.7152 L807.5868 72.4575 L812.6388 61.5095 L813.3879 62.594 L816.9624 60.0271 L823.2233 52.4489 L826.0219 43.5415 L822.5138 29.707 L812.5187 28.0159 L796.4618 16.1994 L789.3443 17.2087 L777.4009 13.4628 L771.7562 16.1077 L773.3286 13.6905 L771.6582 14.3786 L771.2964 16.6757 L769.2152 18.7695 L770.3766 14.551 L771.6409 13.3094 L769.9547 13.2651 L770.8981 11.271 L770.6232 10.4251 L769.7351 10.3429 L769.1425 9.701 L769.0208 8.9801 L768.2765 9.1129 L768.7948 8.1091 L766.0231 9.9018 L766.1416 7.4721 L765.3704 8.7936 L765.4574 7.4578 L764.0399 7.7961 L763.8155 6.7134 L763.1533 7.2365 L762.4549 6.1159 L762.0646 6.8856 L760.8336 6.7339 L761.2191 5.4474 L759.7606 5.9341 L759.2628 5.8725 L759.1379 5.6844 L758.874 5.8567 L757.6367 4.055 L756.9003 5.166 L756.8798 4.0076 L754.1681 3.3138 L754.3814 4.624 L753.536 3.622 L752.4867 4.3126 L752.3587 3.6141 L751.1783 4.4106 L750.5888 4.044 L749.2709 5.3762 L749.0465 7.4436 L748.2074 7.4072 L748.0715 8.2972 L749.884 8.3747 L748.5803 8.5311 L748.4839 9.4544 L746.9669 8.3588 L742.4569 14.5969 L743.5962 9.72 L735.6987 10.3011 L735.537 12.6357 L733.9583 11.7564 L734.7421 14.2758 L732.1173 10.0346 L731.2956 12.9377 L731.9498 9.3706 L735.7787 10.0583 L734.9096 8.1913 L734.6726 5.1976 L733.9109 5.264 L733.8145 5.4 L733.9077 5.6813 L732.4033 6.9315 L726.9918 9.6274 L724.1228 9.1224 L726.8551 7.6538 L727.7937 8.079 L728.5855 7.6112 L728.6329 6.6359 L729.8133 5.8409 L729.8844 4.281 L732.3954 0.8123 L740.1023 -6.658 L738.8618 -6.9078 L739.9538 -9.7184 L737.0224 -10.3887 L735.6887 -12.3178 L733.3625 -22.2704 L730.8089 -25.0066 L731.3193 -22.6172 L729.9751 -22.9689 L723.0024 -12.4949 L713.3651 -13.2542 L705.6166 -14.4134 L705.9674 -10.7714 L702.7448 -11.0642 L697.886 -11.2394 L689.4538 -6.745 L684.6988 -9.8496 L682.7267 -15.3293 L685.1208 -22.2007 L684.5108 -24.9923 L681.8275 -25.7262 L682.1072 -29.7213" stroke-dasharray="" fill="#ffff00" fill-opacity="0.6" stroke="none" stroke-opacity="1.0" stroke-width="0.0px" stroke-linecap="butt" stroke-linejoin="miter" stroke-dashoffset="0.0px"/>
<path d="M640.0395 384.5324 L637.9661 384.735 L639.3631 385.2731 L640.0395 384.5324 M641.6339 385.1857 L641.4396 384.5211 L640.4898 384.5634 L641.6339 385.1857 M642.3593 385.4281 L642.2424 384.2568 L641.8678 384.9884 L642.3593 385.4281 M641.8931 384.0993 L641.8552 383.8296 L641.4712 384.1387 L641.8931 384.0993 M641.3194 383.4422 L640.8154 381.9635 L639.6792 383.3497 L641.3194 383.4422 M638.6994 382.4643 L639.4895 381.6199 L638.9301 381.2291 L638.6994 382.4643 M627.5381 380.3345 L627.8399 380.034 L627.1162 379.5864 L627.5381 380.3345 M625.8615 379.8505 L626.1064 379.081 L625.174 379.1671 L625.8615 379.8505 M643.5571 379.5309 L643.535 378.4987 L642.4256 378.97 L643.5571 379.5309 M645.2827 379.0561 L646.1408 378.158 L644.9714 378.2078 L645.2827 379.0561 M643.8873 377.4002 L643.6282 376.4838 L642.4335 376.2496 L643.8873 377.4002 M634.899 375.82 L625.5881 377.7762 L630.4758 381.3351 L629.0204 377.8315 L632.5839 378.0971 L631.8127 380.808 L636.8505 383.3524 L636.2484 380.1953 L632.9173 378.9201 L635.9577 378.8591 L631.119 376.79 L634.899 375.82 M638.4039 375.4238 L635.0822 375.6714 L636.6135 378.579 L642.5394 377.577 L638.4039 375.4238 M622.8835 375.9251 L624.0047 375.2781 L619.9988 375.8915 L624.2734 377.3753 L621.6011 376.3736 L622.8835 375.9251 M627.1305 376.6051 L630.5201 375.809 L626.1649 375.2232 L627.1305 376.6051 M619.4805 374.9539 L617.4909 375.083 L620.5882 375.4733 L619.4805 374.9539 M622.3122 375.2781 L623.5385 374.9512 L621.5364 374.9787 L622.3122 375.2781 M614.2799 372.6154 L613.8232 372.8285 L614.7918 373.6981 L614.2799 372.6154 M612.6459 370.0138 L611.3248 369.7426 L611.7641 370.6083 L612.6459 370.0138 M624.1769 369.1007 L624.5325 368.6246 L622.8701 367.9845 L624.1769 369.1007 M618.624 367.1622 L616.1098 367.9872 L619.4267 370.1657 L620.0335 367.4208 L618.624 367.1622 M612.5668 368.9302 L613.2227 367.8631 L612.6838 367.1191 L611.4923 368.3922 L612.5668 368.9302 M607.6065 367.6742 L607.3078 366.7718 L606.0341 367.1299 L607.6065 367.6742 M616.271 365.8821 L612.9351 365.8553 L615.2722 369.7264 L614.6639 366.6131 L616.271 365.8821 M623.2635 365.0775 L622.7373 362.1966 L620.7794 366.9171 L622.7943 368.6436 L621.9409 365.7157 L623.2635 365.0775 M603.9782 362.4787 L604.8 361.8216 L603.8345 361.1683 L603.9782 362.4787 M609.2168 360.9401 L605.3673 364.0659 L607.2889 363.6011 L607.9573 366.5378 L610.2345 364.8766 L609.4459 367.7498 L613.6067 364.5099 L609.5991 361.2134 L609.4032 363.3582 L609.2168 360.9401 M606.072 361.3753 L604.1489 360.9375 L605.8966 362.327 L606.072 361.3753 M601.9318 360.0102 L602.684 359.1643 L601.6363 359.7034 L601.9318 360.0102 M606.3612 355.7144 L604.4318 355.8532 L606.4861 356.422 L606.3612 355.7144 M621.6485 355.8558 L622.257 355.1754 L621.3357 355.7066 L621.6485 355.8558 M600.971 356.3774 L608.199 360.2273 L598.7839 354.5665 L600.971 356.3774 M620.5597 373.3424 L633.497 375.1187 L633.5367 374.2903 L633.5384 374.1282 L633.6422 353.4854 L629.0741 351.7692 L626.2486 355.2172 L623.3615 354.7206 L625.2104 355.9553 L623.2493 356.9811 L623.2367 360.3544 L629.4391 360.1928 L624.7285 364.6249 L631.5141 370.6273 L630.4569 372.0861 L629.3253 373.1263 L630.095 370.7686 L626.5789 369.1738 L627.0862 371.8571 L625.4633 368.8436 L624.6352 369.496 L624.9655 370.592 L620.77 367.7228 L625.0334 371.7727 L614.3826 370.9371 L620.5597 373.3424 L620.8268 373.1236 L621.3894 373.0717 L620.5597 373.3424 M604.1173 354.0185 L604.4886 351.2612 L602.5797 353.159 L604.1173 354.0185 M598.8155 350.4538 L599.4951 349.4391 L598.3542 349.6403 L598.8155 350.4538 M604.1141 351.2016 L604.2216 349.9629 L602.4944 349.0139 L604.1141 351.2016 M601.9176 348.7795 L600.6407 348.8078 L603.3919 350.6426 L601.9176 348.7795 M598.6844 349.2587 L599.631 348.1955 L598.5549 348.6379 L598.6844 349.2587 M600.971 348.2289 L601.0074 348.0335 L600.7135 347.9513 L600.971 348.2289 M598.942 348.3215 L600.2472 347.1197 L599.8822 346.8453 L598.942 348.3215 M604.7589 349.7538 L604.3417 348.1466 L602.4801 346.8018 L604.7589 349.7538 M598.1092 348.8026 L599.6136 346.044 L598.7729 345.9826 L598.1092 348.8026 M596.8228 346.6071 L597.4898 344.9687 L596.9303 345.1217 L596.8228 346.6071 M602.1989 347.0658 L602.4976 346.3613 L600.1477 344.8819 L602.1989 347.0658 M604.1789 345.8471 L604.1979 345.0146 L603.3635 344.4129 L604.1789 345.8471 M598.5786 345.8701 L597.7173 344.2346 L597.5056 348.607 L598.5786 345.8701 M602.7093 343.4103 L601.6679 344.7646 L603.3635 345.5405 L602.7093 343.4103 M597.3317 341.9668 L596.1655 341.0888 L595.5681 344.148 L597.3317 341.9668 M602.3522 342.504 L602.0488 340.9675 L601.5352 341.1015 L602.3522 342.504 M604.2658 341.7465 L604.2089 340.7427 L603.5089 341.0964 L604.2658 341.7465 M602.7615 341.8174 L603.2039 340.5887 L602.4691 340.4221 L602.7615 341.8174 M599.9723 340.9069 L598.5058 340.2733 L597.2132 342.6309 L599.9723 340.9069 M597.3586 339.9808 L598.1456 339.6004 L597.6747 339.2681 L597.3586 339.9808 M600.6803 340.2632 L600.3674 338.6319 L599.5915 339.0769 L600.6803 340.2632 M601.5241 340.6215 L601.9334 340.1472 L601.1891 337.6506 L601.5241 340.6215 M600.7656 337.117 L597.5339 338.0669 L598.923 339.3888 L600.2789 338.3556 L600.715 339.1876 L600.7656 337.117 M599.1016 337.39 L598.7618 335.69 L597.5909 335.952 L599.1016 337.39 M597.3681 336.6967 L597.4486 335.3533 L596.9303 335.2436 L597.3681 336.6967 M599.3165 334.6732 L599.7131 334.1682 L599.1206 334.0737 L599.3165 334.6732 M596.785 334.0266 L594.4035 335.3408 L595.6898 336.4441 L596.785 334.0266 M600.9521 333.8029 L599.2106 333.6961 L600.6123 334.0911 L600.0924 335.9695 L601.9223 337.0069 L600.9521 333.8029 M598.8219 333.8799 L599.9296 332.8204 L598.7381 332.8824 L598.8219 333.8799 M597.0568 330.9116 L595.0593 329.7561 L596.5163 331.6178 L594.7243 332.6669 L598.5295 330.7562 L597.0568 330.9116 M595.5872 326.538 L593.9658 327.5231 L596.3441 328.5744 L595.5872 326.538 M594.5995 325.443 L594.5773 324.8638 L594.04 324.7203 L594.5995 325.443 M601.3487 325.56 L600.5428 324.3946 L600.636 326.1499 L601.3487 325.56 M597.7852 323.2372 L597.4898 320.9414 L595.9664 321.9766 L597.7852 323.2372 M595.7072 321.542 L595.2916 320.5463 L593.5991 322.5569 L595.7072 321.542 M595.7325 319.7188 L593.5976 320.142 L594.4889 321.074 L595.4986 320.2767 L595.8668 321.3827 L595.7325 319.7188 M596.3314 320.6691 L596.8655 319.7115 L595.5556 318.9407 L596.3314 320.6691 M597.4503 318.4444 L598.3257 317.7476 L597.3823 317.6376 L597.4503 318.4444 M595.7309 318.1929 L595.3532 317.5228 L593.6087 318.6649 L595.7309 318.1929 M596.6475 319.2312 L596.9272 317.5132 L595.9206 318.6937 L596.6475 319.2312 M595.4986 317.2527 L593.6324 316.2025 L593.9136 318.0085 L595.4986 317.2527 M600.6819 316.6151 L601.3044 316.15 L600.1904 315.4926 L600.6819 316.6151 M602.7424 315.895 L601.6062 315.2975 L602.6003 316.2811 L602.7424 315.895 M601.5178 316.0738 L601.2792 314.5297 L600.2252 315.081 L601.5178 316.0738 M600.6391 314.6841 L599.6104 313.3771 L599.966 314.9336 L600.6391 314.6841 M599.5615 315.9784 L598.8409 313.1332 L598.991 315.9641 L597.1705 316.3145 L599.5457 318.0492 L597.041 318.9264 L598.3162 321.5034 L597.7995 323.5959 L594.6532 323.5572 L597.2353 328.5425 L597.3049 325.0997 L599.345 323.7658 L597.7884 326.6357 L598.6354 329.9186 L600.674 327.0706 L599.5615 315.9784 M595.9711 314.392 L594.0195 312.8232 L595.9996 318.1761 L595.9711 314.392 M597.76 313.4126 L595.8715 312.7096 L597.082 315.8736 L597.76 313.4126 M598.4411 311.2198 L595.8162 312.3574 L598.0744 312.6741 L598.4411 311.2198 M603.452 311.1185 L600.184 311.432 L604.1615 311.1326 L603.452 311.1185 M596.5826 310.8028 L596.5685 309.5284 L595.6061 310.1628 L596.5826 310.8028 M597.5909 310.2451 L597.6098 309.5965 L596.905 309.4956 L597.5909 310.2451 M600.4321 305.1432 L601.2412 304.1887 L600.2678 304.3604 L600.4321 305.1432 M602.1436 305.1059 L603.1628 304.0611 L601.9776 303.8756 L602.1436 305.1059 M604.359 297.1321 L604.8237 296.0282 L603.5215 295.566 L604.359 297.1321 M604.8363 295.632 L604.2848 294.6226 L604.0493 295.3908 L604.8363 295.632 M598.9515 294.1891 L596.7533 294.3706 L596.8608 296.1262 L598.9515 294.1891 M604.7067 294.1142 L603.6812 294.2435 L603.4267 295.202 L604.7067 294.1142 M602.9368 294.727 L602.8025 293.2462 L602.4138 293.6698 L602.9368 294.727 M598.7397 293.013 L598.0776 292.1833 L598.0349 292.5404 L598.7397 293.013 M599.4935 293.4138 L599.9012 291.953 L599.1395 292.4364 L599.4935 293.4138 M603.0964 293.1511 L603.6132 292.303 L602.9543 291.628 L602.3964 292.0772 L603.0964 293.1511 M600.4132 293.595 L601.8275 292.4296 L600.8019 290.8683 L600.4132 293.595 M605.0385 293.4341 L604.7257 290.8683 L604.2627 292.7077 L605.0385 293.4341 M602.921 290.7805 L602.1989 291.9439 L604.0699 291.1274 L602.921 290.7805 M600.1524 291.6438 L600.5301 290.7062 L599.7795 291.5603 L600.1524 291.6438 M603.6084 290.7895 L604.0146 290.2944 L602.8847 290.5149 L603.6084 290.7895 M601.08 290.5621 L600.8194 289.6065 L600.0197 289.7458 L601.08 290.5621 M603.1549 289.4403 L602.0772 289.3034 L604.2563 289.9885 L603.1549 289.4403 M601.2649 289.7503 L601.483 289.0094 L600.7766 288.5274 L601.2649 289.7503 M603.8944 287.3055 L601.6806 288.5744 L604.5503 289.5773 L603.8944 287.3055 M603.1344 287.158 L602.0646 286.2117 L600.9363 287.3681 L603.1344 287.158 M602.8736 286.1337 L603.2624 285.5455 L601.9602 285.7771 L602.8736 286.1337 M604.1963 287.0017 L603.4899 285.5299 L603.4536 286.4169 L604.1963 287.0017 M596.9382 286.6846 L597.2022 286.0489 L596.698 285.5032 L596.9382 286.6846 M605.0069 286.0334 L605.2503 285.205 L604.4507 285.3274 L605.0069 286.0334 M600.8778 286.1538 L600.5791 285.0315 L600.0276 285.2117 L600.8778 286.1538 M601.8291 285.5522 L603.7428 284.7714 L600.6913 284.3514 L601.8291 285.5522 M600.4306 284.8269 L599.7321 284.236 L599.1901 284.6247 L600.4306 284.8269 M598.6006 284.7758 L598.8914 284.0584 L598.4474 283.6702 L598.6006 284.7758 M604.4697 285.225 L605.3562 284.9537 L604.7937 283.6325 L604.4697 285.225 M601.3424 283.8942 L602.2305 283.6813 L600.9267 283.5394 L601.3424 283.8942 M600.6755 283.3798 L601.7832 283.0232 L599.9076 283.0232 L600.6755 283.3798 M602.91 283.7301 L603.2529 283.1405 L602.2858 282.866 L602.91 283.7301 M603.9087 282.9944 L604.2247 282.6601 L603.5974 282.2555 L603.9087 282.9944 M610.2882 283.6702 L608.7221 282.2201 L606.0673 284.4314 L607.5322 285.6658 L606.3912 285.8417 L607.1166 286.8007 L607.9241 286.5842 L609.6877 284.8003 L608.8059 284.125 L609.7398 284.4003 L610.2882 283.6702 M604.792 282.7974 L604.9975 282.1051 L604.2279 282.3373 L604.792 282.7974 M603.4235 282.8638 L603.4156 282.1272 L602.4217 281.8665 L603.4235 282.8638 M607.3346 282.3881 L607.7503 282.2422 L607.2905 281.7715 L606.9854 282.1891 L607.3346 282.3881 M603.8929 281.988 L604.1473 281.4536 L603.1707 281.542 L603.8929 281.988 M604.6641 281.7185 L604.9248 281.2992 L604.3812 281.319 L604.6641 281.7185 M601.3629 281.7362 L601.1607 281.2595 L600.6249 281.3896 L601.3629 281.7362 M601.2017 280.8516 L601.5478 280.5695 L600.8288 280.5299 L601.2017 280.8516 M602.9558 281.5596 L602.6398 280.51 L602.3048 280.9529 L602.9558 281.5596 M603.8597 280.8582 L603.4647 280.0896 L602.9589 280.4307 L603.8597 280.8582 M601.3535 279.5596 L601.8576 279.4585 L601.2049 279.4431 L601.3535 279.5596 M605.0354 280.3471 L605.1018 279.3859 L604.5661 278.8238 L605.0354 280.3471 M607.8293 279.487 L607.8688 278.4246 L607.1782 278.6812 L607.8293 279.487 M603.8439 277.4586 L602.0409 278.3413 L604.359 278.464 L603.8439 277.4586 M599.3465 276.2522 L598.1155 275.8595 L598.5058 276.5295 L599.3465 276.2522 M605.312 268.5021 L605.1903 268.1329 L604.4365 268.4956 L605.312 268.5021 M606.3407 268.0256 L605.6628 266.7037 L604.9896 266.723 L606.3407 268.0256 M608.1074 266.1371 L608.3176 265.7441 L607.6318 265.6758 L608.1074 266.1371 M611.4812 264.9164 L611.5018 264.2134 L610.8902 264.4966 L611.4812 264.9164 M603.6748 262.3376 L600.7023 273.3626 L603.8234 274.5855 L605.9266 272.3571 L604.9911 270.9456 L605.8729 269.9171 L604.1583 268.4999 L604.0446 267.6482 L605.1951 267.7232 L604.8869 266.5262 L606.6141 265.6694 L605.8603 262.5497 L603.6748 262.3376 M608.621 262.7109 L608.2701 261.7612 L608.2006 262.5561 L608.621 262.7109 M564.6917 204.3771 L564.7059 203.7614 L564.4815 204.1205 L564.6917 204.3771 M575.872 203.3114 L575.213 203.0174 L574.6252 203.6152 L575.872 203.3114 M402.5379 160.4724 L401.6877 160.0482 L401.3558 160.8561 L402.5379 160.4724 M424.0703 156.1863 L423.9692 156.1387 L424.0529 156.2128 L424.0703 156.1863 M569.5573 155.4648 L569.6316 155.426 L569.4182 155.4612 L569.5573 155.4648 M568.4511 154.9236 L568.4306 154.8584 L568.3215 154.9218 L568.4511 154.9236 M628.7155 101.9495 L628.6238 101.1721 L626.0558 105.5804 L623.471 106.2142 L625.4743 124.8324 L622.2364 137.5582 L623.5528 137.9873 L623.2225 149.2553 L620.5961 163.6045 L617.1212 172.3145 L618.4516 178.3694 L616.0877 184.0688 L617.5715 196.6293 L607.6302 227.8412 L605.0512 228.3449 L607.4453 244.3419 L603.0506 255.9254 L603.7681 259.802 L605.9124 260.0931 L604.4428 261.8735 L607.5528 262.1617 L609.0145 259.8083 L611.1494 261.5156 L612.6364 259.4477 L612.4056 261.0946 L609.5107 263.0357 L611.7673 263.5264 L612.0027 267.2282 L609.5786 265.8957 L611.3564 268.0471 L609.5028 268.165 L610.1602 271.84 L608.049 274.8966 L609.5881 277.544 L607.0644 280.444 L610.9076 283.0608 L610.0417 285.3029 L607.9004 286.8364 L606.4829 287.1268 L606.1685 289.584 L609.694 290.6949 L605.7781 290.9584 L605.3704 293.5995 L607.6744 292.685 L604.9374 295.1816 L604.781 298.0213 L606.2901 296.01 L603.9261 300.2485 L603.0506 300.021 L604.3417 297.8863 L603.6891 296.557 L603.8534 298.2525 L602.7393 297.0042 L601.0832 297.5868 L600.2094 296.9609 L601.2491 297.4451 L602.5465 296.9266 L603.1675 296.1763 L602.221 293.8126 L600.9679 293.6924 L593.2515 301.379 L594.9834 303.1136 L593.6087 301.7088 L597.662 299.0177 L597.2543 301.5865 L601.5146 301.8795 L603.3951 303.9661 L600.0118 307.3315 L602.7883 308.8504 L598.803 309.6764 L603.3951 310.7864 L604.6198 308.0938 L607.4548 312.0951 L604.9896 311.267 L607.1514 312.8279 L605.5632 314.1807 L599.2991 312.2889 L602.9021 315.6164 L602.7567 316.7679 L600.7451 317.3411 L602.6761 318.4349 L600.4638 319.0463 L600.8951 324.3946 L603.9656 320.9245 L602.3869 324.8564 L604.6577 327.2883 L601.1717 326.145 L603.6764 330.0466 L600.903 329.3553 L603.7854 332.0405 L599.0763 331.2349 L603.678 334.2279 L601.355 333.7209 L602.7472 336.8192 L605.489 333.0014 L605.7038 335.8022 L601.5841 337.8411 L604.6625 339.822 L605.3088 344.003 L603.6242 341.7338 L603.5579 344.0411 L606.0847 344.6346 L605.609 348.0361 L607.0977 348.9495 L606.5114 344.3441 L607.3631 348.3472 L609.1424 346.2538 L607.1102 343.9291 L611.2095 345.5022 L607.3252 342.575 L611.7325 345.5711 L611.6076 350.4719 L609.2832 351.7744 L611.1542 350.4434 L610.4273 347.3607 L609.4964 349.9629 L608.7759 348.1492 L606.8479 349.5862 L604.5961 347.7432 L605.5948 352.5245 L604.7858 354.269 L609.3653 352.3063 L605.5095 354.914 L607.3742 355.8191 L606.1447 356.9233 L608.8201 357.4857 L608.6779 355.4841 L610.5583 353.6484 L609.2863 353.3359 L609.8536 352.5323 L617.3851 353.4088 L610.3071 354.4673 L608.9481 355.5155 L609.0698 357.8699 L610.6848 358.2517 L609.8884 358.5495 L610.383 359.64 L607.4721 359.0508 L612.1228 361.9998 L610.6785 359.9335 L613.327 358.6023 L611.2553 357.5672 L619.1186 355.0499 L615.5203 361.7712 L614.3589 362.2178 L615.1711 358.9611 L611.8178 360.6723 L618.4691 365.3267 L620.239 364.0659 L621.1602 354.3394 L629.9812 349.4262 L634.6424 351.0203 L625.7872 347.4813 L614.9088 347.4762 L612.1213 343.0446 L612.7265 335.2211 L607.7661 336.1517 L605.391 325.3627 L611.1905 318.9792 L612.766 315.0026 L611.3485 311.4179 L612.3503 307.6026 L615.1474 305.5176 L614.7397 302.1288 L616.2805 300.9965 L615.6484 292.5336 L618.3948 289.6492 L613.9528 285.432 L618.4833 285.6791 L619.4741 283.5948 L615.2248 282.2555 L615.9201 272.9289 L613.6209 271.5352 L613.6493 265.9641 L615.9581 264.4881 L614.6812 254.1413 L616.1319 245.5932 L617.8054 240.7138 L621.0891 238.1447 L619.0348 225.7341 L623.3639 220.7371 L622.5493 214.5151 L626.8444 207.5072 L627.0609 201.657 L625.2152 200.2375 L622.7452 186.8979 L626.7353 180.2989 L625.5991 174.5054 L627.7383 168.6241 L632.5428 160.3925 L635.5215 159.0817 L633.8354 156.4706 L635.1533 147.6987 L633.9413 145.548 L640.9339 140.8455 L642.8397 134.5243 L641.7998 133.4057 L637.8587 133.4451 L636.0826 124.0462 L632.8493 118.6282 L634.6667 112.7184 L631.9912 110.4588 L631.0589 104.3599 L628.7155 101.9495 M602.6271 295.4499 L602.6113 296.2013 L602.0866 296.5205 L602.6271 295.4499 M606.5193 354.4099 L606.4466 354.3394 L606.8448 354.029 L606.5193 354.4099" stroke-dasharray="" fill="#ffff00" fill-opacity="0.6" stroke="none" stroke-opacity="1.0" stroke-width="0.0px" stroke-linecap="butt" stroke-linejoin="miter" stroke-dashoffset="0.0px"/>
<path d="M579.576 -14.2315 L579.7451 -14.4514 L579.5397 -15.0414 L579.1905 -15.0271 L579.0404 -14.6697 L579.576 -14.2315 M580.3441 -14.4688 L580.4926 -14.5526 L580.5606 -14.9544 L580.3946 -15.092 L580.0075 -14.6997 L580.3441 -14.4688 M581.0773 -14.6443 L581.4786 -14.7551 L580.7155 -15.3309 L581.0773 -14.6443 M581.5766 -14.7472 L581.6905 -14.8816 L581.2464 -15.3878 L580.9224 -15.4638 L581.1784 -15.0256 L581.5766 -14.7472 M582.7192 -17.4685 L582.9372 -18.2677 L582.1851 -17.5065 L582.7192 -17.4685 M583.405 -23.197 L583.1443 -23.9385 L582.9088 -23.7278 L583.405 -23.197 M582.8661 -23.8767 L584.1366 -24.2095 L583.5314 -24.6833 L582.8661 -23.8767 M616.8826 -71.4117 L607.0929 -64.6795 L602.1404 -64.8874 L600.8003 -61.4773 L599.6531 -62.2592 L601.3803 -62.9803 L598.1252 -63.6932 L595.7989 -61.7975 L593.7524 -54.0262 L586.3632 -48.927 L587.3477 -45.1938 L583.8696 -49.5408 L584.7293 -45.2991 L582.6907 -42.9341 L581.7078 -44.0645 L580.894 -41.2339 L584.0213 -37.4455 L583.1664 -35.2877 L584.5854 -32.7741 L582.9278 -31.445 L583.9771 -29.8546 L583.7701 -24.7245 L584.5949 -24.257 L583.4856 -22.9356 L585.7927 -22.3052 L581.741 -14.8231 L581.447 -14.6111 L581.022 -14.57 L580.608 -15.1094 L580.5589 -14.5653 L580.3409 -14.3549 L579.5523 -14.1524 L578.759 -14.3359 L578.3119 -13.8661 L577.7603 -14.2805 L577.0508 -13.8234 L576.9434 -10.0646 L574.2743 -9.2646 L575.6602 -8.1802 L576.9007 -7.0722 L583.7969 -2.1887 L590.2617 -2.2503 L595.7072 0.6811 L598.6023 1.1615 L601.7295 5.8472 L605.5458 7.7993 L609.3826 14.2631 L616.1177 12.2166 L624.1374 14.2552 L625.3937 15.6821 L621.6581 21.518 L626.0228 24.1251 L629.3159 7.6127 L628.0106 2.944 L625.4475 0.896 L625.5265 -3.3612 L630.7571 -3.6694 L629.9306 -5.9073 L626.6753 -6.1001 L626.6533 -9.732 L636.2848 -9.8101 L636.0383 -11.252 L637.6406 -9.9302 L640.4313 -12.1992 L642.4082 -6.6754 L643.5733 -6.9503 L641.7493 -13.6146 L638.1321 -16.0776 L641.1915 -19.3393 L637.9536 -25.9608 L640.2591 -35.3004 L630.0713 -34.6615 L625.0998 -39.7832 L614.4 -40.0299 L611.7167 -42.7428 L612.5495 -46.2087 L609.9642 -51.8743 L606.5603 -52.3993 L611.5951 -63.6678 L613.209 -64.4153 L614.5295 -66.8241 L618.2416 -67.9169 L619.4299 -69.3595 L616.8826 -71.4117 M577.1646 -13.7491 L577.1172 -13.6953 L577.1361 -13.8471 L577.1709 -13.8424 L577.1646 -13.7491 M559.1593 -71.6286 L559.2841 -72.213 L559.1056 -71.9734 L559.1593 -71.6286 M561.1203 -76.4858 L561.1867 -76.8106 L560.9845 -76.5556 L561.1203 -76.4858" stroke-dasharray="" fill="#ffff00" fill-opacity="0.6" stroke="none" stroke-opacity="1.0" stroke-width="0.0px" stroke-linecap="butt" stroke-linejoin="miter" stroke-dashoffset="0.0px"/>
<path d="M125.7781 127.9694 L125.5995 127.6151 L125.3672 127.7616 L125.7781 127.9694 M115.2505 123.7851 L115.1858 123.4121 L114.7227 123.429 L115.2505 123.7851 M129.0443 117.3005 L129.0856 117.0564 L128.9545 116.9672 L129.0443 117.3005 M124.596 116.2589 L124.6892 116.0823 L124.4809 115.9982 L124.596 116.2589 M123.5656 115.0588 L123.4979 115.1529 L123.6622 115.173 L123.5656 115.0588 M126.813 115.2721 L126.783 114.7716 L126.6269 115.037 L126.813 115.2721 M119.8726 111.7537 L119.7401 111.5863 L119.7858 111.7638 L119.8726 111.7537 M114.9819 109.4679 L115.0054 109.1724 L114.8965 109.2926 L114.9819 109.4679 M95.7819 104.6624 L95.8309 104.4662 L95.7422 104.6025 L95.7819 104.6624 M82.9313 66.1466 L82.9771 66.0853 L82.8585 66.0837 L82.9313 66.1466 M80.6306 62.3188 L80.605 62.2528 L80.4962 62.2946 L80.6306 62.3188 M107.959 59.6736 L107.8123 59.4503 L107.8424 59.6061 L107.959 59.6736 M108.2278 59.4663 L108.2391 59.3651 L108.0177 59.2189 L108.2278 59.4663 M107.6085 57.4222 L107.6778 57.2265 L107.5736 57.2858 L107.6085 57.4222 M125.4873 51.3111 L125.108 51.1319 L125.3134 51.3079 L125.4873 51.3111" stroke-dasharray="" fill="#ffff00" fill-opacity="0.6" stroke="none" stroke-opacity="1.0" stroke-width="0.0px" stroke-linecap="butt" stroke-linejoin="miter" stroke-dashoffset="0.0px"/>
<path d="M567.789 17.2723 L569.4404 15.478 L567.7131 15.5033 L567.789 17.2723 M569.8069 15.0351 L569.7043 14.0369 L569.532 14.9496 L569.8069 15.0351 M514.1554 8.0032 L514.0005 7.6459 L513.4111 7.7424 L514.1554 8.0032 M509.5285 7.7107 L509.9187 7.2207 L509.2598 6.9362 L509.5285 7.7107 M511.7535 4.7725 L511.774 4.605 L511.5322 4.5576 L511.7535 4.7725 M515.1652 5.3288 L516.2176 3.9112 L514.108 5.2751 L515.1652 5.3288 M510.5177 4.2731 L510.9159 3.0879 L508.9549 3.3217 L510.5177 4.2731 M503.4729 2.8224 L503.631 1.4112 L502.5343 1.7983 L503.4729 2.8224 M508.8853 1.7351 L507.4868 0.8502 L507.0253 1.536 L508.8853 1.7351 M505.0658 0.0632 L502.8646 0.0284 L505.8528 3.3407 L504.1714 5.8409 L507.3872 4.1672 L505.0658 0.0632 M509.3879 -1.5155 L509.677 -1.86 L508.9707 -1.9722 L509.3879 -1.5155 M507.727 -3.1147 L507.4931 -3.7073 L507.4504 -3.2048 L507.727 -3.1147 M576.9007 -7.0722 L575.6602 -8.1802 L568.5491 -4.714 L568.5001 -0.3572 L566.0333 2.0907 L567.3829 3.5683 L563.7056 5.8662 L563.8257 13.205 L567.4303 15.5729 L570.2336 11.4323 L569.7659 13.5229 L570.4391 14.812 L569.1844 18.2044 L566.9523 19.2425 L568.0166 22.1139 L566.2309 22.6996 L566.2277 25.2777 L570.8815 25.2428 L574.2659 28.5328 L576.2331 26.1102 L578.3466 19.4834 L587.8862 14.6375 L594.1523 8.7287 L596.1041 5.4919 L593.7609 0.6193 L595.7072 0.6811 L590.2617 -2.2503 L583.7969 -2.1887 L576.9007 -7.0722 M575.0771 -7.05 L574.584 -7.2539 L575.1277 -7.7819 L575.0771 -7.05" stroke-dasharray="" fill="#ffff00" fill-opacity="0.6" stroke="none" stroke-opacity="1.0" stroke-width="0.0px" stroke-linecap="butt" stroke-linejoin="miter" stroke-dashoffset="0.0px"/>
<path d="M7.3514 120.2533 L7.2217 120.081 L7.1839 120.2026 L7.3514 120.2533 M10.175 115.2688 L10.2509 115.168 L10.1846 115.1109 L10.175 115.2688 M9.121 111.2399 L9.1101 110.9037 L8.9597 111.1947 L9.121 111.2399 M2046.7467 111.3018 L2046.7089 110.8685 L2046.5222 111.2583 L2046.7467 111.3018 M8.3137 111.2215 L8.045 110.81 L7.9818 111.0642 L8.3137 111.2215 M2039.4569 110.066 L2038.3682 109.7385 L2036.3439 110.917 L2039.4569 110.066 M6.049 110.0627 L5.9766 109.6801 L5.8753 109.9958 L6.049 110.0627 M1.2309 109.8037 L0.8818 109.66 L0.7458 110.158 L1.2309 109.8037 M2039.6262 109.5898 L2039.5898 109.2825 L2039.3337 109.4228 L2039.6262 109.5898 M8.5411 108.171 L8.6866 108.0259 L8.4953 107.9342 L8.5411 108.171 M2047.5036 107.9742 L2047.7944 107.3656 L2047.0753 107.5807 L2047.5036 107.9742 M2034.7068 107.664 L2034.5219 107.074 L2034.4554 107.3523 L2034.7068 107.664 M2037.3773 106.6275 L2037.417 106.2345 L2037.2446 106.5676 L2037.3773 106.6275 M6.9498 105.622 L7.1252 105.3325 L6.6639 105.2643 L6.9498 105.622 M2044.313 104.8519 L2043.8281 103.7451 L2043.7094 104.3449 L2044.313 104.8519 M5.6222 104.099 L5.7394 103.8331 L5.3 103.7235 L5.6222 104.099 M9.7451 103.9245 L9.987 103.6355 L9.3991 103.4943 L9.7451 103.9245 M2044.7113 103.2204 L2044.7066 102.915 L2044.5455 102.8502 L2044.7113 103.2204 M4.0248 102.8353 L3.8733 102.4985 L3.805 102.764 L4.0248 102.8353 M2041.2885 102.5897 L2041.1274 101.8632 L2040.876 102.452 L2041.2885 102.5897 M4.8811 101.0031 L4.8734 100.7297 L4.6712 100.7414 L4.8811 101.0031 M2038.2198 100.5624 L2033.8361 101.1969 L2032.6351 104.5975 L2040.4795 104.5959 L2038.2198 100.5624 M2031.5731 100.0343 L2031.7408 99.6371 L2031.5036 99.7761 L2031.5731 100.0343 M4.9571 99.8506 L4.9981 99.7017 L4.7627 99.6553 L4.9571 99.8506 M2044.5833 100.5111 L2044.7747 99.604 L2044.3431 99.7066 L2044.5833 100.5111 M6.1139 99.6934 L5.5748 99.073 L5.7694 100.0558 L6.1139 99.6934 M2032.433 98.8977 L2032.5325 98.4712 L2031.9413 99.1359 L2032.433 98.8977 M2038.5168 97.186 L2038.1991 96.9103 L2038.2276 97.1744 L2038.5168 97.186 M2047.7012 98.1787 L2048.0 96.8981 L2047.3312 97.949 L2047.7012 98.1787 M0.038 97.8961 L1.0177 96.8607 L0.7872 96.262 L0.038 97.8961 M2033.4536 97.1975 L2034.3069 96.3063 L2034.1189 96.2453 L2033.4536 97.1975 M2047.5984 96.1364 L2047.7028 95.8626 L2047.5259 95.9385 L2047.3425 96.1265 L2047.5116 96.1529 L2047.5984 96.1364 M2048.0 95.4167 L2048.0 95.1577 L2047.8924 95.3367 L2048.0 95.4167 M0.1356 95.401 L0.5892 94.783 L0.0648 95.0549 L0.1356 95.401 M2047.7611 93.3982 L2039.3464 96.8641 L2040.8729 98.2332 L2043.8233 96.3228 L2047.4436 96.7915 L2047.7264 96.6281 L2047.2681 96.1711 L2047.717 95.2691 L2047.6158 94.9593 L2045.0337 96.3855 L2047.7611 93.3982 M0.1771 93.2212 L0.3349 92.9886 L0.0 93.1449 L0.1771 93.2212 M2031.6127 71.7662 L2031.6109 71.593 L2031.0865 71.7241 L2031.6127 71.7662" stroke-dasharray="" fill="#ffff00" fill-opacity="0.6" stroke="none" stroke-opacity="1.0" stroke-width="0.0px" stroke-linecap="butt" stroke-linejoin="miter" stroke-dashoffset="0.0px"/>
<path d="M684.4207 349.7642 L684.465 349.1143 L684.0699 349.0886 L684.0257 350.0507 L684.4207 349.7642 M691.5697 348.3832 L691.584 347.4249 L691.0072 347.7406 L691.5697 348.3832 M675.7009 346.2666 L675.7546 345.6452 L675.1921 345.8982 L675.7009 346.2666 M676.7818 346.3101 L677.3159 345.6734 L676.1276 346.1208 L677.7299 346.6224 L676.7818 346.3101 M675.8637 344.7468 L675.2427 344.6882 L675.181 345.0605 L675.8637 344.7468 M687.1577 342.1036 L682.556 341.825 L681.9145 342.8719 L679.0131 341.6022 L681.7359 344.3976 L679.0352 344.9559 L681.6395 345.2928 L677.0868 348.0875 L680.5728 348.9881 L687.1577 342.1036 M690.0812 341.4302 L684.2706 348.6354 L686.3755 350.6969 L685.8003 348.8181 L688.1549 348.8464 L686.7073 347.5532 L690.364 348.1363 L688.6937 345.6887 L695.5725 344.6805 L693.2322 343.4129 L695.4003 343.2706 L694.5454 341.7921 L692.4547 342.1669 L692.7533 344.3339 L690.0812 341.4302 M683.0332 341.5592 L683.2008 341.1242 L682.5228 341.0762 L683.0332 341.5592 M682.0377 342.0554 L682.2795 341.1647 L680.9584 340.8362 L682.0377 342.0554 M685.4637 341.4377 L685.6296 340.7755 L683.7412 340.8211 L685.4637 341.4377" stroke-dasharray="" fill="#ffff00" fill-opacity="0.6" stroke="none" stroke-opacity="1.0" stroke-width="0.0px" stroke-linecap="butt" stroke-linejoin="miter" stroke-dashoffset="0.0px"/>
<path d="M207.7441 165.4851 L207.7359 165.3938 L207.5938 165.3331 L207.7441 165.4851 M203.0505 163.7382 L203.1755 163.3192 L202.9526 163.1641 L203.0505 163.7382 M183.8094 139.9741 L184.0434 139.7978 L183.6356 139.8721 L183.8094 139.9741 M173.6059 136.9949 L173.7545 136.7453 L173.367 136.8211 L173.6059 136.9949 M255.7045 135.5206 L255.8196 135.3934 L255.6411 135.4725 L255.7045 135.5206 M256.0823 135.3693 L256.3333 135.0378 L255.9115 135.2594 L256.0823 135.3693 M154.3964 132.3862 L154.5875 132.2492 L154.4786 132.0695 L154.3964 132.3862 M162.8981 131.5373 L162.9851 131.2055 L162.7715 130.9661 L162.8981 131.5373 M234.8674 130.0178 L234.7031 129.6047 L234.4012 129.702 L234.8674 130.0178 M224.0884 126.628 L223.7628 126.2402 L223.7517 126.5616 L224.0884 126.628 M199.3606 115.6973 L199.3481 115.5276 L199.3101 115.7326 L199.3606 115.6973 M166.9799 102.1103 L166.9957 101.9909 L166.8582 102.0075 L166.9799 102.1103 M175.1528 102.5366 L172.7573 101.4389 L175.3361 103.3549 L175.1528 102.5366 M171.528 101.5798 L171.8833 100.9567 L171.0236 101.0461 L171.528 101.5798 M173.3276 98.0101 L173.2597 97.9506 L173.2661 98.0134 L173.3276 98.0101 M173.1 97.982 L173.0212 97.9011 L172.9878 98.0432 L173.1 97.982 M164.9873 97.1166 L165.0092 96.7502 L164.75 96.8905 L164.9873 97.1166 M162.7003 97.4981 L162.2753 96.6182 L162.2661 97.5394 L162.7003 97.4981 M164.7597 96.7931 L164.9366 96.6446 L164.7642 96.3377 L164.7597 96.7931 M162.3703 96.2205 L162.4684 95.7802 L161.9498 95.7225 L162.3703 96.2205 M160.7189 95.3961 L160.7552 95.1373 L160.5639 95.0334 L160.7189 95.3961 M191.5116 93.2041 L191.5165 92.8981 L191.2351 92.8817 L191.5116 93.2041 M180.7061 91.3332 L180.4309 91.0507 L180.5351 91.3234 L180.7061 91.3332 M201.2618 90.742 L201.1951 90.5023 L201.1227 90.6846 L201.2618 90.742 M235.1974 60.3582 L235.4156 59.8712 L234.9762 59.672 L235.1974 60.3582 M232.633 57.0532 L232.9726 56.6842 L232.5286 56.6377 L232.633 57.0532 M233.499 55.6962 L232.2628 55.9111 L234.3283 55.7075 L233.499 55.6962 M227.1161 54.0086 L227.0656 53.2831 L226.7146 53.605 L227.1161 54.0086 M229.9306 50.684 L229.763 51.1607 L230.3762 50.9351 L229.9306 50.684 M227.4052 50.8424 L226.1347 50.2762 L226.4778 51.1479 L227.4052 50.8424 M223.5465 45.9135 L223.9271 45.4268 L223.5179 45.4618 L223.5465 45.9135 M224.2276 45.2225 L224.3523 45.0183 L224.1073 45.1635 L224.2276 45.2225" stroke-dasharray="" fill="#ffff00" fill-opacity="0.6" stroke="none" stroke-opacity="1.0" stroke-width="0.0px" stroke-linecap="butt" stroke-linejoin="miter" stroke-dashoffset="0.0px"/>
<path d="M160.5198 65.6709 L160.3444 65.242 L160.3809 65.5741 L160.5198 65.6709 M157.0622 57.7882 L157.0384 57.7336 L156.9752 57.7416 L157.0622 57.7882 M169.3915 56.9152 L169.412 56.7403 L169.3408 56.8254 L169.3915 56.9152 M169.3851 56.6938 L169.4198 56.6104 L169.3646 56.5494 L169.3851 56.6938 M137.2271 32.1373 L137.3517 32.0198 L136.9425 32.0166 L137.2271 32.1373 M44.4444 25.8071 L44.3939 25.5804 L44.1948 25.6517 L44.4444 25.8071 M49.8819 25.406 L49.8601 25.2729 L49.6953 25.3204 L49.8819 25.406 M142.5681 23.0339 L142.1306 23.121 L142.4703 23.3586 L142.5681 23.0339 M50.7559 17.8816 L50.7083 17.6948 L50.6896 17.8578 L50.7559 17.8816 M47.6285 16.1203 L47.0722 15.7802 L47.6366 16.3308 L47.6285 16.1203 M2030.0703 15.1917 L2029.9851 14.9892 L2029.6484 14.8405 L2030.0703 15.1917 M2025.0845 14.2552 L2025.042 14.1192 L2025.0182 14.26 L2025.0845 14.2552 M2022.8898 10.9231 L2022.9276 10.716 L2022.6717 10.365 L2022.8898 10.9231 M2022.5785 10.2765 L2022.5122 10.1152 L2022.3634 10.0694 L2022.5785 10.2765 M2019.7941 8.8331 L2019.8177 8.1628 L2019.5649 8.6971 L2019.7941 8.8331 M2018.8347 8.0111 L2018.7226 7.9605 L2018.7446 8.0142 L2018.8347 8.0111 M2027.888 8.166 L2027.6415 7.6712 L2027.4661 7.5353 L2027.888 8.166 M2024.9866 7.2776 L2024.8698 7.4104 L2025.3486 7.9052 L2024.9866 7.2776 M2018.2344 7.1449 L2018.2313 6.8683 L2017.942 6.4858 L2018.2344 7.1449 M2016.6524 4.6461 L2016.6872 4.3822 L2016.4722 3.7184 L2016.6524 4.6461 M2016.4771 3.7073 L2016.0995 3.3834 L2016.0123 3.3992 L2016.4771 3.7073 M2011.6936 -0.7601 L2011.771 -1.2326 L2011.6146 -1.2089 L2011.6936 -0.7601 M2010.5085 -1.1583 L2010.5986 -1.2247 L2010.4658 -1.3258 L2010.5085 -1.1583 M2010.3679 -1.389 L2010.3203 -1.5139 L2010.2903 -1.4238 L2010.3679 -1.389 M2013.4793 -1.6956 L2013.5221 -1.8252 L2013.4319 -1.7193 L2013.4793 -1.6956 M2012.9026 -2.5505 L2012.7571 -2.4526 L2013.4208 -2.1602 L2012.9026 -2.5505 M2008.3024 -5.7271 L2008.0717 -4.6745 L2008.6564 -5.4158 L2008.3024 -5.7271 M2007.8347 -7.6017 L2007.8568 -7.657 L2007.6894 -7.6602 L2007.8347 -7.6017 M2008.8981 -7.676 L2008.8554 -7.8135 L2008.7385 -7.6886 L2008.8981 -7.676 M2008.5316 -8.0237 L2008.3752 -8.2182 L2008.4036 -8.0664 L2008.5316 -8.0237 M2008.2503 -8.3778 L2008.1618 -8.5375 L2008.271 -8.3351 L2008.2503 -8.3778 M2008.0748 -8.7019 L2007.9231 -9.2125 L2007.9547 -8.8378 L2008.0748 -8.7019 M2007.5219 -10.4599 L2007.37 -10.5927 L2007.2342 -10.6037 L2007.5219 -10.4599 M2008.263 -9.7073 L2008.3325 -10.3618 L2007.7793 -11.0164 L2008.263 -9.7073 M2007.5615 -10.9816 L2007.5266 -11.0607 L2007.5106 -10.9974 L2007.5615 -10.9816 M2010.0486 -11.0401 L2010.1655 -11.1856 L2009.9476 -11.1413 L2010.0486 -11.0401 M2010.1292 -11.2821 L2010.0281 -11.4702 L2009.9618 -11.2315 L2010.1292 -11.2821 M128.3887 -11.5018 L127.5939 -10.5769 L129.8236 -9.7547 L128.3887 -11.5018 M2007.4396 -17.4416 L2006.7505 -17.2121 L2006.8977 -17.0871 L2007.4396 -17.4416 M2007.9974 -18.4909 L2008.0448 -18.7631 L2007.9358 -18.6777 L2007.9974 -18.4909 M117.5323 -22.3226 L117.1656 -21.9995 L117.921 -21.575 L117.5323 -22.3226 M111.5321 -26.6854 L111.6175 -26.8725 L111.4703 -26.9121 L111.5321 -26.6854" stroke-dasharray="" fill="#ffff00" fill-opacity="0.6" stroke="none" stroke-opacity="1.0" stroke-width="0.0px" stroke-linecap="butt" stroke-linejoin="miter" stroke-dashoffset="0.0px"/>
<path d="M57.4925 111.0023 L57.9271 109.9357 L57.2776 110.2265 L57.4925 111.0023" stroke-dasharray="" fill="#ffff00" fill-opacity="0.6" stroke="none" stroke-opacity="1.0" stroke-width="0.0px" stroke-linecap="butt" stroke-linejoin="miter" stroke-dashoffset="0.0px"/>
<path d="M113.6575 2.2645 L113.6766 2.1318 L113.5012 2.1823 L113.6575 2.2645 M20.1606 -1.2279 L20.1733 -1.2863 L20.0913 -1.2642 L20.1606 -1.2279 M19.159 -4.5117 L19.097 -4.624 L19.0892 -4.526 L19.159 -4.5117 M59.6052 -96.5505 L59.553 -96.5719 L59.4837 -96.5356 L59.6052 -96.5505 M1972.0326 -111.8089 L1971.9259 -112.081 L1971.8113 -111.9629 L1972.0326 -111.8089 M15.1641 -167.2882 L15.2604 -167.3312 L15.2366 -167.4137 L15.1641 -167.2882 M14.859 -167.238 L15.0299 -167.4496 L14.8493 -167.4083 L14.859 -167.238" stroke-dasharray="" fill="#ffff00" fill-opacity="0.6" stroke="none" stroke-opacity="1.0" stroke-width="0.0px" stroke-linecap="butt" stroke-linejoin="miter" stroke-dashoffset="0.0px"/>
<path d="M1986.4776 352.8806 L1986.5898 351.6135 L1985.4269 352.2284 L1986.4776 352.8806 M1968.9052 337.6807 L1969.6101 337.3599 L1967.9208 337.0795 L1968.9052 337.6807 M1968.3302 334.8078 L1968.376 334.7304 L1968.1816 334.8201 L1968.3302 334.8078 M1969.7825 336.8142 L1969.4899 334.1234 L1967.7123 336.6116 L1969.7825 336.8142 M1970.1868 333.9421 L1970.2437 333.8327 L1969.9767 333.9271 L1970.1868 333.9421 M2041.2665 326.9948 L2041.2585 326.0255 L2040.6911 326.6551 L2041.2665 326.9948 M1971.9519 312.433 L1971.8951 312.0479 L1971.5634 312.4212 L1971.9519 312.433 M2042.7486 309.3785 L2042.7076 309.2186 L2042.5906 309.3359 L2042.7486 309.3785 M1976.5189 305.7433 L1976.8144 305.4547 L1976.4715 305.5245 L1976.5189 305.7433 M1977.9458 301.9718 L1978.1339 301.7618 L1977.8196 301.6672 L1977.9458 301.9718 M1980.8252 302.8752 L1978.458 301.1715 L1976.9977 305.9576 L1980.8252 302.8752 M1972.4309 293.2892 L1972.3991 292.2601 L1971.2283 293.1058 L1972.4309 293.2892 M1974.1012 289.7862 L1973.8293 288.5183 L1973.4264 289.3011 L1974.1012 289.7862 M21.8326 281.8819 L22.0967 281.3941 L21.4139 281.1669 L21.8326 281.8819 M20.1828 277.2246 L17.9311 277.8241 L19.7165 278.282 L19.3106 280.2502 L20.1828 277.2246 M2016.1389 257.0254 L2015.7028 257.1513 L2015.9823 257.273 L2015.826 257.5333 L2014.9663 257.9071 L2015.9965 257.6845 L2016.1389 257.0254 M2012.762 255.6074 L2013.6611 253.9745 L2012.8615 254.3645 L2012.762 255.6074 M2007.3891 252.455 L2003.1082 255.2896 L2002.8585 259.2032 L1995.6288 270.6974 L1981.8665 279.6057 L1976.9299 287.2944 L1974.0269 288.4579 L1975.25 291.1228 L1973.0297 289.8694 L1972.3628 291.9281 L1974.2797 291.3348 L1972.7691 292.6465 L1973.9715 293.0289 L1971.1113 295.5182 L1985.4679 301.0103 L1995.5658 294.4046 L1994.2651 294.484 L1998.4701 282.0322 L2004.9066 277.2048 L2008.6991 278.1725 L2006.817 273.3279 L2015.5116 261.8248 L2014.1194 259.4983 L2015.7264 257.8336 L2015.0406 258.1867 L2014.0182 257.9345 L2015.709 256.1766 L2008.7781 258.519 L2008.2535 254.6212 L2006.226 253.5452 L2007.3891 252.455 M2030.9411 233.094 L2030.8193 232.9319 L2030.7325 233.044 L2030.9411 233.094 M2027.7394 231.5089 L2027.858 231.3113 L2027.787 231.1817 L2027.7394 231.5089 M2020.5003 225.6748 L2020.6583 224.9191 L2019.5696 225.3827 L2020.5003 225.6748 M2024.2613 224.2335 L2024.1207 223.8457 L2023.9375 223.8792 L2024.2613 224.2335 M2018.7811 223.0218 L2019.0276 222.9649 L2018.8158 222.5211 L2018.7811 223.0218 M2020.4056 221.2818 L2020.249 220.9803 L2020.0089 221.1937 L2020.4056 221.2818 M2022.6543 222.2306 L2021.6712 220.276 L2021.597 221.3954 L2022.6543 222.2306 M2008.399 208.8946 L2006.599 209.2971 L2008.6753 214.2616 L2010.3425 216.4708 L2011.9071 214.9719 L2010.4469 216.7913 L2014.3264 222.6663 L2013.3767 218.8643 L2016.741 221.4091 L2015.3946 222.1914 L2016.4439 224.3772 L2014.9347 223.2852 L2016.7252 227.124 L2018.9155 227.2784 L2016.9939 227.3815 L2019.4132 232.2259 L2017.2483 239.9507 L2012.4554 243.4141 L2020.4405 249.3821 L2020.2823 253.9974 L2017.234 258.2561 L2021.3932 260.8049 L2029.9898 250.0208 L2031.246 242.7958 L2036.1101 243.1814 L2039.8394 231.9622 L2036.7247 230.7949 L2031.8403 234.124 L2025.2127 231.4271 L2024.3387 225.1085 L2021.567 223.179 L2022.8502 228.6009 L2018.7273 225.7736 L2015.687 214.4105 L2010.7424 211.4582 L2009.7089 212.9286 L2008.399 208.8946 M2003.3832 207.083 L2003.5523 206.9359 L2003.2474 206.9416 L2003.3832 207.083 M7.9344 182.8746 L7.8932 182.8305 L7.8901 182.9149 L7.9344 182.8746 M12.2531 174.3242 L11.6481 173.9819 L11.8123 174.3641 L12.2531 174.3242" stroke-dasharray="" fill="#ffff00" fill-opacity="0.6" stroke="none" stroke-opacity="1.0" stroke-width="0.0px" stroke-linecap="butt" stroke-linejoin="miter" stroke-dashoffset="0.0px"/>
<path d="M714.9195 144.953 L714.4833 140.1918 L708.7692 140.4391 L706.2771 130.1237 L694.1292 128.913 L695.1 122.064 L693.1405 117.1793 L693.1832 115.121 L687.8103 112.2276 L672.7538 114.0146 L667.6266 129.8165 L676.9335 139.549 L695.4319 148.074 L696.4527 150.4192 L690.6048 161.6487 L706.9234 162.4337 L712.8273 156.0452 L713.3928 150.5691 L714.9195 144.953" stroke-dasharray="" fill="#ffff00" fill-opacity="0.6" stroke="none" stroke-opacity="1.0" stroke-width="0.0px" stroke-linecap="butt" stroke-linejoin="miter" stroke-dashoffset="0.0px"/>
<path d="M576.2331 26.1102 L574.2659 28.5328 L570.8815 25.2428 L566.2277 25.2777 L566.2309 22.6996 L568.0166 22.1139 L566.9523 19.2426 L561.5517 24.5423 L563.9316 32.2072 L562.206 34.6917 L568.9868 38.5719 L574.6362 46.9638 L582.2435 64.6602 L590.524 77.0429 L589.4036 79.8514 L592.0237 84.3128 L597.0631 89.0914 L617.2586 99.93 L623.471 106.2142 L626.0558 105.5804 L628.6238 101.1721 L627.9458 99.4402 L632.4764 94.2411 L629.0662 89.9706 L630.6876 87.7738 L629.3823 85.1625 L632.3026 81.6172 L631.612 73.838 L633.3218 71.6887 L628.2329 62.6824 L622.1859 63.0189 L622.8499 53.8785 L618.3885 57.1591 L613.5814 57.2072 L612.3156 54.2618 L607.5432 53.7587 L608.9149 51.3159 L602.9622 43.0265 L604.4776 39.2164 L608.0063 36.7552 L609.5533 29.1929 L621.421 23.609 L626.0228 24.1251 L621.6581 21.518 L625.3937 15.6821 L624.1374 14.2552 L616.1177 12.2166 L609.3826 14.2631 L605.5458 7.7993 L601.7295 5.8472 L598.6023 1.1615 L595.7072 0.6811 L593.7609 0.6193 L596.1041 5.4919 L594.1523 8.7287 L587.8862 14.6375 L578.3466 19.4834 L576.2331 26.1102" stroke-dasharray="" fill="#ffff00" fill-opacity="0.6" stroke="none" stroke-opacity="1.0" stroke-width="0.0px" stroke-linecap="butt" stroke-linejoin="miter" stroke-dashoffset="0.0px"/>
<path d="M49.9785 53.5873 L49.9217 53.4032 L49.9262 53.5953 L49.9785 53.5873 M46.4038 52.6074 L46.3424 52.3801 L46.3045 52.6026 L46.4038 52.6074 M42.7582 49.0357 L42.7599 48.9174 L42.6839 48.8439 L42.7582 49.0357" stroke-dasharray="" fill="#ffff00" fill-opacity="0.6" stroke="none" stroke-opacity="1.0" stroke-width="0.0px" stroke-linecap="butt" stroke-linejoin="miter" stroke-dashoffset="0.0px"/>
<path d="M28.9516 124.8386 L28.9483 124.1022 L28.5884 124.4669 L28.9516 124.8386 M27.6148 123.3206 L28.1757 123.0851 L26.3995 122.8395 L27.6148 123.3206 M29.805 117.8361 L29.8095 117.5986 L29.628 117.5834 L29.805 117.8361 M31.7785 115.7175 L31.9097 115.4452 L31.7295 115.6167 L31.7785 115.7175 M32.3208 115.084 L32.3365 114.7347 L32.1139 115.0236 L32.3208 115.084 M28.122 114.9564 L27.9797 114.3855 L27.8835 114.6474 L28.122 114.9564 M32.583 114.6659 L32.6762 114.2747 L32.3856 114.5936 L32.583 114.6659 M28.3401 114.2948 L28.4127 114.0599 L28.2405 114.2059 L28.3401 114.2948 M32.7425 114.0817 L32.4724 113.7092 L32.5293 113.9508 L32.7425 114.0817 M30.4528 109.1056 L30.5887 108.9803 L30.4368 108.8218 L30.2931 108.9503 L30.4528 109.1056 M33.784 108.3512 L33.7144 108.2094 L33.5769 108.3011 L33.784 108.3512 M34.021 108.4262 L34.0241 108.2894 L33.8868 108.2077 L34.021 108.4262 M33.6229 108.1677 L33.4745 108.151 L33.4049 108.3428 L33.6229 108.1677 M34.6422 107.9508 L34.4792 107.5357 L33.7318 107.9175 L34.6422 107.9508 M24.7766 90.0362 L24.9094 89.6326 L24.5536 89.8032 L24.7766 90.0362" stroke-dasharray="" fill="#ffff00" fill-opacity="0.6" stroke="none" stroke-opacity="1.0" stroke-width="0.0px" stroke-linecap="butt" stroke-linejoin="miter" stroke-dashoffset="0.0px"/>
<path d="M695.1458 183.9798 L692.911 195.3491 L693.7852 198.6236 L693.2116 199.7582 L691.9854 199.9714 L691.7531 205.4065 L694.9531 209.2933 L699.0633 209.0691 L703.6002 212.1708 L715.9751 210.5141 L720.3595 204.1117 L719.5148 200.0695 L721.9595 197.2357 L717.4842 192.1047 L707.8005 184.6263 L705.3715 186.1784 L700.8063 179.7379 L696.2745 180.2619 L695.1458 183.9798" stroke-dasharray="" fill="#ffff00" fill-opacity="0.6" stroke="none" stroke-opacity="1.0" stroke-width="0.0px" stroke-linecap="butt" stroke-linejoin="miter" stroke-dashoffset="0.0px"/>
<path d="M11.1359 82.3233 L10.3 81.8341 L10.5781 82.3053 L11.1359 82.3233 M21.8372 76.6596 L22.0667 76.1367 L21.8672 75.8461 L21.8372 76.6596" stroke-dasharray="" fill="#ffff00" fill-opacity="0.6" stroke="none" stroke-opacity="1.0" stroke-width="0.0px" stroke-linecap="butt" stroke-linejoin="miter" stroke-dashoffset="0.0px"/>
<path d="M48.7552 80.5647 L46.5222 79.3209 L45.1427 79.7131 L48.7552 80.5647 M43.8849 77.441 L41.0703 77.7157 L44.2927 79.3225 L43.8849 77.441" stroke-dasharray="" fill="#ffff00" fill-opacity="0.6" stroke="none" stroke-opacity="1.0" stroke-width="0.0px" stroke-linecap="butt" stroke-linejoin="miter" stroke-dashoffset="0.0px"/>
<path d="M284.0068 147.4631 L284.0747 147.3602 L283.833 147.3602 L284.0068 147.4631 M314.1356 144.9304 L314.183 144.8747 L314.0503 144.8695 L314.1356 144.9304 M294.1771 143.2661 L294.0934 142.77 L293.9054 142.763 L294.1771 143.2661" stroke-dasharray="" fill="#ffff00" fill-opacity="0.6" stroke="none" stroke-opacity="1.0" stroke-width="0.0px" stroke-linecap="butt" stroke-linejoin="miter" stroke-dashoffset="0.0px"/>
<path d="M967.7242 251.5807 L967.3829 250.9525 L966.9483 250.9732 L967.7242 251.5807 M954.5592 227.6588 L954.2574 227.2329 L953.8465 227.6232 L954.5592 227.6588 M991.7882 92.1549 L991.5496 91.6553 L991.0439 92.1943 L991.7882 92.1549 M942.2854 45.5432 L942.6884 45.3454 L942.1827 44.9912 L942.2854 45.5432" stroke-dasharray="" fill="#ffff00" fill-opacity="0.6" stroke="none" stroke-opacity="1.0" stroke-width="0.0px" stroke-linecap="butt" stroke-linejoin="miter" stroke-dashoffset="0.0px"/>
<path d="M868.5464 422.8003 L868.0533 422.8811 L868.7044 423.3133 L868.5464 422.8003 M872.7735 418.8258 L873.2381 418.4601 L872.3058 418.3373 L872.7735 418.8258 M874.6872 411.5629 L873.4767 411.7771 L874.673 412.5535 L874.6872 411.5629 M873.7406 405.108 L873.5668 404.4235 L873.1749 404.7137 L873.7406 405.108 M872.3295 397.4778 L872.2441 397.1639 L871.9423 397.2307 L872.3295 397.4778 M869.7821 393.6347 L869.6636 393.2692 L869.2069 393.3871 L869.7821 393.6347 M867.1921 389.5412 L867.2743 389.0657 L866.9867 389.1368 L867.1921 389.5412 M813.2915 371.4078 L812.909 371.0105 L813.0354 371.4186 L813.2915 371.4078 M810.6951 366.527 L807.6342 366.8983 L812.1489 367.8577 L811.1707 369.0303 L818.541 375.105 L820.4373 373.9035 L817.5612 369.0114 L810.6951 366.527" stroke-dasharray="" fill="#ffff00" fill-opacity="0.6" stroke="none" stroke-opacity="1.0" stroke-width="0.0px" stroke-linecap="butt" stroke-linejoin="miter" stroke-dashoffset="0.0px"/>
</g>
<g id="mask" inkscape:groupmode="layer" inkscape:label="mask">
<path d="M512.9584 255.5208 L768.4792 255.5208 L768.4792 -511.0416 L512.9584 -511.0416 L512.9584 255.5208" stroke-dasharray="" fill="#808080" fill-opacity="1.0" stroke="none" stroke-opacity="1.0" stroke-width="0.0px" stroke-linecap="butt" stroke-linejoin="miter" stroke-dashoffset="0.0px"/>
</g>
</svg>