<?xml version="1.0" standalone="no"?>
<!DOCTYPE svg PUBLIC "-//W3C//DTD SVG 1.1//EN" "http://www.w3.org/Graphics/SVG/1.1/DTD/svg11.dtd">
<svg width="1024px" height="1024px" version="1.1" xmlns="http://www.w3.org/2000/svg" xmlns:inkscape="http://www.inkscape.org/namespaces/inkscape">
<rect x="0" y="0" width="1024px" height="1024px" fill="#800080"/>
<g id="world" inkscape:groupmode="layer" inkscape:label="world">
<path d="M66.8492 96.7073 L66.9867 97.0011 L66.5236 95.4026 L66.8492 96.7073 M79.6302 33.33 L74.9732 33.3742 L69.6604 34.7568 L76.1821 47.8853 L73.8671 51.9159 L78.3565 61.1396 L78.464 67.5601 L71.1664 77.0835 L66.7386 91.3217 L67.1905 92.1878 L67.2474 95.2098 L66.8603 99.6791 L74.8689 97.8813 L79.6059 100.687 L104.9688 100.4836 L107.6101 103.0245 L118.637 104.2253 L132.4642 102.1103 L133.553 101.8914 L125.1564 93.2452 L125.1461 74.6227 L136.6503 74.6357 L136.4549 62.2152 L126.5999 64.1816 L126.9318 59.2864 L123.9641 53.7491 L123.9208 41.5318 L116.8994 41.5477 L117.3603 39.4281 L111.1549 39.9023 L110.2112 45.6374 L100.2619 46.2231 L96.3793 41.0603 L94.3202 33.6287 L79.6302 33.33 M74.4612 26.5538 L74.4755 26.3857 L72.6986 24.9929 L68.4153 28.5663 L69.4872 32.8722 L71.2628 32.6185 L71.484 28.6266 L74.4612 26.5538" stroke-dasharray="" fill="#ffff00" fill-opacity="0.6" stroke="none" stroke-opacity="1.0" stroke-width="0.0px" stroke-linecap="butt" stroke-linejoin="miter" stroke-dashoffset="0.0px"/>
<path d="M903.863 373.3697 L904.2913 371.0458 L903.5851 373.7474 L903.863 373.3697 M838.3302 274.5703 L837.9274 273.5058 L836.9665 274.7573 L838.3302 274.5703 M838.7111 273.4407 L838.3144 272.0368 L837.9274 272.7447 L838.7111 273.4407 M842.9257 268.8565 L842.0755 268.5021 L842.0361 269.5468 L842.9257 268.8565 M843.8517 266.5027 L843.771 266.1478 L843.2701 266.0644 L843.8517 266.5027 M825.5017 254.8091 L823.1899 254.3395 L823.0825 257.8378 L828.0287 266.3893 L826.0564 265.7185 L827.7158 271.1355 L831.9224 274.016 L830.7957 275.3538 L835.7928 276.2942 L838.0728 270.2726 L841.9285 273.2541 L841.0625 270.4494 L843.0016 263.3118 L844.0349 265.3962 L843.2259 255.0284 L833.912 257.5605 L825.5017 254.8091 M824.47 254.0641 L824.9804 253.8619 L824.4573 253.26 L824.47 254.0641 M843.0948 253.1017 L843.1832 252.4113 L842.5085 252.6504 L843.0948 253.1017 M823.4983 253.1205 L823.6356 251.7197 L823.2816 252.4259 L823.4983 253.1205 M824.5552 252.0893 L824.6028 251.5537 L823.9342 251.9003 L824.5552 252.0893 M843.9733 251.0187 L841.9189 251.8027 L844.6623 251.9771 L843.9733 251.0187 M842.9651 250.5817 L843.5451 248.4162 L841.2837 246.8476 L842.9651 250.5817 M818.9596 249.4874 L820.0391 248.1297 L819.0465 245.5112 L818.9596 249.4874 M838.2781 244.9661 L838.2261 244.5874 L838.0158 244.8781 L838.2781 244.9661 M837.9733 244.8391 L838.0616 244.4687 L837.8894 244.7777 L837.9733 244.8391 M834.3071 239.6141 L833.2387 239.529 L833.6766 239.8371 L834.3071 239.6141 M826.6618 237.4156 L825.5351 237.8598 L826.9446 238.1528 L826.6618 237.4156 M827.692 236.7379 L826.6287 236.1758 L826.4311 236.6573 L827.692 236.7379 M782.7056 217.3297 L776.7292 219.1647 L785.708 218.8643 L782.7056 217.3297 M776.5063 214.0122 L776.3436 213.7551 L776.1603 213.8903 L776.5063 214.0122 M774.8424 213.3263 L774.8028 212.9749 L774.1818 212.4252 L774.8424 213.3263 M673.9736 212.3635 L673.999 212.2229 L673.705 212.1515 L673.9736 212.3635 M781.4144 209.6079 L781.4587 209.1763 L781.2802 209.4371 L781.4144 209.6079 M695.4492 206.9302 L695.4982 206.7431 L695.3528 206.6591 L695.4492 206.9302 M700.9137 206.6572 L700.9611 206.4797 L700.6877 206.537 L700.9137 206.6572 M765.0795 204.3808 L765.3846 203.8107 L765.0432 203.9304 L765.0795 204.3808 M759.9754 194.4151 L760.4622 193.9366 L759.6578 194.3665 L759.9754 194.4151 M658.0922 193.8544 L657.9136 193.3428 L657.9815 193.8899 L658.0922 193.8544 M904.9361 189.1334 L904.9361 189.6433 L905.113 189.4504 L904.9361 189.1334 M872.9677 164.2932 L873.4639 162.2877 L872.8667 162.2841 L872.9677 164.2932 M872.7608 161.2079 L872.8193 161.9424 L872.9835 159.7359 L872.7608 161.2079 M644.0343 154.1575 L642.5663 150.0357 L642.5789 151.9182 L644.0343 154.1575 M870.4205 149.0997 L870.3571 148.8969 L870.109 148.6749 L870.4205 149.0997 M643.2632 148.4303 L643.4227 147.573 L643.1952 148.7134 L643.2632 148.4303 M643.6392 146.5023 L643.682 145.4575 L643.4986 146.9363 L643.6392 146.5023 M870.8391 151.9919 L872.0023 145.0765 L870.0759 150.4752 L870.8391 151.9919 M861.1964 139.981 L860.882 139.1743 L860.9026 139.549 L861.1964 139.981 M860.555 139.3452 L860.1773 137.7822 L859.1359 137.3204 L860.555 139.3452 M858.9208 135.7165 L858.8988 135.4381 L858.7219 135.7165 L858.9208 135.7165 M851.8287 130.949 L851.9726 130.585 L851.8177 130.4415 L851.8287 130.949 M856.1302 130.5286 L856.5205 130.2194 L856.1207 129.6576 L856.1302 130.5286 M852.7691 129.7515 L852.8118 128.6375 L852.5698 129.417 L852.7691 129.7515 M855.25 126.9734 L855.3748 126.7147 L855.0083 126.7828 L855.25 126.9734 M854.9656 126.4341 L855.0698 126.2657 L854.7776 126.1314 L854.9656 126.4341 M656.8106 120.9105 L656.6984 120.2094 L655.9509 121.46 L656.8106 120.9105 M848.0236 119.3552 L848.071 119.1139 L847.8545 119.2033 L848.0236 119.3552 M847.6807 118.0905 L847.5052 117.1002 L847.3915 117.927 L847.6807 118.0905 M847.2792 117.2028 L847.4752 116.4557 L846.9726 116.9504 L847.2792 117.2028 M844.637 116.4422 L844.6986 116.1983 L844.5139 115.9848 L844.637 116.4422 M835.5142 111.1194 L835.5254 110.7682 L834.9929 110.9154 L835.5142 111.1194 M832.2811 107.059 L832.1122 105.9732 L831.0517 105.6603 L832.2811 107.059 M794.0328 98.7324 L793.6158 98.1423 L793.0247 98.7059 L794.0328 98.7324 M791.3938 97.3428 L791.5519 97.0358 L791.2721 97.1315 L791.3938 97.3428 M794.9446 95.1752 L792.5 94.9692 L791.5535 96.7056 L794.9446 95.1752 M777.4846 90.9079 L777.7451 90.4416 L777.3012 90.3136 L777.4846 90.9079 M777.9096 90.7634 L778.2936 90.1609 L777.8653 90.1478 L777.9096 90.7634 M779.7601 91.2199 L779.3951 89.8131 L779.0047 90.4482 L779.7601 91.2199 M776.7038 90.1314 L777.0894 89.9591 L776.9851 89.339 L776.7038 90.1314 M778.5321 90.0657 L778.687 89.2849 L778.4785 89.567 L778.5321 90.0657 M708.9587 88.7553 L708.5068 87.8672 L708.0359 88.4882 L708.3946 88.9504 L708.9587 88.7553 M707.8478 88.1817 L707.911 87.7951 L707.3374 88.0703 L707.8478 88.1817 M710.0649 87.9819 L710.2577 87.782 L709.9591 87.7378 L710.0649 87.9819 M729.2696 87.4365 L728.8634 86.5788 L728.8302 87.1025 L729.2696 87.4365 M710.7886 86.5019 L710.6812 86.0013 L710.3982 86.0438 L710.7886 86.5019 M730.687 86.546 L730.205 85.5614 L730.2097 86.0896 L730.687 86.546 M772.3519 85.7609 L772.1432 85.3636 L771.9788 85.7821 L772.3519 85.7609 M737.4504 85.6153 L737.4552 85.4469 L737.1693 85.1641 L737.4504 85.6153 M737.2198 85.7821 L736.7221 85.0808 L737.2372 86.1288 L737.2198 85.7821 M711.898 84.2573 L712.018 83.0215 L711.5931 84.0728 L711.898 84.2573 M720.2496 79.8368 L719.6586 79.7326 L719.7123 79.9182 L720.2496 79.8368 M777.7373 79.4868 L775.8394 81.7183 L779.0458 82.0786 L777.6677 81.1576 L778.8799 79.1272 L777.7373 79.4868 M775.329 78.8864 L774.8201 78.4847 L774.2892 79.3827 L775.329 78.8864 M774.5469 77.4377 L774.2512 76.7083 L774.6085 77.7027 L774.5469 77.4377 M753.2356 69.5906 L753.2214 69.1914 L752.8689 69.2932 L753.2356 69.5906 M778.3568 69.589 L778.3884 69.1914 L778.2431 69.3191 L778.3568 69.589 M767.4879 69.4758 L767.5891 69.1946 L767.2429 69.1591 L767.4879 69.4758 M767.9191 68.97 L767.4958 68.9005 L767.687 69.1284 L767.9191 68.97 M775.2927 68.9781 L775.4318 68.6372 L774.5896 69.1865 L775.2927 68.9781 M768.6571 68.3901 L768.3696 68.2689 L768.2701 68.4547 L768.6571 68.3901 M776.383 68.2544 L776.5047 67.6263 L776.3594 67.8442 L776.383 68.2544 M777.042 67.4955 L777.2425 67.2615 L776.6248 67.6005 L777.042 67.4955 M773.7615 67.1388 L773.9953 66.7951 L773.4611 66.9355 L773.7615 67.1388 M754.1205 67.1695 L754.5915 66.7257 L753.8568 66.7015 L754.1205 67.1695 M758.8061 66.8387 L759.3669 66.3708 L758.7096 66.5321 L758.8061 66.8387 M776.3656 65.9772 L776.413 65.6692 L774.7033 66.9565 L776.3656 65.9772 M759.4983 65.8885 L759.2927 65.6386 L758.8486 66.1208 L759.4983 65.8885 M742.3491 66.9613 L741.5038 64.8423 L739.6488 67.4907 L742.3491 66.9613 M742.817 64.9921 L741.7028 63.9545 L745.0104 68.4159 L748.3116 65.6434 L746.8089 64.0624 L742.817 64.9921 M754.4823 64.5844 L754.2264 63.0962 L753.8488 63.7951 L754.4823 64.5844 M776.7387 65.6047 L777.8132 64.1655 L778.0802 63.0801 L776.7387 65.6047 M810.7392 62.1948 L808.6297 62.7147 L807.9865 69.1332 L805.4865 71.9556 L806.4141 71.491 L807.4854 73.8736 L806.6764 72.7653 L805.4549 74.5351 L804.562 92.6974 L799.2603 101.981 L792.2377 100.2015 L790.855 97.5856 L786.149 96.4086 L783.5353 93.6862 L778.0455 91.6635 L770.5978 85.9784 L773.8042 79.0573 L773.2557 76.2422 L775.683 74.9049 L776.2945 76.0734 L776.5016 73.3096 L779.2748 70.8487 L776.8872 68.3901 L773.9148 71.5169 L773.82 69.4225 L771.8099 69.9155 L773.1656 67.3938 L769.3162 70.4847 L757.6636 67.1243 L752.8531 63.7145 L751.7486 63.7387 L752.0695 65.3597 L750.8193 63.6936 L749.6075 64.8004 L751.4594 66.0192 L753.7207 65.7321 L754.8648 66.7661 L754.5045 69.0153 L755.2252 69.5437 L753.1156 70.9829 L745.3991 69.6181 L744.6549 72.4996 L742.8724 71.0719 L743.5108 72.8625 L740.3566 74.1557 L741.0599 76.4988 L738.9076 77.2005 L735.9729 82.4048 L739.2394 84.9582 L737.5295 85.3668 L738.0335 87.4872 L731.1945 84.9075 L730.3504 85.1625 L730.7517 86.5984 L730.1734 86.5886 L729.9696 85.7821 L729.2821 86.6589 L729.8274 88.7144 L728.913 87.5796 L728.2552 89.2734 L729.1417 84.5758 L724.8829 80.1543 L721.7082 78.9791 L718.4371 81.8161 L716.9106 79.9752 L717.0116 83.4817 L715.2007 82.7979 L714.7361 84.1773 L714.5639 81.7574 L714.4612 83.6743 L711.8822 84.803 L713.5762 87.1418 L710.1187 87.2433 L712.1454 89.3955 L709.417 87.8132 L709.1563 89.1537 L707.9694 89.1931 L707.7057 91.4663 L709.5655 91.1082 L707.7009 94.1802 L710.539 94.6875 L706.7795 94.638 L705.2199 93.6829 L704.8043 94.4733 L703.883 93.0511 L702.9744 93.2469 L703.7661 94.7781 L702.1478 95.2065 L704.9576 99.379 L703.1276 98.1026 L703.006 101.7223 L699.2655 94.6907 L695.0399 99.6106 L696.0544 104.7588 L688.5119 113.6958 L677.4471 115.9646 L669.5141 120.2617 L663.9359 120.0996 L652.2373 127.3682 L649.4087 131.5937 L648.636 127.4346 L645.0615 143.3894 L650.0077 152.2956 L649.7896 155.2073 L648.9093 156.1952 L647.8442 153.4484 L646.8945 154.5025 L645.515 150.3649 L645.0726 151.4831 L647.7131 156.4847 L646.4932 157.4089 L644.4326 153.3816 L644.1212 154.7809 L653.5711 173.8189 L654.4813 182.3847 L658.4288 191.4177 L658.2677 200.9005 L656.2907 203.376 L654.1581 202.6213 L654.268 207.6965 L662.5469 212.7975 L670.9158 213.6662 L682.6951 205.4008 L702.81 205.2427 L707.0261 198.9683 L716.6198 194.1086 L724.0122 194.1908 L733.7953 190.2726 L746.1103 188.8034 L752.0931 192.5333 L755.2821 191.9911 L758.9957 193.7536 L760.1618 192.9808 L762.0391 194.9744 L761.4686 195.9878 L763.3587 195.5942 L763.8422 200.1506 L766.3453 200.2828 L770.8839 210.1453 L768.6019 210.0204 L773.428 212.8631 L773.3063 209.6194 L780.5722 203.6018 L783.8056 199.0154 L783.7771 195.8434 L784.7837 202.8732 L781.9377 206.9283 L781.8681 212.3385 L779.4915 212.1053 L778.4137 214.5634 L783.6142 213.7551 L785.6243 206.8309 L787.9917 212.9865 L785.5958 217.1198 L792.7764 215.3845 L792.6738 217.6332 L791.3059 217.0851 L794.5544 221.4052 L791.1956 217.5524 L795.4234 223.6313 L795.3887 228.9961 L799.4594 234.0297 L805.3837 237.0484 L810.0346 236.6673 L816.605 240.2732 L824.4858 233.084 L825.6424 235.0414 L824.3136 237.6821 L827.3997 235.6625 L828.0587 236.752 L827.2559 237.9831 L832.82 242.3759 L831.8465 239.1968 L835.5474 238.7534 L840.6155 233.8833 L853.1846 230.5777 L854.2576 219.3618 L858.1149 213.3668 L861.5979 201.2352 L867.7245 195.0343 L870.6984 185.8809 L873.9585 170.3449 L870.5927 160.769 L871.4349 152.9456 L864.3538 142.0922 L862.9127 140.6414 L862.0861 141.2661 L858.2667 137.634 L856.9583 130.462 L856.707 131.9531 L853.5276 129.2685 L853.5797 132.352 L851.4054 131.4021 L848.8658 122.7226 L845.8903 119.9493 L847.2776 119.3923 L846.3785 117.5699 L832.1438 109.4278 L832.4945 107.3423 L830.6314 105.5521 L831.1844 102.2363 L829.8839 98.5357 L830.3531 97.5394 L827.1849 94.9675 L826.6854 86.0045 L822.1044 81.4363 L817.9609 82.8746 L815.9524 72.349 L810.7392 62.1948 M809.3344 61.1332 L808.4778 60.9997 L808.8651 61.635 L809.3344 61.1332 M809.404 60.9016 L809.6094 60.5575 L809.2427 60.5768 L809.404 60.9016 M809.1353 60.4691 L809.1115 60.2168 L808.9108 60.4515 L809.1353 60.4691 M809.6488 60.3518 L809.6314 60.1509 L809.4846 60.2666 L809.6488 60.3518 M809.4465 58.7098 L809.7026 58.1735 L809.1068 58.0242 L809.4465 58.7098 M808.7196 58.2762 L808.6391 57.4784 L808.3325 57.9535 L808.7196 58.2762" stroke-dasharray="" fill="#ffff00" fill-opacity="0.6" stroke="none" stroke-opacity="1.0" stroke-width="0.0px" stroke-linecap="butt" stroke-linejoin="miter" stroke-dashoffset="0.0px"/>
<path d="M949.1941 67.0097 L949.6571 66.8371 L948.687 66.3272 L949.1941 67.0097 M910.682 65.8547 L909.9991 65.9917 L913.2229 67.6553 L910.682 65.8547 M909.3877 64.8487 L909.3214 64.7278 L908.9516 64.6392 L909.3877 64.8487 M947.4005 65.076 L947.6582 64.8455 L947.3026 64.5377 L947.4005 65.076 M924.3021 62.1289 L924.4476 62.0388 L924.3384 61.8505 L924.3021 62.1289 M945.1519 61.5819 L943.8103 61.0753 L943.0896 61.8361 L945.1519 61.5819 M919.013 58.7788 L917.5229 59.0984 L923.8233 62.05 L919.013 58.7788 M920.1856 58.8816 L920.3024 58.6504 L920.007 58.4207 L920.1856 58.8816 M951.2042 56.9697 L951.2278 56.8959 L951.1156 56.8462 L951.2042 56.9697 M950.7712 56.4917 L950.7632 56.4131 L950.6589 56.4243 L950.7712 56.4917 M950.6321 56.3232 L950.6622 56.2607 L950.5531 56.2992 L950.6321 56.3232 M921.4559 56.3313 L921.4528 55.3884 L921.2854 55.3916 L921.4559 56.3313 M919.1488 55.5872 L917.9021 53.3647 L918.1708 55.2714 L919.1488 55.5872 M918.1155 54.1127 L918.0806 54.1176 L918.1044 54.031 L918.1155 54.1127 M909.8712 53.9109 L907.9575 53.2398 L909.2439 56.0073 L914.9502 56.3826 L912.4203 53.8708 L909.8712 53.9109 M909.2471 52.4057 L909.345 52.2072 L909.1491 52.0503 L909.2471 52.4057 M912.5609 52.1992 L912.0346 51.7591 L911.4309 52.3945 L912.5609 52.1992 M905.6962 52.18 L905.8321 51.5591 L905.4892 52.0039 L905.6962 52.18 M905.3724 52.0391 L905.3139 51.3799 L904.7181 51.7591 L905.3724 52.0391 M910.8604 51.3959 L910.6392 51.1111 L910.5965 51.5127 L910.8604 51.3959 M910.4908 50.9239 L910.3896 50.7224 L910.2696 50.748 L910.4908 50.9239 M916.257 49.9612 L915.9648 49.9964 L916.1639 50.1019 L916.257 49.9612 M896.7616 49.9612 L895.6806 49.771 L896.6825 50.265 L896.7616 49.9612 M900.012 50.4521 L900.0596 49.5759 L899.6962 50.1531 L900.012 50.4521 M898.8618 50.0939 L899.5096 48.7257 L898.1363 49.1667 L898.8618 50.0939 M895.4785 48.5387 L894.2884 48.9126 L895.3425 49.8829 L895.4785 48.5387 M908.4207 48.804 L907.7695 47.8374 L907.591 48.3518 L908.4207 48.804 M925.8158 47.8086 L925.7259 47.8517 L925.933 47.8326 L925.8158 47.8086 M915.7655 50.5337 L913.5233 47.5563 L918.0616 55.0726 L915.7655 50.5337 M893.8648 47.1267 L893.2866 46.7563 L894.0167 47.6297 L893.8648 47.1267 M894.3358 47.2129 L894.1842 46.6397 L893.6816 46.6126 L894.3358 47.2129 M892.2736 46.3396 L891.9196 45.9773 L891.9229 46.2231 L892.2736 46.3396 M896.7488 47.0181 L895.9856 45.4618 L894.3754 47.0564 L897.7745 49.2291 L896.7488 47.0181 M890.8734 46.8265 L890.5512 45.3422 L890.4927 46.188 L890.8734 46.8265 M894.0436 46.5232 L893.3103 44.8859 L892.9721 45.9262 L894.0436 46.5232 M902.0979 43.9576 L901.9733 43.7312 L901.8721 43.8875 L902.0979 43.9576 M901.8642 43.6738 L900.6236 43.2529 L900.8891 43.5957 L901.8642 43.6738 M891.4866 45.0694 L892.0667 44.09 L890.6207 43.2401 L891.4866 45.0694 M909.3828 47.5786 L901.6175 43.0999 L909.579 48.9158 L909.3828 47.5786 M901.2873 42.9596 L900.3392 42.6599 L900.9523 43.0919 L901.2873 42.9596 M897.6023 42.652 L897.4188 42.1802 L897.0445 42.3045 L897.6023 42.652 M885.1198 42.1611 L885.104 41.8249 L884.6837 41.9349 L885.1198 42.1611 M886.6637 40.4965 L885.9889 39.7354 L885.5877 40.4264 L886.6637 40.4965 M888.0938 39.5841 L887.8915 38.8854 L887.95 39.8612 L888.0938 39.5841 M887.5804 38.9172 L887.7241 38.7103 L887.4667 38.7963 L887.5804 38.9172 M895.5953 41.7819 L889.9616 37.8797 L892.792 41.1781 L895.5953 41.7819 M908.588 31.4323 L908.6512 31.2799 L908.596 31.245 L908.588 31.4323 M907.5405 31.3307 L907.4346 31.1704 L907.357 31.1481 L907.5405 31.3307 M906.8309 31.0418 L906.5179 30.8561 L906.6474 30.9989 L906.8309 31.0418 M905.9681 30.2672 L905.949 30.1545 L905.9571 30.3323 L905.9681 30.2672" stroke-dasharray="" fill="#ffff00" fill-opacity="0.6" stroke="none" stroke-opacity="1.0" stroke-width="0.0px" stroke-linecap="butt" stroke-linejoin="miter" stroke-dashoffset="0.0px"/>
<path d="M72.6986 24.9929 L74.4755 26.3857 L76.3101 27.8097 L78.1053 25.3173 L81.9247 24.3569 L82.0275 27.8366 L83.407 27.9635 L90.3993 22.4491 L92.3133 18.9452 L92.1363 12.3811 L100.7786 3.0562 L102.923 -12.6562 L105.9553 -19.8063 L99.4149 -21.138 L94.7753 -20.1135 L92.2011 -12.6372 L91.4331 -9.4117 L82.8587 -12.3447 L75.6275 -12.3115 L75.0182 -6.9551 L80.719 -7.9162 L82.4162 -5.1977 L78.7816 1.1299 L82.5948 3.4655 L82.0891 10.7634 L80.275 14.1872 L78.2917 11.8861 L76.702 13.8709 L73.9641 13.4733 L71.9644 10.3697 L70.9863 13.2429 L65.8441 13.2777 L67.8447 20.7041 L65.4048 19.9631 L63.378 22.348 L68.4153 28.5663 L72.6986 24.9929" stroke-dasharray="" fill="#ffff00" fill-opacity="0.6" stroke="none" stroke-opacity="1.0" stroke-width="0.0px" stroke-linecap="butt" stroke-linejoin="miter" stroke-dashoffset="0.0px"/>
<path d="M147.2948 -29.5801 L145.3069 -30.6592 L140.7115 -27.9715 L138.7757 -29.1406 L133.2354 -26.1463 L130.2519 -27.4592 L127.3126 -23.5012 L117.1089 -25.1128 L110.4861 -29.2469 L105.4831 -24.6881 L105.9553 -19.8064 L102.9231 -12.6562 L100.7787 3.0562 L92.1363 12.381 L92.3133 18.9452 L90.3993 22.4491 L83.407 27.9635 L82.0275 27.8366 L81.9248 24.3569 L78.1053 25.3173 L76.3101 27.8097 L74.4755 26.3857 L74.4612 26.5538 L71.484 28.6266 L71.2628 32.6185 L69.4872 32.8722 L70.7461 34.2912 L74.9732 33.3742 L79.6302 33.33 L94.3202 33.6287 L96.3793 41.0603 L100.2619 46.2231 L110.2112 45.6374 L111.1549 39.9023 L117.3603 39.4281 L116.8994 41.5477 L123.9208 41.5318 L123.9641 53.7491 L126.9318 59.2864 L126.5999 64.1816 L136.4549 62.2152 L139.0838 65.6547 L144.1122 64.0866 L144.2687 66.6886 L147.938 68.2043 L152.8525 68.6178 L154.7335 66.2602 L157.3547 70.4977 L161.8031 71.797 L165.0678 76.9227 L168.3311 75.8948 L169.5368 77.2525 L169.5576 69.6745 L167.7859 71.4376 L165.1563 71.0007 L161.3558 66.1611 L163.2695 60.9579 L161.4064 52.9148 L164.4184 48.4109 L175.0542 46.7644 L168.1083 35.8854 L167.3892 25.3299 L166.2856 21.3541 L165.1168 15.6204 L164.2287 13.6257 L168.3737 7.8846 L170.4423 -4.6967 L178.078 -12.0711 L174.818 -13.931 L175.5524 -19.8859 L168.6376 -26.446 L161.3543 -24.4282 L156.19 -28.5742 L147.2948 -29.5801 M73.6885 33.4873 L72.4606 33.8734 L73.069 33.3412 L73.6885 33.4873" stroke-dasharray="" fill="#ffff00" fill-opacity="0.6" stroke="none" stroke-opacity="1.0" stroke-width="0.0px" stroke-linecap="butt" stroke-linejoin="miter" stroke-dashoffset="0.0px"/>
<path d="M166.2856 21.3541 L167.3892 25.33 L170.8152 24.3109 L175.4169 18.5384 L175.4662 16.9537 L173.0418 16.2881 L173.9283 13.6526 L170.3949 13.1417 L169.8181 15.7058 L165.1168 15.6204 L166.2856 21.3541" stroke-dasharray="" fill="#ffff00" fill-opacity="0.6" stroke="none" stroke-opacity="1.0" stroke-width="0.0px" stroke-linecap="butt" stroke-linejoin="miter" stroke-dashoffset="0.0px"/>
<path d="M249.5178 70.8438 L248.1651 70.2745 L248.4259 70.8519 L249.5178 70.8438 M253.0844 69.3126 L251.4868 69.7134 L253.233 70.9846 L253.0844 69.3126 M247.2375 68.3965 L246.223 65.1678 L245.869 67.3825 L247.2375 68.3965" stroke-dasharray="" fill="#ffff00" fill-opacity="0.6" stroke="none" stroke-opacity="1.0" stroke-width="0.0px" stroke-linecap="butt" stroke-linejoin="miter" stroke-dashoffset="0.0px"/>
<path d="M32.0932 8.3905 L32.0506 8.0822 L31.9447 8.3588 L32.0932 8.3905 M57.0374 -12.3368 L55.818 -13.3368 L53.2306 -6.6407 L55.7737 -5.704 L64.591 -5.7002 L64.5107 -12.3399 L57.0374 -12.3368 M50.3846 -19.9203 L50.9661 -21.0857 L49.4143 -21.3011 L48.049 -18.6381 L50.3846 -19.9203" stroke-dasharray="" fill="#ffff00" fill-opacity="0.6" stroke="none" stroke-opacity="1.0" stroke-width="0.0px" stroke-linecap="butt" stroke-linejoin="miter" stroke-dashoffset="0.0px"/>
<path d="M-1016.6486 120.2533 L-1016.7783 120.081 L-1016.8161 120.2026 L-1016.6486 120.2533 M-1013.825 115.2688 L-1013.7491 115.168 L-1013.8154 115.1109 L-1013.825 115.2688 M-1014.879 111.2399 L-1014.8899 110.9037 L-1015.0403 111.1947 L-1014.879 111.2399 M1022.7467 111.3018 L1022.7089 110.8685 L1022.5222 111.2583 L1022.7467 111.3018 M-1015.6863 111.2215 L-1015.955 110.81 L-1016.0182 111.0642 L-1015.6863 111.2215 M1015.4569 110.066 L1014.3682 109.7385 L1012.3439 110.917 L1015.4569 110.066 M-1017.951 110.0627 L-1018.0234 109.6801 L-1018.1247 109.9958 L-1017.951 110.0627 M-1022.7691 109.8037 L-1023.1182 109.66 L-1023.2542 110.158 L-1022.7691 109.8037 M1015.6262 109.5898 L1015.5898 109.2825 L1015.3337 109.4228 L1015.6262 109.5898 M-1015.4589 108.171 L-1015.3134 108.0259 L-1015.5047 107.9342 L-1015.4589 108.171 M1023.5036 107.9742 L1023.7944 107.3656 L1023.0753 107.5807 L1023.5036 107.9742 M1010.7068 107.664 L1010.5219 107.074 L1010.4554 107.3523 L1010.7068 107.664 M1013.3773 106.6275 L1013.417 106.2345 L1013.2446 106.5676 L1013.3773 106.6275 M-1017.0502 105.622 L-1016.8748 105.3325 L-1017.3361 105.2643 L-1017.0502 105.622 M1020.313 104.8519 L1019.8281 103.7451 L1019.7094 104.3449 L1020.313 104.8519 M-1018.3778 104.099 L-1018.2606 103.8331 L-1018.7 103.7235 L-1018.3778 104.099 M-1014.2549 103.9245 L-1014.013 103.6355 L-1014.6009 103.4943 L-1014.2549 103.9245 M1020.7113 103.2204 L1020.7066 102.915 L1020.5455 102.8502 L1020.7113 103.2204 M-1019.9752 102.8353 L-1020.1267 102.4985 L-1020.195 102.764 L-1019.9752 102.8353 M1017.2885 102.5897 L1017.1274 101.8632 L1016.876 102.452 L1017.2885 102.5897 M-1019.1189 101.0031 L-1019.1266 100.7297 L-1019.3288 100.7414 L-1019.1189 101.0031 M1014.2198 100.5624 L1009.8361 101.1969 L1008.6351 104.5975 L1016.4795 104.5959 L1014.2198 100.5624 M1007.5731 100.0343 L1007.7408 99.6371 L1007.5036 99.7761 L1007.5731 100.0343 M-1019.0429 99.8506 L-1019.0019 99.7017 L-1019.2373 99.6553 L-1019.0429 99.8506 M1020.5833 100.5111 L1020.7747 99.604 L1020.3431 99.7066 L1020.5833 100.5111 M-1017.8861 99.6934 L-1018.4252 99.073 L-1018.2306 100.0558 L-1017.8861 99.6934 M1008.433 98.8977 L1008.5325 98.4712 L1007.9413 99.1359 L1008.433 98.8977 M1014.5168 97.186 L1014.1991 96.9103 L1014.2276 97.1744 L1014.5168 97.186 M1023.7012 98.1787 L1024.0 96.8981 L1023.3312 97.949 L1023.7012 98.1787 M-1023.962 97.8961 L-1022.9823 96.8607 L-1023.2128 96.262 L-1023.962 97.8961 M1009.4536 97.1975 L1010.3069 96.3063 L1010.1189 96.2453 L1009.4536 97.1975 M1023.5984 96.1364 L1023.7028 95.8626 L1023.5259 95.9385 L1023.3425 96.1265 L1023.5116 96.1529 L1023.5984 96.1364 M1024.0 95.4167 L1024.0 95.1577 L1023.8924 95.3367 L1024.0 95.4167 M-1023.8644 95.401 L-1023.4108 94.783 L-1023.9352 95.0549 L-1023.8644 95.401 M1023.7611 93.3982 L1015.3464 96.8641 L1016.8729 98.2332 L1019.8233 96.3228 L1023.4436 96.7915 L1023.7264 96.6281 L1023.2681 96.1711 L1023.717 95.2691 L1023.6158 94.9593 L1021.0337 96.3855 L1023.7611 93.3982 M-1023.8229 93.2212 L-1023.6651 92.9886 L-1024.0 93.1449 L-1023.8229 93.2212 M1007.6127 71.7662 L1007.6109 71.593 L1007.0865 71.7241 L1007.6127 71.7662" stroke-dasharray="" fill="#ffff00" fill-opacity="0.6" stroke="none" stroke-opacity="1.0" stroke-width="0.0px" stroke-linecap="butt" stroke-linejoin="miter" stroke-dashoffset="0.0px"/>
<path d="M51.2442 4.3679 L51.2379 3.4071 L50.8966 3.7453 L51.2442 4.3679 M71.2454 -12.9931 L64.5107 -12.3399 L64.591 -5.7002 L55.7737 -5.704 L54.4126 -5.5928 L54.6133 -2.737 L52.9272 -3.0057 L56.4401 -1.054 L53.1769 -2.0654 L52.8972 2.1144 L51.279 4.6603 L49.5502 3.6473 L54.1234 9.0844 L51.1036 7.0216 L54.7002 13.5245 L57.6316 14.3406 L55.187 13.9167 L63.378 22.3479 L65.4049 19.9631 L67.8447 20.7041 L65.8442 13.2777 L70.9863 13.2429 L71.9644 10.3698 L73.9641 13.4733 L76.702 13.8709 L78.2917 11.8861 L80.275 14.1872 L82.0891 10.7634 L82.5948 3.4655 L78.7816 1.1299 L82.4162 -5.1976 L80.719 -7.9162 L75.0182 -6.9551 L75.6275 -12.3115 L71.2454 -12.9931 M54.3542 -1.5613 L54.2609 -1.5408 L54.2973 -1.6214 L54.3542 -1.5613" stroke-dasharray="" fill="#ffff00" fill-opacity="0.6" stroke="none" stroke-opacity="1.0" stroke-width="0.0px" stroke-linecap="butt" stroke-linejoin="miter" stroke-dashoffset="0.0px"/>
<path d="M234.0298 12.0885 L233.6079 11.6315 L232.9615 12.3684 L234.0298 12.0885 M204.4618 -26.3255 L195.6306 -26.2523 L193.4033 -24.0447 L196.0581 -20.9004 L199.1664 -10.784 L192.8944 -0.5863 L192.9687 5.6955 L213.918 17.0507 L213.9796 19.9473 L223.0217 26.5944 L228.9019 15.1569 L231.1854 14.5115 L232.4195 12.7242 L233.0374 13.0816 L232.6281 11.4892 L235.038 11.1413 L236.4197 9.5295 L233.2349 4.9274 L233.1682 -16.1059 L238.3938 -22.6618 L234.2194 -22.4462 L232.0143 -24.4166 L224.8501 -19.39 L216.8668 -20.56 L210.7148 -24.9163 L204.4618 -26.3255" stroke-dasharray="" fill="#ffff00" fill-opacity="0.6" stroke="none" stroke-opacity="1.0" stroke-width="0.0px" stroke-linecap="butt" stroke-linejoin="miter" stroke-dashoffset="0.0px"/>
<path d="M-863.4802 65.6709 L-863.6556 65.242 L-863.6191 65.5741 L-863.4802 65.6709 M-866.9378 57.7882 L-866.9616 57.7336 L-867.0248 57.7416 L-866.9378 57.7882 M-854.6085 56.9152 L-854.588 56.7403 L-854.6592 56.8254 L-854.6085 56.9152 M-854.6149 56.6938 L-854.5802 56.6104 L-854.6354 56.5494 L-854.6149 56.6938 M-886.7729 32.1373 L-886.6483 32.0198 L-887.0575 32.0166 L-886.7729 32.1373 M-979.5556 25.8071 L-979.6061 25.5804 L-979.8052 25.6517 L-979.5556 25.8071 M-974.1181 25.406 L-974.1399 25.2729 L-974.3047 25.3204 L-974.1181 25.406 M-881.4319 23.0339 L-881.8694 23.121 L-881.5297 23.3586 L-881.4319 23.0339 M-973.2441 17.8816 L-973.2917 17.6948 L-973.3104 17.8578 L-973.2441 17.8816 M-976.3715 16.1203 L-976.9278 15.7802 L-976.3634 16.3308 L-976.3715 16.1203 M1006.0703 15.1917 L1005.9851 14.9892 L1005.6484 14.8405 L1006.0703 15.1917 M1001.0845 14.2552 L1001.042 14.1192 L1001.0182 14.26 L1001.0845 14.2552 M998.8898 10.9231 L998.9276 10.716 L998.6717 10.365 L998.8898 10.9231 M998.5785 10.2765 L998.5122 10.1152 L998.3634 10.0694 L998.5785 10.2765 M995.7941 8.8331 L995.8177 8.1628 L995.5649 8.6971 L995.7941 8.8331 M994.8347 8.0111 L994.7226 7.9605 L994.7446 8.0142 L994.8347 8.0111 M1003.888 8.166 L1003.6415 7.6712 L1003.4661 7.5353 L1003.888 8.166 M1000.9866 7.2776 L1000.8698 7.4104 L1001.3486 7.9052 L1000.9866 7.2776 M994.2344 7.1449 L994.2313 6.8683 L993.942 6.4858 L994.2344 7.1449 M992.6524 4.6461 L992.6872 4.3822 L992.4722 3.7184 L992.6524 4.6461 M992.4771 3.7073 L992.0995 3.3834 L992.0123 3.3992 L992.4771 3.7073 M987.6936 -0.7601 L987.771 -1.2326 L987.6146 -1.2089 L987.6936 -0.7601 M986.5085 -1.1583 L986.5986 -1.2247 L986.4658 -1.3258 L986.5085 -1.1583 M986.3679 -1.389 L986.3203 -1.5139 L986.2903 -1.4238 L986.3679 -1.389 M989.4793 -1.6956 L989.5221 -1.8252 L989.4319 -1.7193 L989.4793 -1.6956 M988.9026 -2.5505 L988.7571 -2.4526 L989.4208 -2.1602 L988.9026 -2.5505 M984.3024 -5.7271 L984.0717 -4.6745 L984.6564 -5.4158 L984.3024 -5.7271 M983.8347 -7.6017 L983.8568 -7.657 L983.6894 -7.6602 L983.8347 -7.6017 M984.8981 -7.676 L984.8554 -7.8135 L984.7385 -7.6886 L984.8981 -7.676 M984.5316 -8.0237 L984.3752 -8.2182 L984.4036 -8.0664 L984.5316 -8.0237 M984.2503 -8.3778 L984.1618 -8.5375 L984.271 -8.3351 L984.2503 -8.3778 M984.0748 -8.7019 L983.9231 -9.2125 L983.9547 -8.8378 L984.0748 -8.7019 M983.5219 -10.4599 L983.37 -10.5927 L983.2342 -10.6037 L983.5219 -10.4599 M984.263 -9.7073 L984.3325 -10.3618 L983.7793 -11.0164 L984.263 -9.7073 M983.5615 -10.9816 L983.5266 -11.0607 L983.5106 -10.9974 L983.5615 -10.9816 M986.0486 -11.0401 L986.1655 -11.1856 L985.9476 -11.1413 L986.0486 -11.0401 M986.1292 -11.2821 L986.0281 -11.4702 L985.9618 -11.2315 L986.1292 -11.2821 M-895.6113 -11.5018 L-896.4061 -10.5769 L-894.1764 -9.7547 L-895.6113 -11.5018 M983.4396 -17.4416 L982.7505 -17.2121 L982.8977 -17.0871 L983.4396 -17.4416 M983.9974 -18.4909 L984.0448 -18.7631 L983.9358 -18.6777 L983.9974 -18.4909 M-906.4677 -22.3226 L-906.8344 -21.9995 L-906.079 -21.575 L-906.4677 -22.3226 M-912.4679 -26.6854 L-912.3825 -26.8725 L-912.5297 -26.9121 L-912.4679 -26.6854" stroke-dasharray="" fill="#ffff00" fill-opacity="0.6" stroke="none" stroke-opacity="1.0" stroke-width="0.0px" stroke-linecap="butt" stroke-linejoin="miter" stroke-dashoffset="0.0px"/>
<path d="M283.4979 98.696 L284.5045 96.5307 L283.6511 97.65 L283.4979 98.696 M268.6277 88.8996 L268.6262 88.8061 L268.5535 88.8045 L268.5187 88.8455 L268.5598 88.8865 L268.6277 88.8996 M275.0151 77.0413 L274.6675 75.7471 L274.236 76.8854 L275.0151 77.0413 M280.7862 69.2997 L277.2243 71.2985 L278.5248 73.5608 L277.2748 77.0949 L274.7006 79.3241 L272.5278 78.0847 L273.3416 81.3614 L271.3568 82.917 L273.0761 84.9451 L271.993 83.9944 L269.8082 86.9764 L269.9662 84.3553 L267.7096 87.4152 L268.0146 88.126 L268.7183 88.7594 L268.6499 88.9692 L267.1471 89.6162 L267.0775 87.4971 L263.6136 90.01 L264.4037 92.0283 L262.5501 90.4761 L252.9232 93.3209 L249.954 101.018 L253.0544 115.9814 L247.4698 124.2718 L245.9812 130.0845 L250.4091 146.8701 L257.2215 150.6644 L268.1347 146.5111 L283.2419 97.153 L282.3601 89.6129 L283.6827 88.875 L285.4274 92.1088 L286.9112 89.7458 L284.1221 74.8287 L280.7862 69.2997 M282.1942 72.4187 L282.1373 72.4025 L282.1452 72.3231 L282.1942 72.4187" stroke-dasharray="" fill="#ffff00" fill-opacity="0.6" stroke="none" stroke-opacity="1.0" stroke-width="0.0px" stroke-linecap="butt" stroke-linejoin="miter" stroke-dashoffset="0.0px"/>
<path d="M327.5235 119.2792 L327.8191 116.0789 L326.0002 118.8845 L327.5235 119.2792 M361.0532 114.5634 L361.0232 114.1841 L360.2694 114.5768 L361.0532 114.5634 M321.7888 59.476 L321.4997 59.0101 L321.4886 59.1836 L321.7888 59.476" stroke-dasharray="" fill="#ffff00" fill-opacity="0.6" stroke="none" stroke-opacity="1.0" stroke-width="0.0px" stroke-linecap="butt" stroke-linejoin="miter" stroke-dashoffset="0.0px"/>
<path d="M416.2923 3.9238 L416.2669 3.878 L416.1785 3.8907 L416.2923 3.9238 M416.4345 3.8733 L416.4377 3.7958 L416.3602 3.8954 L416.4345 3.8733 M416.0236 3.8053 L415.9793 3.7168 L416.0015 3.8053 L416.0236 3.8053 M416.602 3.6868 L416.6668 3.5145 L416.5751 3.5983 L416.602 3.6868 M415.951 3.6173 L415.8087 3.3138 L415.8056 3.4513 L415.951 3.6173 M416.6999 3.4434 L416.7063 3.2775 L416.6304 3.3312 L416.6999 3.4434 M417.8314 1.7035 L417.8061 1.6229 L417.7255 1.6292 L417.8314 1.7035 M415.8972 -1.2057 L415.8766 -1.3021 L415.8324 -1.2974 L415.8972 -1.2057 M416.5103 -1.3132 L416.5419 -1.3606 L416.4787 -1.3653 L416.5103 -1.3132 M415.5448 -1.476 L415.4769 -1.5518 L415.4847 -1.487 L415.5448 -1.476 M417.4268 -1.5929 L417.449 -1.6608 L417.3779 -1.6008 L417.4268 -1.5929 M418.2076 -2.1523 L418.1839 -2.2329 L418.1602 -2.1839 L418.2076 -2.1523 M414.9648 -2.7797 L414.9316 -2.8429 L414.9364 -2.7623 L414.9648 -2.7797 M418.1221 -2.8429 L418.0637 -2.8903 L418.0938 -2.8271 L418.1221 -2.8429 M417.4205 -10.1373 L417.4205 -10.2148 L417.3447 -10.1769 L417.4205 -10.1373 M417.5596 -10.2069 L417.6086 -10.2749 L417.5517 -10.278 L417.5596 -10.2069 M416.9227 -10.4235 L416.9069 -10.3729 L416.9797 -10.3508 L416.9227 -10.4235 M418.1728 -10.3935 L418.2281 -10.5105 L418.1048 -10.3729 L418.1728 -10.3935 M416.7142 -10.7492 L416.6984 -10.8014 L416.6652 -10.7318 L416.7142 -10.7492 M418.4177 -10.7903 L418.4161 -11.0227 L418.3608 -10.765 L418.4177 -10.7903 M418.4351 -11.1809 L418.4019 -11.2568 L418.4082 -11.1761 L418.4351 -11.1809 M417.1267 -11.2947 L417.1235 -11.3548 L417.0745 -11.3026 L417.1267 -11.2947 M418.639 -11.992 L418.5188 -12.0063 L418.4698 -11.9272 L418.639 -11.992 M415.9936 -12.4649 L415.9825 -12.5012 L415.9161 -12.5012 L415.9936 -12.4649 M414.8953 -13.1702 L414.8495 -13.2524 L414.8337 -13.2161 L414.8953 -13.1702 M417.3747 -13.5688 L417.3858 -13.7127 L417.2815 -13.8898 L417.3747 -13.5688 M417.1077 -14.184 L417.0587 -14.2536 L417.0729 -14.1809 L417.1077 -14.184 M414.5839 -15.2597 L414.5287 -15.3435 L414.5287 -15.2803 L414.5839 -15.2597 M415.4326 -15.5619 L415.4879 -15.6362 L415.3963 -15.5761 L415.4326 -15.5619 M417.3178 -15.7739 L417.2767 -15.8324 L417.2736 -15.7691 L417.3178 -15.7739 M415.3899 -16.7722 L415.3583 -16.8165 L415.322 -16.7722 L415.3899 -16.7722 M418.5884 -16.7833 L418.62 -16.8893 L418.5568 -16.7928 L418.5884 -16.7833 M415.1877 -17.6552 L415.1908 -17.7059 L415.1403 -17.6901 L415.1877 -17.6552 M418.6294 -19.17 L418.65 -19.2222 L418.5979 -19.1953 L418.6294 -19.17 M419.5745 -19.618 L419.5635 -19.6528 L419.5428 -19.6449 L419.5745 -19.618 M414.1668 -19.9821 L414.1431 -20.0201 L414.0831 -19.9868 L414.1668 -19.9821 M414.8495 -20.1752 L414.8747 -20.2639 L414.7657 -20.1388 L414.8495 -20.1752 M413.5679 -21.1443 L413.5789 -21.2013 L413.5126 -21.2045 L413.5679 -21.1443 M417.9847 -22.3923 L418.0211 -22.4351 L417.9373 -22.3876 L417.9847 -22.3923 M413.6375 -22.7487 L413.6264 -22.7947 L413.5694 -22.7788 L413.6375 -22.7487 M418.2028 -23.3079 L418.1507 -23.384 L418.1444 -23.3238 L418.2028 -23.3079 M418.1538 -23.7104 L418.1633 -23.7927 L418.0826 -23.7722 L418.1538 -23.7104 M418.2391 -23.8656 L418.1981 -23.8133 L418.2423 -23.7801 L418.2391 -23.8656 M415.0597 -24.3061 L415.0755 -24.2697 L415.1624 -24.2665 L415.0597 -24.3061 M415.1166 -27.7827 L415.1766 -27.9159 L415.1197 -27.8985 L415.1166 -27.7827 M418.6437 -30.0434 L418.6437 -30.1196 L418.5141 -30.0656 L418.6437 -30.0434 M417.1109 -30.5434 L417.1867 -30.5751 L417.0808 -30.5672 L417.1109 -30.5434 M418.9029 -30.683 L418.9155 -30.8386 L418.8175 -30.8846 L418.9029 -30.683 M417.4743 -32.5359 L417.5233 -32.6439 L417.4949 -32.7201 L417.4743 -32.5359 M415.2398 -32.8297 L415.1845 -32.89 L415.1845 -32.817 L415.2398 -32.8297 M417.7714 -33.2077 L417.8551 -33.3332 L417.7334 -33.2077 L417.7714 -33.2077 M415.1118 -33.3427 L415.0676 -33.4396 L415.0898 -33.3237 L415.1118 -33.3427 M417.7524 -33.6366 L417.6908 -33.6906 L417.6987 -33.6446 L417.7524 -33.6366 M417.5549 -33.9401 L417.5265 -34.0163 L417.4474 -34.0322 L417.5549 -33.9401 M414.9095 -33.9719 L414.8684 -34.0354 L414.8811 -33.9385 L414.9095 -33.9719 M416.8279 -35.2559 L416.8248 -35.3004 L416.8169 -35.1987 L416.8279 -35.2559 M416.6999 -35.5229 L416.6241 -35.5468 L416.6525 -35.4975 L416.6999 -35.5229 M416.4519 -36.0126 L416.4361 -36.0698 L416.3744 -36.0539 L416.4519 -36.0126 M415.5748 -36.6518 L415.5242 -36.7377 L415.5211 -36.6566 L415.5748 -36.6518 M415.6728 -37.9816 L415.676 -38.0468 L415.6301 -37.9593 L415.6728 -37.9816 M415.864 -38.1852 L415.8719 -38.2918 L415.8198 -38.1868 L415.864 -38.1852 M416.0679 -38.3539 L416.2101 -38.6849 L416.0236 -38.3968 L416.0679 -38.3539 M416.3207 -38.9618 L416.3365 -38.8822 L416.4361 -38.9411 L416.3207 -38.9618 M416.4566 -39.2546 L416.4835 -39.4998 L416.4012 -39.2881 L416.4566 -39.2546 M416.4202 -39.6208 L416.3902 -39.7991 L416.3792 -39.6415 L416.4202 -39.6208 M415.2066 -39.9917 L415.1466 -40.0904 L415.175 -39.9885 L415.2066 -39.9917 M414.8115 -40.3898 L414.7878 -40.4662 L414.7358 -40.4551 L414.8115 -40.3898" stroke-dasharray="" fill="#ffff00" fill-opacity="0.6" stroke="none" stroke-opacity="1.0" stroke-width="0.0px" stroke-linecap="butt" stroke-linejoin="miter" stroke-dashoffset="0.0px"/>
<path d="M187.4741 153.6366 L187.6227 153.0932 L187.1375 153.524 L187.4741 153.6366 M201.8891 126.4188 L201.8386 125.433 L201.5889 127.021 L201.8891 126.4188 M226.9945 94.6776 L226.767 93.8756 L226.4794 94.3794 L226.9945 94.6776 M230.4047 63.1509 L230.0405 59.9442 L223.3916 63.94 L215.8443 64.6183 L213.1174 67.1862 L205.8793 67.0662 L203.8803 65.371 L198.9218 66.2847 L196.9841 66.3063 L195.5571 69.6779 L196.6443 76.5979 L204.3686 85.6513 L203.7444 92.3439 L199.8808 95.5084 L200.7612 98.9612 L194.876 91.6322 L196.7771 87.9917 L196.3931 83.805 L191.3363 83.6172 L188.9976 80.5227 L171.8785 86.2175 L173.0319 90.0522 L173.0718 92.2831 L177.9295 92.339 L187.626 96.4327 L187.664 99.7397 L188.1489 106.2162 L186.0219 109.792 L187.8408 115.8184 L184.9015 119.7923 L184.8256 124.3363 L178.048 130.898 L182.1361 143.5768 L181.8653 152.9987 L182.8033 158.5992 L187.11 158.6471 L187.4631 153.7967 L186.8089 155.1227 L185.3219 153.1108 L186.6746 150.7871 L199.1806 144.7948 L201.9397 141.3665 L202.2131 129.7771 L200.8888 130.9182 L196.9446 113.8502 L198.5375 115.2974 L206.238 109.4729 L210.1697 104.7771 L209.5865 103.3931 L222.4039 98.0812 L230.8993 89.1537 L232.369 84.5464 L229.888 74.3762 L231.2359 73.2027 L230.4047 63.1509 M196.8513 68.8408 L197.0062 68.844 L196.9714 68.9846 L196.8513 68.8408 M197.5403 68.9619 L197.7157 69.0282 L197.5877 69.3271 L197.5403 68.9619" stroke-dasharray="" fill="#ffff00" fill-opacity="0.6" stroke="none" stroke-opacity="1.0" stroke-width="0.0px" stroke-linecap="butt" stroke-linejoin="miter" stroke-dashoffset="0.0px"/>
<path d="M197.5877 69.3271 L197.7157 69.0282 L197.5403 68.9619 L197.5877 69.3271 M196.9714 68.9846 L197.0062 68.844 L196.8513 68.8408 L196.9714 68.9846 M188.4997 54.2601 L187.3943 53.7463 L191.7285 60.4284 L189.1587 62.3091 L189.2883 69.6116 L190.8385 70.8632 L187.9972 72.2875 L185.9066 78.1432 L188.9976 80.5227 L191.3363 83.6172 L196.3931 83.805 L196.7771 87.9917 L194.876 91.6322 L200.7612 98.9612 L199.8808 95.5084 L203.7444 92.3439 L204.3686 85.6513 L196.6443 76.5979 L195.5571 69.6779 L196.9841 66.3063 L198.9218 66.2847 L195.2727 55.6369 L188.4997 54.2601" stroke-dasharray="" fill="#ffff00" fill-opacity="0.6" stroke="none" stroke-opacity="1.0" stroke-width="0.0px" stroke-linecap="butt" stroke-linejoin="miter" stroke-dashoffset="0.0px"/>
<path d="M953.0847 132.6174 L953.0674 132.3537 L952.9345 132.5831 L953.0847 132.6174 M952.8983 132.4838 L953.1953 132.1157 L952.5174 131.6878 L952.8983 132.4838 M948.9981 131.1969 L948.9729 130.7764 L948.7502 131.1524 L948.9981 131.1969 M974.5856 130.3851 L974.5349 130.3629 L974.5113 130.4073 L974.5856 130.3851 M944.6431 128.837 L944.6431 128.5744 L944.5102 128.6852 L944.6431 128.837 M946.917 126.5378 L946.8632 126.4409 L946.7194 126.4579 L946.917 126.5378 M955.7458 124.9931 L954.646 124.5891 L956.4174 126.0889 L955.7458 124.9931 M954.8387 123.1122 L954.6096 122.8462 L954.6033 122.9631 L954.8387 123.1122 M946.9043 120.6165 L946.9675 120.5286 L946.5661 120.5658 L946.9043 120.6165 M951.6783 120.7517 L950.384 122.1655 L952.3089 123.3189 L951.6783 120.7517 M947.9092 118.6231 L947.195 120.5168 L947.9156 119.8109 L947.9092 118.6231 M934.6163 117.7097 L934.5153 117.4924 L934.5438 117.6693 L934.6163 117.7097 M932.6583 117.1944 L932.4483 117.0328 L932.5368 117.1894 L932.6583 117.1944 M934.7792 118.1444 L932.9175 116.6895 L940.1457 125.642 L945.0175 128.0205 L946.9264 130.2945 L950.1281 130.3236 L934.7792 118.1444 M934.3097 117.1423 L933.9068 116.5566 L933.8943 116.8477 L934.3097 117.1423 M931.963 116.6626 L931.941 116.4086 L931.8226 116.4086 L931.963 116.6626 M932.8479 116.6559 L932.6899 116.1748 L932.6363 116.5734 L932.8479 116.6559 M931.1113 114.8657 L931.2757 114.7481 L930.8142 113.8988 L931.1113 114.8657 M930.7446 113.768 L930.5693 113.4376 L930.5203 113.5801 L930.7446 113.768 M909.9344 112.1941 L910.1019 111.1596 L909.9439 110.815 L909.9344 112.1941" stroke-dasharray="" fill="#ffff00" fill-opacity="0.6" stroke="none" stroke-opacity="1.0" stroke-width="0.0px" stroke-linecap="butt" stroke-linejoin="miter" stroke-dashoffset="0.0px"/>
<path d="M257.6071 73.4555 L257.6102 73.1249 L257.4933 73.2497 L257.6071 73.4555 M257.1662 73.7213 L256.4488 72.6292 L256.5546 74.5157 L257.1662 73.7213" stroke-dasharray="" fill="#ffff00" fill-opacity="0.6" stroke="none" stroke-opacity="1.0" stroke-width="0.0px" stroke-linecap="butt" stroke-linejoin="miter" stroke-dashoffset="0.0px"/>
<path d="M955.534 173.0373 L955.7205 172.6722 L955.2354 172.5439 L955.534 173.0373" stroke-dasharray="" fill="#ffff00" fill-opacity="0.6" stroke="none" stroke-opacity="1.0" stroke-width="0.0px" stroke-linecap="butt" stroke-linejoin="miter" stroke-dashoffset="0.0px"/>
<path d="M551.3339 69.9236 L551.337 69.6553 L551.2674 69.9349 L551.3339 69.9236 M551.0415 69.9123 L550.8345 69.5179 L550.7951 69.8072 L551.0415 69.9123" stroke-dasharray="" fill="#ffff00" fill-opacity="0.6" stroke="none" stroke-opacity="1.0" stroke-width="0.0px" stroke-linecap="butt" stroke-linejoin="miter" stroke-dashoffset="0.0px"/>
<path d="M19.1226 370.929 L19.8179 370.3367 L19.1542 370.3123 L19.1226 370.929" stroke-dasharray="" fill="#ffff00" fill-opacity="0.6" stroke="none" stroke-opacity="1.0" stroke-width="0.0px" stroke-linecap="butt" stroke-linejoin="miter" stroke-dashoffset="0.0px"/>
<path d="M397.1571 326.5917 L397.056 326.3207 L396.8679 326.4232 L397.1571 326.5917 M391.3339 323.8191 L391.405 323.5281 L390.5106 323.6614 L391.3339 323.8191 M395.9846 322.477 L396.3923 322.0008 L395.5658 322.3803 L395.9846 322.477 M394.0392 321.4623 L394.6319 319.6875 L393.7643 320.3874 L394.0392 321.4623 M393.3993 320.568 L393.9129 319.7404 L393.7975 319.4257 L393.3993 320.568 M395.3272 319.6563 L395.4757 319.4617 L394.8199 319.2384 L395.3272 319.6563 M392.5396 318.9191 L391.3829 326.9777 L396.1932 325.0414 L399.6649 326.7065 L396.9406 324.1031 L401.4459 322.8013 L400.0648 321.1125 L395.8486 323.3196 L394.1404 322.2908 L396.0715 320.4813 L393.769 321.7616 L393.1243 320.6354 L392.892 321.711 L392.5396 318.9191 M397.6786 324.8297 L397.3294 324.6741 L397.2282 324.38 L397.6786 324.8297 M398.2901 325.6598 L397.2866 325.0997 L397.7734 325.1436 L398.2901 325.6598 M390.6876 317.5945 L390.6481 317.4583 L390.2925 317.5587 L390.6876 317.5945 M391.3829 317.3459 L391.5361 316.9636 L391.3228 317.0209 L391.3829 317.3459 M297.2697 299.1622 L297.2855 298.5066 L296.3248 298.7793 L297.2697 299.1622 M294.7951 299.1301 L294.5707 298.2021 L293.8422 298.4746 L294.7951 299.1301 M285.9931 296.4772 L286.0026 295.8164 L285.4511 295.912 L285.9931 296.4772 M441.0563 239.3811 L440.9236 239.134 L440.8873 239.3325 L441.0563 239.3811 M441.197 233.3263 L441.1986 232.7478 L440.7972 232.8399 L441.197 233.3263 M243.2442 98.6084 L243.2395 98.5175 L243.0356 98.4927 L243.2442 98.6084" stroke-dasharray="" fill="#ffff00" fill-opacity="0.6" stroke="none" stroke-opacity="1.0" stroke-width="0.0px" stroke-linecap="butt" stroke-linejoin="miter" stroke-dashoffset="0.0px"/>
<path d="M419.6914 358.0439 L416.6226 356.7448 L417.9879 358.6998 L419.6914 358.0439" stroke-dasharray="" fill="#ffff00" fill-opacity="0.6" stroke="none" stroke-opacity="1.0" stroke-width="0.0px" stroke-linecap="butt" stroke-linejoin="miter" stroke-dashoffset="0.0px"/>
<path d="M412.3716 42.1117 L412.1536 41.2657 L411.6431 41.4426 L412.3716 42.1117 M405.8927 37.9672 L405.9891 37.9259 L405.8642 37.9545 L405.8927 37.9672 M405.4266 36.4387 L405.4249 36.294 L405.3823 36.3831 L405.4266 36.4387 M405.8895 35.3799 L405.9637 35.1923 L405.8373 35.3163 L405.8895 35.3799 M408.3626 30.9957 L408.271 30.9354 L408.2346 30.9449 L408.3626 30.9957 M410.831 30.5497 L410.7867 30.4688 L410.7819 30.5053 L410.831 30.5497 M410.9226 30.3069 L410.8973 30.2847 L410.8578 30.3974 L410.9226 30.3069 M408.1334 30.1434 L408.1698 29.9974 L408.124 30.0292 L408.1334 30.1434 M408.8572 29.953 L408.9299 29.9435 L408.8619 29.907 L408.8572 29.953" stroke-dasharray="" fill="#ffff00" fill-opacity="0.6" stroke="none" stroke-opacity="1.0" stroke-width="0.0px" stroke-linecap="butt" stroke-linejoin="miter" stroke-dashoffset="0.0px"/>
<path d="M601.3235 60.134 L601.5238 59.4 L600.9116 59.7078 L601.3235 60.134" stroke-dasharray="" fill="#ffff00" fill-opacity="0.6" stroke="none" stroke-opacity="1.0" stroke-width="0.0px" stroke-linecap="butt" stroke-linejoin="miter" stroke-dashoffset="0.0px"/>
<path d="M-910.3425 2.2645 L-910.3234 2.1318 L-910.4988 2.1823 L-910.3425 2.2645 M-1003.8394 -1.2279 L-1003.8267 -1.2863 L-1003.9087 -1.2642 L-1003.8394 -1.2279 M-1004.841 -4.5117 L-1004.903 -4.624 L-1004.9108 -4.526 L-1004.841 -4.5117 M-964.3948 -96.5505 L-964.447 -96.5719 L-964.5163 -96.5356 L-964.3948 -96.5505 M948.0326 -111.8089 L947.9259 -112.081 L947.8113 -111.9629 L948.0326 -111.8089 M-1008.8359 -167.2882 L-1008.7396 -167.3312 L-1008.7634 -167.4137 L-1008.8359 -167.2882 M-1009.141 -167.238 L-1008.9701 -167.4496 L-1009.1507 -167.4083 L-1009.141 -167.238" stroke-dasharray="" fill="#ffff00" fill-opacity="0.6" stroke="none" stroke-opacity="1.0" stroke-width="0.0px" stroke-linecap="butt" stroke-linejoin="miter" stroke-dashoffset="0.0px"/>
<path d="M966.2354 117.6895 L966.4663 117.1944 L965.6634 117.0665 L966.2354 117.6895 M968.3483 113.4979 L968.4335 113.285 L968.2786 113.29 L968.3483 113.4979 M964.2569 113.4107 L962.7446 112.2359 L963.4116 113.9659 L964.2569 113.4107 M964.8069 111.7738 L964.8069 111.5193 L964.7137 111.7068 L964.8069 111.7738 M963.1587 109.9992 L961.528 107.9625 L961.3604 109.4095 L963.1587 109.9992 M959.0026 102.2911 L957.5031 101.3278 L956.5755 102.452 L959.0026 102.2911 M958.004 96.8707 L956.5771 95.6697 L956.6924 97.0044 L958.004 96.8707 M957.0479 95.2873 L957.1127 94.7715 L956.8788 95.195 L957.0479 95.2873 M956.9578 93.26 L955.2655 93.7702 L957.4635 94.2394 L956.9578 93.26 M952.4148 92.88 L951.0557 91.6322 L952.4194 95.3829 L954.4391 95.3993 L952.4148 92.88 M951.2342 90.7831 L951.3368 90.0871 L950.4851 90.1019 L951.2342 90.7831 M951.5156 89.7934 L951.6198 89.5457 L951.4049 89.713 L951.5156 89.7934 M951.1962 89.9148 L951.242 89.7474 L951.1283 89.4456 L950.9703 89.485 L950.6715 89.8049 L951.1962 89.9148 M956.9325 92.2173 L957.2503 91.4646 L956.6056 89.2275 L956.9325 92.2173 M954.913 89.1898 L955.7458 88.0343 L953.8464 88.9602 L954.913 89.1898 M951.0415 87.8967 L951.0651 87.8377 L950.9752 87.823 L951.0415 87.8967 M950.8661 86.1567 L950.904 86.0765 L950.5925 85.9277 L950.8661 86.1567 M956.6955 88.6586 L956.8156 87.5904 L956.3352 85.8541 L956.6955 88.6586 M948.9224 87.2531 L947.7276 84.1152 L948.6901 90.1166 L948.9903 90.2364 L949.4913 89.7622 L950.4519 89.8524 L950.9043 89.3935 L951.3968 89.4166 L950.3793 86.0013 L948.9224 87.2531 M953.0451 82.3656 L953.3911 81.4624 L952.3974 81.4983 L953.0451 82.3656 M952.7701 80.1461 L953.3313 79.5536 L952.7559 78.7303 L952.7701 80.1461 M954.0582 78.5449 L953.9569 78.2326 L953.5918 78.6441 L954.0582 78.5449 M952.0196 77.8798 L951.8774 77.4443 L951.713 77.675 L952.0196 77.8798 M948.2096 77.2428 L948.3043 77.0283 L948.058 76.9926 L948.2096 77.2428 M947.9488 76.8269 L948.0042 76.6839 L947.7465 76.5508 L947.9488 76.8269 M947.884 76.1838 L947.9868 75.8932 L947.6976 75.9013 L947.884 76.1838 M947.5396 75.687 L947.5696 75.1353 L947.3215 75.0104 L947.5396 75.687" stroke-dasharray="" fill="#ffff00" fill-opacity="0.6" stroke="none" stroke-opacity="1.0" stroke-width="0.0px" stroke-linecap="butt" stroke-linejoin="miter" stroke-dashoffset="0.0px"/>
<path d="M949.6413 3.1416 L949.8089 2.8808 L949.6493 2.8066 L949.6413 3.1416" stroke-dasharray="" fill="#ffff00" fill-opacity="0.6" stroke="none" stroke-opacity="1.0" stroke-width="0.0px" stroke-linecap="butt" stroke-linejoin="miter" stroke-dashoffset="0.0px"/>
<path d="M962.4776 352.8806 L962.5898 351.6135 L961.4269 352.2284 L962.4776 352.8806 M944.9052 337.6807 L945.6101 337.3599 L943.9208 337.0795 L944.9052 337.6807 M944.3302 334.8078 L944.376 334.7304 L944.1816 334.8201 L944.3302 334.8078 M945.7825 336.8142 L945.4899 334.1234 L943.7123 336.6116 L945.7825 336.8142 M946.1868 333.9421 L946.2437 333.8327 L945.9767 333.9271 L946.1868 333.9421 M1017.2665 326.9948 L1017.2585 326.0255 L1016.6911 326.6551 L1017.2665 326.9948 M947.9519 312.433 L947.8951 312.0479 L947.5634 312.4212 L947.9519 312.433 M1018.7486 309.3785 L1018.7076 309.2186 L1018.5906 309.3359 L1018.7486 309.3785 M952.5189 305.7433 L952.8144 305.4547 L952.4715 305.5245 L952.5189 305.7433 M953.9458 301.9718 L954.1339 301.7618 L953.8196 301.6672 L953.9458 301.9718 M956.8252 302.8752 L954.458 301.1715 L952.9977 305.9576 L956.8252 302.8752 M948.4309 293.2892 L948.3991 292.2601 L947.2283 293.1058 L948.4309 293.2892 M950.1012 289.7862 L949.8293 288.5183 L949.4264 289.3011 L950.1012 289.7862 M-1002.1674 281.8819 L-1001.9033 281.3941 L-1002.5861 281.1669 L-1002.1674 281.8819 M-1003.8172 277.2246 L-1006.0689 277.8241 L-1004.2835 278.282 L-1004.6894 280.2502 L-1003.8172 277.2246 M992.1389 257.0254 L991.7028 257.1513 L991.9823 257.273 L991.826 257.5333 L990.9663 257.9071 L991.9965 257.6845 L992.1389 257.0254 M988.762 255.6074 L989.6611 253.9745 L988.8615 254.3645 L988.762 255.6074 M983.3891 252.455 L979.1082 255.2896 L978.8585 259.2032 L971.6288 270.6974 L957.8665 279.6057 L952.9299 287.2944 L950.0269 288.4579 L951.25 291.1228 L949.0297 289.8694 L948.3628 291.9281 L950.2797 291.3348 L948.7691 292.6465 L949.9715 293.0289 L947.1113 295.5182 L961.4679 301.0103 L971.5658 294.4046 L970.2651 294.484 L974.4701 282.0322 L980.9066 277.2048 L984.6991 278.1725 L982.817 273.3279 L991.5116 261.8248 L990.1194 259.4983 L991.7264 257.8336 L991.0406 258.1867 L990.0182 257.9345 L991.709 256.1766 L984.7781 258.519 L984.2535 254.6212 L982.226 253.5452 L983.3891 252.455 M1006.9411 233.094 L1006.8193 232.9319 L1006.7325 233.044 L1006.9411 233.094 M1003.7394 231.5089 L1003.858 231.3113 L1003.787 231.1817 L1003.7394 231.5089 M996.5003 225.6748 L996.6583 224.9191 L995.5696 225.3827 L996.5003 225.6748 M1000.2613 224.2335 L1000.1207 223.8457 L999.9375 223.8792 L1000.2613 224.2335 M994.7811 223.0218 L995.0276 222.9649 L994.8158 222.5211 L994.7811 223.0218 M996.4056 221.2818 L996.249 220.9803 L996.0089 221.1937 L996.4056 221.2818 M998.6543 222.2306 L997.6712 220.276 L997.597 221.3954 L998.6543 222.2306 M984.399 208.8946 L982.599 209.2971 L984.6753 214.2616 L986.3425 216.4708 L987.9071 214.9719 L986.4469 216.7913 L990.3264 222.6663 L989.3767 218.8643 L992.741 221.4091 L991.3946 222.1914 L992.4439 224.3772 L990.9347 223.2852 L992.7252 227.124 L994.9155 227.2784 L992.9939 227.3815 L995.4132 232.2259 L993.2483 239.9507 L988.4554 243.4141 L996.4405 249.3821 L996.2823 253.9974 L993.234 258.2561 L997.3932 260.8049 L1005.9898 250.0208 L1007.246 242.7958 L1012.1101 243.1814 L1015.8394 231.9622 L1012.7247 230.7949 L1007.8403 234.124 L1001.2127 231.4271 L1000.3387 225.1085 L997.567 223.179 L998.8502 228.6009 L994.7273 225.7736 L991.687 214.4105 L986.7424 211.4582 L985.7089 212.9286 L984.399 208.8946 M979.3832 207.083 L979.5523 206.9359 L979.2474 206.9416 L979.3832 207.083 M-1016.0656 182.8746 L-1016.1068 182.8305 L-1016.1099 182.9149 L-1016.0656 182.8746 M-1011.7469 174.3242 L-1012.3519 173.9819 L-1012.1877 174.3641 L-1011.7469 174.3242" stroke-dasharray="" fill="#ffff00" fill-opacity="0.6" stroke="none" stroke-opacity="1.0" stroke-width="0.0px" stroke-linecap="butt" stroke-linejoin="miter" stroke-dashoffset="0.0px"/>
<path d="M874.7851 66.5418 L871.5266 64.8455 L872.5394 66.2563 L874.7851 66.5418 M877.7828 65.2388 L876.9642 64.7875 L876.1078 65.192 L877.7828 65.2388 M871.7714 64.5248 L870.9181 64.1091 L871.5976 64.6231 L871.7714 64.5248 M869.6792 61.0093 L867.7877 60.826 L868.946 61.3245 L869.6792 61.0093 M859.4188 60.7135 L858.5101 60.9659 L859.2623 61.0946 L859.4188 60.7135 M858.409 60.9434 L858.4549 60.3775 L857.8321 60.3148 L858.409 60.9434 M859.6825 57.4495 L857.6568 55.4926 L858.7866 57.8171 L860.3257 58.342 L860.6229 56.7371 L859.6825 57.4495 M857.1259 53.9381 L855.7335 53.6562 L858.5764 55.2794 L857.1259 53.9381 M855.2627 54.4364 L854.4094 52.6282 L853.9495 53.5361 L855.2627 54.4364 M869.3474 51.2551 L867.5427 51.5367 L870.384 52.4089 L869.3474 51.2551 M859.7332 48.1057 L859.0047 48.6985 L859.8439 50.4361 L859.7332 48.1057 M817.1408 49.8749 L816.1689 48.6937 L814.5556 48.0738 L817.1408 49.8749 M816.7695 48.4988 L816.8011 47.8086 L815.2998 47.8246 L816.7695 48.4988 M817.4205 48.1872 L817.3353 47.6968 L816.9653 47.5722 L817.4205 48.1872 M817.479 47.0692 L817.6828 46.6637 L817.2182 46.8074 L817.479 47.0692 M817.3669 46.6637 L817.4948 46.2694 L816.9526 46.2853 L817.3669 46.6637 M817.6701 46.0715 L816.7267 45.7746 L816.8594 46.0715 L817.6701 46.0715 M825.9901 44.8971 L825.9269 44.6705 L825.916 44.862 L825.9901 44.8971 M819.1983 44.6514 L819.0118 44.2144 L818.5012 43.9927 L819.1983 44.6514 M881.109 31.5847 L880.3236 33.8514 L883.1429 37.7588 L887.0035 38.8201 L881.109 31.5847 M842.3054 32.9212 L840.7056 31.3037 L841.1882 32.7533 L842.3054 32.9212 M842.6427 31.1561 L842.5228 30.637 L842.363 30.9053 L842.6427 31.1561 M839.6924 30.5481 L839.732 30.126 L839.4554 30.3021 L839.6924 30.5481 M837.1389 31.0497 L836.9554 29.5721 L836.3123 30.4815 L837.1389 31.0497 M879.932 30.9989 L879.725 28.5742 L879.1056 29.2453 L879.932 30.9989 M848.5372 28.0412 L848.5656 27.7177 L848.3158 27.8493 L848.5372 28.0412 M831.9807 27.6669 L831.8292 27.2721 L831.7122 27.5305 L831.9807 27.6669 M850.8142 26.8756 L850.7179 26.5046 L850.2375 26.6489 L850.8142 26.8756 M907.4741 26.0718 L907.4851 25.834 L907.4425 26.0639 L907.4741 26.0718 M830.3011 27.1357 L830.4733 25.7833 L829.8523 26.6108 L830.3011 27.1357 M876.9721 25.2729 L876.958 24.9385 L876.8439 24.8941 L876.9721 25.2729 M866.0493 23.956 L861.933 23.9401 L862.8684 27.9556 L858.5922 31.264 L854.2688 31.6308 L853.8389 28.525 L852.6552 31.5371 L844.3938 31.0577 L843.7936 32.3395 L847.9682 35.1351 L855.999 35.7757 L861.6358 31.5419 L865.2576 31.0926 L864.545 28.4425 L867.0198 26.7044 L866.0493 23.956 M847.9493 34.7346 L847.8939 34.7028 L847.9524 34.6758 L847.9493 34.7346 M825.2174 23.5456 L825.5144 23.3349 L825.2806 23.0307 L825.2174 23.5456 M874.0724 23.5741 L874.1467 22.8834 L873.7247 23.3206 L874.0724 23.5741 M871.8696 19.9172 L871.7288 19.6195 L871.5028 19.7446 L871.8696 19.9172 M880.828 19.9821 L880.6366 19.4961 L880.7457 20.0961 L880.828 19.9821 M872.3641 19.4216 L872.2978 19.1905 L871.8932 19.3789 L872.3641 19.4216 M868.3882 18.3769 L868.1228 17.3482 L867.7767 17.679 L868.3882 18.3769 M858.6886 16.6298 L857.6915 16.9574 L859.1453 16.9146 L858.6886 16.6298 M865.1092 17.0824 L865.1597 16.6662 L864.5608 16.2089 L865.1092 17.0824 M864.7236 16.0998 L864.3269 15.4131 L864.3222 16.1203 L864.7236 16.0998 M858.4905 15.0009 L857.4844 15.5967 L866.3181 20.3383 L868.6458 23.8038 L868.8953 26.5443 L870.2559 27.1484 L870.3413 23.2065 L865.0287 18.4862 L858.4905 15.0009 M807.1964 16.9036 L802.1474 14.8365 L802.1733 52.1519 L811.4568 53.3407 L815.3978 51.5751 L814.1382 48.363 L808.6028 46.9558 L816.9922 47.0612 L815.5495 45.0997 L818.9611 45.5369 L817.2932 42.6034 L820.4118 44.4839 L822.1613 42.8002 L831.088 46.1832 L833.9151 51.407 L836.1101 51.5799 L836.5809 54.1015 L841.6851 58.0226 L851.8983 59.1611 L854.5262 61.2313 L857.2663 60.4241 L855.4332 59.0406 L858.3299 58.5187 L852.845 57.4624 L851.7261 56.1789 L853.3839 55.0518 L848.8958 54.148 L849.4347 51.5207 L845.3924 51.8871 L842.725 46.0395 L837.2826 42.5818 L836.0469 38.4732 L841.2127 37.9784 L838.9795 34.0483 L829.2488 31.2529 L829.0731 27.3545 L822.1108 21.7524 L807.1964 16.9036 M864.8375 15.1806 L864.6193 14.774 L864.4707 15.1648 L864.8375 15.1806 M855.9406 15.1015 L854.5642 13.5308 L853.0408 14.0654 L855.9406 15.1015 M840.8887 13.3711 L841.2679 13.0516 L840.9045 12.7669 L840.8887 13.3711 M837.978 11.524 L834.2106 11.2583 L833.5644 12.4664 L837.978 11.524 M812.7509 9.6599 L812.4932 9.6488 L812.4507 9.8591 L812.7509 9.6599 M851.7387 8.1549 L850.6469 8.2751 L851.8082 9.1224 L851.7387 8.1549 M822.1691 7.9399 L822.1377 7.8625 L822.0761 7.8546 L822.1691 7.9399 M822.1613 6.3767 L822.1424 6.2487 L822.1266 6.3498 L822.1613 6.3767" stroke-dasharray="" fill="#ffff00" fill-opacity="0.6" stroke="none" stroke-opacity="1.0" stroke-width="0.0px" stroke-linecap="butt" stroke-linejoin="miter" stroke-dashoffset="0.0px"/>
<path d="M316.928 122.2231 L314.1388 122.4042 L316.7241 124.5162 L316.928 122.2231" stroke-dasharray="" fill="#ffff00" fill-opacity="0.6" stroke="none" stroke-opacity="1.0" stroke-width="0.0px" stroke-linecap="butt" stroke-linejoin="miter" stroke-dashoffset="0.0px"/>
<path d="M170.3949 13.1417 L173.9283 13.6526 L175.7535 11.8134 L173.41 6.0495 L170.5244 8.332 L168.3737 7.8846 L164.2287 13.6257 L165.1168 15.6204 L169.8181 15.7058 L170.3949 13.1417" stroke-dasharray="" fill="#ffff00" fill-opacity="0.6" stroke="none" stroke-opacity="1.0" stroke-width="0.0px" stroke-linecap="butt" stroke-linejoin="miter" stroke-dashoffset="0.0px"/>
<path d="M264.4843 55.762 L264.5807 55.5503 L264.3974 55.7026 L264.4843 55.762 M264.5934 53.6995 L262.8503 53.6562 L263.2201 54.0807 L264.5934 53.6995 M264.0434 53.48 L264.1177 53.3871 L263.2628 53.4064 L264.0434 53.48 M320.1833 40.6908 L320.1628 40.557 L319.9842 41.0364 L320.1833 40.6908 M315.934 27.1278 L315.501 25.9196 L315.0285 26.3524 L315.934 27.1278 M314.289 25.666 L314.4091 25.5217 L314.2068 25.33 L314.289 25.666 M317.3025 24.761 L317.2788 24.574 L316.7984 24.4139 L317.3025 24.761" stroke-dasharray="" fill="#ffff00" fill-opacity="0.6" stroke="none" stroke-opacity="1.0" stroke-width="0.0px" stroke-linecap="butt" stroke-linejoin="miter" stroke-dashoffset="0.0px"/>
<path d="M215.3292 303.3057 L214.9373 302.2674 L213.7679 302.91 L215.3292 303.3057 M215.947 300.8261 L215.8522 300.3682 L215.3639 300.5636 L215.947 300.8261 M170.063 129.5433 L167.1033 129.5308 L160.9861 132.0969 L153.3678 139.1682 L152.7198 142.3591 L147.1794 145.3601 L145.122 151.2288 L140.3858 152.1765 L130.9288 148.8462 L128.71 153.972 L123.2624 158.7574 L117.4329 158.5254 L118.3937 152.5274 L113.7831 145.4914 L113.7557 168.7568 L108.7889 172.2639 L103.4003 171.9154 L99.0135 170.6493 L97.073 166.2205 L93.8074 169.7714 L103.985 191.602 L104.0624 196.5242 L101.5324 197.9198 L104.9094 203.8792 L104.7024 207.9699 L106.9132 206.4836 L107.0522 208.4867 L113.7778 211.5568 L128.256 205.9229 L146.2155 206.1078 L146.3467 204.2934 L150.9294 204.1984 L158.72 199.3414 L170.8026 187.5171 L178.2092 175.0565 L184.2647 169.5098 L187.11 158.6471 L182.8033 158.5992 L181.9733 161.6436 L177.2752 160.92 L175.3252 158.4139 L175.7983 155.2001 L178.2376 151.6936 L181.8653 152.9987 L182.1361 143.5768 L178.048 130.898 L170.063 129.5433 M162.5063 169.9776 L167.4287 174.3242 L165.9386 178.4806 L161.438 180.0997 L159.7436 183.3334 L156.812 181.7113 L153.6632 176.589 L162.5063 169.9776" stroke-dasharray="" fill="#ffff00" fill-opacity="0.6" stroke="none" stroke-opacity="1.0" stroke-width="0.0px" stroke-linecap="butt" stroke-linejoin="miter" stroke-dashoffset="0.0px"/>
<path d="M156.812 181.7113 L159.7436 183.3334 L161.438 180.0997 L165.9386 178.4806 L167.4287 174.3242 L162.5063 169.9776 L153.6632 176.589 L156.812 181.7113" stroke-dasharray="" fill="#ffff00" fill-opacity="0.6" stroke="none" stroke-opacity="1.0" stroke-width="0.0px" stroke-linecap="butt" stroke-linejoin="miter" stroke-dashoffset="0.0px"/>
<path d="M153.3678 139.1682 L160.9861 132.0969 L167.1033 129.5308 L165.3223 127.1112 L159.3789 125.6912 L157.6571 119.2322 L155.2353 119.1626 L154.8515 116.7164 L148.8561 113.3068 L143.7265 102.945 L138.5955 103.8199 L134.3464 107.0328 L132.5347 104.103 L119.4285 106.0336 L119.4208 128.3307 L113.7588 128.3801 L113.7831 145.4914 L118.3937 152.5274 L117.4329 158.5254 L123.2624 158.7574 L128.71 153.972 L130.9288 148.8462 L140.3858 152.1765 L145.122 151.2288 L147.1794 145.3601 L152.7198 142.3591 L153.3678 139.1682" stroke-dasharray="" fill="#ffff00" fill-opacity="0.6" stroke="none" stroke-opacity="1.0" stroke-width="0.0px" stroke-linecap="butt" stroke-linejoin="miter" stroke-dashoffset="0.0px"/>
<path d="M244.3042 -62.9799 L242.7054 -60.8373 L243.7578 -58.4721 L250.3711 -51.4535 L267.4457 -45.6661 L272.9998 -45.6833 L255.7203 -27.9239 L248.527 -27.8636 L238.3938 -22.6618 L233.1682 -16.1059 L233.2349 4.9274 L236.4197 9.5295 L247.4019 -3.6979 L261.7726 -13.8155 L272.8075 -25.4203 L289.2018 -53.9056 L289.547 -59.0278 L292.4808 -59.79 L290.2139 -59.7395 L291.7104 -67.8216 L288.8217 -68.6501 L284.9311 -65.9353 L269.647 -64.0093 L264.2378 -61.1637 L260.3235 -62.2431 L255.4216 -59.6109 L251.8945 -59.7684 L246.04 -65.6891 L244.3042 -62.9799" stroke-dasharray="" fill="#ffff00" fill-opacity="0.6" stroke="none" stroke-opacity="1.0" stroke-width="0.0px" stroke-linecap="butt" stroke-linejoin="miter" stroke-dashoffset="0.0px"/>
<path d="M1019.5761 48.8454 L1019.6258 48.5622 L1019.47 48.3179 L1019.5761 48.8454 M1014.7095 46.0204 L1014.7253 45.8177 L1014.6464 46.0124 L1014.7095 46.0204 M1014.8851 45.7475 L1014.9151 45.6102 L1014.8495 45.6597 L1014.8851 45.7475 M1016.6075 42.687 L1016.5521 42.585 L1016.5332 42.6679 L1016.6075 42.687 M1007.8372 40.9981 L1007.7424 40.9169 L1007.766 41.0029 L1007.8372 40.9981 M1003.0094 35.8298 L1003.0016 35.6692 L1002.9241 35.7868 L1003.0094 35.8298 M1008.6161 34.8474 L1008.6904 34.7616 L1008.534 34.7076 L1008.6161 34.8474 M1002.0392 32.4263 L1001.9806 32.3374 L1001.9854 32.4422 L1002.0392 32.4263 M1001.7073 32.2818 L1001.6962 32.2389 L1001.6221 32.2818 L1001.7073 32.2818" stroke-dasharray="" fill="#ffff00" fill-opacity="0.6" stroke="none" stroke-opacity="1.0" stroke-width="0.0px" stroke-linecap="butt" stroke-linejoin="miter" stroke-dashoffset="0.0px"/>
<path d="M225.7493 45.6214 L226.993 43.5861 L225.231 45.3486 L225.7493 45.6214 M224.4077 35.4006 L223.597 32.6169 L223.0123 35.4943 L224.8027 36.8776 L224.4077 35.4006 M226.0543 31.1243 L226.7433 27.9588 L225.7177 28.1459 L226.0543 31.1243 M180.2082 5.6876 L173.41 6.0495 L175.7535 11.8134 L173.9283 13.6526 L173.0418 16.2881 L175.4662 16.9537 L175.4169 18.5384 L170.8152 24.3109 L167.3892 25.33 L168.1082 35.8854 L175.0542 46.7644 L176.5894 49.0533 L187.3943 53.7463 L188.4997 54.2601 L195.2727 55.6369 L198.9218 66.2847 L203.8803 65.371 L205.8793 67.0662 L213.1174 67.1862 L215.8443 64.6183 L223.3916 63.94 L230.0405 59.9442 L226.5679 57.1398 L224.0727 50.8504 L223.4279 43.2433 L224.9835 39.8891 L220.5945 34.4565 L223.0217 26.5944 L213.9796 19.9473 L213.918 17.0507 L192.9687 5.6955 L180.2082 5.6876" stroke-dasharray="" fill="#ffff00" fill-opacity="0.6" stroke="none" stroke-opacity="1.0" stroke-width="0.0px" stroke-linecap="butt" stroke-linejoin="miter" stroke-dashoffset="0.0px"/>
<path d="M193.4033 -24.0447 L190.6741 -21.3612 L187.8281 -22.1389 L183.1443 -19.9884 L177.3606 -21.6067 L175.5524 -19.8859 L174.818 -13.931 L178.078 -12.0711 L170.4423 -4.6967 L168.3737 7.8846 L170.5244 8.332 L173.41 6.0495 L180.2082 5.6876 L192.9687 5.6955 L192.8944 -0.5863 L199.1664 -10.784 L196.0581 -20.9004 L193.4033 -24.0447" stroke-dasharray="" fill="#ffff00" fill-opacity="0.6" stroke="none" stroke-opacity="1.0" stroke-width="0.0px" stroke-linecap="butt" stroke-linejoin="miter" stroke-dashoffset="0.0px"/>
<path d="M132.4642 102.1103 L118.637 104.2253 L107.6101 103.0245 L104.9687 100.4836 L79.6059 100.687 L74.8689 97.8813 L66.8603 99.6791 L67.1558 104.6175 L82.5537 131.7477 L82.2803 141.3907 L87.0068 161.6845 L93.8074 169.7714 L97.073 166.2205 L99.0135 170.6493 L103.4003 171.9154 L108.7889 172.2639 L113.7557 168.7568 L113.7831 145.4914 L113.7588 128.3801 L119.4208 128.3307 L119.4285 106.0336 L132.5347 104.103 L134.3464 107.0328 L138.5955 103.8199 L143.7265 102.945 L142.0515 101.4969 L133.553 101.8914 L132.4642 102.1103" stroke-dasharray="" fill="#ffff00" fill-opacity="0.6" stroke="none" stroke-opacity="1.0" stroke-width="0.0px" stroke-linecap="butt" stroke-linejoin="miter" stroke-dashoffset="0.0px"/>
<path d="M175.7983 155.2001 L175.3252 158.4139 L177.2752 160.92 L181.9733 161.6436 L182.8033 158.5992 L181.8653 152.9987 L178.2376 151.6936 L175.7983 155.2001" stroke-dasharray="" fill="#ffff00" fill-opacity="0.6" stroke="none" stroke-opacity="1.0" stroke-width="0.0px" stroke-linecap="butt" stroke-linejoin="miter" stroke-dashoffset="0.0px"/>
<path d="M142.0515 101.4969 L143.7265 102.945 L153.8165 103.8847 L158.2949 97.9193 L163.6093 95.5016 L164.5637 92.0645 L173.0319 90.0522 L171.8785 86.2175 L188.9976 80.5227 L185.9066 78.1432 L187.9972 72.2875 L190.8385 70.8632 L189.2883 69.6116 L189.1587 62.3091 L191.7285 60.4284 L187.3943 53.7463 L176.5894 49.0533 L175.0542 46.7644 L164.4184 48.4109 L161.4064 52.9148 L163.2695 60.9579 L161.3558 66.1611 L165.1563 71.0007 L167.7859 71.4376 L169.5576 69.6745 L169.5368 77.2525 L168.3311 75.8948 L165.0678 76.9227 L161.8031 71.797 L157.3547 70.4977 L154.7335 66.2602 L152.8525 68.6178 L147.938 68.2043 L144.2686 66.6886 L144.1122 64.0866 L139.0838 65.6547 L136.4549 62.2152 L136.6503 74.6357 L125.1461 74.6227 L125.1564 93.2452 L133.553 101.8914 L142.0515 101.4969" stroke-dasharray="" fill="#ffff00" fill-opacity="0.6" stroke="none" stroke-opacity="1.0" stroke-width="0.0px" stroke-linecap="butt" stroke-linejoin="miter" stroke-dashoffset="0.0px"/>
<path d="M187.664 99.7397 L187.626 96.4327 L177.9295 92.339 L173.0718 92.2831 L173.0319 90.0522 L164.5637 92.0645 L163.6093 95.5016 L158.2949 97.9193 L153.8165 103.8847 L143.7265 102.945 L148.8561 113.3068 L154.8515 116.7164 L155.2353 119.1626 L157.6571 119.2322 L159.3789 125.6912 L165.3223 127.1112 L167.1033 129.5308 L170.063 129.5433 L178.048 130.898 L184.8256 124.3363 L184.9015 119.7923 L187.8408 115.8184 L186.0219 109.792 L188.1489 106.2162 L187.664 99.7397" stroke-dasharray="" fill="#ffff00" fill-opacity="0.6" stroke="none" stroke-opacity="1.0" stroke-width="0.0px" stroke-linecap="butt" stroke-linejoin="miter" stroke-dashoffset="0.0px"/>
<path d="M693.248 60.7087 L694.027 59.7298 L692.2855 60.4547 L693.248 60.7087 M700.9548 61.8779 L701.9535 59.7057 L698.6396 61.7765 L700.9548 61.8779 M702.012 59.1611 L702.3123 57.9872 L701.4889 58.7788 L702.012 59.1611 M682.8326 53.621 L676.5858 54.6463 L683.6037 58.5171 L686.7879 58.334 L687.2761 57.0596 L682.8326 53.621 M712.0444 51.7929 L710.8008 51.1471 L707.9579 52.4766 L707.3741 54.0826 L705.6848 53.371 L702.5113 59.0085 L707.8984 58.1205 L711.8392 53.9244 L712.0444 51.7929 M657.6055 50.2842 L657.1378 49.512 L656.896 49.8829 L657.6055 50.2842 M680.9062 50.2762 L680.5792 49.1138 L680.4337 50.1083 L680.9062 50.2762 M699.5595 48.951 L700.7446 48.2016 L699.6653 48.2847 L699.5595 48.951 M679.604 48.1904 L679.5218 49.9964 L680.3089 48.8966 L679.604 48.1904 M645.0568 48.5179 L644.4704 48.1888 L644.5257 48.5371 L645.0568 48.5179 M707.0751 47.5515 L704.8928 48.2607 L706.0779 48.8535 L707.0751 47.5515 M704.0821 47.5403 L705.0761 47.0532 L700.9706 48.7448 L704.0821 47.5403 M701.3325 47.9923 L700.9896 47.0021 L699.8249 47.8326 L701.3325 47.9923 M729.4292 46.8696 L728.6326 47.1507 L729.3629 47.3103 L729.4292 46.8696 M663.0352 50.1163 L664.0971 47.7463 L662.1155 46.8377 L659.0245 50.0028 L663.0352 50.1163 M726.2909 47.0644 L726.8756 46.7451 L725.9353 46.8489 L726.2909 47.0644 M733.9123 47.2081 L733.6943 46.7164 L732.8899 46.8026 L733.9123 47.2081 M668.6767 47.9029 L669.4446 46.5567 L668.3385 46.7595 L668.6767 47.9029 M790.0363 48.0434 L789.6983 46.5487 L788.1655 47.5738 L790.0363 48.0434 M673.0634 47.8134 L669.7843 46.5344 L672.9069 49.0756 L671.0976 49.9644 L666.2984 47.8358 L664.1857 51.4663 L672.1706 50.6744 L673.6007 49.0213 L673.8899 50.6744 L677.9906 49.8013 L676.9603 47.4621 L675.0782 48.8343 L674.9772 47.3519 L673.0634 47.8134 M699.6257 46.5184 L695.6846 49.3649 L685.6391 47.1379 L681.5075 49.8017 L692.7107 50.7912 L698.7804 49.1188 L699.6257 46.5184 M708.7091 46.4402 L707.4179 48.2719 L711.9059 47.5515 L708.7091 46.4402 M714.4202 47.4844 L714.7598 46.4402 L713.9333 47.2081 L714.4202 47.4844 M677.3902 47.197 L677.7568 46.7834 L677.4249 46.429 L677.3902 47.197 M657.0793 46.686 L651.0679 46.2614 L654.9395 50.5721 L658.2486 48.0115 L657.0793 46.686 M727.288 46.2406 L728.3215 47.197 L728.9028 46.6461 L727.288 46.2406 M744.1302 47.684 L746.27 46.4051 L745.3186 46.1752 L744.1302 47.684 M723.7057 46.3109 L723.5224 45.7858 L723.3596 46.2295 L723.7057 46.3109 M738.2155 46.0108 L738.6641 44.7439 L737.3193 44.5334 L738.2155 46.0108 M720.9038 43.7822 L716.6419 43.6993 L715.5042 45.7108 L720.9038 43.7822 M745.1826 44.0709 L745.9774 43.5159 L745.1542 43.7312 L745.1826 44.0709 M724.6569 43.6993 L725.2306 42.9548 L724.5826 42.8687 L724.6569 43.6993 M790.5752 43.111 L785.9467 42.8687 L782.9917 48.1313 L787.5965 47.8629 L790.5752 43.111 M744.4762 42.7556 L744.3594 43.06 L745.1511 42.9086 L744.4762 42.7556 M745.6583 42.8544 L746.254 42.2647 L745.2634 42.3587 L745.6583 42.8544 M692.7849 42.3555 L693.0805 41.8871 L692.6901 41.9811 L692.7849 42.3555 M688.9718 42.1834 L689.3146 41.9412 L688.8865 41.6688 L688.9718 42.1834 M746.7962 42.0591 L746.7408 41.6449 L746.4769 41.9811 L746.7962 42.0591 M687.9652 41.5477 L687.1592 41.5127 L688.7174 41.6688 L687.9652 41.5477 M749.432 41.1495 L746.6285 42.6743 L745.8684 45.6645 L749.432 41.1495 M750.5191 40.5347 L749.3892 40.8309 L750.7561 41.3804 L750.5191 40.5347 M650.823 40.9599 L650.6396 40.3006 L650.202 40.3946 L650.823 40.9599 M731.8186 41.1781 L731.6778 40.2926 L731.1707 40.7449 L731.8186 41.1781 M686.8859 40.3548 L686.2537 40.0156 L686.4734 40.756 L686.8859 40.3548 M648.4842 39.2355 L641.0682 40.2146 L645.711 41.2132 L648.4842 39.2355 M655.8909 38.9978 L655.8782 39.9694 L657.4696 39.4966 L655.8909 38.9978 M788.995 38.5544 L788.5431 38.4096 L789.5419 39.0095 L788.995 38.5544 M748.6134 38.0818 L748.2925 38.7835 L748.8076 38.2457 L748.6134 38.0818 M766.1162 38.6276 L766.2806 37.552 L765.8743 38.2918 L766.1162 38.6276 M598.4315 38.1136 L598.7761 37.2132 L597.9764 37.6968 L598.4315 38.1136 M766.2016 37.4073 L766.5603 37.1894 L766.1984 36.7806 L766.2016 37.4073 M765.6453 36.4371 L764.2767 36.2384 L765.3957 37.2625 L765.6453 36.4371 M767.0438 36.8967 L767.1922 35.852 L766.7941 36.4451 L767.0438 36.8967 M764.2688 38.7995 L765.2392 37.5441 L762.8957 35.186 L762.6934 38.9284 L764.2688 38.7995 M763.2007 34.4676 L763.0728 35.0811 L764.6071 35.8329 L763.2007 34.4676 M766.4717 34.4056 L763.8359 34.8665 L765.7417 36.3163 L766.4717 34.4056 M603.9513 34.2769 L598.7175 38.8345 L605.9203 39.8023 L605.4304 42.0512 L615.3275 44.4137 L621.737 43.9337 L635.1707 47.7431 L644.1686 47.2752 L652.0667 49.9532 L650.6476 48.6554 L651.0838 44.5142 L641.9658 43.3613 L640.3428 39.4186 L632.3358 38.2027 L631.0115 36.5421 L628.0011 39.8054 L618.578 38.8615 L616.1698 35.6851 L603.9513 34.2769 M705.754 34.3516 L705.2894 33.4857 L705.2278 33.8988 L705.754 34.3516 M685.4083 36.9635 L685.8603 34.3357 L685.3972 32.8615 L685.4083 36.9635 M596.401 33.2125 L596.4705 32.9091 L596.0185 32.7535 L596.401 33.2125 M641.0965 33.3538 L640.7679 32.7058 L640.4993 33.303 L641.0965 33.3538 M755.1507 33.9115 L755.5318 33.0918 L754.8774 31.888 L755.1507 33.9115 M755.459 32.4025 L755.3769 31.5244 L755.1349 32.1325 L755.459 32.4025 M752.8705 31.7784 L753.0759 31.5561 L752.6509 31.4355 L752.8705 31.7784 M704.3459 31.9039 L704.3001 31.5292 L703.6491 31.1783 L704.3459 31.9039 M765.5946 30.937 L763.4849 32.5263 L764.0302 34.3437 L766.4717 34.0513 L765.5946 30.937 M582.4568 31.2561 L582.4331 30.6084 L580.8386 30.3799 L582.4568 31.2561 M755.7655 34.215 L757.2589 31.861 L757.5828 30.1688 L755.7655 34.215 M703.2935 30.6322 L703.3014 30.0942 L702.6978 29.9197 L703.2935 30.6322 M694.1408 31.1894 L693.5513 28.8153 L692.9556 30.0355 L694.1408 31.1894 M658.6738 27.521 L659.0719 27.2562 L659.0751 27.0374 L658.6738 27.521 M749.4667 27.1595 L749.5363 26.901 L749.3497 26.7218 L749.4667 27.1595 M698.2415 26.4888 L696.1556 27.1087 L695.6657 30.6799 L697.4894 30.8814 L698.2415 26.4888 M739.1825 26.0052 L739.2061 25.6692 L738.7542 25.9497 L739.1825 26.0052 M738.8425 25.8023 L738.871 25.6581 L738.7653 25.7484 L738.8425 25.8023 M700.9438 26.7535 L699.1849 25.5408 L697.7501 32.4025 L700.9596 30.1799 L699.6179 29.093 L700.9438 26.7535 M749.0575 25.8372 L749.0686 25.5534 L748.7175 25.2174 L749.0575 25.8372 M759.8948 24.2111 L758.4094 23.3697 L760.1238 24.4884 L759.8948 24.2111 M747.1943 23.4442 L746.7962 23.1939 L746.9762 23.4822 L747.1943 23.4442 M700.2373 22.8248 L699.4931 23.346 L700.6087 24.1524 L700.2373 22.8248 M574.7736 22.9214 L574.8543 22.7455 L574.7341 22.8042 L574.7736 22.9214 M746.6365 23.0339 L746.6365 22.7851 L746.4373 22.679 L746.6365 23.0339 M747.7236 23.2097 L747.6306 22.5475 L747.3997 22.5507 L747.7236 23.2097 M763.2196 22.4034 L762.725 22.3986 L763.4455 22.7234 L763.2196 22.4034 M723.7878 22.2276 L723.8194 21.7904 L723.3359 21.8063 L723.7878 22.2276 M732.6103 21.0857 L732.6766 20.7152 L732.4347 20.7389 L732.6103 21.0857 M700.4475 20.6455 L700.574 20.1689 L700.0619 20.3684 L700.4475 20.6455 M730.4691 20.7262 L731.3823 20.3605 L730.6302 20.0517 L730.4691 20.7262 M696.0465 20.2702 L695.8679 20.0085 L695.6373 20.3367 L696.0465 20.2702 M730.0833 20.6407 L729.7326 19.9932 L727.7131 21.2963 L730.0833 20.6407 M731.9592 20.142 L731.3349 19.9789 L732.2783 20.6027 L731.9592 20.142 M754.9359 20.0327 L754.7684 19.4596 L754.4792 19.4755 L754.9359 20.0327 M696.5774 19.8697 L696.7291 19.6781 L696.3942 19.2649 L696.5774 19.8697 M662.0886 20.7532 L662.283 19.2254 L661.7142 20.1372 L662.0886 20.7532 M726.0886 19.1557 L725.73 18.578 L725.2257 18.7457 L726.0886 19.1557 M660.5842 22.98 L661.4344 18.3453 L659.9601 20.7737 L660.5842 22.98 M726.8708 18.5241 L726.8092 17.9464 L726.1076 18.3611 L726.8708 18.5241 M571.8723 18.1351 L571.7365 17.7993 L571.681 18.0018 L571.8723 18.1351 M722.454 17.9005 L717.3862 17.6473 L716.8995 19.094 L720.7869 21.83 L723.8352 20.5932 L722.454 17.9005 M727.522 17.2928 L728.1303 16.6757 L727.1569 17.1979 L727.522 17.2928 M608.0806 17.2137 L607.6443 16.4653 L607.126 16.883 L608.0806 17.2137 M738.4887 16.6172 L729.1669 16.2517 L727.6436 20.1372 L729.1669 17.4669 L730.8087 19.686 L733.1743 18.2582 L738.9724 18.9879 L744.2771 22.0486 L742.8787 17.8341 L738.4887 16.6172 M611.1414 16.7263 L611.4496 16.0681 L610.7669 16.3403 L611.1414 16.7263 M609.1646 16.5713 L609.1251 16.0491 L608.9228 16.3055 L609.1646 16.5713 M571.5215 17.8341 L569.8923 15.9352 L571.5025 18.9768 L571.5215 17.8341 M748.5422 15.1173 L748.9674 14.918 L748.4601 15.0904 L748.5422 15.1173 M613.4486 14.426 L612.178 18.2788 L614.8171 18.4149 L615.9123 15.6821 L613.4486 14.426 M569.0658 16.1741 L570.1072 15.4717 L568.8161 14.165 L569.0658 16.1741 M760.007 14.3723 L760.1175 14.0986 L759.4616 13.8028 L760.007 14.3723 M567.416 13.5229 L567.3938 13.3742 L567.2027 13.3315 L567.416 13.5229 M765.5394 13.9594 L765.5472 13.0468 L765.2504 13.6399 L765.5394 13.9594 M700.683 12.4854 L700.6894 12.3842 L700.5961 12.4854 L700.683 12.4854 M702.2921 12.0949 L702.328 12.0379 L702.2252 12.0142 L702.2921 12.0949 M568.0908 13.4913 L566.4347 11.5461 L566.4426 12.6451 L568.0908 13.4913 M704.7711 11.8102 L704.6542 11.4291 L704.5373 11.6868 L704.7711 11.8102 M764.4094 12.2798 L764.5059 11.4022 L764.163 11.8845 L764.4094 12.2798 M704.1011 11.6505 L704.1563 11.3706 L704.0474 11.4955 L704.1011 11.6505 M717.1222 14.1271 L716.3338 11.222 L716.201 12.5945 L717.1222 14.1271 M707.5081 11.4449 L707.4544 11.1872 L707.1335 11.2488 L707.5081 11.4449 M702.4529 11.0733 L702.4908 11.0117 L702.3896 11.0591 L702.4529 11.0733 M702.8337 10.969 L702.8227 10.8868 L702.78 10.9532 L702.8337 10.969 M703.4847 11.1714 L703.4548 10.8204 L703.439 11.1176 L703.4847 11.1714 M703.8119 11.1287 L703.8988 10.8093 L703.7187 11.0196 L703.8119 11.1287 M703.6649 10.8915 L703.5591 10.7239 L703.5591 10.8093 L703.6649 10.8915 M704.4487 11.4402 L704.6002 11.1208 L704.1864 10.6891 L704.4487 11.4402 M704.0853 10.6812 L704.0979 10.599 L704.0426 10.6607 L704.0853 10.6812 M701.9344 10.719 L701.8287 10.5626 L701.8208 10.6733 L701.9344 10.719 M713.6046 10.2796 L713.7659 11.0385 L718.7863 10.3729 L713.6046 10.2796 M564.8276 10.3919 L564.7312 10.1848 L564.6333 10.3603 L564.8276 10.3919 M700.1837 10.8472 L700.6103 10.4267 L700.4207 9.9824 L700.1837 10.8472 M763.3129 11.067 L763.6415 9.9049 L763.2243 10.501 L763.3129 11.067 M711.149 9.78 L707.2852 10.6954 L712.9504 10.7381 L711.149 9.78 M618.3648 9.8037 L618.8357 9.6978 L618.2794 9.6709 L618.3648 9.8037 M740.6283 11.7454 L741.5498 9.5599 L737.9387 10.7302 L740.6283 11.7454 M701.4273 10.1927 L701.8366 9.5192 L701.255 10.0535 L701.4273 10.1927 M775.359 9.6077 L770.3781 9.1603 L778.8214 10.2369 L775.359 9.6077 M619.2307 9.5065 L619.6938 8.7857 L618.9495 8.9216 L619.2307 9.5065 M603.5389 10.0804 L600.5965 8.7003 L598.0854 11.7643 L601.5699 12.1154 L602.8989 16.065 L607.1055 17.6347 L606.4465 16.5792 L607.469 14.7503 L604.8332 13.8614 L603.5389 10.0804 M768.7868 8.4505 L768.5372 8.607 L769.882 8.4932 L768.7868 8.4505 M727.4919 8.1186 L724.6411 9.2963 L729.0042 9.5619 L727.4919 8.1186 M724.3567 8.1929 L724.5748 7.7724 L724.0407 8.0411 L724.3567 8.1929 M620.9137 7.491 L621.0668 7.1559 L620.6846 7.3393 L620.9137 7.491 M700.8425 7.382 L699.1502 6.7513 L698.9432 8.9959 L702.7563 8.1628 L700.8425 7.382 M725.9859 7.1559 L725.6208 6.6659 L725.0821 7.0232 L725.9859 7.1559 M621.3893 7.0168 L621.5569 6.6533 L621.3388 6.7861 L621.3893 7.0168 M739.1509 6.892 L738.7969 6.5016 L738.0794 6.8762 L739.1509 6.892 M623.6376 5.6029 L622.8905 5.5738 L622.4702 7.1876 L624.5198 6.4779 L623.6376 5.6029 M562.797 5.4063 L560.9418 6.9584 L564.559 10.15 L562.797 5.4063 M767.559 6.4747 L767.9603 5.8235 L767.107 5.3589 L767.559 6.4747 M744.854 5.3272 L743.1901 5.5975 L745.042 7.7218 L744.854 5.3272 M744.7688 4.5212 L742.324 4.752 L741.8137 5.2703 L744.7688 4.5212 M770.7747 3.8433 L773.0757 6.7782 L775.8854 6.3767 L770.7747 3.8433 M724.088 4.5987 L723.6519 3.5224 L723.3626 4.3806 L724.088 4.5987 M560.4425 3.5967 L560.4109 3.4181 L560.2938 3.4102 L560.4425 3.5967 M743.0035 3.0784 L743.3116 2.4273 L742.1486 2.6659 L743.0035 3.0784 M693.5513 2.7038 L692.5731 2.3814 L692.0154 3.1179 L693.5513 2.7038 M592.9433 2.3735 L592.9623 2.2282 L592.7679 2.2519 L592.9433 2.3735 M757.2589 3.0515 L752.4677 2.1855 L746.6983 4.6808 L745.0373 7.9826 L750.2646 9.3437 L752.6478 12.914 L761.9491 11.9667 L760.5142 15.459 L757.9811 13.7491 L755.045 16.0333 L750.682 15.8419 L755.587 18.8011 L756.0627 23.2953 L759.1806 22.0407 L761.3375 16.8561 L760.2488 19.876 L763.5387 22.5634 L767.8038 22.4303 L765.9724 23.4664 L785.4332 30.8005 L788.946 38.3205 L791.8332 39.7465 L788.2634 39.3995 L792.0212 40.8532 L788.8276 41.0873 L791.299 43.1572 L790.2356 47.3646 L797.2755 44.9976 L796.3604 46.7722 L802.1733 52.1519 L802.1474 14.8365 L784.2511 8.3731 L780.1234 10.2006 L780.4616 11.9667 L775.7177 12.8254 L770.7984 19.1161 L768.0236 19.0196 L765.9299 14.3058 L764.9658 16.3023 L763.2196 13.1987 L762.9431 4.752 L757.2589 3.0515 M760.1476 19.6354 L760.0938 19.5578 L760.1681 19.5216 L760.1476 19.6354 M594.4667 3.5667 L594.6658 2.127 L593.2831 2.2408 L594.4667 3.5667 M694.1092 2.3577 L694.2972 1.8931 L693.2163 2.0812 L694.1092 2.3577 M725.76 1.8394 L724.216 2.9535 L727.141 4.9543 L725.76 1.8394 M594.1711 1.8552 L594.4208 1.5818 L593.9341 1.6245 L594.1711 1.8552 M694.5185 2.334 L694.8424 2.1744 L694.539 1.5107 L694.5185 2.334 M723.5302 3.0088 L723.8194 1.457 L723.0861 1.6909 L723.5302 3.0088 M560.365 3.0705 L559.9589 1.4017 L559.3662 3.0705 L560.365 3.0705 M589.4778 2.2171 L590.2775 1.7762 L588.9896 1.3322 L588.5424 2.0606 L589.4778 2.2171 M696.1129 1.6166 L695.9107 1.3132 L695.3181 1.1409 L696.1129 1.6166 M695.329 1.5818 L695.1189 1.122 L694.8424 1.3053 L695.329 1.5818 M589.1033 1.1172 L588.9971 1.0481 L588.8079 1.1093 L589.1033 1.1172 M595.8557 0.7791 L594.1048 1.1488 L596.9319 1.901 L595.8557 0.7791 M691.8478 1.1757 L691.9505 0.7001 L691.5554 0.8913 L691.8478 1.1757 M556.8094 0.5989 L556.7541 0.365 L556.5092 0.3856 L556.8094 0.5989 M596.6315 0.3729 L596.4356 0.1391 L596.3771 0.3461 L596.6315 0.3729 M744.5472 0.109 L740.7689 1.1757 L744.7655 2.3261 L743.4712 0.4519 L746.6983 2.206 L744.5472 0.109 M743.3655 1.871 L743.3228 1.8505 L743.3465 1.7967 L743.3655 1.871 M560.6257 2.1081 L560.0378 0.3492 L559.1719 0.0695 L560.6257 2.1081 M737.0222 1.2152 L736.9417 0.7901 L735.5068 -0.2355 L737.0222 1.2152 M725.0899 0.0695 L724.8244 -0.8202 L724.7233 -0.0395 L725.0899 0.0695 M562.2599 -0.6131 L561.8506 -0.9766 L560.4315 -0.757 L562.2599 -0.6131 M594.3861 -0.1343 L593.9721 -0.9766 L593.961 -0.512 L594.3861 -0.1343 M595.6376 -0.1343 L594.7447 -1.261 L594.4397 -1.3495 L595.6376 -0.1343 M593.9878 -1.6624 L594.0701 -1.841 L593.5944 -2.1096 L593.9878 -1.6624 M724.6807 -1.5408 L724.6996 -2.1539 L724.3535 -1.9153 L724.6807 -1.5408 M586.3742 -3.2522 L586.3314 -3.6773 L586.1718 -3.7247 L586.3742 -3.2522 M593.2467 -3.5446 L593.2467 -3.7864 L592.9938 -3.9223 L593.2467 -3.5446 M588.7067 -3.5098 L588.8774 -3.9776 L588.604 -3.5872 L588.7067 -3.5098 M587.0094 -2.8903 L587.6447 -3.1511 L587.2243 -4.0013 L587.0094 -2.8903 M724.7865 -3.5256 L725.0283 -4.055 L724.6728 -4.2778 L724.7865 -3.5256 M593.3178 -4.0203 L593.201 -4.5039 L592.7252 -4.4106 L593.3178 -4.0203 M595.0482 -4.3126 L594.7827 -4.5228 L594.5378 -4.3016 L595.0482 -4.3126 M586.4911 -4.1182 L586.5543 -4.5386 L586.3947 -4.2699 L586.4911 -4.1182 M590.0277 -4.5086 L589.7227 -4.7346 L589.9614 -4.3205 L590.0277 -4.5086 M724.322 -4.2668 L724.6221 -4.6208 L724.333 -4.9163 L724.322 -4.2668 M588.9468 -4.5513 L588.7414 -4.812 L588.3399 -4.9558 L588.9468 -4.5513 M591.2824 -4.36 L591.0138 -4.8895 L590.6203 -5.0412 L591.2824 -4.36 M590.6899 -4.3016 L590.6203 -4.6982 L590.132 -5.0459 L590.6899 -4.3016 M588.4412 -3.6821 L588.8425 -4.2462 L588.1171 -5.0728 L588.4412 -3.6821 M588.6781 -4.94 L588.5802 -5.2103 L588.2609 -5.1708 L588.6781 -4.94 M593.0254 -4.6635 L592.1833 -5.3889 L592.6431 -4.4991 L593.0254 -4.6635 M583.8178 -5.6558 L582.5768 -4.9954 L586.1908 -4.0629 L583.8178 -5.6558 M591.2745 -5.2688 L591.295 -5.6844 L590.7166 -5.7477 L591.2745 -5.2688 M596.4405 -5.4474 L596.4199 -5.7951 L596.1591 -5.8298 L596.4405 -5.4474 M611.8778 -5.4948 L612.1038 -5.735 L611.8431 -5.9041 L611.8778 -5.4948 M586.1672 -5.9041 L584.0086 -5.9974 L586.7914 -4.7646 L586.1672 -5.9041 M686.5192 -5.8915 L686.3013 -6.1222 L686.1732 -6.0985 L686.5192 -5.8915 M684.8742 -5.803 L684.8632 -6.1491 L684.7493 -5.8725 L684.8742 -5.803 M595.4383 -5.8248 L592.9544 -6.1681 L594.9629 -4.6603 L595.4383 -5.8248 M588.4569 -5.6181 L587.8991 -6.3704 L587.7743 -5.9183 L588.4569 -5.6181 M591.8356 -5.588 L592.3238 -6.7339 L591.0833 -6.2234 L591.8356 -5.588 M582.5152 -5.2561 L582.975 -6.9789 L581.4786 -7.9937 L582.5152 -5.2561 M554.8167 -8.0632 L552.4747 -7.9273 L556.4347 -3.1274 L557.1491 -5.5643 L554.8167 -8.0632 M712.3342 -7.9036 L712.8147 -8.6827 L712.0576 -7.9384 L712.3342 -7.9036 M583.0888 -8.2197 L580.235 -9.1666 L583.0651 -7.167 L583.0888 -8.2197 M560.923 -9.2488 L560.6688 -9.5682 L559.9429 -9.5524 L560.923 -9.2488 M711.917 -8.087 L710.9467 -9.6425 L704.5072 -4.7188 L688.0742 -7.638 L685.9266 -4.4106 L684.3005 -5.6307 L682.8515 -4.055 L681.7169 0.5104 L680.5206 0.03 L681.8875 4.801 L681.0658 3.7184 L679.9201 4.9859 L678.9878 11.0322 L675.6077 15.7881 L676.5353 20.3209 L679.857 20.0787 L679.6231 31.7006 L685.2993 32.0468 L683.806 16.8751 L687.0581 14.8674 L688.7885 15.7011 L687.6807 20.1341 L691.8525 23.1432 L691.5017 27.0342 L694.5501 27.5718 L694.6402 25.7754 L699.1391 25.0351 L695.1537 20.3288 L696.7608 17.9749 L690.051 10.2591 L692.1765 10.9374 L698.7093 5.1961 L701.6185 6.0148 L702.2805 4.752 L700.1363 3.1842 L693.6335 5.4806 L691.8952 4.5797 L688.828 8.0996 L686.4576 7.9399 L683.0427 3.4877 L684.0445 -1.9627 L706.8222 -2.1334 L711.917 -8.087 M552.4889 -11.4433 L552.666 -11.7548 L552.3498 -12.0205 L552.4889 -11.4433 M578.0004 -9.7247 L578.2501 -12.0632 L576.8422 -11.3184 L578.0004 -9.7247 M549.7804 -11.7548 L549.9399 -11.9999 L549.6081 -12.0743 L549.7804 -11.7548 M549.7773 -12.2498 L549.8231 -12.3984 L549.5354 -12.468 L549.7773 -12.2498 M727.5804 -10.2227 L728.4889 -12.4917 L724.7359 -6.0005 L726.2782 1.2847 L730.4264 5.0902 L727.4761 -1.7667 L733.3276 -1.1394 L729.3738 -4.4643 L732.1457 -6.2692 L732.3099 -8.8584 L729.249 -7.8404 L727.0035 -4.5228 L727.5804 -10.2227 M553.6868 -11.5635 L553.4608 -12.6562 L552.4115 -12.6325 L553.6868 -11.5635 M727.0115 -12.5503 L727.1174 -12.8697 L726.7934 -12.9203 L727.0115 -12.5503 M674.5394 -13.1813 L674.4777 -12.8855 L674.9851 -12.3858 L674.5394 -13.1813 M713.562 -13.1623 L713.6758 -13.5403 L713.2032 -13.4818 L713.562 -13.1623 M729.0943 -12.9868 L729.1052 -13.681 L728.8554 -13.3062 L729.0943 -12.9868 M620.4728 -14.1413 L620.7004 -14.3976 L619.9363 -14.4554 L620.4728 -14.1413 M731.0109 -11.6647 L731.3903 -14.9828 L729.4986 -13.1228 L731.0109 -11.6647 M713.4229 -14.948 L713.4688 -15.9764 L713.129 -15.5049 L713.4229 -14.948 M604.4159 -15.5745 L604.4049 -15.8593 L604.1472 -16.0049 L604.4159 -15.5745 M548.592 -13.3331 L545.4695 -16.6124 L544.4091 -16.0428 L548.592 -13.3331 M619.1359 -16.1915 L619.4252 -17.084 L618.801 -16.4558 L619.1359 -16.1915 M613.0314 -16.9273 L613.3316 -17.0808 L613.0662 -17.1979 L613.0314 -16.9273 M601.4577 -16.1283 L602.1625 -16.9558 L601.306 -17.4195 L601.4577 -16.1283 M604.6688 -17.9844 L604.1789 -18.3659 L604.2326 -17.766 L604.6688 -17.9844 M668.5755 -18.7014 L668.2279 -19.0338 L667.9403 -18.7996 L668.5755 -18.7014 M604.6182 -18.3896 L604.6577 -19.2016 L604.3575 -18.5336 L604.6182 -18.3896 M669.3783 -18.6935 L669.4257 -19.466 L668.6688 -19.5056 L669.3783 -18.6935 M669.0559 -19.7937 L668.9422 -20.0628 L668.0651 -20.2607 L669.0559 -19.7937 M667.8234 -20.2766 L666.8326 -20.1832 L668.5439 -19.7778 L667.8234 -20.2766 M670.6377 -19.6765 L670.5255 -20.2022 L670.0925 -20.3668 L670.6377 -19.6765 M716.1394 -19.1383 L716.2958 -19.876 L714.8863 -21.168 L716.1394 -19.1383 M670.2949 -21.2947 L670.2395 -21.3803 L670.0846 -21.3486 L670.2949 -21.2947 M721.6023 -21.2805 L721.0034 -21.8744 L721.3068 -21.2536 L721.6023 -21.2805 M670.4228 -21.6178 L670.1621 -21.9488 L669.7576 -21.9963 L670.4228 -21.6178 M720.847 -21.6226 L720.9165 -22.2704 L720.259 -23.0085 L720.847 -21.6226 M669.5236 -22.6268 L669.8667 -23.1653 L669.2772 -23.5741 L669.5236 -22.6268 M670.6457 -22.9277 L670.7402 -23.7667 L669.7338 -23.742 L669.5078 -23.7342 L670.6457 -22.9277 M615.4335 -20.7643 L616.715 -22.066 L615.4335 -23.8941 L615.4335 -20.7643 M660.1923 -24.3679 L658.1206 -23.7547 L657.0412 -17.3024 L655.017 -16.5396 L655.5716 -14.3549 L653.1112 -12.797 L651.7348 -8.1565 L646.5896 -6.9678 L639.8451 -8.9216 L636.1726 -5.6813 L628.9366 -4.8579 L623.9004 -9.1777 L623.7785 -11.798 L620.4697 -8.7177 L619.9861 -6.8936 L621.5965 -7.9273 L619.2099 -4.6114 L620.773 2.8571 L623.0154 4.1356 L621.6391 4.8642 L624.2402 5.4252 L626.1063 7.589 L625.2293 10.4029 L627.1288 16.9574 L634.5971 17.2137 L635.7317 15.6046 L636.5265 20.3447 L643.2125 17.0397 L646.6623 19.7873 L651.2702 19.9156 L652.5534 23.7833 L659.8194 20.4302 L663.3481 12.6878 L661.1768 10.1231 L664.2093 7.7803 L664.1398 5.8267 L665.1654 7.137 L669.1412 4.4359 L668.2595 -0.5894 L671.4879 -4.6097 L670.6884 -6.3704 L673.2451 -4.7962 L677.0268 -5.5801 L670.5603 -10.6781 L671.8387 -13.1196 L667.1533 -18.3437 L668.1267 -19.5277 L665.7722 -20.4602 L670.3107 -21.0762 L667.8344 -23.3872 L668.9682 -23.7426 L660.1923 -24.3679 M667.2813 4.9969 L667.1486 4.989 L667.2418 4.7314 L667.2813 4.9969 M721.122 -22.6933 L722.0116 -24.3347 L721.0129 -25.8657 L721.122 -22.6933 M713.9064 -26.9549 L713.9096 -27.0278 L713.8353 -26.9644 L713.9064 -26.9549 M614.1977 -26.6235 L614.4268 -27.1801 L614.0491 -26.7789 L614.1977 -26.6235 M544.6461 -31.8245 L541.7575 -31.7419 L543.4657 -26.6695 L551.141 -20.9353 L556.0998 -12.9124 L561.8965 -9.9492 L563.9744 -1.487 L566.8171 -0.4377 L570.5591 4.5876 L578.1443 18.4767 L594.8346 33.7941 L594.7448 31.3736 L598.1281 33.0298 L598.8614 31.018 L601.5004 33.6112 L603.3366 17.2533 L600.8177 13.6241 L596.5494 13.0279 L594.6738 15.7802 L596.6475 12.2166 L594.4288 10.9532 L593.8014 5.9247 L588.0082 3.995 L589.3688 2.5095 L587.9032 2.0713 L588.7477 1.2342 L587.4899 1.4728 L590.5874 0.0058 L590.1636 -1.5992 L587.9529 -3.0499 L583.3385 -0.9482 L586.4216 -2.5347 L585.5713 -3.9539 L582.6669 -4.5544 L574.8937 -13.0105 L573.4241 -12.6009 L574.2504 -10.3587 L570.0787 -15.3847 L568.8983 -14.8073 L568.7623 -16.7754 L559.0501 -23.5868 L554.774 -29.8895 L548.1116 -29.753 L544.6461 -31.8245 M592.8612 5.9136 L592.7869 5.901 L593.0287 5.8235 L592.8612 5.9136 M585.1574 -1.5613 L585.0104 -1.5992 L585.5398 -1.8331 L585.1574 -1.5613 M541.3434 -31.8785 L541.255 -32.2564 L541.0637 -31.9801 L541.3434 -31.8785 M541.1254 -32.3104 L540.8062 -32.763 L540.4901 -32.682 L541.1254 -32.3104 M542.3927 -32.9043 L542.6155 -33.3364 L541.6832 -33.6986 L542.3927 -32.9043" stroke-dasharray="" fill="#ffff00" fill-opacity="0.6" stroke="none" stroke-opacity="1.0" stroke-width="0.0px" stroke-linecap="butt" stroke-linejoin="miter" stroke-dashoffset="0.0px"/>
<path d="M707.9579 52.4766 L705.6848 53.371 L707.374 54.0826 L707.9579 52.4766 M723.9285 48.4045 L715.9134 48.4285 L710.8008 51.1472 L712.0444 51.7929 L711.8392 53.9244 L723.9285 48.4045" stroke-dasharray="" fill="#ffff00" fill-opacity="0.6" stroke="none" stroke-opacity="1.0" stroke-width="0.0px" stroke-linecap="butt" stroke-linejoin="miter" stroke-dashoffset="0.0px"/>
</g>
<g id="mask" inkscape:groupmode="layer" inkscape:label="mask">
</g>
</svg>