<?xml version="1.0" standalone="no"?>
<!DOCTYPE svg PUBLIC "-//W3C//DTD SVG 1.1//EN" "http://www.w3.org/Graphics/SVG/1.1/DTD/svg11.dtd">
<svg width="1000px" height="1000px" version="1.1" xmlns="http://www.w3.org/2000/svg" xmlns:inkscape="http://www.inkscape.org/namespaces/inkscape">
<rect x="0" y="0" width="1000px" height="1000px" fill="#ffffff"/>
<g id="l1" inkscape:groupmode="layer" inkscape:label="l1">
</g>
<g id="l2" inkscape:groupmode="layer" inkscape:label="l2">
<path d="M1000.0 500.0 L999.9901 496.8584 L999.9605 493.717 L999.9112 490.5758 L999.8421 487.435 L999.7533 484.2946 L999.6447 481.1549 L999.5165 478.0159 L999.3685 474.8778 L999.2008 471.7407 L999.0134 468.6047 L998.8063 465.47 L998.5795 462.3366 L998.333 459.2047 L998.0668 456.0744 L997.781 452.9458 L997.4755 449.8191 L997.1504 446.6944 L996.8057 443.5718 L996.4413 440.4514 L996.0574 437.3334 L995.6538 434.2178 L995.2307 431.1049 L994.7881 427.9946 L994.3259 424.8872 L993.8442 421.7828 L993.343 418.6814 L992.8223 415.5833 L992.2822 412.4885 L991.7226 409.3971 L991.1436 406.3093 L990.5453 403.2253 L989.9275 400.145 L989.2905 397.0687 L988.6341 393.9964 L987.9584 390.9284 L987.2634 387.8646 L986.5493 384.8053 L985.8159 381.7505 L985.0633 378.7004 L984.2916 375.6551 L983.5007 372.6146 L982.6908 369.5792 L981.8618 366.549 L981.0138 363.524 L980.1468 360.5044 L979.2609 357.4904 L978.356 354.4819 L977.4323 351.4792 L976.4897 348.4824 L975.5283 345.4915 L974.5481 342.5067 L973.5492 339.5282 L972.5315 336.556 L971.4953 333.5902 L970.4404 330.631 L969.3669 327.6785 L968.2749 324.7328 L967.1645 321.7941 L966.0356 318.8623 L964.8882 315.9377 L963.7226 313.0204 L962.5386 310.1105 L961.3364 307.208 L960.1159 304.3132 L958.8773 301.4261 L957.6206 298.5468 L956.3458 295.6755 L955.053 292.8122 L953.7422 289.9571 L952.4135 287.1104 L951.067 284.272 L949.7026 281.4421 L948.3205 278.6209 L946.9207 275.8084 L945.5033 273.0048 L944.0682 270.2101 L942.6157 267.4245 L941.1456 264.648 L939.6582 261.8809 L938.1533 259.1232 L936.6312 256.3749 L935.0919 253.6363 L933.5354 250.9074 L931.9617 248.1884 L930.371 245.4793 L928.7633 242.7802 L927.1387 240.0913 L925.4972 237.4127 L923.839 234.7444 L922.164 232.0866 L920.4723 229.4394 L918.764 226.8028 L917.0392 224.1771 L915.2979 221.5622 L913.5403 218.9583 L911.7663 216.3655 L909.9761 213.7839 L908.1696 211.2136 L906.3471 208.6548 L904.5085 206.1074 L902.6539 203.5716 L900.7835 201.0475 L898.8972 198.5352 L896.9952 196.0349 L895.0775 193.5465 L893.1442 191.0702 L891.1954 188.6061 L889.2312 186.1543 L887.2515 183.7149 L885.2566 181.288 L883.2465 178.8737 L881.2213 176.472 L879.181 174.0831 L877.1257 171.7071 L875.0555 169.3441 L872.9706 166.9941 L870.8709 164.6572 L868.7566 162.3336 L866.6277 160.0233 L864.4843 157.7264 L862.3266 155.4431 L860.1545 153.1733 L857.9682 150.9173 L855.7678 148.675 L853.5534 146.4466 L851.325 144.2322 L849.0827 142.0318 L846.8267 139.8455 L844.5569 137.6734 L842.2736 135.5157 L839.9767 133.3723 L837.6664 131.2434 L835.3428 129.1291 L833.0059 127.0294 L830.6559 124.9445 L828.2929 122.8743 L825.9169 120.819 L823.528 118.7787 L821.1263 116.7535 L818.712 114.7434 L816.2851 112.7485 L813.8457 110.7688 L811.3939 108.8046 L808.9298 106.8558 L806.4535 104.9225 L803.9651 103.0048 L801.4648 101.1028 L798.9525 99.2165 L796.4284 97.3461 L793.8926 95.4915 L791.3452 93.6529 L788.7864 91.8304 L786.2161 90.0239 L783.6345 88.2337 L781.0417 86.4597 L778.4378 84.7021 L775.8229 82.9608 L773.1972 81.236 L770.5606 79.5277 L767.9134 77.836 L765.2556 76.161 L762.5873 74.5028 L759.9087 72.8613 L757.2198 71.2367 L754.5207 69.629 L751.8116 68.0383 L749.0926 66.4646 L746.3637 64.9081 L743.6251 63.3688 L740.8768 61.8467 L738.1191 60.3418 L735.352 58.8544 L732.5755 57.3843 L729.7899 55.9318 L726.9952 54.4967 L724.1916 53.0793 L721.3791 51.6795 L718.5579 50.2974 L715.728 48.933 L712.8896 47.5865 L710.0429 46.2578 L707.1878 44.947 L704.3245 43.6542 L701.4532 42.3794 L698.5739 41.1227 L695.6868 39.8841 L692.792 38.6636 L689.8895 37.4614 L686.9796 36.2774 L684.0623 35.1118 L681.1377 33.9644 L678.2059 32.8355 L675.2672 31.7251 L672.3215 30.6331 L669.369 29.5596 L666.4098 28.5047 L663.444 27.4685 L660.4718 26.4508 L657.4933 25.4519 L654.5085 24.4717 L651.5176 23.5103 L648.5208 22.5677 L645.5181 21.644 L642.5096 20.7391 L639.4956 19.8532 L636.476 18.9862 L633.451 18.1382 L630.4208 17.3092 L627.3854 16.4993 L624.3449 15.7084 L621.2996 14.9367 L618.2495 14.1841 L615.1947 13.4507 L612.1354 12.7366 L609.0716 12.0416 L606.0036 11.3659 L602.9313 10.7095 L599.855 10.0725 L596.7747 9.4547 L593.6907 8.8564 L590.6029 8.2774 L587.5115 7.7178 L584.4167 7.1777 L581.3186 6.657 L578.2172 6.1558 L575.1128 5.6741 L572.0054 5.2119 L568.8951 4.7693 L565.7822 4.3462 L562.6666 3.9426 L559.5486 3.5587 L556.4282 3.1943 L553.3056 2.8496 L550.1809 2.5245 L547.0542 2.219 L543.9256 1.9332 L540.7953 1.667 L537.6634 1.4205 L534.53 1.1937 L531.3953 0.9866 L528.2593 0.7992 L525.1222 0.6315 L521.9841 0.4835 L518.8451 0.3553 L515.7054 0.2467 L512.565 0.1579 L509.4242 0.0888 L506.283 0.0395 L503.1416 0.0099 L500.0 0.0 L496.8584 0.0099 L493.717 0.0395 L490.5758 0.0888 L487.435 0.1579 L484.2946 0.2467 L481.1549 0.3553 L478.0159 0.4835 L474.8778 0.6315 L471.7407 0.7992 L468.6047 0.9866 L465.47 1.1937 L462.3366 1.4205 L459.2047 1.667 L456.0744 1.9332 L452.9458 2.219 L449.8191 2.5245 L446.6944 2.8496 L443.5718 3.1943 L440.4514 3.5587 L437.3334 3.9426 L434.2178 4.3462 L431.1049 4.7693 L427.9946 5.2119 L424.8872 5.6741 L421.7828 6.1558 L418.6814 6.657 L415.5833 7.1777 L412.4885 7.7178 L409.3971 8.2774 L406.3093 8.8564 L403.2253 9.4547 L400.145 10.0725 L397.0687 10.7095 L393.9964 11.3659 L390.9284 12.0416 L387.8646 12.7366 L384.8053 13.4507 L381.7505 14.1841 L378.7004 14.9367 L375.6551 15.7084 L372.6146 16.4993 L369.5792 17.3092 L366.549 18.1382 L363.524 18.9862 L360.5044 19.8532 L357.4904 20.7391 L354.4819 21.644 L351.4792 22.5677 L348.4824 23.5103 L345.4915 24.4717 L342.5067 25.4519 L339.5282 26.4508 L336.556 27.4685 L333.5902 28.5047 L330.631 29.5596 L327.6785 30.6331 L324.7328 31.7251 L321.7941 32.8355 L318.8623 33.9644 L315.9377 35.1118 L313.0204 36.2774 L310.1105 37.4614 L307.208 38.6636 L304.3132 39.8841 L301.4261 41.1227 L298.5468 42.3794 L295.6755 43.6542 L292.8122 44.947 L289.9571 46.2578 L287.1104 47.5865 L284.272 48.933 L281.4421 50.2974 L278.6209 51.6795 L275.8084 53.0793 L273.0048 54.4967 L270.2101 55.9318 L267.4245 57.3843 L264.648 58.8544 L261.8809 60.3418 L259.1232 61.8467 L256.3749 63.3688 L253.6363 64.9081 L250.9074 66.4646 L248.1884 68.0383 L245.4793 69.629 L242.7802 71.2367 L240.0913 72.8613 L237.4127 74.5028 L234.7444 76.161 L232.0866 77.836 L229.4394 79.5277 L226.8028 81.236 L224.1771 82.9608 L221.5622 84.7021 L218.9583 86.4597 L216.3655 88.2337 L213.7839 90.0239 L211.2136 91.8304 L208.6548 93.6529 L206.1074 95.4915 L203.5716 97.3461 L201.0475 99.2165 L198.5352 101.1028 L196.0349 103.0048 L193.5465 104.9225 L191.0702 106.8558 L188.6061 108.8046 L186.1543 110.7688 L183.7149 112.7485 L181.288 114.7434 L178.8737 116.7535 L176.472 118.7787 L174.0831 120.819 L171.7071 122.8743 L169.3441 124.9445 L166.9941 127.0294 L164.6572 129.1291 L162.3336 131.2434 L160.0233 133.3723 L157.7264 135.5157 L155.4431 137.6734 L153.1733 139.8455 L150.9173 142.0318 L148.675 144.2322 L146.4466 146.4466 L144.2322 148.675 L142.0318 150.9173 L139.8455 153.1733 L137.6734 155.4431 L135.5157 157.7264 L133.3723 160.0233 L131.2434 162.3336 L129.1291 164.6572 L127.0294 166.9941 L124.9445 169.3441 L122.8743 171.7071 L120.819 174.0831 L118.7787 176.472 L116.7535 178.8737 L114.7434 181.288 L112.7485 183.7149 L110.7688 186.1543 L108.8046 188.6061 L106.8558 191.0702 L104.9225 193.5465 L103.0048 196.0349 L101.1028 198.5352 L99.2165 201.0475 L97.3461 203.5716 L95.4915 206.1074 L93.6529 208.6548 L91.8304 211.2136 L90.0239 213.7839 L88.2337 216.3655 L86.4597 218.9583 L84.7021 221.5622 L82.9608 224.1771 L81.236 226.8028 L79.5277 229.4394 L77.836 232.0866 L76.161 234.7444 L74.5028 237.4127 L72.8613 240.0913 L71.2367 242.7802 L69.629 245.4793 L68.0383 248.1884 L66.4646 250.9074 L64.9081 253.6363 L63.3688 256.3749 L61.8467 259.1232 L60.3418 261.8809 L58.8544 264.648 L57.3843 267.4245 L55.9318 270.2101 L54.4967 273.0048 L53.0793 275.8084 L51.6795 278.6209 L50.2974 281.4421 L48.933 284.272 L47.5865 287.1104 L46.2578 289.9571 L44.947 292.8122 L43.6542 295.6755 L42.3794 298.5468 L41.1227 301.4261 L39.8841 304.3132 L38.6636 307.208 L37.4614 310.1105 L36.2774 313.0204 L35.1118 315.9377 L33.9644 318.8623 L32.8355 321.7941 L31.7251 324.7328 L30.6331 327.6785 L29.5596 330.631 L28.5047 333.5902 L27.4685 336.556 L26.4508 339.5282 L25.4519 342.5067 L24.4717 345.4915 L23.5103 348.4824 L22.5677 351.4792 L21.644 354.4819 L20.7391 357.4904 L19.8532 360.5044 L18.9862 363.524 L18.1382 366.549 L17.3092 369.5792 L16.4993 372.6146 L15.7084 375.6551 L14.9367 378.7004 L14.1841 381.7505 L13.4507 384.8053 L12.7366 387.8646 L12.0416 390.9284 L11.3659 393.9964 L10.7095 397.0687 L10.0725 400.145 L9.4547 403.2253 L8.8564 406.3093 L8.2774 409.3971 L7.7178 412.4885 L7.1777 415.5833 L6.657 418.6814 L6.1558 421.7828 L5.6741 424.8872 L5.2119 427.9946 L4.7693 431.1049 L4.3462 434.2178 L3.9426 437.3334 L3.5587 440.4514 L3.1943 443.5718 L2.8496 446.6944 L2.5245 449.8191 L2.219 452.9458 L1.9332 456.0744 L1.667 459.2047 L1.4205 462.3366 L1.1937 465.47 L0.9866 468.6047 L0.7992 471.7407 L0.6315 474.8778 L0.4835 478.0159 L0.3553 481.1549 L0.2467 484.2946 L0.1579 487.435 L0.0888 490.5758 L0.0395 493.717 L0.0099 496.8584 L0.0 500.0 L0.0099 503.1416 L0.0395 506.283 L0.0888 509.4242 L0.1579 512.565 L0.2467 515.7054 L0.3553 518.8451 L0.4835 521.9841 L0.6315 525.1222 L0.7992 528.2593 L0.9866 531.3953 L1.1937 534.53 L1.4205 537.6634 L1.667 540.7953 L1.9332 543.9256 L2.219 547.0542 L2.5245 550.1809 L2.8496 553.3056 L3.1943 556.4282 L3.5587 559.5486 L3.9426 562.6666 L4.3462 565.7822 L4.7693 568.8951 L5.2119 572.0054 L5.6741 575.1128 L6.1558 578.2172 L6.657 581.3186 L7.1777 584.4167 L7.7178 587.5115 L8.2774 590.6029 L8.8564 593.6907 L9.4547 596.7747 L10.0725 599.855 L10.7095 602.9313 L11.3659 606.0036 L12.0416 609.0716 L12.7366 612.1354 L13.4507 615.1947 L14.1841 618.2495 L14.9367 621.2996 L15.7084 624.3449 L16.4993 627.3854 L17.3092 630.4208 L18.1382 633.451 L18.9862 636.476 L19.8532 639.4956 L20.7391 642.5096 L21.644 645.5181 L22.5677 648.5208 L23.5103 651.5176 L24.4717 654.5085 L25.4519 657.4933 L26.4508 660.4718 L27.4685 663.444 L28.5047 666.4098 L29.5596 669.369 L30.6331 672.3215 L31.7251 675.2672 L32.8355 678.2059 L33.9644 681.1377 L35.1118 684.0623 L36.2774 686.9796 L37.4614 689.8895 L38.6636 692.792 L39.8841 695.6868 L41.1227 698.5739 L42.3794 701.4532 L43.6542 704.3245 L44.947 707.1878 L46.2578 710.0429 L47.5865 712.8896 L48.933 715.728 L50.2974 718.5579 L51.6795 721.3791 L53.0793 724.1916 L54.4967 726.9952 L55.9318 729.7899 L57.3843 732.5755 L58.8544 735.352 L60.3418 738.1191 L61.8467 740.8768 L63.3688 743.6251 L64.9081 746.3637 L66.4646 749.0926 L68.0383 751.8116 L69.629 754.5207 L71.2367 757.2198 L72.8613 759.9087 L74.5028 762.5873 L76.161 765.2556 L77.836 767.9134 L79.5277 770.5606 L81.236 773.1972 L82.9608 775.8229 L84.7021 778.4378 L86.4597 781.0417 L88.2337 783.6345 L90.0239 786.2161 L91.8304 788.7864 L93.6529 791.3452 L95.4915 793.8926 L97.3461 796.4284 L99.2165 798.9525 L101.1028 801.4648 L103.0048 803.9651 L104.9225 806.4535 L106.8558 808.9298 L108.8046 811.3939 L110.7688 813.8457 L112.7485 816.2851 L114.7434 818.712 L116.7535 821.1263 L118.7787 823.528 L120.819 825.9169 L122.8743 828.2929 L124.9445 830.6559 L127.0294 833.0059 L129.1291 835.3428 L131.2434 837.6664 L133.3723 839.9767 L135.5157 842.2736 L137.6734 844.5569 L139.8455 846.8267 L142.0318 849.0827 L144.2322 851.325 L146.4466 853.5534 L148.675 855.7678 L150.9173 857.9682 L153.1733 860.1545 L155.4431 862.3266 L157.7264 864.4843 L160.0233 866.6277 L162.3336 868.7566 L164.6572 870.8709 L166.9941 872.9706 L169.3441 875.0555 L171.7071 877.1257 L174.0831 879.181 L176.472 881.2213 L178.8737 883.2465 L181.288 885.2566 L183.7149 887.2515 L186.1543 889.2312 L188.6061 891.1954 L191.0702 893.1442 L193.5465 895.0775 L196.0349 896.9952 L198.5352 898.8972 L201.0475 900.7835 L203.5716 902.6539 L206.1074 904.5085 L208.6548 906.3471 L211.2136 908.1696 L213.7839 909.9761 L216.3655 911.7663 L218.9583 913.5403 L221.5622 915.2979 L224.1771 917.0392 L226.8028 918.764 L229.4394 920.4723 L232.0866 922.164 L234.7444 923.839 L237.4127 925.4972 L240.0913 927.1387 L242.7802 928.7633 L245.4793 930.371 L248.1884 931.9617 L250.9074 933.5354 L253.6363 935.0919 L256.3749 936.6312 L259.1232 938.1533 L261.8809 939.6582 L264.648 941.1456 L267.4245 942.6157 L270.2101 944.0682 L273.0048 945.5033 L275.8084 946.9207 L278.6209 948.3205 L281.4421 949.7026 L284.272 951.067 L287.1104 952.4135 L289.9571 953.7422 L292.8122 955.053 L295.6755 956.3458 L298.5468 957.6206 L301.4261 958.8773 L304.3132 960.1159 L307.208 961.3364 L310.1105 962.5386 L313.0204 963.7226 L315.9377 964.8882 L318.8623 966.0356 L321.7941 967.1645 L324.7328 968.2749 L327.6785 969.3669 L330.631 970.4404 L333.5902 971.4953 L336.556 972.5315 L339.5282 973.5492 L342.5067 974.5481 L345.4915 975.5283 L348.4824 976.4897 L351.4792 977.4323 L354.4819 978.356 L357.4904 979.2609 L360.5044 980.1468 L363.524 981.0138 L366.549 981.8618 L369.5792 982.6908 L372.6146 983.5007 L375.6551 984.2916 L378.7004 985.0633 L381.7505 985.8159 L384.8053 986.5493 L387.8646 987.2634 L390.9284 987.9584 L393.9964 988.6341 L397.0687 989.2905 L400.145 989.9275 L403.2253 990.5453 L406.3093 991.1436 L409.3971 991.7226 L412.4885 992.2822 L415.5833 992.8223 L418.6814 993.343 L421.7828 993.8442 L424.8872 994.3259 L427.9946 994.7881 L431.1049 995.2307 L434.2178 995.6538 L437.3334 996.0574 L440.4514 996.4413 L443.5718 996.8057 L446.6944 997.1504 L449.8191 997.4755 L452.9458 997.781 L456.0744 998.0668 L459.2047 998.333 L462.3366 998.5795 L465.47 998.8063 L468.6047 999.0134 L471.7407 999.2008 L474.8778 999.3685 L478.0159 999.5165 L481.1549 999.6447 L484.2946 999.7533 L487.435 999.8421 L490.5758 999.9112 L493.717 999.9605 L496.8584 999.9901 L500.0 1000.0 L503.1416 999.9901 L506.283 999.9605 L509.4242 999.9112 L512.565 999.8421 L515.7054 999.7533 L518.8451 999.6447 L521.9841 999.5165 L525.1222 999.3685 L528.2593 999.2008 L531.3953 999.0134 L534.53 998.8063 L537.6634 998.5795 L540.7953 998.333 L543.9256 998.0668 L547.0542 997.781 L550.1809 997.4755 L553.3056 997.1504 L556.4282 996.8057 L559.5486 996.4413 L562.6666 996.0574 L565.7822 995.6538 L568.8951 995.2307 L572.0054 994.7881 L575.1128 994.3259 L578.2172 993.8442 L581.3186 993.343 L584.4167 992.8223 L587.5115 992.2822 L590.6029 991.7226 L593.6907 991.1436 L596.7747 990.5453 L599.855 989.9275 L602.9313 989.2905 L606.0036 988.6341 L609.0716 987.9584 L612.1354 987.2634 L615.1947 986.5493 L618.2495 985.8159 L621.2996 985.0633 L624.3449 984.2916 L627.3854 983.5007 L630.4208 982.6908 L633.451 981.8618 L636.476 981.0138 L639.4956 980.1468 L642.5096 979.2609 L645.5181 978.356 L648.5208 977.4323 L651.5176 976.4897 L654.5085 975.5283 L657.4933 974.5481 L660.4718 973.5492 L663.444 972.5315 L666.4098 971.4953 L669.369 970.4404 L672.3215 969.3669 L675.2672 968.2749 L678.2059 967.1645 L681.1377 966.0356 L684.0623 964.8882 L686.9796 963.7226 L689.8895 962.5386 L692.792 961.3364 L695.6868 960.1159 L698.5739 958.8773 L701.4532 957.6206 L704.3245 956.3458 L707.1878 955.053 L710.0429 953.7422 L712.8896 952.4135 L715.728 951.067 L718.5579 949.7026 L721.3791 948.3205 L724.1916 946.9207 L726.9952 945.5033 L729.7899 944.0682 L732.5755 942.6157 L735.352 941.1456 L738.1191 939.6582 L740.8768 938.1533 L743.6251 936.6312 L746.3637 935.0919 L749.0926 933.5354 L751.8116 931.9617 L754.5207 930.371 L757.2198 928.7633 L759.9087 927.1387 L762.5873 925.4972 L765.2556 923.839 L767.9134 922.164 L770.5606 920.4723 L773.1972 918.764 L775.8229 917.0392 L778.4378 915.2979 L781.0417 913.5403 L783.6345 911.7663 L786.2161 909.9761 L788.7864 908.1696 L791.3452 906.3471 L793.8926 904.5085 L796.4284 902.6539 L798.9525 900.7835 L801.4648 898.8972 L803.9651 896.9952 L806.4535 895.0775 L808.9298 893.1442 L811.3939 891.1954 L813.8457 889.2312 L816.2851 887.2515 L818.712 885.2566 L821.1263 883.2465 L823.528 881.2213 L825.9169 879.181 L828.2929 877.1257 L830.6559 875.0555 L833.0059 872.9706 L835.3428 870.8709 L837.6664 868.7566 L839.9767 866.6277 L842.2736 864.4843 L844.5569 862.3266 L846.8267 860.1545 L849.0827 857.9682 L851.325 855.7678 L853.5534 853.5534 L855.7678 851.325 L857.9682 849.0827 L860.1545 846.8267 L862.3266 844.5569 L864.4843 842.2736 L866.6277 839.9767 L868.7566 837.6664 L870.8709 835.3428 L872.9706 833.0059 L875.0555 830.6559 L877.1257 828.2929 L879.181 825.9169 L881.2213 823.528 L883.2465 821.1263 L885.2566 818.712 L887.2515 816.2851 L889.2312 813.8457 L891.1954 811.3939 L893.1442 808.9298 L895.0775 806.4535 L896.9952 803.9651 L898.8972 801.4648 L900.7835 798.9525 L902.6539 796.4284 L904.5085 793.8926 L906.3471 791.3452 L908.1696 788.7864 L909.9761 786.2161 L911.7663 783.6345 L913.5403 781.0417 L915.2979 778.4378 L917.0392 775.8229 L918.764 773.1972 L920.4723 770.5606 L922.164 767.9134 L923.839 765.2556 L925.4972 762.5873 L927.1387 759.9087 L928.7633 757.2198 L930.371 754.5207 L931.9617 751.8116 L933.5354 749.0926 L935.0919 746.3637 L936.6312 743.6251 L938.1533 740.8768 L939.6582 738.1191 L941.1456 735.352 L942.6157 732.5755 L944.0682 729.7899 L945.5033 726.9952 L946.9207 724.1916 L948.3205 721.3791 L949.7026 718.5579 L951.067 715.728 L952.4135 712.8896 L953.7422 710.0429 L955.053 707.1878 L956.3458 704.3245 L957.6206 701.4532 L958.8773 698.5739 L960.1159 695.6868 L961.3364 692.792 L962.5386 689.8895 L963.7226 686.9796 L964.8882 684.0623 L966.0356 681.1377 L967.1645 678.2059 L968.2749 675.2672 L969.3669 672.3215 L970.4404 669.369 L971.4953 666.4098 L972.5315 663.444 L973.5492 660.4718 L974.5481 657.4933 L975.5283 654.5085 L976.4897 651.5176 L977.4323 648.5208 L978.356 645.5181 L979.2609 642.5096 L980.1468 639.4956 L981.0138 636.476 L981.8618 633.451 L982.6908 630.4208 L983.5007 627.3854 L984.2916 624.3449 L985.0633 621.2996 L985.8159 618.2495 L986.5493 615.1947 L987.2634 612.1354 L987.9584 609.0716 L988.6341 606.0036 L989.2905 602.9313 L989.9275 599.855 L990.5453 596.7747 L991.1436 593.6907 L991.7226 590.6029 L992.2822 587.5115 L992.8223 584.4167 L993.343 581.3186 L993.8442 578.2172 L994.3259 575.1128 L994.7881 572.0054 L995.2307 568.8951 L995.6538 565.7822 L996.0574 562.6666 L996.4413 559.5486 L996.8057 556.4282 L997.1504 553.3056 L997.4755 550.1809 L997.781 547.0542 L998.0668 543.9256 L998.333 540.7953 L998.5795 537.6634 L998.8063 534.53 L999.0134 531.3953 L999.2008 528.2593 L999.3685 525.1222 L999.5165 521.9841 L999.6447 518.8451 L999.7533 515.7054 L999.8421 512.565 L999.9112 509.4242 L999.9605 506.283 L999.9901 503.1416" stroke-dasharray="" fill="none" fill-opacity="1.0" stroke="#ffffff" stroke-opacity="1.0" stroke-width="0.0px" stroke-linecap="butt" stroke-linejoin="miter" stroke-dashoffset="0.0px"/>
</g>
</svg>