<?xml version="1.0" standalone="no"?>
<!DOCTYPE svg PUBLIC "-//W3C//DTD SVG 1.1//EN" "http://www.w3.org/Graphics/SVG/1.1/DTD/svg11.dtd">
<svg width="1600px" height="1600px" version="1.1" xmlns="http://www.w3.org/2000/svg" xmlns:inkscape="http://www.inkscape.org/namespaces/inkscape">
<rect x="0" y="0" width="1600px" height="1600px" fill="#ffffff"/>
<g id="layer" inkscape:groupmode="layer" inkscape:label="layer">
<path d="M1561.9048 800.0 L800.0 1561.9048 L38.0952 800.0 L800.0 38.0952 L1561.9048 800.0" stroke-dasharray="" fill="none" fill-opacity="1.0" stroke="#ff6464" stroke-opacity="1.0" stroke-width="12.0px" stroke-linecap="butt" stroke-linejoin="miter" stroke-dashoffset="0.0px"/>
<path d="M1485.7143 800.0 L800.0 1485.7143 L114.2857 800.0 L800.0 114.2857 L1485.7143 800.0" stroke-dasharray="" fill="none" fill-opacity="1.0" stroke="#ff6464" stroke-opacity="1.0" stroke-width="12.0px" stroke-linecap="butt" stroke-linejoin="miter" stroke-dashoffset="0.0px"/>
<path d="M1409.5238 800.0 L800.0 1409.5238 L190.4762 800.0 L800.0 190.4762 L1409.5238 800.0" stroke-dasharray="" fill="none" fill-opacity="1.0" stroke="#ff6464" stroke-opacity="1.0" stroke-width="12.0px" stroke-linecap="butt" stroke-linejoin="miter" stroke-dashoffset="0.0px"/>
<path d="M1333.3333 800.0 L800.0 1333.3333 L266.6667 800.0 L800.0 266.6667 L1333.3333 800.0" stroke-dasharray="" fill="none" fill-opacity="1.0" stroke="#ff6464" stroke-opacity="1.0" stroke-width="12.0px" stroke-linecap="butt" stroke-linejoin="miter" stroke-dashoffset="0.0px"/>
<path d="M1257.1429 800.0 L800.0 1257.1429 L342.8571 800.0 L800.0 342.8571 L1257.1429 800.0" stroke-dasharray="" fill="none" fill-opacity="1.0" stroke="#ff6464" stroke-opacity="1.0" stroke-width="12.0px" stroke-linecap="butt" stroke-linejoin="miter" stroke-dashoffset="0.0px"/>
<path d="M1180.9524 800.0 L800.0 1180.9524 L419.0476 800.0 L800.0 419.0476 L1180.9524 800.0" stroke-dasharray="" fill="none" fill-opacity="1.0" stroke="#ff6464" stroke-opacity="1.0" stroke-width="12.0px" stroke-linecap="butt" stroke-linejoin="miter" stroke-dashoffset="0.0px"/>
<path d="M1104.7619 800.0 L800.0 1104.7619 L495.2381 800.0 L800.0 495.2381 L1104.7619 800.0" stroke-dasharray="" fill="none" fill-opacity="1.0" stroke="#ff6464" stroke-opacity="1.0" stroke-width="12.0px" stroke-linecap="butt" stroke-linejoin="miter" stroke-dashoffset="0.0px"/>
</g>
</svg>