<?xml version="1.0" standalone="no"?>
<!DOCTYPE svg PUBLIC "-//W3C//DTD SVG 1.1//EN" "http://www.w3.org/Graphics/SVG/1.1/DTD/svg11.dtd">
<svg width="1024px" height="1024px" version="1.1" xmlns="http://www.w3.org/2000/svg" xmlns:inkscape="http://www.inkscape.org/namespaces/inkscape">
<rect x="0" y="0" width="1024px" height="1024px" fill="#ff6464"/>
<g id="road" inkscape:groupmode="layer" inkscape:label="road">
<path d="M85.3333 0.0 L0.0 170.6667 L85.3333 341.3333" stroke-dasharray="" fill="none" fill-opacity="1.0" stroke="#ffffff" stroke-opacity="0.7" stroke-width="1.0px" stroke-linecap="butt" stroke-linejoin="miter" stroke-dashoffset="0.0px"/>
<path d="M170.6667 0.0 L256.0 170.6667 L170.6667 341.3333" stroke-dasharray="" fill="none" fill-opacity="1.0" stroke="#ffffff" stroke-opacity="0.7" stroke-width="1.0px" stroke-linecap="butt" stroke-linejoin="miter" stroke-dashoffset="0.0px"/>
<path d="M0.0 938.6667 L1024.0 938.6667" stroke-dasharray="" fill="none" fill-opacity="1.0" stroke="#ffffff" stroke-opacity="0.7" stroke-width="1.0px" stroke-linecap="butt" stroke-linejoin="miter" stroke-dashoffset="0.0px"/>
<path d="M0.0 1024.0 L85.3333 1024.0 L341.3333 1024.0 L768.0 1024.0 L1024.0 1024.0" stroke-dasharray="" fill="none" fill-opacity="1.0" stroke="#ffffff" stroke-opacity="0.7" stroke-width="1.0px" stroke-linecap="butt" stroke-linejoin="miter" stroke-dashoffset="0.0px"/>
<path d="M426.6667 0.0 L341.3333 170.6667 L341.3333 341.3333" stroke-dasharray="" fill="none" fill-opacity="1.0" stroke="#ffffff" stroke-opacity="0.7" stroke-width="1.0px" stroke-linecap="butt" stroke-linejoin="miter" stroke-dashoffset="0.0px"/>
<path d="M512.0 0.0 L597.3333 170.6667 L597.3333 341.3333" stroke-dasharray="" fill="none" fill-opacity="1.0" stroke="#ffffff" stroke-opacity="0.7" stroke-width="1.0px" stroke-linecap="butt" stroke-linejoin="miter" stroke-dashoffset="0.0px"/>
<path d="M341.3333 426.6667 L341.3333 597.3333 L426.6667 768.0" stroke-dasharray="" fill="none" fill-opacity="1.0" stroke="#ffffff" stroke-opacity="0.7" stroke-width="1.0px" stroke-linecap="butt" stroke-linejoin="miter" stroke-dashoffset="0.0px"/>
<path d="M597.3333 426.6667 L597.3333 597.3333 L512.0 768.0" stroke-dasharray="" fill="none" fill-opacity="1.0" stroke="#ffffff" stroke-opacity="0.7" stroke-width="1.0px" stroke-linecap="butt" stroke-linejoin="miter" stroke-dashoffset="0.0px"/>
<path d="M772.7714 0.0271 L824.7455 6.6315 L876.7194 22.9974 L919.8259 47.1879 L955.0501 79.2029 L982.6381 116.8326 L1002.3439 156.4077 L1014.1674 196.0 L1018.1085 245.3623" stroke-dasharray="" fill="none" fill-opacity="1.0" stroke="#ffffff" stroke-opacity="0.7" stroke-width="1.0px" stroke-linecap="butt" stroke-linejoin="miter" stroke-dashoffset="0.0px"/>
<path d="M772.736 672.0289 L824.71 665.4245 L876.684 649.0586 L919.7905 624.8681 L955.0147 592.8531 L982.6027 555.2234 L1002.3085 515.6483 L1014.132 476.0561 L1018.0731 426.6938" stroke-dasharray="" fill="none" fill-opacity="1.0" stroke="#ffffff" stroke-opacity="0.7" stroke-width="1.0px" stroke-linecap="butt" stroke-linejoin="miter" stroke-dashoffset="0.0px"/>
<path d="M687.4381 85.3604 L739.4121 91.9648 L791.3861 108.3307 L834.4926 132.5212 L869.7167 164.5363 L897.3047 202.1659 L917.0106 241.7411 L928.834 281.3333 L932.7752 330.6956 L932.7398 341.3604 L928.7986 390.7227 L916.9752 430.3149 L897.2693 469.8901 L869.6813 507.5198 L834.4572 539.5348 L791.3507 563.7253 L739.3767 580.0912 L687.4027 586.6956" stroke-dasharray="" fill="none" fill-opacity="1.0" stroke="#ffffff" stroke-opacity="0.7" stroke-width="1.0px" stroke-linecap="butt" stroke-linejoin="miter" stroke-dashoffset="0.0px"/>
<path d="M686.3791 815.3617 L723.6937 786.7022 L764.8553 774.2416 L814.0989 789.2952 L850.6406 812.8695 L889.1083 839.1376 L940.2726 849.6284 L986.4352 836.2332 L1020.2876 802.901" stroke-dasharray="" fill="none" fill-opacity="1.0" stroke="#ffffff" stroke-opacity="0.7" stroke-width="1.0px" stroke-linecap="butt" stroke-linejoin="miter" stroke-dashoffset="0.0px"/>
<path d="M0.0 682.6667 L34.1333 768.0 L68.2667 682.6667 L102.4 768.0 L136.5333 682.6667 L170.6667 768.0 L204.8 682.6667 L238.9333 768.0 L273.0667 682.6667 L307.2 768.0" stroke-dasharray="" fill="none" fill-opacity="1.0" stroke="#ffffff" stroke-opacity="0.7" stroke-width="1.0px" stroke-linecap="butt" stroke-linejoin="miter" stroke-dashoffset="0.0px"/>
</g>
</svg>