<?xml version="1.0" standalone="no"?>
<!DOCTYPE svg PUBLIC "-//W3C//DTD SVG 1.1//EN" "http://www.w3.org/Graphics/SVG/1.1/DTD/svg11.dtd">
<svg width="1600px" height="1200px" version="1.1" xmlns="http://www.w3.org/2000/svg" xmlns:inkscape="http://www.inkscape.org/namespaces/inkscape">
<rect x="0" y="0" width="1600px" height="1200px" fill="#000000"/>
<g id="frame" inkscape:groupmode="layer" inkscape:label="frame">
<path d="M360.0 1200.0 L1240.0 1200.0 L1240.0 0.0 L360.0 0.0 L360.0 1200.0" stroke-dasharray="" fill="#808080" fill-opacity="1.0" stroke="none" stroke-opacity="1.0" stroke-width="0.0px" stroke-linecap="butt" stroke-linejoin="miter" stroke-dashoffset="0.0px"/>
</g>
<g id="bug" inkscape:groupmode="layer" inkscape:label="bug">
<path d="M1200.0 760.0 L400.0 760.0 L400.0 1160.0 L1200.0 1160.0 L1200.0 760.0 M480.0 840.0 L720.0 840.0 L720.0 1080.0 L480.0 1080.0 L480.0 840.0 M880.0 840.0 L1120.0 840.0 L1120.0 1080.0 L880.0 1080.0 L880.0 840.0" stroke-dasharray="" fill="#800000" fill-opacity="1.0" stroke="#008000" stroke-opacity="1.0" stroke-width="2.0px" stroke-linecap="butt" stroke-linejoin="miter" stroke-dashoffset="0.0px"/>
<path d="M400.0 40.0 L400.0 440.0 L1200.0 440.0 L1200.0 40.0 L400.0 40.0 M480.0 120.0 L720.0 120.0 L720.0 360.0 L480.0 360.0 L480.0 120.0 M1120.0 360.0 L880.0 360.0 L880.0 120.0 L1120.0 120.0 L1120.0 360.0" stroke-dasharray="" fill="#800000" fill-opacity="1.0" stroke="#008000" stroke-opacity="1.0" stroke-width="2.0px" stroke-linecap="butt" stroke-linejoin="miter" stroke-dashoffset="0.0px"/>
<path d="M425.625 483.1612 L701.25 480.4417 L695.625 716.8388 L422.8125 714.1151 L422.8125 546.6831" stroke-dasharray="" fill="#800000" fill-opacity="1.0" stroke="#008000" stroke-opacity="1.0" stroke-width="2.0px" stroke-linecap="butt" stroke-linejoin="miter" stroke-dashoffset="0.0px"/>
<path d="M850.3125 480.4417 L850.3125 711.3872 L1137.1875 708.6554 L1140.0 477.7265 L917.8125 480.4417" stroke-dasharray="" fill="#800000" fill-opacity="1.0" stroke="#008000" stroke-opacity="1.0" stroke-width="2.0px" stroke-linecap="butt" stroke-linejoin="miter" stroke-dashoffset="0.0px"/>
</g>
</svg>