<?xml version="1.0" standalone="no"?>
<!DOCTYPE svg PUBLIC "-//W3C//DTD SVG 1.1//EN" "http://www.w3.org/Graphics/SVG/1.1/DTD/svg11.dtd">
<svg width="1200px" height="800px" version="1.1" xmlns="http://www.w3.org/2000/svg" xmlns:inkscape="http://www.inkscape.org/namespaces/inkscape">
<g id="multi" inkscape:groupmode="layer" inkscape:label="multi">
<path d="M574.8554 0.0002 L479.8029 10.9509 L479.461 38.1443 L455.6483 38.6777 L460.2227 64.6945 L411.5613 42.3605 L397.4871 96.8823 L363.0432 45.0681 L329.7257 90.1835 L282.8067 89.1205 L269.088 101.5832 L287.955 144.4052 L258.805 156.4242 L282.4401 179.0331 L279.2683 223.1003 L318.6215 232.1756 L310.923 262.6545 L380.9745 211.464 L458.9316 245.2237 L515.8176 372.3157 L777.9171 552.5267 L809.8109 635.7813 L775.9088 701.6731 L800.6298 708.0418 L831.1848 643.8866 L864.1307 631.908 L863.0945 600.3263 L824.9686 572.2227 L849.4667 521.3533 L903.7228 533.5488 L931.8549 570.3976 L941.195 544.5895 L912.4733 506.3349 L793.1706 442.8957 L805.1884 409.3818 L724.7289 396.1487 L683.2399 350.7508 L660.5748 281.2747 L588.6584 226.1049 L581.6134 188.3733 L598.4608 168.5254 L576.768 143.9071 L583.6695 127.2328 L635.997 101.7985 L666.0419 116.7433 L677.6454 113.3478 L652.446 82.5842 L663.3004 68.8166 L646.8833 58.8848 L666.1401 39.7939 L592.8025 26.0777 L574.8554 0.0002 M593.8705 254.1017 L591.382 249.1747 L596.7872 246.8638 L593.8705 254.1017 M593.0628 410.2333 L593.4394 409.8577 L593.7267 410.3637 L593.0628 410.2333 M591.7825 131.117 L588.9454 130.5039 L586.0923 137.3804 L591.7825 131.117 M443.8216 322.2261 L443.1043 318.9974 L441.5263 319.9137 L441.6858 324.1662 L443.8216 322.2261 M478.0743 337.118 L458.6129 342.7451 L477.0382 347.7151 L478.0743 337.118 M457.8319 358.3753 L458.5969 356.7088 L457.4653 354.7377 L457.8319 358.3753 M505.3139 377.5789 L503.1303 372.7039 L502.4768 374.9913 L505.3139 377.5789 M470.9337 378.1823 L471.4756 376.1772 L469.5789 375.6595 L470.9337 378.1823 M424.8383 468.2115 L349.0488 485.9387 L369.9447 564.8561 L361.3537 632.2565 L387.3022 638.1156 L396.4352 609.4957 L428.0421 618.0738 L442.7696 515.2756 L424.8383 468.2115 M357.4646 474.6209 L356.4285 470.1372 L350.3558 479.9451 L357.4646 474.6209 M622.8475 488.1946 L624.2181 484.5881 L622.0505 485.6224 L622.8475 488.1946 M679.4942 502.0267 L679.303 498.9144 L673.8997 499.5032 L679.4942 502.0267 M694.3653 512.6746 L693.6003 514.4791 L697.314 513.0526 L694.3653 512.6746 M354.7709 622.2856 L355.3765 615.1544 L350.8499 617.0253 L354.7709 622.2856 M751.9207 646.1151 L753.3871 643.4979 L750.5818 644.6433 L751.9207 646.1151 M634.8494 652.0199 L636.2839 650.4677 L634.2119 650.2433 L634.8494 652.0199 M732.1086 663.6875 L732.1246 660.2637 L727.8849 661.018 L732.1086 663.6875 M737.0975 669.9801 L737.5916 664.7065 L734.627 664.7674 L737.0975 669.9801 M739.0261 675.9391 L737.3047 671.038 L736.2847 673.3573 L739.0261 675.9391 M770.0114 692.5418 L669.0224 704.6665 L643.0739 686.6009 L591.7506 717.349 L744.3338 799.9997 L757.834 774.212 L744.6366 740.2946 L770.0114 692.5418 M571.7633 705.8998 L570.9185 703.3114 L569.2449 703.4736 L571.7633 705.8998 M587.8456 709.3553 L586.9849 707.2942 L583.0957 707.1527 L587.8456 709.3553 M568.432 793.619 L570.2968 789.4203 L563.5546 787.0711 L568.432 793.619" stroke-dasharray="" fill="none" fill-opacity="1.0" stroke="#000000" stroke-opacity="1.0" stroke-width="1.0px" stroke-linecap="butt" stroke-linejoin="miter" stroke-dashoffset="0.0px"/>
</g>
</svg>